<svg width="165" height="50" viewBox="0 0 165 50" fill="none" xmlns="http://www.w3.org/2000/svg">
<rect width="165" height="50" rx="2" fill="#553DE8"/>
<path d="M48.4836 26.98C47.9396 27.74 47.1756 28.12 46.1916 28.12C45.2076 28.12 44.4436 27.74 43.8996 26.98C43.3556 26.212 43.0836 25.152 43.0836 23.8C43.0836 22.44 43.3556 21.38 43.8996 20.62C44.4436 19.86 45.2076 19.48 46.1916 19.48C47.1756 19.48 47.9396 19.86 48.4836 20.62C49.0356 21.38 49.3116 22.44 49.3116 23.8C49.3116 25.152 49.0356 26.212 48.4836 26.98ZM45.0516 25.936C45.3316 26.448 45.7116 26.704 46.1916 26.704C46.6716 26.704 47.0516 26.448 47.3316 25.936C47.6116 25.424 47.7516 24.712 47.7516 23.8C47.7516 22.888 47.6116 22.18 47.3316 21.676C47.0516 21.164 46.6716 20.908 46.1916 20.908C45.7116 20.908 45.3316 21.164 45.0516 21.676C44.7796 22.18 44.6436 22.888 44.6436 23.8C44.6436 24.712 44.7796 25.424 45.0516 25.936ZM50.6151 27.028C50.5351 26.924 50.5391 26.82 50.6271 26.716L51.2631 26.104C51.3751 26.008 51.4791 26.008 51.5751 26.104C52.0231 26.552 52.5311 26.776 53.0991 26.776C53.4751 26.776 53.7871 26.672 54.0351 26.464C54.2831 26.248 54.4071 25.98 54.4071 25.66C54.4071 25.26 54.2591 24.948 53.9631 24.724C53.6751 24.5 53.2551 24.388 52.7031 24.388H52.0071C51.8551 24.388 51.7791 24.308 51.7791 24.148V23.368C51.7791 23.2 51.8551 23.116 52.0071 23.116H52.7031C53.1991 23.116 53.5791 23.012 53.8431 22.804C54.1071 22.596 54.2391 22.324 54.2391 21.988C54.2391 21.66 54.1191 21.392 53.8791 21.184C53.6391 20.968 53.3591 20.86 53.0391 20.86C52.5271 20.86 52.1111 21.056 51.7911 21.448C51.6871 21.568 51.5751 21.572 51.4551 21.46L50.8551 20.896C50.7431 20.808 50.7431 20.7 50.8551 20.572C51.4311 19.844 52.2031 19.48 53.1711 19.48C53.9151 19.48 54.5391 19.688 55.0431 20.104C55.5551 20.52 55.8111 21.068 55.8111 21.748C55.8111 22.228 55.6831 22.628 55.4271 22.948C55.1791 23.26 54.8831 23.496 54.5391 23.656V23.704C54.9311 23.856 55.2751 24.104 55.5711 24.448C55.8751 24.792 56.0271 25.212 56.0271 25.708C56.0271 26.412 55.7631 26.992 55.2351 27.448C54.7151 27.896 54.0311 28.12 53.1831 28.12C52.1111 28.12 51.2551 27.756 50.6151 27.028ZM57.3065 27.028C57.2265 26.924 57.2305 26.82 57.3185 26.716L57.9545 26.104C58.0665 26.008 58.1705 26.008 58.2665 26.104C58.7145 26.552 59.2225 26.776 59.7905 26.776C60.1665 26.776 60.4785 26.672 60.7265 26.464C60.9745 26.248 61.0985 25.98 61.0985 25.66C61.0985 25.26 60.9505 24.948 60.6545 24.724C60.3665 24.5 59.9465 24.388 59.3945 24.388H58.6985C58.5465 24.388 58.4705 24.308 58.4705 24.148V23.368C58.4705 23.2 58.5465 23.116 58.6985 23.116H59.3945C59.8905 23.116 60.2705 23.012 60.5345 22.804C60.7985 22.596 60.9305 22.324 60.9305 21.988C60.9305 21.66 60.8105 21.392 60.5705 21.184C60.3305 20.968 60.0505 20.86 59.7305 20.86C59.2185 20.86 58.8025 21.056 58.4825 21.448C58.3785 21.568 58.2665 21.572 58.1465 21.46L57.5465 20.896C57.4345 20.808 57.4345 20.7 57.5465 20.572C58.1225 19.844 58.8945 19.48 59.8625 19.48C60.6065 19.48 61.2305 19.688 61.7345 20.104C62.2465 20.52 62.5025 21.068 62.5025 21.748C62.5025 22.228 62.3745 22.628 62.1185 22.948C61.8705 23.26 61.5745 23.496 61.2305 23.656V23.704C61.6225 23.856 61.9665 24.104 62.2625 24.448C62.5665 24.792 62.7185 25.212 62.7185 25.708C62.7185 26.412 62.4545 26.992 61.9265 27.448C61.4065 27.896 60.7225 28.12 59.8745 28.12C58.8025 28.12 57.9465 27.756 57.3065 27.028ZM69.5539 26.98C69.0099 27.74 68.2459 28.12 67.2619 28.12C66.2779 28.12 65.5139 27.74 64.9699 26.98C64.4259 26.212 64.1539 25.152 64.1539 23.8C64.1539 22.44 64.4259 21.38 64.9699 20.62C65.5139 19.86 66.2779 19.48 67.2619 19.48C68.2459 19.48 69.0099 19.86 69.5539 20.62C70.1059 21.38 70.3819 22.44 70.3819 23.8C70.3819 25.152 70.1059 26.212 69.5539 26.98ZM66.1219 25.936C66.4019 26.448 66.7819 26.704 67.2619 26.704C67.7419 26.704 68.1219 26.448 68.4019 25.936C68.6819 25.424 68.8219 24.712 68.8219 23.8C68.8219 22.888 68.6819 22.18 68.4019 21.676C68.1219 21.164 67.7419 20.908 67.2619 20.908C66.7819 20.908 66.4019 21.164 66.1219 21.676C65.8499 22.18 65.7139 22.888 65.7139 23.8C65.7139 24.712 65.8499 25.424 66.1219 25.936ZM80.1242 26.98C79.5802 27.74 78.8162 28.12 77.8322 28.12C76.8482 28.12 76.0842 27.74 75.5402 26.98C74.9962 26.212 74.7242 25.152 74.7242 23.8C74.7242 22.44 74.9962 21.38 75.5402 20.62C76.0842 19.86 76.8482 19.48 77.8322 19.48C78.8162 19.48 79.5802 19.86 80.1242 20.62C80.6762 21.38 80.9522 22.44 80.9522 23.8C80.9522 25.152 80.6762 26.212 80.1242 26.98ZM76.6922 25.936C76.9722 26.448 77.3522 26.704 77.8322 26.704C78.3122 26.704 78.6922 26.448 78.9722 25.936C79.2522 25.424 79.3922 24.712 79.3922 23.8C79.3922 22.888 79.2522 22.18 78.9722 21.676C78.6922 21.164 78.3122 20.908 77.8322 20.908C77.3522 20.908 76.9722 21.164 76.6922 21.676C76.4202 22.18 76.2842 22.888 76.2842 23.8C76.2842 24.712 76.4202 25.424 76.6922 25.936ZM82.2677 26.212C82.2037 26.212 82.1477 26.188 82.0997 26.14C82.0517 26.092 82.0277 26.036 82.0277 25.972V25.192C82.0277 25.024 82.0797 24.884 82.1837 24.772L86.4317 19.612C86.5117 19.524 86.6157 19.48 86.7437 19.48H87.3317C87.3957 19.48 87.4517 19.504 87.4997 19.552C87.5477 19.6 87.5717 19.656 87.5717 19.72V24.928H88.5557C88.7157 24.928 88.7957 25 88.7957 25.144V25.972C88.7957 26.036 88.7717 26.092 88.7237 26.14C88.6837 26.188 88.6277 26.212 88.5557 26.212H87.5717L87.5837 27.76C87.5837 27.824 87.5597 27.88 87.5117 27.928C87.4637 27.976 87.4077 28 87.3437 28H86.3237C86.2597 28 86.2037 27.976 86.1557 27.928C86.1077 27.88 86.0837 27.824 86.0837 27.76V26.212H82.2677ZM83.6837 24.94V24.964H86.1317V21.976H86.1077L83.6837 24.94ZM91.144 27.76V21.844L90.064 22.084C90 22.1 89.944 22.092 89.896 22.06C89.848 22.02 89.82 21.972 89.812 21.916L89.74 21.316C89.732 21.212 89.772 21.124 89.86 21.052L91.396 19.756C91.508 19.652 91.648 19.6 91.816 19.6H92.44C92.504 19.6 92.556 19.624 92.596 19.672C92.644 19.712 92.668 19.764 92.668 19.828V27.76C92.668 27.824 92.644 27.88 92.596 27.928C92.556 27.976 92.504 28 92.44 28H91.384C91.312 28 91.252 27.976 91.204 27.928C91.164 27.88 91.144 27.824 91.144 27.76ZM98.2514 27.316C98.1874 27.156 98.2634 27.036 98.4794 26.956C98.6634 26.9 98.8714 26.816 99.1034 26.704C99.3354 26.592 99.5994 26.444 99.8954 26.26C100.191 26.068 100.459 25.832 100.699 25.552C100.939 25.264 101.103 24.964 101.191 24.652C101.063 24.732 100.859 24.812 100.579 24.892C100.307 24.964 100.043 25 99.7874 25C99.1154 25 98.5274 24.76 98.0234 24.28C97.5194 23.8 97.2674 23.144 97.2674 22.312C97.2674 21.536 97.5434 20.872 98.0954 20.32C98.6474 19.76 99.3034 19.48 100.063 19.48C100.991 19.48 101.711 19.804 102.223 20.452C102.743 21.1 103.003 21.912 103.003 22.888C103.003 23.568 102.891 24.204 102.667 24.796C102.443 25.38 102.175 25.86 101.863 26.236C101.551 26.604 101.191 26.936 100.783 27.232C100.375 27.528 100.023 27.744 99.7274 27.88C99.4394 28.016 99.1594 28.128 98.8874 28.216C98.7114 28.272 98.5954 28.216 98.5394 28.048L98.2514 27.316ZM100.087 23.788C100.455 23.788 100.763 23.676 101.011 23.452C101.267 23.228 101.435 22.98 101.515 22.708C101.515 22.236 101.391 21.812 101.143 21.436C100.895 21.06 100.539 20.872 100.075 20.872C99.6914 20.872 99.3594 21.02 99.0794 21.316C98.7994 21.604 98.6594 21.944 98.6594 22.336C98.6594 22.736 98.7994 23.08 99.0794 23.368C99.3594 23.648 99.6954 23.788 100.087 23.788ZM104.24 27.028C104.16 26.924 104.164 26.82 104.252 26.716L104.888 26.104C105 26.008 105.104 26.008 105.2 26.104C105.648 26.552 106.156 26.776 106.724 26.776C107.1 26.776 107.412 26.672 107.66 26.464C107.908 26.248 108.032 25.98 108.032 25.66C108.032 25.26 107.884 24.948 107.588 24.724C107.3 24.5 106.88 24.388 106.328 24.388H105.632C105.48 24.388 105.404 24.308 105.404 24.148V23.368C105.404 23.2 105.48 23.116 105.632 23.116H106.328C106.824 23.116 107.204 23.012 107.468 22.804C107.732 22.596 107.864 22.324 107.864 21.988C107.864 21.66 107.744 21.392 107.504 21.184C107.264 20.968 106.984 20.86 106.664 20.86C106.152 20.86 105.736 21.056 105.416 21.448C105.312 21.568 105.2 21.572 105.08 21.46L104.48 20.896C104.368 20.808 104.368 20.7 104.48 20.572C105.056 19.844 105.828 19.48 106.796 19.48C107.54 19.48 108.164 19.688 108.668 20.104C109.18 20.52 109.436 21.068 109.436 21.748C109.436 22.228 109.308 22.628 109.052 22.948C108.804 23.26 108.508 23.496 108.164 23.656V23.704C108.556 23.856 108.9 24.104 109.196 24.448C109.5 24.792 109.652 25.212 109.652 25.708C109.652 26.412 109.388 26.992 108.86 27.448C108.34 27.896 107.656 28.12 106.808 28.12C105.736 28.12 104.88 27.756 104.24 27.028ZM111.015 24.712C111.015 24.032 111.127 23.4 111.351 22.816C111.575 22.224 111.839 21.744 112.143 21.376C112.455 21.008 112.819 20.676 113.235 20.38C113.651 20.076 114.003 19.856 114.291 19.72C114.579 19.584 114.859 19.472 115.131 19.384C115.315 19.336 115.431 19.392 115.479 19.552L115.767 20.284C115.839 20.46 115.763 20.58 115.539 20.644C115.355 20.7 115.147 20.784 114.915 20.896C114.683 21.008 114.419 21.16 114.123 21.352C113.827 21.536 113.559 21.772 113.319 22.06C113.079 22.34 112.915 22.64 112.827 22.96C112.947 22.88 113.143 22.804 113.415 22.732C113.695 22.652 113.967 22.612 114.231 22.612C114.903 22.612 115.491 22.852 115.995 23.332C116.499 23.804 116.751 24.456 116.751 25.288C116.751 26.064 116.475 26.732 115.923 27.292C115.371 27.844 114.715 28.12 113.955 28.12C113.027 28.12 112.303 27.796 111.783 27.148C111.271 26.5 111.015 25.688 111.015 24.712ZM113.943 26.74C114.343 26.74 114.679 26.604 114.951 26.332C115.223 26.052 115.359 25.696 115.359 25.264C115.359 24.856 115.219 24.512 114.939 24.232C114.667 23.952 114.331 23.812 113.931 23.812C113.563 23.812 113.251 23.924 112.995 24.148C112.747 24.372 112.583 24.62 112.503 24.892C112.503 25.372 112.627 25.8 112.875 26.176C113.123 26.552 113.479 26.74 113.943 26.74ZM118.036 25.756C118.036 25.26 118.184 24.84 118.48 24.496C118.776 24.144 119.128 23.876 119.536 23.692V23.644C119.2 23.5 118.904 23.26 118.648 22.924C118.392 22.58 118.264 22.188 118.264 21.748C118.264 21.068 118.52 20.52 119.032 20.104C119.544 19.688 120.18 19.48 120.94 19.48C121.724 19.48 122.376 19.688 122.896 20.104C123.416 20.52 123.676 21.068 123.676 21.748C123.676 22.18 123.544 22.564 123.28 22.9C123.024 23.236 122.732 23.48 122.404 23.632V23.692C122.828 23.868 123.184 24.132 123.472 24.484C123.76 24.836 123.904 25.26 123.904 25.756C123.904 26.444 123.632 27.012 123.088 27.46C122.552 27.9 121.836 28.12 120.94 28.12C120.068 28.12 119.364 27.896 118.828 27.448C118.3 27 118.036 26.436 118.036 25.756ZM120.976 22.972C121.344 22.884 121.62 22.736 121.804 22.528C121.996 22.32 122.092 22.08 122.092 21.808C122.092 21.512 121.984 21.264 121.768 21.064C121.56 20.856 121.284 20.752 120.94 20.752C120.62 20.752 120.356 20.856 120.148 21.064C119.948 21.264 119.848 21.512 119.848 21.808C119.848 22.4 120.224 22.788 120.976 22.972ZM119.68 25.72C119.68 26.064 119.796 26.34 120.028 26.548C120.268 26.756 120.584 26.86 120.976 26.86C121.36 26.86 121.668 26.756 121.9 26.548C122.14 26.34 122.26 26.064 122.26 25.72C122.26 25.432 122.144 25.168 121.912 24.928C121.688 24.68 121.376 24.508 120.976 24.412C120.576 24.508 120.26 24.68 120.028 24.928C119.796 25.168 119.68 25.432 119.68 25.72Z" fill="white"/>
</svg>
