<svg width="160" height="40" viewBox="0 0 160 40" fill="none" xmlns="http://www.w3.org/2000/svg">
<rect width="160" height="40" rx="2" fill="#553DE8"/>
<path d="M43.1867 22.98C42.6427 23.74 41.8787 24.12 40.8947 24.12C39.9107 24.12 39.1467 23.74 38.6027 22.98C38.0587 22.212 37.7867 21.152 37.7867 19.8C37.7867 18.44 38.0587 17.38 38.6027 16.62C39.1467 15.86 39.9107 15.48 40.8947 15.48C41.8787 15.48 42.6427 15.86 43.1867 16.62C43.7387 17.38 44.0147 18.44 44.0147 19.8C44.0147 21.152 43.7387 22.212 43.1867 22.98ZM39.7547 21.936C40.0347 22.448 40.4147 22.704 40.8947 22.704C41.3747 22.704 41.7547 22.448 42.0347 21.936C42.3147 21.424 42.4547 20.712 42.4547 19.8C42.4547 18.888 42.3147 18.18 42.0347 17.676C41.7547 17.164 41.3747 16.908 40.8947 16.908C40.4147 16.908 40.0347 17.164 39.7547 17.676C39.4827 18.18 39.3467 18.888 39.3467 19.8C39.3467 20.712 39.4827 21.424 39.7547 21.936ZM45.3182 23.028C45.2382 22.924 45.2422 22.82 45.3302 22.716L45.9662 22.104C46.0782 22.008 46.1822 22.008 46.2782 22.104C46.7262 22.552 47.2342 22.776 47.8022 22.776C48.1782 22.776 48.4902 22.672 48.7382 22.464C48.9862 22.248 49.1102 21.98 49.1102 21.66C49.1102 21.26 48.9622 20.948 48.6662 20.724C48.3782 20.5 47.9582 20.388 47.4062 20.388H46.7102C46.5582 20.388 46.4822 20.308 46.4822 20.148V19.368C46.4822 19.2 46.5582 19.116 46.7102 19.116H47.4062C47.9022 19.116 48.2822 19.012 48.5462 18.804C48.8102 18.596 48.9422 18.324 48.9422 17.988C48.9422 17.66 48.8222 17.392 48.5822 17.184C48.3422 16.968 48.0622 16.86 47.7422 16.86C47.2302 16.86 46.8142 17.056 46.4942 17.448C46.3902 17.568 46.2782 17.572 46.1582 17.46L45.5582 16.896C45.4462 16.808 45.4462 16.7 45.5582 16.572C46.1342 15.844 46.9062 15.48 47.8742 15.48C48.6182 15.48 49.2422 15.688 49.7462 16.104C50.2582 16.52 50.5142 17.068 50.5142 17.748C50.5142 18.228 50.3862 18.628 50.1302 18.948C49.8822 19.26 49.5862 19.496 49.2422 19.656V19.704C49.6342 19.856 49.9782 20.104 50.2742 20.448C50.5782 20.792 50.7302 21.212 50.7302 21.708C50.7302 22.412 50.4662 22.992 49.9382 23.448C49.4182 23.896 48.7342 24.12 47.8862 24.12C46.8142 24.12 45.9582 23.756 45.3182 23.028ZM52.0096 23.028C51.9296 22.924 51.9336 22.82 52.0216 22.716L52.6576 22.104C52.7696 22.008 52.8736 22.008 52.9696 22.104C53.4176 22.552 53.9256 22.776 54.4936 22.776C54.8696 22.776 55.1816 22.672 55.4296 22.464C55.6776 22.248 55.8016 21.98 55.8016 21.66C55.8016 21.26 55.6536 20.948 55.3576 20.724C55.0696 20.5 54.6496 20.388 54.0976 20.388H53.4016C53.2496 20.388 53.1736 20.308 53.1736 20.148V19.368C53.1736 19.2 53.2496 19.116 53.4016 19.116H54.0976C54.5936 19.116 54.9736 19.012 55.2376 18.804C55.5016 18.596 55.6336 18.324 55.6336 17.988C55.6336 17.66 55.5136 17.392 55.2736 17.184C55.0336 16.968 54.7536 16.86 54.4336 16.86C53.9216 16.86 53.5056 17.056 53.1856 17.448C53.0816 17.568 52.9696 17.572 52.8496 17.46L52.2496 16.896C52.1376 16.808 52.1376 16.7 52.2496 16.572C52.8256 15.844 53.5976 15.48 54.5656 15.48C55.3096 15.48 55.9336 15.688 56.4376 16.104C56.9496 16.52 57.2056 17.068 57.2056 17.748C57.2056 18.228 57.0776 18.628 56.8216 18.948C56.5736 19.26 56.2776 19.496 55.9336 19.656V19.704C56.3256 19.856 56.6696 20.104 56.9656 20.448C57.2696 20.792 57.4216 21.212 57.4216 21.708C57.4216 22.412 57.1576 22.992 56.6296 23.448C56.1096 23.896 55.4256 24.12 54.5776 24.12C53.5056 24.12 52.6496 23.756 52.0096 23.028ZM64.257 22.98C63.713 23.74 62.949 24.12 61.965 24.12C60.981 24.12 60.217 23.74 59.673 22.98C59.129 22.212 58.857 21.152 58.857 19.8C58.857 18.44 59.129 17.38 59.673 16.62C60.217 15.86 60.981 15.48 61.965 15.48C62.949 15.48 63.713 15.86 64.257 16.62C64.809 17.38 65.085 18.44 65.085 19.8C65.085 21.152 64.809 22.212 64.257 22.98ZM60.825 21.936C61.105 22.448 61.485 22.704 61.965 22.704C62.445 22.704 62.825 22.448 63.105 21.936C63.385 21.424 63.525 20.712 63.525 19.8C63.525 18.888 63.385 18.18 63.105 17.676C62.825 17.164 62.445 16.908 61.965 16.908C61.485 16.908 61.105 17.164 60.825 17.676C60.553 18.18 60.417 18.888 60.417 19.8C60.417 20.712 60.553 21.424 60.825 21.936ZM74.8273 22.98C74.2833 23.74 73.5193 24.12 72.5353 24.12C71.5513 24.12 70.7873 23.74 70.2433 22.98C69.6993 22.212 69.4273 21.152 69.4273 19.8C69.4273 18.44 69.6993 17.38 70.2433 16.62C70.7873 15.86 71.5513 15.48 72.5353 15.48C73.5193 15.48 74.2833 15.86 74.8273 16.62C75.3793 17.38 75.6553 18.44 75.6553 19.8C75.6553 21.152 75.3793 22.212 74.8273 22.98ZM71.3953 21.936C71.6753 22.448 72.0553 22.704 72.5353 22.704C73.0153 22.704 73.3953 22.448 73.6753 21.936C73.9553 21.424 74.0953 20.712 74.0953 19.8C74.0953 18.888 73.9553 18.18 73.6753 17.676C73.3953 17.164 73.0153 16.908 72.5353 16.908C72.0553 16.908 71.6753 17.164 71.3953 17.676C71.1233 18.18 70.9873 18.888 70.9873 19.8C70.9873 20.712 71.1233 21.424 71.3953 21.936ZM76.9708 22.212C76.9068 22.212 76.8508 22.188 76.8028 22.14C76.7548 22.092 76.7308 22.036 76.7308 21.972V21.192C76.7308 21.024 76.7828 20.884 76.8868 20.772L81.1348 15.612C81.2148 15.524 81.3188 15.48 81.4468 15.48H82.0348C82.0988 15.48 82.1548 15.504 82.2028 15.552C82.2508 15.6 82.2748 15.656 82.2748 15.72V20.928H83.2588C83.4188 20.928 83.4988 21 83.4988 21.144V21.972C83.4988 22.036 83.4748 22.092 83.4268 22.14C83.3868 22.188 83.3308 22.212 83.2588 22.212H82.2748L82.2868 23.76C82.2868 23.824 82.2628 23.88 82.2148 23.928C82.1668 23.976 82.1108 24 82.0468 24H81.0268C80.9628 24 80.9068 23.976 80.8588 23.928C80.8108 23.88 80.7868 23.824 80.7868 23.76V22.212H76.9708ZM78.3868 20.94V20.964H80.8348V17.976H80.8108L78.3868 20.94ZM85.8472 23.76V17.844L84.7672 18.084C84.7032 18.1 84.6472 18.092 84.5992 18.06C84.5512 18.02 84.5232 17.972 84.5152 17.916L84.4432 17.316C84.4352 17.212 84.4752 17.124 84.5632 17.052L86.0992 15.756C86.2112 15.652 86.3512 15.6 86.5192 15.6H87.1432C87.2072 15.6 87.2592 15.624 87.2992 15.672C87.3472 15.712 87.3712 15.764 87.3712 15.828V23.76C87.3712 23.824 87.3472 23.88 87.2992 23.928C87.2592 23.976 87.2072 24 87.1432 24H86.0872C86.0152 24 85.9552 23.976 85.9072 23.928C85.8672 23.88 85.8472 23.824 85.8472 23.76ZM92.9545 23.316C92.8905 23.156 92.9665 23.036 93.1825 22.956C93.3665 22.9 93.5745 22.816 93.8065 22.704C94.0385 22.592 94.3025 22.444 94.5985 22.26C94.8945 22.068 95.1625 21.832 95.4025 21.552C95.6425 21.264 95.8065 20.964 95.8945 20.652C95.7665 20.732 95.5625 20.812 95.2825 20.892C95.0105 20.964 94.7465 21 94.4905 21C93.8185 21 93.2305 20.76 92.7265 20.28C92.2225 19.8 91.9705 19.144 91.9705 18.312C91.9705 17.536 92.2465 16.872 92.7985 16.32C93.3505 15.76 94.0065 15.48 94.7665 15.48C95.6945 15.48 96.4145 15.804 96.9265 16.452C97.4465 17.1 97.7065 17.912 97.7065 18.888C97.7065 19.568 97.5945 20.204 97.3705 20.796C97.1465 21.38 96.8785 21.86 96.5665 22.236C96.2545 22.604 95.8945 22.936 95.4865 23.232C95.0785 23.528 94.7265 23.744 94.4305 23.88C94.1425 24.016 93.8625 24.128 93.5905 24.216C93.4145 24.272 93.2985 24.216 93.2425 24.048L92.9545 23.316ZM94.7905 19.788C95.1585 19.788 95.4665 19.676 95.7145 19.452C95.9705 19.228 96.1385 18.98 96.2185 18.708C96.2185 18.236 96.0945 17.812 95.8465 17.436C95.5985 17.06 95.2425 16.872 94.7785 16.872C94.3945 16.872 94.0625 17.02 93.7825 17.316C93.5025 17.604 93.3625 17.944 93.3625 18.336C93.3625 18.736 93.5025 19.08 93.7825 19.368C94.0625 19.648 94.3985 19.788 94.7905 19.788ZM98.9432 23.028C98.8632 22.924 98.8672 22.82 98.9552 22.716L99.5912 22.104C99.7032 22.008 99.8072 22.008 99.9032 22.104C100.351 22.552 100.859 22.776 101.427 22.776C101.803 22.776 102.115 22.672 102.363 22.464C102.611 22.248 102.735 21.98 102.735 21.66C102.735 21.26 102.587 20.948 102.291 20.724C102.003 20.5 101.583 20.388 101.031 20.388H100.335C100.183 20.388 100.107 20.308 100.107 20.148V19.368C100.107 19.2 100.183 19.116 100.335 19.116H101.031C101.527 19.116 101.907 19.012 102.171 18.804C102.435 18.596 102.567 18.324 102.567 17.988C102.567 17.66 102.447 17.392 102.207 17.184C101.967 16.968 101.687 16.86 101.367 16.86C100.855 16.86 100.439 17.056 100.119 17.448C100.015 17.568 99.9032 17.572 99.7832 17.46L99.1832 16.896C99.0712 16.808 99.0712 16.7 99.1832 16.572C99.7592 15.844 100.531 15.48 101.499 15.48C102.243 15.48 102.867 15.688 103.371 16.104C103.883 16.52 104.139 17.068 104.139 17.748C104.139 18.228 104.011 18.628 103.755 18.948C103.507 19.26 103.211 19.496 102.867 19.656V19.704C103.259 19.856 103.603 20.104 103.899 20.448C104.203 20.792 104.355 21.212 104.355 21.708C104.355 22.412 104.091 22.992 103.563 23.448C103.043 23.896 102.359 24.12 101.511 24.12C100.439 24.12 99.5832 23.756 98.9432 23.028ZM105.719 20.712C105.719 20.032 105.831 19.4 106.055 18.816C106.279 18.224 106.543 17.744 106.847 17.376C107.159 17.008 107.523 16.676 107.939 16.38C108.355 16.076 108.707 15.856 108.995 15.72C109.283 15.584 109.563 15.472 109.835 15.384C110.019 15.336 110.135 15.392 110.183 15.552L110.471 16.284C110.543 16.46 110.467 16.58 110.243 16.644C110.059 16.7 109.851 16.784 109.619 16.896C109.387 17.008 109.123 17.16 108.827 17.352C108.531 17.536 108.263 17.772 108.023 18.06C107.783 18.34 107.619 18.64 107.531 18.96C107.651 18.88 107.847 18.804 108.119 18.732C108.399 18.652 108.671 18.612 108.935 18.612C109.607 18.612 110.195 18.852 110.699 19.332C111.203 19.804 111.455 20.456 111.455 21.288C111.455 22.064 111.179 22.732 110.627 23.292C110.075 23.844 109.419 24.12 108.659 24.12C107.731 24.12 107.007 23.796 106.487 23.148C105.975 22.5 105.719 21.688 105.719 20.712ZM108.647 22.74C109.047 22.74 109.383 22.604 109.655 22.332C109.927 22.052 110.063 21.696 110.063 21.264C110.063 20.856 109.923 20.512 109.643 20.232C109.371 19.952 109.035 19.812 108.635 19.812C108.267 19.812 107.955 19.924 107.699 20.148C107.451 20.372 107.287 20.62 107.207 20.892C107.207 21.372 107.331 21.8 107.579 22.176C107.827 22.552 108.183 22.74 108.647 22.74ZM112.739 21.756C112.739 21.26 112.887 20.84 113.183 20.496C113.479 20.144 113.831 19.876 114.239 19.692V19.644C113.903 19.5 113.607 19.26 113.351 18.924C113.095 18.58 112.967 18.188 112.967 17.748C112.967 17.068 113.223 16.52 113.735 16.104C114.247 15.688 114.883 15.48 115.643 15.48C116.427 15.48 117.079 15.688 117.599 16.104C118.119 16.52 118.379 17.068 118.379 17.748C118.379 18.18 118.247 18.564 117.983 18.9C117.727 19.236 117.435 19.48 117.107 19.632V19.692C117.531 19.868 117.887 20.132 118.175 20.484C118.463 20.836 118.607 21.26 118.607 21.756C118.607 22.444 118.335 23.012 117.791 23.46C117.255 23.9 116.539 24.12 115.643 24.12C114.771 24.12 114.067 23.896 113.531 23.448C113.003 23 112.739 22.436 112.739 21.756ZM115.679 18.972C116.047 18.884 116.323 18.736 116.507 18.528C116.699 18.32 116.795 18.08 116.795 17.808C116.795 17.512 116.687 17.264 116.471 17.064C116.263 16.856 115.987 16.752 115.643 16.752C115.323 16.752 115.059 16.856 114.851 17.064C114.651 17.264 114.551 17.512 114.551 17.808C114.551 18.4 114.927 18.788 115.679 18.972ZM114.383 21.72C114.383 22.064 114.499 22.34 114.731 22.548C114.971 22.756 115.287 22.86 115.679 22.86C116.063 22.86 116.371 22.756 116.603 22.548C116.843 22.34 116.963 22.064 116.963 21.72C116.963 21.432 116.847 21.168 116.615 20.928C116.391 20.68 116.079 20.508 115.679 20.412C115.279 20.508 114.963 20.68 114.731 20.928C114.499 21.168 114.383 21.432 114.383 21.72Z" fill="white"/>
</svg>
