<svg width="160" height="40" viewBox="0 0 160 40" fill="none" xmlns="http://www.w3.org/2000/svg">
<rect width="160" height="40" rx="2" fill="#553DE8"/>
<path d="M26.3058 25.2237C25.4506 25.2204 24.7148 25.0099 24.0984 24.5923C23.4852 24.1747 23.0129 23.5698 22.6815 22.7777C22.3533 21.9856 22.1909 21.0327 22.1942 19.919C22.1942 18.8087 22.3583 17.8625 22.6864 17.0803C23.0179 16.2981 23.4902 15.7031 24.1033 15.2955C24.7198 14.8845 25.454 14.679 26.3058 14.679C27.1576 14.679 27.89 14.8845 28.5032 15.2955C29.1197 15.7064 29.5936 16.303 29.9251 17.0852C30.2565 17.8641 30.4206 18.8087 30.4173 19.919C30.4173 21.036 30.2515 21.9905 29.9201 22.7827C29.592 23.5748 29.1213 24.1797 28.5082 24.5973C27.895 25.0149 27.1609 25.2237 26.3058 25.2237ZM26.3058 23.4389C26.8891 23.4389 27.3548 23.1456 27.7028 22.5589C28.0508 21.9723 28.2231 21.0923 28.2198 19.919C28.2198 19.1468 28.1403 18.5038 27.9812 17.9901C27.8254 17.4763 27.6033 17.0902 27.315 16.8317C27.0299 16.5732 26.6935 16.4439 26.3058 16.4439C25.7257 16.4439 25.2617 16.7339 24.9137 17.3139C24.5657 17.8939 24.39 18.7623 24.3867 19.919C24.3867 20.7012 24.4646 21.3542 24.6204 21.8778C24.7795 22.3982 25.0032 22.7893 25.2915 23.0511C25.5799 23.3097 25.918 23.4389 26.3058 23.4389ZM35.7157 25.1392C34.9733 25.1392 34.3121 25.0116 33.7321 24.7564C33.1554 24.4979 32.6996 24.1432 32.3649 23.6925C32.0334 23.2384 31.8627 22.7147 31.8528 22.1214H34.0204C34.0337 22.37 34.1149 22.5888 34.264 22.7777C34.4165 22.9633 34.6187 23.1075 34.8706 23.2102C35.1225 23.313 35.4058 23.3643 35.7207 23.3643C36.0488 23.3643 36.3388 23.3063 36.5907 23.1903C36.8426 23.0743 37.0398 22.9136 37.1824 22.7081C37.3249 22.5026 37.3961 22.2656 37.3961 21.9972C37.3961 21.7254 37.3199 21.4851 37.1674 21.2763C37.0183 21.0642 36.8029 20.8984 36.5211 20.7791C36.2427 20.6598 35.9113 20.6001 35.5268 20.6001H34.5772V19.0192H35.5268C35.8516 19.0192 36.1383 18.9628 36.3869 18.8501C36.6388 18.7375 36.8343 18.5817 36.9735 18.3828C37.1127 18.1806 37.1824 17.9453 37.1824 17.6768C37.1824 17.4216 37.121 17.1979 36.9984 17.0057C36.8791 16.8101 36.71 16.6577 36.4913 16.5483C36.2759 16.4389 36.024 16.3842 35.7356 16.3842C35.444 16.3842 35.1771 16.4373 34.9352 16.5433C34.6932 16.6461 34.4993 16.7936 34.3535 16.9858C34.2077 17.178 34.1298 17.4034 34.1199 17.6619H32.0566C32.0666 17.0753 32.234 16.5582 32.5588 16.1108C32.8836 15.6634 33.3211 15.3137 33.8713 15.0618C34.4248 14.8066 35.0495 14.679 35.7456 14.679C36.4482 14.679 37.063 14.8066 37.59 15.0618C38.117 15.317 38.5263 15.6617 38.818 16.0959C39.113 16.5268 39.2588 17.0107 39.2555 17.5476C39.2588 18.1177 39.0815 18.5933 38.7235 18.9744C38.3689 19.3556 37.9065 19.5975 37.3365 19.7003V19.7798C38.0855 19.8759 38.6556 20.1361 39.0467 20.5604C39.4411 20.9813 39.6367 21.5083 39.6333 22.1413C39.6367 22.7214 39.4693 23.2367 39.1312 23.6875C38.7965 24.1383 38.3341 24.4929 37.7441 24.7514C37.1542 25.0099 36.478 25.1392 35.7157 25.1392ZM44.9442 25.1392C44.2018 25.1392 43.5406 25.0116 42.9606 24.7564C42.3839 24.4979 41.9281 24.1432 41.5934 23.6925C41.262 23.2384 41.0913 22.7147 41.0813 22.1214H43.2489C43.2622 22.37 43.3434 22.5888 43.4925 22.7777C43.645 22.9633 43.8472 23.1075 44.0991 23.2102C44.351 23.313 44.6344 23.3643 44.9492 23.3643C45.2773 23.3643 45.5674 23.3063 45.8192 23.1903C46.0711 23.0743 46.2683 22.9136 46.4109 22.7081C46.5534 22.5026 46.6246 22.2656 46.6246 21.9972C46.6246 21.7254 46.5484 21.4851 46.396 21.2763C46.2468 21.0642 46.0314 20.8984 45.7496 20.7791C45.4712 20.6598 45.1398 20.6001 44.7553 20.6001H43.8058V19.0192H44.7553C45.0801 19.0192 45.3668 18.9628 45.6154 18.8501C45.8673 18.7375 46.0629 18.5817 46.2021 18.3828C46.3413 18.1806 46.4109 17.9453 46.4109 17.6768C46.4109 17.4216 46.3496 17.1979 46.2269 17.0057C46.1076 16.8101 45.9386 16.6577 45.7198 16.5483C45.5044 16.4389 45.2525 16.3842 44.9641 16.3842C44.6725 16.3842 44.4057 16.4373 44.1637 16.5433C43.9218 16.6461 43.7279 16.7936 43.582 16.9858C43.4362 17.178 43.3583 17.4034 43.3484 17.6619H41.2852C41.2951 17.0753 41.4625 16.5582 41.7873 16.1108C42.1121 15.6634 42.5496 15.3137 43.0998 15.0618C43.6533 14.8066 44.2781 14.679 44.9741 14.679C45.6767 14.679 46.2915 14.8066 46.8185 15.0618C47.3455 15.317 47.7549 15.6617 48.0465 16.0959C48.3415 16.5268 48.4873 17.0107 48.484 17.5476C48.4873 18.1177 48.31 18.5933 47.9521 18.9744C47.5974 19.3556 47.1351 19.5975 46.565 19.7003V19.7798C47.314 19.8759 47.8841 20.1361 48.2752 20.5604C48.6696 20.9813 48.8652 21.5083 48.8619 22.1413C48.8652 22.7214 48.6978 23.2367 48.3597 23.6875C48.025 24.1383 47.5626 24.4929 46.9727 24.7514C46.3827 25.0099 45.7066 25.1392 44.9442 25.1392ZM54.4015 25.2237C53.5463 25.2204 52.8105 25.0099 52.1941 24.5923C51.5809 24.1747 51.1086 23.5698 50.7772 22.7777C50.449 21.9856 50.2866 21.0327 50.29 19.919C50.29 18.8087 50.454 17.8625 50.7821 17.0803C51.1136 16.2981 51.5859 15.7031 52.199 15.2955C52.8155 14.8845 53.5497 14.679 54.4015 14.679C55.2533 14.679 55.9857 14.8845 56.5989 15.2955C57.2154 15.7064 57.6893 16.303 58.0208 17.0852C58.3522 17.8641 58.5163 18.8087 58.513 19.919C58.513 21.036 58.3472 21.9905 58.0158 22.7827C57.6877 23.5748 57.217 24.1797 56.6039 24.5973C55.9907 25.0149 55.2566 25.2237 54.4015 25.2237ZM54.4015 23.4389C54.9848 23.4389 55.4505 23.1456 55.7985 22.5589C56.1465 21.9723 56.3188 21.0923 56.3155 19.919C56.3155 19.1468 56.236 18.5038 56.0769 17.9901C55.9211 17.4763 55.699 17.0902 55.4107 16.8317C55.1257 16.5732 54.7892 16.4439 54.4015 16.4439C53.8214 16.4439 53.3574 16.7339 53.0094 17.3139C52.6614 17.8939 52.4857 18.7623 52.4824 19.919C52.4824 20.7012 52.5603 21.3542 52.7161 21.8778C52.8752 22.3982 53.0989 22.7893 53.3873 23.0511C53.6756 23.3097 54.0137 23.4389 54.4015 23.4389ZM67.2804 25.2237C66.4252 25.2204 65.6895 25.0099 65.073 24.5923C64.4598 24.1747 63.9875 23.5698 63.6561 22.7777C63.3279 21.9856 63.1655 21.0327 63.1689 19.919C63.1689 18.8087 63.3329 17.8625 63.661 17.0803C63.9925 16.2981 64.4648 15.7031 65.0779 15.2955C65.6944 14.8845 66.4286 14.679 67.2804 14.679C68.1322 14.679 68.8646 14.8845 69.4778 15.2955C70.0943 15.7064 70.5682 16.303 70.8997 17.0852C71.2311 17.8641 71.3952 18.8087 71.3919 19.919C71.3919 21.036 71.2261 21.9905 70.8947 22.7827C70.5666 23.5748 70.0959 24.1797 69.4828 24.5973C68.8696 25.0149 68.1355 25.2237 67.2804 25.2237ZM67.2804 23.4389C67.8637 23.4389 68.3294 23.1456 68.6774 22.5589C69.0254 21.9723 69.1977 21.0923 69.1944 19.919C69.1944 19.1468 69.1149 18.5038 68.9558 17.9901C68.8 17.4763 68.5779 17.0902 68.2896 16.8317C68.0046 16.5732 67.6681 16.4439 67.2804 16.4439C66.7003 16.4439 66.2363 16.7339 65.8883 17.3139C65.5403 17.8939 65.3646 18.7623 65.3613 19.919C65.3613 20.7012 65.4392 21.3542 65.595 21.8778C65.7541 22.3982 65.9778 22.7893 66.2662 23.0511C66.5545 23.3097 66.8926 23.4389 67.2804 23.4389ZM72.7727 23.2102V21.5149L77.0234 14.8182H78.4851V17.1648H77.62L74.9403 21.4055V21.4851H80.9808V23.2102H72.7727ZM77.6598 25V22.6932L77.6996 21.9425V14.8182H79.718V25H77.6598ZM86.7081 14.8182V25H84.5554V16.8615H84.4957L82.1641 18.3232V16.4141L84.6847 14.8182H86.7081ZM96.0522 14.679C96.5759 14.679 97.0797 14.7668 97.5636 14.9425C98.0508 15.1181 98.485 15.3982 98.8661 15.7827C99.2506 16.1671 99.5539 16.6776 99.7759 17.3139C100.001 17.947 100.116 18.7242 100.119 19.6456C100.119 20.5107 100.021 21.2829 99.8256 21.9624C99.6334 22.6385 99.3567 23.2135 98.9954 23.6875C98.6341 24.1615 98.1983 24.5227 97.6879 24.7713C97.1774 25.0166 96.6074 25.1392 95.9776 25.1392C95.2982 25.1392 94.6983 25.0083 94.1779 24.7464C93.6576 24.4813 93.2383 24.1217 92.9201 23.6676C92.6052 23.2102 92.4147 22.6965 92.3484 22.1264H94.4712C94.5541 22.4976 94.7281 22.786 94.9933 22.9915C95.2584 23.1937 95.5865 23.2947 95.9776 23.2947C96.6405 23.2947 97.1443 23.0064 97.489 22.4297C97.8337 21.8497 98.0077 21.0559 98.011 20.0483H97.9414C97.7889 20.3466 97.5835 20.6035 97.3249 20.8189C97.0664 21.031 96.7698 21.1951 96.435 21.3111C96.1036 21.4271 95.7506 21.4851 95.3761 21.4851C94.7762 21.4851 94.2409 21.3442 93.7702 21.0625C93.2996 20.7808 92.9284 20.393 92.6566 19.8991C92.3848 19.4053 92.2489 18.8419 92.2489 18.2088C92.2456 17.526 92.4031 16.9179 92.7212 16.3842C93.0394 15.8506 93.4835 15.433 94.0536 15.1314C94.627 14.8265 95.2932 14.6757 96.0522 14.679ZM96.0671 16.3693C95.7324 16.3693 95.4341 16.4489 95.1722 16.608C94.9137 16.767 94.7082 16.9808 94.5558 17.2493C94.4066 17.5178 94.3337 17.8177 94.337 18.1491C94.337 18.4839 94.4099 18.7855 94.5558 19.054C94.7049 19.3191 94.9071 19.5312 95.1623 19.6903C95.4208 19.8461 95.7158 19.924 96.0472 19.924C96.2958 19.924 96.5262 19.8776 96.7383 19.7848C96.9504 19.692 97.1344 19.5644 97.2901 19.402C97.4492 19.2363 97.5735 19.0457 97.663 18.8303C97.7525 18.6148 97.7972 18.3861 97.7972 18.1442C97.7939 17.8227 97.7177 17.5277 97.5685 17.2592C97.4194 16.9908 97.2139 16.7753 96.9521 16.6129C96.6902 16.4505 96.3952 16.3693 96.0671 16.3693ZM105.374 25.1392C104.632 25.1392 103.97 25.0116 103.39 24.7564C102.814 24.4979 102.358 24.1432 102.023 23.6925C101.692 23.2384 101.521 22.7147 101.511 22.1214H103.679C103.692 22.37 103.773 22.5888 103.922 22.7777C104.075 22.9633 104.277 23.1075 104.529 23.2102C104.781 23.313 105.064 23.3643 105.379 23.3643C105.707 23.3643 105.997 23.3063 106.249 23.1903C106.501 23.0743 106.698 22.9136 106.841 22.7081C106.983 22.5026 107.054 22.2656 107.054 21.9972C107.054 21.7254 106.978 21.4851 106.826 21.2763C106.676 21.0642 106.461 20.8984 106.179 20.7791C105.901 20.6598 105.569 20.6001 105.185 20.6001H104.235V19.0192H105.185C105.51 19.0192 105.797 18.9628 106.045 18.8501C106.297 18.7375 106.493 18.5817 106.632 18.3828C106.771 18.1806 106.841 17.9453 106.841 17.6768C106.841 17.4216 106.779 17.1979 106.657 17.0057C106.537 16.8101 106.368 16.6577 106.15 16.5483C105.934 16.4389 105.682 16.3842 105.394 16.3842C105.102 16.3842 104.835 16.4373 104.593 16.5433C104.351 16.6461 104.158 16.7936 104.012 16.9858C103.866 17.178 103.788 17.4034 103.778 17.6619H101.715C101.725 17.0753 101.892 16.5582 102.217 16.1108C102.542 15.6634 102.979 15.3137 103.529 15.0618C104.083 14.8066 104.708 14.679 105.404 14.679C106.106 14.679 106.721 14.8066 107.248 15.0618C107.775 15.317 108.185 15.6617 108.476 16.0959C108.771 16.5268 108.917 17.0107 108.914 17.5476C108.917 18.1177 108.74 18.5933 108.382 18.9744C108.027 19.3556 107.565 19.5975 106.995 19.7003V19.7798C107.744 19.8759 108.314 20.1361 108.705 20.5604C109.099 20.9813 109.295 21.5083 109.292 22.1413C109.295 22.7214 109.127 23.2367 108.789 23.6875C108.455 24.1383 107.992 24.4929 107.402 24.7514C106.812 25.0099 106.136 25.1392 105.374 25.1392ZM114.747 25.1392C114.223 25.1359 113.718 25.0481 113.23 24.8757C112.746 24.7034 112.312 24.4233 111.928 24.0355C111.543 23.6477 111.238 23.134 111.013 22.4943C110.791 21.8546 110.68 21.0691 110.68 20.1378C110.683 19.2827 110.781 18.5187 110.973 17.8459C111.169 17.1697 111.447 16.5964 111.808 16.1257C112.173 15.6551 112.609 15.2971 113.116 15.0518C113.623 14.8033 114.191 14.679 114.821 14.679C115.501 14.679 116.101 14.8116 116.621 15.0767C117.141 15.3385 117.559 15.6948 117.874 16.1456C118.192 16.5964 118.384 17.1018 118.45 17.6619H116.328C116.245 17.3073 116.071 17.0289 115.806 16.8267C115.54 16.6245 115.212 16.5234 114.821 16.5234C114.158 16.5234 113.655 16.8118 113.31 17.3885C112.968 17.9652 112.794 18.7491 112.788 19.7401H112.857C113.01 19.4384 113.215 19.1816 113.474 18.9695C113.736 18.754 114.032 18.59 114.364 18.4773C114.699 18.3613 115.052 18.3033 115.423 18.3033C116.026 18.3033 116.563 18.4458 117.034 18.7308C117.504 19.0125 117.875 19.4003 118.147 19.8942C118.419 20.388 118.555 20.9531 118.555 21.5895C118.555 22.2789 118.394 22.892 118.073 23.429C117.754 23.9659 117.309 24.3868 116.735 24.6918C116.165 24.9934 115.502 25.1425 114.747 25.1392ZM114.737 23.4489C115.068 23.4489 115.365 23.3693 115.627 23.2102C115.888 23.0511 116.094 22.8357 116.243 22.5639C116.392 22.2921 116.467 21.9872 116.467 21.6491C116.467 21.3111 116.392 21.0078 116.243 20.7393C116.097 20.4709 115.895 20.2571 115.637 20.098C115.378 19.9389 115.083 19.8594 114.752 19.8594C114.503 19.8594 114.273 19.9058 114.061 19.9986C113.852 20.0914 113.668 20.2206 113.509 20.3864C113.353 20.5521 113.23 20.7443 113.141 20.9631C113.051 21.1785 113.007 21.4089 113.007 21.6541C113.007 21.9822 113.081 22.2822 113.23 22.554C113.383 22.8258 113.588 23.0429 113.847 23.2053C114.109 23.3677 114.405 23.4489 114.737 23.4489ZM123.879 25.1392C123.114 25.1392 122.433 25.0149 121.836 24.7663C121.243 24.5144 120.777 24.1714 120.439 23.7372C120.101 23.303 119.932 22.8108 119.932 22.2607C119.932 21.8364 120.028 21.447 120.22 21.0923C120.416 20.7344 120.681 20.4377 121.016 20.2024C121.351 19.9638 121.725 19.8113 122.139 19.745V19.6754C121.596 19.5661 121.155 19.3026 120.817 18.8849C120.479 18.464 120.31 17.9751 120.31 17.4183C120.31 16.8913 120.464 16.4223 120.772 16.0114C121.08 15.5971 121.503 15.2723 122.04 15.0369C122.58 14.7983 123.193 14.679 123.879 14.679C124.566 14.679 125.177 14.7983 125.714 15.0369C126.254 15.2756 126.678 15.602 126.987 16.0163C127.295 16.4273 127.451 16.8946 127.454 17.4183C127.451 17.9785 127.278 18.4673 126.937 18.8849C126.596 19.3026 126.158 19.5661 125.624 19.6754V19.745C126.032 19.8113 126.402 19.9638 126.733 20.2024C127.068 20.4377 127.333 20.7344 127.529 21.0923C127.727 21.447 127.829 21.8364 127.832 22.2607C127.829 22.8108 127.658 23.303 127.32 23.7372C126.982 24.1714 126.514 24.5144 125.918 24.7663C125.325 25.0149 124.645 25.1392 123.879 25.1392ZM123.879 23.5582C124.221 23.5582 124.519 23.4969 124.774 23.3743C125.03 23.2483 125.228 23.076 125.371 22.8572C125.517 22.6352 125.59 22.38 125.59 22.0916C125.59 21.7966 125.515 21.5365 125.366 21.3111C125.217 21.0824 125.015 20.9034 124.759 20.7741C124.504 20.6416 124.211 20.5753 123.879 20.5753C123.551 20.5753 123.258 20.6416 122.999 20.7741C122.741 20.9034 122.537 21.0824 122.388 21.3111C122.242 21.5365 122.169 21.7966 122.169 22.0916C122.169 22.38 122.24 22.6352 122.383 22.8572C122.526 23.076 122.726 23.2483 122.985 23.3743C123.243 23.4969 123.541 23.5582 123.879 23.5582ZM123.879 19.0092C124.164 19.0092 124.418 18.9512 124.64 18.8352C124.862 18.7192 125.036 18.5585 125.162 18.353C125.288 18.1475 125.351 17.9105 125.351 17.642C125.351 17.3769 125.288 17.1449 125.162 16.946C125.036 16.7438 124.864 16.5864 124.645 16.4737C124.426 16.3577 124.171 16.2997 123.879 16.2997C123.591 16.2997 123.336 16.3577 123.114 16.4737C122.892 16.5864 122.718 16.7438 122.592 16.946C122.469 17.1449 122.408 17.3769 122.408 17.642C122.408 17.9105 122.471 18.1475 122.597 18.353C122.723 18.5585 122.897 18.7192 123.119 18.8352C123.341 18.9512 123.594 19.0092 123.879 19.0092Z" fill="white"/>
</svg>
