<svg width="160" height="40" viewBox="0 0 160 40" fill="none" xmlns="http://www.w3.org/2000/svg">
<rect width="160" height="40" rx="2" fill="#2C63FF"/>
<path d="M31.3058 25.2237C30.4506 25.2204 29.7148 25.0099 29.0984 24.5923C28.4852 24.1747 28.0129 23.5698 27.6815 22.7777C27.3533 21.9856 27.1909 21.0327 27.1942 19.919C27.1942 18.8087 27.3583 17.8625 27.6864 17.0803C28.0179 16.2981 28.4902 15.7031 29.1033 15.2955C29.7198 14.8845 30.454 14.679 31.3058 14.679C32.1576 14.679 32.89 14.8845 33.5032 15.2955C34.1197 15.7064 34.5936 16.303 34.9251 17.0852C35.2565 17.8641 35.4206 18.8087 35.4173 19.919C35.4173 21.036 35.2515 21.9905 34.9201 22.7827C34.592 23.5748 34.1213 24.1797 33.5082 24.5973C32.895 25.0149 32.1609 25.2237 31.3058 25.2237ZM31.3058 23.4389C31.8891 23.4389 32.3548 23.1456 32.7028 22.5589C33.0508 21.9723 33.2231 21.0923 33.2198 19.919C33.2198 19.1468 33.1403 18.5038 32.9812 17.9901C32.8254 17.4763 32.6033 17.0902 32.315 16.8317C32.0299 16.5732 31.6935 16.4439 31.3058 16.4439C30.7257 16.4439 30.2617 16.7339 29.9137 17.3139C29.5657 17.8939 29.39 18.7623 29.3867 19.919C29.3867 20.7012 29.4646 21.3542 29.6204 21.8778C29.7795 22.3982 30.0032 22.7893 30.2915 23.0511C30.5799 23.3097 30.918 23.4389 31.3058 23.4389ZM40.7157 25.1392C39.9733 25.1392 39.3121 25.0116 38.7321 24.7564C38.1554 24.4979 37.6996 24.1432 37.3649 23.6925C37.0334 23.2384 36.8627 22.7147 36.8528 22.1214H39.0204C39.0337 22.37 39.1149 22.5888 39.264 22.7777C39.4165 22.9633 39.6187 23.1075 39.8706 23.2102C40.1225 23.313 40.4058 23.3643 40.7207 23.3643C41.0488 23.3643 41.3388 23.3063 41.5907 23.1903C41.8426 23.0743 42.0398 22.9136 42.1824 22.7081C42.3249 22.5026 42.3961 22.2656 42.3961 21.9972C42.3961 21.7254 42.3199 21.4851 42.1674 21.2763C42.0183 21.0642 41.8029 20.8984 41.5211 20.7791C41.2427 20.6598 40.9113 20.6001 40.5268 20.6001H39.5772V19.0192H40.5268C40.8516 19.0192 41.1383 18.9628 41.3869 18.8501C41.6388 18.7375 41.8343 18.5817 41.9735 18.3828C42.1127 18.1806 42.1824 17.9453 42.1824 17.6768C42.1824 17.4216 42.121 17.1979 41.9984 17.0057C41.8791 16.8101 41.71 16.6577 41.4913 16.5483C41.2759 16.4389 41.024 16.3842 40.7356 16.3842C40.444 16.3842 40.1771 16.4373 39.9352 16.5433C39.6932 16.6461 39.4993 16.7936 39.3535 16.9858C39.2077 17.178 39.1298 17.4034 39.1199 17.6619H37.0566C37.0666 17.0753 37.234 16.5582 37.5588 16.1108C37.8836 15.6634 38.3211 15.3137 38.8713 15.0618C39.4248 14.8066 40.0495 14.679 40.7456 14.679C41.4482 14.679 42.063 14.8066 42.59 15.0618C43.117 15.317 43.5263 15.6617 43.818 16.0959C44.113 16.5268 44.2588 17.0107 44.2555 17.5476C44.2588 18.1177 44.0815 18.5933 43.7235 18.9744C43.3689 19.3556 42.9065 19.5975 42.3365 19.7003V19.7798C43.0855 19.8759 43.6556 20.1361 44.0467 20.5604C44.4411 20.9813 44.6367 21.5083 44.6333 22.1413C44.6367 22.7214 44.4693 23.2367 44.1312 23.6875C43.7965 24.1383 43.3341 24.4929 42.7441 24.7514C42.1542 25.0099 41.478 25.1392 40.7157 25.1392ZM49.9442 25.1392C49.2018 25.1392 48.5406 25.0116 47.9606 24.7564C47.3839 24.4979 46.9281 24.1432 46.5934 23.6925C46.262 23.2384 46.0913 22.7147 46.0813 22.1214H48.2489C48.2622 22.37 48.3434 22.5888 48.4925 22.7777C48.645 22.9633 48.8472 23.1075 49.0991 23.2102C49.351 23.313 49.6344 23.3643 49.9492 23.3643C50.2773 23.3643 50.5674 23.3063 50.8192 23.1903C51.0711 23.0743 51.2683 22.9136 51.4109 22.7081C51.5534 22.5026 51.6246 22.2656 51.6246 21.9972C51.6246 21.7254 51.5484 21.4851 51.396 21.2763C51.2468 21.0642 51.0314 20.8984 50.7496 20.7791C50.4712 20.6598 50.1398 20.6001 49.7553 20.6001H48.8058V19.0192H49.7553C50.0801 19.0192 50.3668 18.9628 50.6154 18.8501C50.8673 18.7375 51.0629 18.5817 51.2021 18.3828C51.3413 18.1806 51.4109 17.9453 51.4109 17.6768C51.4109 17.4216 51.3496 17.1979 51.2269 17.0057C51.1076 16.8101 50.9386 16.6577 50.7198 16.5483C50.5044 16.4389 50.2525 16.3842 49.9641 16.3842C49.6725 16.3842 49.4057 16.4373 49.1637 16.5433C48.9218 16.6461 48.7279 16.7936 48.582 16.9858C48.4362 17.178 48.3583 17.4034 48.3484 17.6619H46.2852C46.2951 17.0753 46.4625 16.5582 46.7873 16.1108C47.1121 15.6634 47.5496 15.3137 48.0998 15.0618C48.6533 14.8066 49.2781 14.679 49.9741 14.679C50.6767 14.679 51.2915 14.8066 51.8185 15.0618C52.3455 15.317 52.7549 15.6617 53.0465 16.0959C53.3415 16.5268 53.4873 17.0107 53.484 17.5476C53.4873 18.1177 53.31 18.5933 52.9521 18.9744C52.5974 19.3556 52.1351 19.5975 51.565 19.7003V19.7798C52.314 19.8759 52.8841 20.1361 53.2752 20.5604C53.6696 20.9813 53.8652 21.5083 53.8619 22.1413C53.8652 22.7214 53.6978 23.2367 53.3597 23.6875C53.025 24.1383 52.5626 24.4929 51.9727 24.7514C51.3827 25.0099 50.7066 25.1392 49.9442 25.1392ZM59.4015 25.2237C58.5463 25.2204 57.8105 25.0099 57.1941 24.5923C56.5809 24.1747 56.1086 23.5698 55.7772 22.7777C55.449 21.9856 55.2866 21.0327 55.29 19.919C55.29 18.8087 55.454 17.8625 55.7821 17.0803C56.1136 16.2981 56.5859 15.7031 57.199 15.2955C57.8155 14.8845 58.5497 14.679 59.4015 14.679C60.2533 14.679 60.9857 14.8845 61.5989 15.2955C62.2154 15.7064 62.6893 16.303 63.0208 17.0852C63.3522 17.8641 63.5163 18.8087 63.513 19.919C63.513 21.036 63.3472 21.9905 63.0158 22.7827C62.6877 23.5748 62.217 24.1797 61.6039 24.5973C60.9907 25.0149 60.2566 25.2237 59.4015 25.2237ZM59.4015 23.4389C59.9848 23.4389 60.4505 23.1456 60.7985 22.5589C61.1465 21.9723 61.3188 21.0923 61.3155 19.919C61.3155 19.1468 61.236 18.5038 61.0769 17.9901C60.9211 17.4763 60.699 17.0902 60.4107 16.8317C60.1257 16.5732 59.7892 16.4439 59.4015 16.4439C58.8214 16.4439 58.3574 16.7339 58.0094 17.3139C57.6614 17.8939 57.4857 18.7623 57.4824 19.919C57.4824 20.7012 57.5603 21.3542 57.7161 21.8778C57.8752 22.3982 58.0989 22.7893 58.3873 23.0511C58.6756 23.3097 59.0137 23.4389 59.4015 23.4389ZM72.2804 25.2237C71.4252 25.2204 70.6895 25.0099 70.073 24.5923C69.4598 24.1747 68.9875 23.5698 68.6561 22.7777C68.3279 21.9856 68.1655 21.0327 68.1689 19.919C68.1689 18.8087 68.3329 17.8625 68.661 17.0803C68.9925 16.2981 69.4648 15.7031 70.0779 15.2955C70.6944 14.8845 71.4286 14.679 72.2804 14.679C73.1322 14.679 73.8646 14.8845 74.4778 15.2955C75.0943 15.7064 75.5682 16.303 75.8997 17.0852C76.2311 17.8641 76.3952 18.8087 76.3919 19.919C76.3919 21.036 76.2261 21.9905 75.8947 22.7827C75.5666 23.5748 75.0959 24.1797 74.4828 24.5973C73.8696 25.0149 73.1355 25.2237 72.2804 25.2237ZM72.2804 23.4389C72.8637 23.4389 73.3294 23.1456 73.6774 22.5589C74.0254 21.9723 74.1977 21.0923 74.1944 19.919C74.1944 19.1468 74.1149 18.5038 73.9558 17.9901C73.8 17.4763 73.5779 17.0902 73.2896 16.8317C73.0046 16.5732 72.6681 16.4439 72.2804 16.4439C71.7003 16.4439 71.2363 16.7339 70.8883 17.3139C70.5403 17.8939 70.3646 18.7623 70.3613 19.919C70.3613 20.7012 70.4392 21.3542 70.595 21.8778C70.7541 22.3982 70.9778 22.7893 71.2662 23.0511C71.5545 23.3097 71.8926 23.4389 72.2804 23.4389ZM77.7727 23.2102V21.5149L82.0234 14.8182H83.4851V17.1648H82.62L79.9403 21.4055V21.4851H85.9808V23.2102H77.7727ZM82.6598 25V22.6932L82.6996 21.9425V14.8182H84.718V25H82.6598ZM91.7081 14.8182V25H89.5554V16.8615H89.4957L87.1641 18.3232V16.4141L89.6847 14.8182H91.7081ZM101.052 14.679C101.576 14.679 102.08 14.7668 102.564 14.9425C103.051 15.1181 103.485 15.3982 103.866 15.7827C104.251 16.1671 104.554 16.6776 104.776 17.3139C105.001 17.947 105.116 18.7242 105.119 19.6456C105.119 20.5107 105.021 21.2829 104.826 21.9624C104.633 22.6385 104.357 23.2135 103.995 23.6875C103.634 24.1615 103.198 24.5227 102.688 24.7713C102.177 25.0166 101.607 25.1392 100.978 25.1392C100.298 25.1392 99.6983 25.0083 99.1779 24.7464C98.6576 24.4813 98.2383 24.1217 97.9201 23.6676C97.6052 23.2102 97.4147 22.6965 97.3484 22.1264H99.4712C99.5541 22.4976 99.7281 22.786 99.9933 22.9915C100.258 23.1937 100.587 23.2947 100.978 23.2947C101.641 23.2947 102.144 23.0064 102.489 22.4297C102.834 21.8497 103.008 21.0559 103.011 20.0483H102.941C102.789 20.3466 102.583 20.6035 102.325 20.8189C102.066 21.031 101.77 21.1951 101.435 21.3111C101.104 21.4271 100.751 21.4851 100.376 21.4851C99.7762 21.4851 99.2409 21.3442 98.7702 21.0625C98.2996 20.7808 97.9284 20.393 97.6566 19.8991C97.3848 19.4053 97.2489 18.8419 97.2489 18.2088C97.2456 17.526 97.4031 16.9179 97.7212 16.3842C98.0394 15.8506 98.4835 15.433 99.0536 15.1314C99.627 14.8265 100.293 14.6757 101.052 14.679ZM101.067 16.3693C100.732 16.3693 100.434 16.4489 100.172 16.608C99.9137 16.767 99.7082 16.9808 99.5558 17.2493C99.4066 17.5178 99.3337 17.8177 99.337 18.1491C99.337 18.4839 99.4099 18.7855 99.5558 19.054C99.7049 19.3191 99.9071 19.5312 100.162 19.6903C100.421 19.8461 100.716 19.924 101.047 19.924C101.296 19.924 101.526 19.8776 101.738 19.7848C101.95 19.692 102.134 19.5644 102.29 19.402C102.449 19.2363 102.574 19.0457 102.663 18.8303C102.752 18.6148 102.797 18.3861 102.797 18.1442C102.794 17.8227 102.718 17.5277 102.569 17.2592C102.419 16.9908 102.214 16.7753 101.952 16.6129C101.69 16.4505 101.395 16.3693 101.067 16.3693ZM110.374 25.1392C109.632 25.1392 108.97 25.0116 108.39 24.7564C107.814 24.4979 107.358 24.1432 107.023 23.6925C106.692 23.2384 106.521 22.7147 106.511 22.1214H108.679C108.692 22.37 108.773 22.5888 108.922 22.7777C109.075 22.9633 109.277 23.1075 109.529 23.2102C109.781 23.313 110.064 23.3643 110.379 23.3643C110.707 23.3643 110.997 23.3063 111.249 23.1903C111.501 23.0743 111.698 22.9136 111.841 22.7081C111.983 22.5026 112.054 22.2656 112.054 21.9972C112.054 21.7254 111.978 21.4851 111.826 21.2763C111.676 21.0642 111.461 20.8984 111.179 20.7791C110.901 20.6598 110.569 20.6001 110.185 20.6001H109.235V19.0192H110.185C110.51 19.0192 110.797 18.9628 111.045 18.8501C111.297 18.7375 111.493 18.5817 111.632 18.3828C111.771 18.1806 111.841 17.9453 111.841 17.6768C111.841 17.4216 111.779 17.1979 111.657 17.0057C111.537 16.8101 111.368 16.6577 111.15 16.5483C110.934 16.4389 110.682 16.3842 110.394 16.3842C110.102 16.3842 109.835 16.4373 109.593 16.5433C109.351 16.6461 109.158 16.7936 109.012 16.9858C108.866 17.178 108.788 17.4034 108.778 17.6619H106.715C106.725 17.0753 106.892 16.5582 107.217 16.1108C107.542 15.6634 107.979 15.3137 108.529 15.0618C109.083 14.8066 109.708 14.679 110.404 14.679C111.106 14.679 111.721 14.8066 112.248 15.0618C112.775 15.317 113.185 15.6617 113.476 16.0959C113.771 16.5268 113.917 17.0107 113.914 17.5476C113.917 18.1177 113.74 18.5933 113.382 18.9744C113.027 19.3556 112.565 19.5975 111.995 19.7003V19.7798C112.744 19.8759 113.314 20.1361 113.705 20.5604C114.099 20.9813 114.295 21.5083 114.292 22.1413C114.295 22.7214 114.127 23.2367 113.789 23.6875C113.455 24.1383 112.992 24.4929 112.402 24.7514C111.812 25.0099 111.136 25.1392 110.374 25.1392ZM119.747 25.1392C119.223 25.1359 118.718 25.0481 118.23 24.8757C117.746 24.7034 117.312 24.4233 116.928 24.0355C116.543 23.6477 116.238 23.134 116.013 22.4943C115.791 21.8546 115.68 21.0691 115.68 20.1378C115.683 19.2827 115.781 18.5187 115.973 17.8459C116.169 17.1697 116.447 16.5964 116.808 16.1257C117.173 15.6551 117.609 15.2971 118.116 15.0518C118.623 14.8033 119.191 14.679 119.821 14.679C120.501 14.679 121.101 14.8116 121.621 15.0767C122.141 15.3385 122.559 15.6948 122.874 16.1456C123.192 16.5964 123.384 17.1018 123.45 17.6619H121.328C121.245 17.3073 121.071 17.0289 120.806 16.8267C120.54 16.6245 120.212 16.5234 119.821 16.5234C119.158 16.5234 118.655 16.8118 118.31 17.3885C117.968 17.9652 117.794 18.7491 117.788 19.7401H117.857C118.01 19.4384 118.215 19.1816 118.474 18.9695C118.736 18.754 119.032 18.59 119.364 18.4773C119.699 18.3613 120.052 18.3033 120.423 18.3033C121.026 18.3033 121.563 18.4458 122.034 18.7308C122.504 19.0125 122.875 19.4003 123.147 19.8942C123.419 20.388 123.555 20.9531 123.555 21.5895C123.555 22.2789 123.394 22.892 123.073 23.429C122.754 23.9659 122.309 24.3868 121.735 24.6918C121.165 24.9934 120.502 25.1425 119.747 25.1392ZM119.737 23.4489C120.068 23.4489 120.365 23.3693 120.627 23.2102C120.888 23.0511 121.094 22.8357 121.243 22.5639C121.392 22.2921 121.467 21.9872 121.467 21.6491C121.467 21.3111 121.392 21.0078 121.243 20.7393C121.097 20.4709 120.895 20.2571 120.637 20.098C120.378 19.9389 120.083 19.8594 119.752 19.8594C119.503 19.8594 119.273 19.9058 119.061 19.9986C118.852 20.0914 118.668 20.2206 118.509 20.3864C118.353 20.5521 118.23 20.7443 118.141 20.9631C118.051 21.1785 118.007 21.4089 118.007 21.6541C118.007 21.9822 118.081 22.2822 118.23 22.554C118.383 22.8258 118.588 23.0429 118.847 23.2053C119.109 23.3677 119.405 23.4489 119.737 23.4489ZM128.879 25.1392C128.114 25.1392 127.433 25.0149 126.836 24.7663C126.243 24.5144 125.777 24.1714 125.439 23.7372C125.101 23.303 124.932 22.8108 124.932 22.2607C124.932 21.8364 125.028 21.447 125.22 21.0923C125.416 20.7344 125.681 20.4377 126.016 20.2024C126.351 19.9638 126.725 19.8113 127.139 19.745V19.6754C126.596 19.5661 126.155 19.3026 125.817 18.8849C125.479 18.464 125.31 17.9751 125.31 17.4183C125.31 16.8913 125.464 16.4223 125.772 16.0114C126.08 15.5971 126.503 15.2723 127.04 15.0369C127.58 14.7983 128.193 14.679 128.879 14.679C129.566 14.679 130.177 14.7983 130.714 15.0369C131.254 15.2756 131.678 15.602 131.987 16.0163C132.295 16.4273 132.451 16.8946 132.454 17.4183C132.451 17.9785 132.278 18.4673 131.937 18.8849C131.596 19.3026 131.158 19.5661 130.624 19.6754V19.745C131.032 19.8113 131.402 19.9638 131.733 20.2024C132.068 20.4377 132.333 20.7344 132.529 21.0923C132.727 21.447 132.829 21.8364 132.832 22.2607C132.829 22.8108 132.658 23.303 132.32 23.7372C131.982 24.1714 131.514 24.5144 130.918 24.7663C130.325 25.0149 129.645 25.1392 128.879 25.1392ZM128.879 23.5582C129.221 23.5582 129.519 23.4969 129.774 23.3743C130.03 23.2483 130.228 23.076 130.371 22.8572C130.517 22.6352 130.59 22.38 130.59 22.0916C130.59 21.7966 130.515 21.5365 130.366 21.3111C130.217 21.0824 130.015 20.9034 129.759 20.7741C129.504 20.6416 129.211 20.5753 128.879 20.5753C128.551 20.5753 128.258 20.6416 127.999 20.7741C127.741 20.9034 127.537 21.0824 127.388 21.3111C127.242 21.5365 127.169 21.7966 127.169 22.0916C127.169 22.38 127.24 22.6352 127.383 22.8572C127.526 23.076 127.726 23.2483 127.985 23.3743C128.243 23.4969 128.541 23.5582 128.879 23.5582ZM128.879 19.0092C129.164 19.0092 129.418 18.9512 129.64 18.8352C129.862 18.7192 130.036 18.5585 130.162 18.353C130.288 18.1475 130.351 17.9105 130.351 17.642C130.351 17.3769 130.288 17.1449 130.162 16.946C130.036 16.7438 129.864 16.5864 129.645 16.4737C129.426 16.3577 129.171 16.2997 128.879 16.2997C128.591 16.2997 128.336 16.3577 128.114 16.4737C127.892 16.5864 127.718 16.7438 127.592 16.946C127.469 17.1449 127.408 17.3769 127.408 17.642C127.408 17.9105 127.471 18.1475 127.597 18.353C127.723 18.5585 127.897 18.7192 128.119 18.8352C128.341 18.9512 128.594 19.0092 128.879 19.0092Z" fill="white"/>
</svg>
