<svg width="150" height="40" viewBox="0 0 150 40" fill="none" xmlns="http://www.w3.org/2000/svg">
<rect width="150" height="40" rx="2" fill="#553DE8"/>
<path d="M40.4992 22.98C39.9552 23.74 39.1912 24.12 38.2072 24.12C37.2232 24.12 36.4592 23.74 35.9152 22.98C35.3712 22.212 35.0992 21.152 35.0992 19.8C35.0992 18.44 35.3712 17.38 35.9152 16.62C36.4592 15.86 37.2232 15.48 38.2072 15.48C39.1912 15.48 39.9552 15.86 40.4992 16.62C41.0512 17.38 41.3272 18.44 41.3272 19.8C41.3272 21.152 41.0512 22.212 40.4992 22.98ZM37.0672 21.936C37.3472 22.448 37.7272 22.704 38.2072 22.704C38.6872 22.704 39.0672 22.448 39.3472 21.936C39.6272 21.424 39.7672 20.712 39.7672 19.8C39.7672 18.888 39.6272 18.18 39.3472 17.676C39.0672 17.164 38.6872 16.908 38.2072 16.908C37.7272 16.908 37.3472 17.164 37.0672 17.676C36.7952 18.18 36.6592 18.888 36.6592 19.8C36.6592 20.712 36.7952 21.424 37.0672 21.936ZM42.6307 23.028C42.5507 22.924 42.5547 22.82 42.6427 22.716L43.2787 22.104C43.3907 22.008 43.4947 22.008 43.5907 22.104C44.0387 22.552 44.5467 22.776 45.1147 22.776C45.4907 22.776 45.8027 22.672 46.0507 22.464C46.2987 22.248 46.4227 21.98 46.4227 21.66C46.4227 21.26 46.2747 20.948 45.9787 20.724C45.6907 20.5 45.2707 20.388 44.7187 20.388H44.0227C43.8707 20.388 43.7947 20.308 43.7947 20.148V19.368C43.7947 19.2 43.8707 19.116 44.0227 19.116H44.7187C45.2147 19.116 45.5947 19.012 45.8587 18.804C46.1227 18.596 46.2547 18.324 46.2547 17.988C46.2547 17.66 46.1347 17.392 45.8947 17.184C45.6547 16.968 45.3747 16.86 45.0547 16.86C44.5427 16.86 44.1267 17.056 43.8067 17.448C43.7027 17.568 43.5907 17.572 43.4707 17.46L42.8707 16.896C42.7587 16.808 42.7587 16.7 42.8707 16.572C43.4467 15.844 44.2187 15.48 45.1867 15.48C45.9307 15.48 46.5547 15.688 47.0587 16.104C47.5707 16.52 47.8267 17.068 47.8267 17.748C47.8267 18.228 47.6987 18.628 47.4427 18.948C47.1947 19.26 46.8987 19.496 46.5547 19.656V19.704C46.9467 19.856 47.2907 20.104 47.5867 20.448C47.8907 20.792 48.0427 21.212 48.0427 21.708C48.0427 22.412 47.7787 22.992 47.2507 23.448C46.7307 23.896 46.0467 24.12 45.1987 24.12C44.1267 24.12 43.2707 23.756 42.6307 23.028ZM49.3221 23.028C49.2421 22.924 49.2461 22.82 49.3341 22.716L49.9701 22.104C50.0821 22.008 50.1861 22.008 50.2821 22.104C50.7301 22.552 51.2381 22.776 51.8061 22.776C52.1821 22.776 52.4941 22.672 52.7421 22.464C52.9901 22.248 53.1141 21.98 53.1141 21.66C53.1141 21.26 52.9661 20.948 52.6701 20.724C52.3821 20.5 51.9621 20.388 51.4101 20.388H50.7141C50.5621 20.388 50.4861 20.308 50.4861 20.148V19.368C50.4861 19.2 50.5621 19.116 50.7141 19.116H51.4101C51.9061 19.116 52.2861 19.012 52.5501 18.804C52.8141 18.596 52.9461 18.324 52.9461 17.988C52.9461 17.66 52.8261 17.392 52.5861 17.184C52.3461 16.968 52.0661 16.86 51.7461 16.86C51.2341 16.86 50.8181 17.056 50.4981 17.448C50.3941 17.568 50.2821 17.572 50.1621 17.46L49.5621 16.896C49.4501 16.808 49.4501 16.7 49.5621 16.572C50.1381 15.844 50.9101 15.48 51.8781 15.48C52.6221 15.48 53.2461 15.688 53.7501 16.104C54.2621 16.52 54.5181 17.068 54.5181 17.748C54.5181 18.228 54.3901 18.628 54.1341 18.948C53.8861 19.26 53.5901 19.496 53.2461 19.656V19.704C53.6381 19.856 53.9821 20.104 54.2781 20.448C54.5821 20.792 54.7341 21.212 54.7341 21.708C54.7341 22.412 54.4701 22.992 53.9421 23.448C53.4221 23.896 52.7381 24.12 51.8901 24.12C50.8181 24.12 49.9621 23.756 49.3221 23.028ZM61.5695 22.98C61.0255 23.74 60.2615 24.12 59.2775 24.12C58.2935 24.12 57.5295 23.74 56.9855 22.98C56.4415 22.212 56.1695 21.152 56.1695 19.8C56.1695 18.44 56.4415 17.38 56.9855 16.62C57.5295 15.86 58.2935 15.48 59.2775 15.48C60.2615 15.48 61.0255 15.86 61.5695 16.62C62.1215 17.38 62.3975 18.44 62.3975 19.8C62.3975 21.152 62.1215 22.212 61.5695 22.98ZM58.1375 21.936C58.4175 22.448 58.7975 22.704 59.2775 22.704C59.7575 22.704 60.1375 22.448 60.4175 21.936C60.6975 21.424 60.8375 20.712 60.8375 19.8C60.8375 18.888 60.6975 18.18 60.4175 17.676C60.1375 17.164 59.7575 16.908 59.2775 16.908C58.7975 16.908 58.4175 17.164 58.1375 17.676C57.8655 18.18 57.7295 18.888 57.7295 19.8C57.7295 20.712 57.8655 21.424 58.1375 21.936ZM72.1398 22.98C71.5958 23.74 70.8318 24.12 69.8478 24.12C68.8638 24.12 68.0998 23.74 67.5558 22.98C67.0118 22.212 66.7398 21.152 66.7398 19.8C66.7398 18.44 67.0118 17.38 67.5558 16.62C68.0998 15.86 68.8638 15.48 69.8478 15.48C70.8318 15.48 71.5958 15.86 72.1398 16.62C72.6918 17.38 72.9678 18.44 72.9678 19.8C72.9678 21.152 72.6918 22.212 72.1398 22.98ZM68.7078 21.936C68.9878 22.448 69.3678 22.704 69.8478 22.704C70.3278 22.704 70.7078 22.448 70.9878 21.936C71.2678 21.424 71.4078 20.712 71.4078 19.8C71.4078 18.888 71.2678 18.18 70.9878 17.676C70.7078 17.164 70.3278 16.908 69.8478 16.908C69.3678 16.908 68.9878 17.164 68.7078 17.676C68.4358 18.18 68.2998 18.888 68.2998 19.8C68.2998 20.712 68.4358 21.424 68.7078 21.936ZM74.2833 22.212C74.2193 22.212 74.1633 22.188 74.1153 22.14C74.0673 22.092 74.0433 22.036 74.0433 21.972V21.192C74.0433 21.024 74.0953 20.884 74.1993 20.772L78.4473 15.612C78.5273 15.524 78.6313 15.48 78.7593 15.48H79.3473C79.4113 15.48 79.4673 15.504 79.5153 15.552C79.5633 15.6 79.5873 15.656 79.5873 15.72V20.928H80.5713C80.7313 20.928 80.8113 21 80.8113 21.144V21.972C80.8113 22.036 80.7873 22.092 80.7393 22.14C80.6993 22.188 80.6433 22.212 80.5713 22.212H79.5873L79.5993 23.76C79.5993 23.824 79.5753 23.88 79.5273 23.928C79.4793 23.976 79.4233 24 79.3593 24H78.3393C78.2753 24 78.2193 23.976 78.1713 23.928C78.1233 23.88 78.0993 23.824 78.0993 23.76V22.212H74.2833ZM75.6993 20.94V20.964H78.1473V17.976H78.1233L75.6993 20.94ZM83.1597 23.76V17.844L82.0797 18.084C82.0157 18.1 81.9597 18.092 81.9117 18.06C81.8637 18.02 81.8357 17.972 81.8277 17.916L81.7557 17.316C81.7477 17.212 81.7877 17.124 81.8757 17.052L83.4117 15.756C83.5237 15.652 83.6637 15.6 83.8317 15.6H84.4557C84.5197 15.6 84.5717 15.624 84.6117 15.672C84.6597 15.712 84.6837 15.764 84.6837 15.828V23.76C84.6837 23.824 84.6597 23.88 84.6117 23.928C84.5717 23.976 84.5197 24 84.4557 24H83.3997C83.3277 24 83.2677 23.976 83.2197 23.928C83.1797 23.88 83.1597 23.824 83.1597 23.76ZM90.267 23.316C90.203 23.156 90.279 23.036 90.495 22.956C90.679 22.9 90.887 22.816 91.119 22.704C91.351 22.592 91.615 22.444 91.911 22.26C92.207 22.068 92.475 21.832 92.715 21.552C92.955 21.264 93.119 20.964 93.207 20.652C93.079 20.732 92.875 20.812 92.595 20.892C92.323 20.964 92.059 21 91.803 21C91.131 21 90.543 20.76 90.039 20.28C89.535 19.8 89.283 19.144 89.283 18.312C89.283 17.536 89.559 16.872 90.111 16.32C90.663 15.76 91.319 15.48 92.079 15.48C93.007 15.48 93.727 15.804 94.239 16.452C94.759 17.1 95.019 17.912 95.019 18.888C95.019 19.568 94.907 20.204 94.683 20.796C94.459 21.38 94.191 21.86 93.879 22.236C93.567 22.604 93.207 22.936 92.799 23.232C92.391 23.528 92.039 23.744 91.743 23.88C91.455 24.016 91.175 24.128 90.903 24.216C90.727 24.272 90.611 24.216 90.555 24.048L90.267 23.316ZM92.103 19.788C92.471 19.788 92.779 19.676 93.027 19.452C93.283 19.228 93.451 18.98 93.531 18.708C93.531 18.236 93.407 17.812 93.159 17.436C92.911 17.06 92.555 16.872 92.091 16.872C91.707 16.872 91.375 17.02 91.095 17.316C90.815 17.604 90.675 17.944 90.675 18.336C90.675 18.736 90.815 19.08 91.095 19.368C91.375 19.648 91.711 19.788 92.103 19.788ZM96.2557 23.028C96.1757 22.924 96.1797 22.82 96.2677 22.716L96.9037 22.104C97.0157 22.008 97.1197 22.008 97.2157 22.104C97.6637 22.552 98.1717 22.776 98.7397 22.776C99.1157 22.776 99.4277 22.672 99.6757 22.464C99.9237 22.248 100.048 21.98 100.048 21.66C100.048 21.26 99.8997 20.948 99.6037 20.724C99.3157 20.5 98.8957 20.388 98.3437 20.388H97.6477C97.4957 20.388 97.4197 20.308 97.4197 20.148V19.368C97.4197 19.2 97.4957 19.116 97.6477 19.116H98.3437C98.8397 19.116 99.2197 19.012 99.4837 18.804C99.7477 18.596 99.8797 18.324 99.8797 17.988C99.8797 17.66 99.7597 17.392 99.5197 17.184C99.2797 16.968 98.9997 16.86 98.6797 16.86C98.1677 16.86 97.7517 17.056 97.4317 17.448C97.3277 17.568 97.2157 17.572 97.0957 17.46L96.4957 16.896C96.3837 16.808 96.3837 16.7 96.4957 16.572C97.0717 15.844 97.8437 15.48 98.8117 15.48C99.5557 15.48 100.18 15.688 100.684 16.104C101.196 16.52 101.452 17.068 101.452 17.748C101.452 18.228 101.324 18.628 101.068 18.948C100.82 19.26 100.524 19.496 100.18 19.656V19.704C100.572 19.856 100.916 20.104 101.212 20.448C101.516 20.792 101.668 21.212 101.668 21.708C101.668 22.412 101.404 22.992 100.876 23.448C100.356 23.896 99.6717 24.12 98.8237 24.12C97.7517 24.12 96.8957 23.756 96.2557 23.028ZM103.031 20.712C103.031 20.032 103.143 19.4 103.367 18.816C103.591 18.224 103.855 17.744 104.159 17.376C104.471 17.008 104.835 16.676 105.251 16.38C105.667 16.076 106.019 15.856 106.307 15.72C106.595 15.584 106.875 15.472 107.147 15.384C107.331 15.336 107.447 15.392 107.495 15.552L107.783 16.284C107.855 16.46 107.779 16.58 107.555 16.644C107.371 16.7 107.163 16.784 106.931 16.896C106.699 17.008 106.435 17.16 106.139 17.352C105.843 17.536 105.575 17.772 105.335 18.06C105.095 18.34 104.931 18.64 104.843 18.96C104.963 18.88 105.159 18.804 105.431 18.732C105.711 18.652 105.983 18.612 106.247 18.612C106.919 18.612 107.507 18.852 108.011 19.332C108.515 19.804 108.767 20.456 108.767 21.288C108.767 22.064 108.491 22.732 107.939 23.292C107.387 23.844 106.731 24.12 105.971 24.12C105.043 24.12 104.319 23.796 103.799 23.148C103.287 22.5 103.031 21.688 103.031 20.712ZM105.959 22.74C106.359 22.74 106.695 22.604 106.967 22.332C107.239 22.052 107.375 21.696 107.375 21.264C107.375 20.856 107.235 20.512 106.955 20.232C106.683 19.952 106.347 19.812 105.947 19.812C105.579 19.812 105.267 19.924 105.011 20.148C104.763 20.372 104.599 20.62 104.519 20.892C104.519 21.372 104.643 21.8 104.891 22.176C105.139 22.552 105.495 22.74 105.959 22.74ZM110.052 21.756C110.052 21.26 110.2 20.84 110.496 20.496C110.792 20.144 111.144 19.876 111.552 19.692V19.644C111.216 19.5 110.92 19.26 110.664 18.924C110.408 18.58 110.28 18.188 110.28 17.748C110.28 17.068 110.536 16.52 111.048 16.104C111.56 15.688 112.196 15.48 112.956 15.48C113.74 15.48 114.392 15.688 114.912 16.104C115.432 16.52 115.692 17.068 115.692 17.748C115.692 18.18 115.56 18.564 115.296 18.9C115.04 19.236 114.748 19.48 114.42 19.632V19.692C114.844 19.868 115.2 20.132 115.488 20.484C115.776 20.836 115.92 21.26 115.92 21.756C115.92 22.444 115.648 23.012 115.104 23.46C114.568 23.9 113.852 24.12 112.956 24.12C112.084 24.12 111.38 23.896 110.844 23.448C110.316 23 110.052 22.436 110.052 21.756ZM112.992 18.972C113.36 18.884 113.636 18.736 113.82 18.528C114.012 18.32 114.108 18.08 114.108 17.808C114.108 17.512 114 17.264 113.784 17.064C113.576 16.856 113.3 16.752 112.956 16.752C112.636 16.752 112.372 16.856 112.164 17.064C111.964 17.264 111.864 17.512 111.864 17.808C111.864 18.4 112.24 18.788 112.992 18.972ZM111.696 21.72C111.696 22.064 111.812 22.34 112.044 22.548C112.284 22.756 112.6 22.86 112.992 22.86C113.376 22.86 113.684 22.756 113.916 22.548C114.156 22.34 114.276 22.064 114.276 21.72C114.276 21.432 114.16 21.168 113.928 20.928C113.704 20.68 113.392 20.508 112.992 20.412C112.592 20.508 112.276 20.68 112.044 20.928C111.812 21.168 111.696 21.432 111.696 21.72Z" fill="white"/>
</svg>
