<?xml version="1.0" encoding="UTF-8"?>
<svg width="218px" height="64px" viewBox="0 0 218 64" version="1.1" xmlns="http://www.w3.org/2000/svg" xmlns:xlink="http://www.w3.org/1999/xlink">
    <!-- Generator: Sketch 63.1 (92452) - https://sketch.com -->
    <title>Insurance LineDirect</title>
    <desc>Created with Sketch.</desc>
    <g id="line-direct-home" stroke="none" stroke-width="1" fill="none" fill-rule="evenodd">
        <g id="insurance-line-direct-logo-copy" transform="translate(-102.000000, -16.000000)" fill-rule="nonzero">
            <g id="cover-line-logo" transform="translate(0.000000, 15.000000)">
                <g id="Insurance-LineDirect" transform="translate(102.752006, 1.460001)">
                    <path d="M3.49440019,21.8400012 C3.80640021,21.8400012 4.08720022,21.5592012 4.08720022,21.2472012 L4.08720022,0.592800033 C4.08720022,0.280800015 3.80640021,5.32907052e-14 3.49440019,5.32907052e-14 L0.592800033,5.32907052e-14 C0.280800015,5.32907052e-14 3.41060513e-13,0.280800015 3.41060513e-13,0.592800033 L3.41060513e-13,21.2472012 C3.41060513e-13,21.5592012 0.280800015,21.8400012 0.592800033,21.8400012 L3.49440019,21.8400012 Z M11.7312006,21.8400012 C12.4176007,21.8400012 12.6360007,21.6840012 12.6360007,21.1536012 L12.6360007,12.9168007 C12.9792007,11.9184007 13.8840008,10.6704006 15.7560009,10.6704006 C17.503201,10.6704006 18.252001,11.8248007 18.252001,13.6968008 L18.252001,21.1536012 C18.252001,21.5280012 18.564001,21.8400012 18.938401,21.8400012 L21.4656012,21.8400012 C21.8088012,21.8400012 22.1520012,21.5280012 22.1520012,21.1536012 L22.1520012,13.6968008 C22.1520012,10.2024006 20.9664012,7.11360039 16.3800009,7.11360039 C13.6032007,7.11360039 12.2616007,8.61120047 11.7312006,9.20400051 L11.2008006,7.86240043 C11.1072006,7.58160042 10.9512006,7.42560041 10.6080006,7.42560041 L9.42240052,7.42560041 C9.0792005,7.42560041 8.73600048,7.70640042 8.73600048,8.11200045 L8.73600048,21.1536012 C8.73600048,21.5280012 9.0792005,21.8400012 9.42240052,21.8400012 L11.7312006,21.8400012 Z M30.2640017,22.1832012 C33.8832019,22.1832012 35.817602,20.1552011 35.817602,17.877601 C35.817602,15.0072008 33.8208019,14.0088008 31.0440017,12.8856007 C29.7024016,12.3240007 28.9848016,11.9808007 28.9848016,11.3256006 C28.9848016,10.8576006 29.3904016,10.3896006 30.3576017,10.3896006 C31.5432017,10.3896006 32.5416018,10.7952006 33.2280018,11.1072006 C33.5400018,11.2320006 33.9144019,11.1696006 34.1328019,10.8264006 L34.9440019,9.1728005 C35.1312019,8.79840048 34.9440019,8.42400046 34.6320019,8.17440045 C33.8520019,7.67520042 32.4792018,7.11360039 30.3576017,7.11360039 C26.8320015,7.11360039 25.1784014,9.1416005 25.1784014,11.3256006 C25.1784014,13.5096007 26.4264015,14.8200008 29.2032016,15.8808009 C31.1064017,16.6296009 31.9176018,17.2224009 31.9176018,17.877601 C31.9176018,18.501601 31.4184017,18.907201 30.3264017,18.907201 C28.8288016,18.907201 27.7992015,18.376801 27.1440015,17.971201 C26.8008015,17.752801 26.4576015,17.877601 26.3016014,18.220801 L25.3656014,20.0928011 C25.2096014,20.4048011 25.3656014,20.7480011 25.5528014,20.8728011 C26.3640015,21.4344012 27.8616015,22.1832012 30.2640017,22.1832012 Z M44.1480024,22.1832012 C46.3632026,22.1832012 47.8608026,20.8728011 48.6096027,20.0928011 L49.0152027,21.3096012 C49.1088027,21.5904012 49.3584027,21.8400012 49.7016027,21.8400012 L50.8248028,21.8400012 C51.1992028,21.8400012 51.5112028,21.5280012 51.5112028,21.1536012 L51.5112028,8.11200045 C51.5112028,7.70640042 51.1992028,7.42560041 50.8248028,7.42560041 L48.3912027,7.42560041 C47.7984026,7.42560041 47.6112026,7.55040042 47.6112026,8.11200045 L47.6112026,15.9432009 C47.3928026,17.1912009 46.6440026,18.626401 45.0528025,18.626401 C43.2744024,18.626401 42.6192023,17.659201 42.6192023,15.7560009 L42.6192023,8.11200045 C42.6192023,7.70640042 42.3072023,7.42560041 41.9328023,7.42560041 L39.4056022,7.42560041 C39.0312021,7.42560041 38.7192021,7.70640042 38.7192021,8.11200045 L38.7192021,15.7560009 C38.7192021,19.4064011 39.6864022,22.1832012 44.1480024,22.1832012 Z M58.5936032,21.8400012 C59.0616032,21.8400012 59.4048033,21.6840012 59.4048033,21.1536012 L59.4048033,12.1680007 C59.6544033,11.6688006 60.5904033,10.6704006 62.1504034,10.6704006 C62.8056035,10.6704006 63.1488035,10.7952006 63.4920035,10.9512006 C63.8352035,11.1072006 64.1784035,10.9824006 64.3344035,10.6392006 L65.2704036,8.51760047 C65.6760036,7.58160042 64.2720035,7.11360039 62.5560034,7.11360039 C60.3408033,7.11360039 58.9992032,8.58000047 58.5000032,9.29760051 L57.9696032,7.89360043 C57.8448032,7.58160042 57.6888032,7.42560041 57.3456032,7.42560041 L56.1912031,7.42560041 C55.8480031,7.42560041 55.5048031,7.70640042 55.5048031,8.11200045 L55.5048031,21.1536012 C55.5048031,21.5280012 55.8480031,21.8400012 56.1912031,21.8400012 L58.5936032,21.8400012 Z M71.4480039,22.1832012 C73.6944041,22.1832012 75.1296041,21.1848012 75.9720042,20.3736011 L76.3776042,21.3408012 C76.5648042,21.7464012 76.7520042,21.8400012 77.0016042,21.8400012 L78.0624043,21.8400012 C78.4368043,21.8400012 78.7488043,21.5280012 78.7488043,21.1536012 L78.7488043,13.3848007 C78.7488043,9.45360052 77.8128043,7.11360039 73.320004,7.11360039 C70.9800039,7.11360039 68.7024038,7.70640042 68.3904038,7.83120043 C68.0784037,7.92480044 67.7976037,8.17440045 67.9224037,8.70480048 L68.2344038,10.3272006 C68.2968038,10.7640006 68.5776038,11.1072006 69.0456038,10.9512006 C69.8880038,10.7016006 71.7912039,10.4208006 73.101604,10.4208006 C74.6304041,10.4208006 75.1608041,11.2944006 75.0984041,13.1352007 C75.0984041,13.1352007 73.7880041,12.7296007 72.321604,12.7296007 C68.6712038,12.7296007 66.5808037,14.6952008 66.5808037,17.2536009 C66.5808037,20.3424011 68.5776038,22.1832012 71.4480039,22.1832012 Z M72.415204,19.2816011 C71.0736039,19.2816011 70.3248039,18.470401 70.3248039,17.2536009 C70.3248039,15.9744009 71.2296039,15.1944008 72.883204,15.1944008 C74.0376041,15.1944008 75.0048041,15.6312009 75.0048041,15.6312009 L75.0048041,17.752801 C74.8176041,18.283201 73.6944041,19.2816011 72.415204,19.2816011 Z M85.6128047,21.8400012 C86.2992047,21.8400012 86.5176048,21.6840012 86.5176048,21.1536012 L86.5176048,12.9168007 C86.8608048,11.9184007 87.7656048,10.6704006 89.6376049,10.6704006 C91.384805,10.6704006 92.1336051,11.8248007 92.1336051,13.6968008 L92.1336051,21.1536012 C92.1336051,21.5280012 92.4456051,21.8400012 92.8200051,21.8400012 L95.3472052,21.8400012 C95.6904053,21.8400012 96.0336053,21.5280012 96.0336053,21.1536012 L96.0336053,13.6968008 C96.0336053,10.2024006 94.8480052,7.11360039 90.261605,7.11360039 C87.4848048,7.11360039 86.1432047,8.61120047 85.6128047,9.20400051 L85.0824047,7.86240043 C84.9888047,7.58160042 84.8328047,7.42560041 84.4896046,7.42560041 L83.3040046,7.42560041 C82.9608046,7.42560041 82.6176045,7.70640042 82.6176045,8.11200045 L82.6176045,21.1536012 C82.6176045,21.5280012 82.9608046,21.8400012 83.3040046,21.8400012 L85.6128047,21.8400012 Z M106.610406,22.1832012 C109.168806,22.1832012 111.103206,21.0600012 112.320006,19.1568011 C112.569606,18.782401 112.413606,18.439201 112.070406,18.127201 L110.666406,16.9416009 C110.416806,16.7232009 109.980006,16.7856009 109.761606,17.0352009 C109.137606,17.752801 108.295206,18.626401 106.704006,18.626401 C104.457606,18.626401 102.928806,16.8792009 102.928806,14.6328008 C102.928806,12.4176007 104.488806,10.6704006 106.735206,10.6704006 C108.076806,10.6704006 108.919206,11.2632006 109.605606,11.9184007 C109.886406,12.1992007 110.229606,12.3552007 110.541606,12.0120007 L111.852006,10.5768006 C112.164006,10.2648006 112.320006,9.85920054 112.008006,9.54720053 C110.635206,8.08080044 108.888006,7.11360039 106.641606,7.11360039 C102.367206,7.11360039 98.9976054,10.3896006 98.9976054,14.6328008 C98.9976054,18.969601 102.398406,22.1832012 106.610406,22.1832012 Z M121.648807,22.1832012 C123.988807,22.1832012 125.767207,21.2784012 127.015207,20.2176011 C127.358407,19.9056011 127.327207,19.5624011 127.077607,19.2816011 L125.860807,17.659201 C125.642407,17.347201 125.268007,17.378401 124.924807,17.659201 C124.269607,18.189601 123.271207,18.720001 121.836007,18.720001 C119.745607,18.720001 118.279207,17.1600009 118.248007,15.3816008 L127.483207,15.3816008 C127.795207,15.3816008 128.138407,15.1008008 128.169607,14.7264008 C128.200807,14.5080008 128.232007,14.0088008 128.232007,13.7904008 C128.232007,9.89040054 125.361607,7.11360039 121.617607,7.11360039 C117.343206,7.11360039 114.348006,10.5768006 114.348006,14.6328008 C114.348006,18.751201 117.343206,22.1832012 121.648807,22.1832012 Z M124.300807,12.8232007 L118.466407,12.8232007 C118.653607,11.3880006 119.776807,10.3272006 121.524007,10.3272006 C123.115207,10.3272006 124.238407,11.4192006 124.300807,12.8232007 Z" id="Insurance" fill="#FF7A00"></path>
                    <path d="M19.9550011,62.1400034 C20.4841011,62.1400034 20.8689011,61.7071034 20.8689011,61.2261034 L20.8689011,57.2819032 C20.8689011,56.8009031 20.4841011,56.3680031 19.9550011,56.3680031 L7.68950042,56.3680031 L7.68950042,29.3839016 C7.68950042,28.9029016 7.2566004,28.4700016 6.77560037,28.4700016 L2.35040013,28.4700016 C1.8213001,28.4700016 1.43650008,28.9029016 1.43650008,29.3839016 L1.43650008,61.2261034 C1.43650008,61.7071034 1.8213001,62.1400034 2.35040013,62.1400034 L19.9550011,62.1400034 Z M27.6510015,36.117902 C29.8155016,36.117902 31.4990017,34.3863019 31.4990017,32.2699018 C31.4990017,30.1535017 29.8155016,28.4700016 27.6510015,28.4700016 C25.4865014,28.4700016 23.8511013,30.1535017 23.8511013,32.2699018 C23.8511013,34.3863019 25.4865014,36.117902 27.6510015,36.117902 Z M29.6712016,62.1400034 C30.2003017,62.1400034 30.7294017,61.6590034 30.7294017,61.0818034 L30.7294017,40.9760023 C30.7294017,40.3507022 30.2003017,39.9178022 29.6712016,39.9178022 L25.7751014,39.9178022 C25.2460014,39.9178022 24.7169014,40.3507022 24.7169014,40.9760023 L24.7169014,61.0818034 C24.7169014,61.6590034 25.2460014,62.1400034 25.7751014,62.1400034 L29.6712016,62.1400034 Z M41.5038023,62.1400034 C42.5620023,62.1400034 42.8987024,61.8995034 42.8987024,61.0818034 L42.8987024,48.3834027 C43.4278024,46.8442026 44.8227025,44.9202025 47.7087026,44.9202025 C50.4023028,44.9202025 51.5567028,46.6999026 51.5567028,49.5859027 L51.5567028,61.0818034 C51.5567028,61.6590034 52.0377029,62.1400034 52.6149029,62.1400034 L56.5110031,62.1400034 C57.0401031,62.1400034 57.5692032,61.6590034 57.5692032,61.0818034 L57.5692032,49.5859027 C57.5692032,44.1987024 55.7414031,39.4368022 48.6707027,39.4368022 C44.3898024,39.4368022 42.3215023,41.7456023 41.5038023,42.6595023 L40.6861022,40.5912022 C40.5418022,40.1583022 40.3013022,39.9178022 39.7722022,39.9178022 L37.9444021,39.9178022 C37.4153021,39.9178022 36.886202,40.3507022 36.886202,40.9760023 L36.886202,61.0818034 C36.886202,61.6590034 37.4153021,62.1400034 37.9444021,62.1400034 L41.5038023,62.1400034 Z M73.394104,62.6691034 C77.0016042,62.6691034 79.7433044,61.2742034 81.6673045,59.6388033 C82.1964045,59.1578033 82.1483045,58.6287032 81.7635045,58.1958032 L79.8876044,55.6946031 C79.5509044,55.213603 78.9737043,55.261703 78.4446043,55.6946031 C77.4345043,56.5123031 75.8953042,57.3300032 73.6827041,57.3300032 C70.4600039,57.3300032 68.1993038,54.925003 68.1512037,52.1833029 L82.3888045,52.1833029 C82.8698046,52.1833029 83.3989046,51.7504028 83.4470046,51.1732028 C83.4951046,50.8365028 83.5432046,50.0669028 83.5432046,49.7302027 C83.5432046,43.7177024 79.1180044,39.4368022 73.346004,39.4368022 C66.7563037,39.4368022 62.1387034,44.7759025 62.1387034,51.0289028 C62.1387034,57.3781032 66.7563037,62.6691034 73.394104,62.6691034 Z M77.4826043,48.2391027 L68.4879038,48.2391027 C68.7765038,46.0265025 70.5081039,44.3911024 73.201704,44.3911024 C75.6548042,44.3911024 77.3864043,46.0746025 77.4826043,48.2391027 Z M101.340206,62.1400034 C110.623506,62.1400034 118.223307,54.588303 118.223307,45.2569025 C118.223307,36.021702 110.623506,28.4700016 101.340206,28.4700016 L89.9405049,28.4700016 C89.4595049,28.4700016 89.0747049,28.9029016 89.0747049,29.3839016 L89.0747049,61.2261034 C89.0747049,61.7071034 89.4595049,62.1400034 89.9405049,62.1400034 L101.340206,62.1400034 Z M100.763006,56.2718031 L95.2796052,56.2718031 L95.2796052,34.2901019 L100.763006,34.2901019 C107.016006,34.2901019 111.585506,38.7153021 111.585506,45.2569025 C111.585506,51.8466029 107.016006,56.2718031 100.763006,56.2718031 Z M126.352207,36.117902 C128.516707,36.117902 130.200207,34.3863019 130.200207,32.2699018 C130.200207,30.1535017 128.516707,28.4700016 126.352207,28.4700016 C124.187707,28.4700016 122.552307,30.1535017 122.552307,32.2699018 C122.552307,34.3863019 124.187707,36.117902 126.352207,36.117902 Z M128.372407,62.1400034 C128.901507,62.1400034 129.430607,61.6590034 129.430607,61.0818034 L129.430607,40.9760023 C129.430607,40.3507022 128.901507,39.9178022 128.372407,39.9178022 L124.476307,39.9178022 C123.947207,39.9178022 123.418107,40.3507022 123.418107,40.9760023 L123.418107,61.0818034 C123.418107,61.6590034 123.947207,62.1400034 124.476307,62.1400034 L128.372407,62.1400034 Z M140.349308,62.1400034 C141.070808,62.1400034 141.599908,61.8995034 141.599908,61.0818034 L141.599908,47.2290026 C141.984708,46.4594026 143.427708,44.9202025 145.832708,44.9202025 C146.842808,44.9202025 147.371908,45.1126025 147.901008,45.3531025 C148.430108,45.5936025 148.959208,45.4012025 149.199708,44.8721025 L150.642708,41.6013023 C151.268008,40.1583022 149.103508,39.4368022 146.458008,39.4368022 C143.042908,39.4368022 140.974608,41.6975023 140.205008,42.8038024 L139.387308,40.6393022 C139.194908,40.1583022 138.954408,39.9178022 138.425308,39.9178022 L136.645608,39.9178022 C136.116507,39.9178022 135.587407,40.3507022 135.587407,40.9760023 L135.587407,61.0818034 C135.587407,61.6590034 136.116507,62.1400034 136.645608,62.1400034 L140.349308,62.1400034 Z M164.110709,62.6691034 C167.718209,62.6691034 170.459909,61.2742034 172.383909,59.6388033 C172.91301,59.1578033 172.86491,58.6287032 172.480109,58.1958032 L170.604209,55.6946031 C170.267509,55.213603 169.690309,55.261703 169.161209,55.6946031 C168.151109,56.5123031 166.611909,57.3300032 164.399309,57.3300032 C161.176609,57.3300032 158.915909,54.925003 158.867809,52.1833029 L173.10541,52.1833029 C173.58641,52.1833029 174.11551,51.7504028 174.16361,51.1732028 C174.21171,50.8365028 174.25981,50.0669028 174.25981,49.7302027 C174.25981,43.7177024 169.834609,39.4368022 164.062609,39.4368022 C157.472909,39.4368022 152.855308,44.7759025 152.855308,51.0289028 C152.855308,57.3781032 157.472909,62.6691034 164.110709,62.6691034 Z M168.199209,48.2391027 L159.204509,48.2391027 C159.493109,46.0265025 161.224709,44.3911024 163.918309,44.3911024 C166.371409,44.3911024 168.103009,46.0746025 168.199209,48.2391027 Z M189.17081,62.6691034 C193.115011,62.6691034 196.097211,60.9375034 197.973111,58.0034032 C198.357911,57.4262032 198.117411,56.8971031 197.588311,56.4161031 L195.423811,54.588303 C195.039011,54.251603 194.365611,54.347803 194.028911,54.732603 C193.066911,55.8389031 191.768211,57.1857031 189.31511,57.1857031 C185.85191,57.1857031 183.49501,54.492103 183.49501,51.0289028 C183.49501,47.6138026 185.90001,44.9202025 189.36321,44.9202025 C191.431511,44.9202025 192.730211,45.8341025 193.788411,46.8442026 C194.221311,47.2771026 194.750411,47.5176026 195.231411,46.9885026 L197.251611,44.7759025 C197.732611,44.2949024 197.973111,43.6696024 197.492111,43.1886024 C195.375711,40.9279023 192.682111,39.4368022 189.21891,39.4368022 C182.62921,39.4368022 177.43441,44.4873024 177.43441,51.0289028 C177.43441,57.7148032 182.67731,62.6691034 189.17081,62.6691034 Z M210.142412,62.6691034 C212.451212,62.6691034 215.625812,61.6590034 216.395412,61.2261034 C216.924512,60.9375034 217.165012,60.5046033 217.020712,59.9274033 L216.395412,56.9933031 C216.299212,56.4642031 215.770112,56.1756031 215.144812,56.4161031 C214.567612,56.6085031 212.739812,57.1376031 211.777812,57.1376031 C210.671512,57.1376031 209.950012,56.8009031 209.950012,55.309803 L209.950012,45.3050025 L215.144812,45.3050025 C215.722012,45.3050025 216.203012,44.7759025 216.203012,44.2468024 L216.203012,40.9760023 C216.203012,40.3507022 215.722012,39.9178022 215.144812,39.9178022 L209.950012,39.9178022 L209.950012,33.7610019 C209.950012,33.1838018 209.517112,32.7028018 208.939911,32.7028018 L204.995711,32.7028018 C204.466611,32.7028018 203.937511,33.1838018 203.937511,33.7610019 L203.937511,39.9178022 L201.773011,39.9178022 C201.195811,39.9178022 200.762911,40.3507022 200.762911,40.9760023 L200.762911,44.2468024 C200.762911,44.7759025 201.195811,45.3050025 201.773011,45.3050025 L203.937511,45.3050025 L203.937511,55.5022031 C203.937511,59.3502033 205.188111,62.6691034 210.142412,62.6691034 Z" id="LineDirect" fill="#505050"></path>
                </g>
            </g>
        </g>
    </g>
</svg>