<svg width="41" height="17" viewBox="0 0 41 17" fill="none" xmlns="http://www.w3.org/2000/svg">
<path d="M39.9288 9.3687C39.8506 5.076 37.1749 2.54782 32.5916 2.30567C28.344 2.08125 26.039 4.67312 26.2819 8.73074C26.5381 13.01 29.1575 15.6704 33.4054 15.8949L40.5865 16.2743L40.4386 13.8029L38.3254 13.6913C39.3139 12.8394 39.9632 11.3061 39.9295 9.36858L39.9289 9.36855L39.9288 9.3687ZM31.2772 8.99466C31.1413 6.72494 31.6214 5.66389 32.7967 5.72598C33.9715 5.78805 34.584 6.90683 34.7199 9.17655C34.8557 11.4463 34.3734 12.5061 33.199 12.4441C32.0241 12.382 31.4134 11.2644 31.2775 8.99468L31.2772 8.99466ZM10.4089 7.77909C12.0563 7.08493 12.4788 6.16858 12.3689 4.69024C12.228 2.78877 10.6098 1.33741 7.47588 1.17184L0.367799 0.796289L1.17042 14.2049L8.40677 14.5872C11.04 14.7263 13.2659 13.574 13.1171 11.0885C13.0185 9.44092 12.0496 8.31427 10.4085 7.77892L10.4089 7.77909ZM5.43398 4.09195L6.06286 4.12517C6.93495 4.17125 7.4217 4.54187 7.46337 5.23788C7.50495 5.93266 7.06261 6.30977 6.19088 6.26371L5.56235 6.2305L5.43433 4.09197L5.43398 4.09195ZM6.7063 11.4672L5.87282 11.4232L5.72981 9.03406L6.56329 9.0781C7.4466 9.12477 8.00143 9.53974 8.04808 10.3191C8.09475 11.0987 7.58961 11.5139 6.70665 11.4672L6.7063 11.4672ZM26.3001 15.5451C26.1189 14.7389 25.6021 13.7907 24.8165 12.7455C25.1044 12.4912 25.3841 12.2297 25.6553 11.9612L23.6867 9.96628C23.4291 10.1634 23.1759 10.3669 22.9234 10.5682C22.5187 10.1485 22.082 9.72093 21.617 9.28647C22.8563 8.58681 23.6666 7.64447 23.5912 6.38486C23.5078 4.99097 22.0245 3.50923 19.4653 3.37401C16.7855 3.23243 15.3375 4.51576 15.4318 6.0921C15.4853 6.98543 16.1528 7.89483 16.8396 8.62076C15.6238 9.32044 14.5919 10.3154 14.578 11.6168C14.5523 13.9288 16.6477 15.2764 19.1157 15.3139C20.1014 15.3308 21.1653 15.1149 22.3673 14.4837C22.586 14.8175 22.742 15.1191 22.807 15.3604L26.2999 15.5449L26.2999 15.5452L26.3001 15.5451ZM19.5616 5.50825C20.0336 5.53319 20.3789 5.95392 20.4029 6.35551C20.4195 6.63274 20.2472 7.01841 19.5495 7.41043C19.0848 6.95885 18.8027 6.59317 18.7816 6.24206C18.7591 5.87142 19.0659 5.48206 19.5616 5.50825ZM18.5753 12.4079C18.1523 12.0922 17.7987 11.1754 18.8989 10.5677C19.4734 11.1271 20.0318 11.699 20.5733 12.2823C19.8153 12.6962 19.1372 12.8302 18.5753 12.4079Z" fill="black"/>
</svg>
