<svg width="69" height="15" viewBox="0 0 69 15" fill="none" xmlns="http://www.w3.org/2000/svg">
<path d="M62.126 6.46538L62.1013 2.78561C62.1004 2.6565 62.165 2.5915 62.2951 2.59063L62.6855 2.58801C62.7682 2.58745 62.8247 2.62522 62.8548 2.70131L63.0261 3.11394C63.1553 2.98395 63.2582 2.88642 63.3346 2.82134C63.4111 2.75627 63.5378 2.68499 63.7147 2.6075C63.8916 2.53001 64.0835 2.49057 64.2905 2.48918C64.5567 2.48739 64.7729 2.5329 64.9391 2.62568C65.1112 2.71843 65.3015 2.87562 65.51 3.09725C65.8917 2.68384 66.322 2.47553 66.8011 2.47231C67.9188 2.4648 68.4823 3.1477 68.4916 4.52102L68.5043 6.42252C68.5047 6.47534 68.4843 6.52243 68.4432 6.56379C68.4079 6.59925 68.3637 6.61715 68.3105 6.61751L67.3524 6.62394C67.2932 6.62434 67.2458 6.60705 67.2101 6.57208C67.1743 6.53124 67.1563 6.4844 67.1559 6.43158L67.1427 4.46845C67.1394 3.9696 66.9366 3.72153 66.5345 3.72423C66.357 3.72542 66.2155 3.79093 66.11 3.92076C66.0102 4.04468 65.9611 4.20641 65.9624 4.40595L65.9761 6.43951C65.9769 6.56863 65.9153 6.6336 65.7911 6.63444L64.8241 6.64093C64.7709 6.64129 64.7235 6.624 64.6818 6.58907C64.6461 6.54822 64.628 6.50139 64.6276 6.44857L64.6145 4.48544C64.6128 4.24482 64.5761 4.06019 64.5043 3.93155C64.4324 3.80291 64.293 3.73929 64.086 3.74068C63.885 3.74203 63.7287 3.80764 63.6172 3.93751C63.5115 4.06147 63.4594 4.22909 63.4609 4.44037L63.4744 6.45632C63.4748 6.50914 63.4544 6.55623 63.4132 6.59759C63.3721 6.63308 63.3278 6.65099 63.2805 6.6513L62.3224 6.65774C62.2633 6.65814 62.2159 6.64085 62.1802 6.60588C62.1444 6.56503 62.1263 6.5182 62.126 6.46538Z" fill="#1A171B"/>
<path d="M57.0923 4.65234C57.0885 4.07719 57.2951 3.57986 57.7122 3.16035C58.1293 2.74084 58.6306 2.52912 59.2161 2.52519C59.8016 2.52125 60.3027 2.72624 60.7195 3.14014C61.1422 3.55401 61.3555 4.04852 61.3593 4.62367C61.3632 5.20468 61.1567 5.70788 60.7396 6.13326C60.3285 6.5586 59.8301 6.77323 59.2446 6.77717C58.6591 6.7811 58.155 6.5732 57.7323 6.15347C57.3095 5.73373 57.0962 5.23335 57.0923 4.65234ZM58.3698 4.64375C58.3714 4.88438 58.4556 5.09216 58.6224 5.26712C58.795 5.43616 58.9996 5.51989 59.2362 5.5183C59.4727 5.51671 59.6733 5.43026 59.8377 5.25895C60.0021 5.08177 60.0835 4.87287 60.0819 4.63225C60.0803 4.3975 59.9962 4.19558 59.8294 4.02649C59.6627 3.85741 59.461 3.77366 59.2245 3.77525C58.9879 3.77684 58.7844 3.86331 58.6141 4.03466C58.4496 4.20597 58.3682 4.409 58.3698 4.64375Z" fill="#1A171B"/>
<path d="M52.8907 4.68653C52.8867 4.09378 53.0963 3.59056 53.5193 3.17688C53.9483 2.76316 54.4585 2.55431 55.0499 2.55034C55.665 2.5462 56.1781 2.78046 56.5894 3.25309C56.6729 3.35231 56.6558 3.44926 56.5381 3.54396L55.9652 4.10244C55.9006 4.16743 55.8237 4.16208 55.7345 4.08638C55.5143 3.89418 55.3037 3.79875 55.1026 3.80011C54.872 3.80166 54.6686 3.89106 54.4923 4.06832C54.322 4.24553 54.2376 4.44859 54.2391 4.67747C54.2408 4.92396 54.325 5.13175 54.4917 5.30083C54.6584 5.46405 54.8601 5.54486 55.0966 5.54327C55.3628 5.54149 55.6074 5.42833 55.8307 5.2038C55.8658 5.15661 55.9041 5.12994 55.9455 5.1238C55.9927 5.11761 56.0313 5.13202 56.0611 5.16704L56.641 5.65615C56.7482 5.76107 56.7725 5.85775 56.7139 5.94618C56.3333 6.51217 55.7852 6.79757 55.0696 6.80238C54.4782 6.80635 53.9682 6.6073 53.5397 6.20521C53.1111 5.79725 52.8948 5.29102 52.8907 4.68653Z" fill="#1A171B"/>
<path d="M50.4131 5.87609C50.4112 5.60612 50.5043 5.3766 50.6923 5.18753C50.8862 4.99254 51.1132 4.89418 51.3734 4.89243C51.6396 4.89064 51.8709 4.98593 52.0673 5.17829C52.2638 5.37065 52.3629 5.59888 52.3647 5.86298C52.3664 6.12121 52.2674 6.34783 52.0676 6.54286C51.8737 6.73197 51.6467 6.8274 51.3865 6.82915C51.1262 6.8309 50.8979 6.73853 50.7015 6.55203C50.5109 6.35963 50.4148 6.13432 50.4131 5.87609Z" fill="#1A171B"/>
<path d="M45.8473 4.73585C45.8434 4.15483 46.044 3.65461 46.4493 3.23518C46.8605 2.81571 47.3648 2.60397 47.9621 2.59995C48.4943 2.59638 48.951 2.77525 49.3319 3.13658C49.7187 3.49199 49.914 3.9426 49.9176 4.48841C49.9183 4.58231 49.9129 4.67038 49.9017 4.75262C49.8961 4.80548 49.8728 4.84966 49.8316 4.88515C49.7963 4.91473 49.755 4.92968 49.7077 4.93L47.1794 4.94699C47.1806 5.12305 47.2586 5.28393 47.4133 5.42962C47.5681 5.57531 47.7756 5.64728 48.0358 5.64553C48.3137 5.64366 48.5734 5.55681 48.8147 5.38499C48.9147 5.29628 49.0004 5.2957 49.072 5.38326L49.5284 5.97004C49.6119 6.07512 49.6096 6.17198 49.5215 6.26061C49.1456 6.65049 48.6412 6.84756 48.0084 6.85182C47.3933 6.85595 46.8804 6.65985 46.4697 6.26351C46.0589 5.86717 45.8514 5.35795 45.8473 4.73585ZM47.325 4.17129L48.5315 4.16318C48.5187 4.02241 48.4558 3.90545 48.3428 3.8123C48.2357 3.71325 48.0993 3.66427 47.9338 3.66539C47.7741 3.66646 47.6384 3.71726 47.5267 3.81778C47.4209 3.9124 47.3536 4.03024 47.325 4.17129Z" fill="#1A171B"/>
<path d="M42.8147 6.59624L42.79 2.91647C42.7896 2.85778 42.807 2.81071 42.8423 2.77526C42.8834 2.73977 42.9306 2.72184 42.9838 2.72149L43.4097 2.71863C43.5043 2.71799 43.5667 2.75865 43.5968 2.84062L43.7861 3.28834C44.0256 2.84654 44.3642 2.62418 44.8018 2.62123C45.1508 2.61889 45.4174 2.68753 45.6017 2.82715C45.673 2.87949 45.6823 2.95279 45.6297 3.04705L45.2271 3.85089C45.1686 3.95106 45.0919 3.98386 44.9971 3.94928C44.8844 3.90895 44.7808 3.88911 44.6862 3.88974C44.5265 3.89081 44.3967 3.94451 44.2969 4.05082C44.197 4.15127 44.1477 4.28659 44.1488 4.45679L44.1631 6.58718C44.164 6.7163 44.0905 6.78135 43.9426 6.78234L43.0112 6.7886C42.9579 6.78896 42.9105 6.77167 42.8689 6.73674C42.8331 6.69589 42.8151 6.64906 42.8147 6.59624Z" fill="#1A171B"/>
<path d="M38.634 6.54314C38.3662 6.29843 38.231 5.97654 38.2283 5.57746C38.2256 5.17838 38.3595 4.85174 38.6298 4.59755C38.9002 4.34336 39.266 4.21472 39.7273 4.21162C39.8633 4.21071 39.9995 4.22447 40.1357 4.2529C40.2719 4.28133 40.3726 4.30999 40.4379 4.3389L40.5358 4.38226C40.5343 4.16511 40.4948 4.00691 40.4172 3.90766C40.3397 3.80841 40.1885 3.75953 39.9638 3.76104C39.5912 3.76355 39.2485 3.8128 38.9357 3.90881C38.7941 3.95672 38.7108 3.88685 38.6859 3.6992L38.5841 3.07482C38.5595 2.92826 38.6121 2.834 38.7419 2.79205C38.8009 2.76817 38.9811 2.74055 39.2825 2.70918C39.5839 2.67194 39.8588 2.65249 40.1072 2.65082C40.7341 2.64661 41.1756 2.77863 41.4317 3.04689C41.6937 3.30924 41.8267 3.74559 41.8308 4.35595L41.8459 6.60079C41.8463 6.65361 41.8259 6.7007 41.7848 6.74206C41.7436 6.77755 41.6994 6.79545 41.6521 6.79577L41.2174 6.79869C41.1346 6.79925 41.0722 6.75565 41.0302 6.6679L40.8953 6.39589C40.7777 6.49645 40.6777 6.57636 40.5953 6.6356C40.5187 6.68894 40.392 6.74555 40.2149 6.80543C40.0438 6.87114 39.8578 6.90467 39.6567 6.90602C39.2486 6.90876 38.9077 6.7878 38.634 6.54314ZM39.5495 5.47174C39.5503 5.59499 39.5954 5.70033 39.6847 5.78777C39.774 5.8752 39.8807 5.9185 40.0049 5.91767C40.1291 5.91683 40.2353 5.8721 40.3234 5.78347C40.4174 5.69481 40.464 5.58885 40.4632 5.4656C40.4624 5.34822 40.4144 5.24584 40.3192 5.15844C40.2298 5.06514 40.1231 5.0189 39.9989 5.01973C39.8747 5.02057 39.7685 5.06823 39.6805 5.16273C39.5923 5.25136 39.5487 5.35436 39.5495 5.47174Z" fill="#1A171B"/>
<path d="M34.7301 6.70299L34.7438 8.74535C34.7442 8.79817 34.7238 8.84232 34.6826 8.87781C34.6474 8.91914 34.6032 8.93997 34.55 8.94033L33.5919 8.94677C33.5387 8.94713 33.4912 8.9269 33.4495 8.8861C33.4138 8.85113 33.3958 8.80723 33.3954 8.75441L33.3566 2.97946C33.3563 2.93251 33.3738 2.88837 33.409 2.84705C33.4501 2.80569 33.4973 2.78483 33.5505 2.78448L33.9497 2.78179C34.0443 2.78116 34.1157 2.84817 34.164 2.98284L34.2815 3.31659C34.2932 3.2989 34.3108 3.27824 34.3343 3.25461C34.3637 3.22506 34.4196 3.1748 34.5019 3.10382C34.5901 3.02693 34.6843 2.96173 34.7845 2.90824C34.8846 2.84888 35.0114 2.79814 35.1649 2.75602C35.3243 2.708 35.4897 2.68341 35.6612 2.68226C36.2349 2.6784 36.7153 2.88059 37.1025 3.28883C37.4897 3.69707 37.6852 4.19463 37.6892 4.78151C37.6938 5.46817 37.5051 5.99766 37.1232 6.36998C36.7413 6.7423 36.2605 6.9304 35.6809 6.9343C35.4976 6.93553 35.3111 6.91037 35.1215 6.85882C34.9378 6.80724 34.8074 6.75529 34.7301 6.70299ZM34.8463 4.19316C34.6818 4.3586 34.6004 4.56457 34.6021 4.81106C34.6037 5.05755 34.6879 5.26534 34.8547 5.43442C35.0214 5.59764 35.2289 5.67841 35.4773 5.67674C35.7198 5.67511 35.9233 5.59158 36.0878 5.42614C36.2581 5.25479 36.3425 5.04587 36.3408 4.79938C36.3392 4.55875 36.2521 4.35392 36.0794 4.18487C35.9127 4.01579 35.7081 3.93206 35.4656 3.93369C35.2172 3.93536 35.0108 4.02185 34.8463 4.19316Z" fill="#1A171B"/>
<path d="M26.0447 6.70757L26.02 3.0278C26.0191 2.89868 26.0837 2.83369 26.2138 2.83282L26.6042 2.83019C26.687 2.82964 26.7434 2.86741 26.7735 2.9435L26.9448 3.35612C27.074 3.22614 27.1769 3.1286 27.2533 3.06353C27.3298 2.99846 27.4565 2.92718 27.6334 2.84969C27.8103 2.7722 28.0022 2.73276 28.2092 2.73137C28.4754 2.72958 28.6916 2.77508 28.8578 2.86787C29.0299 2.96062 29.2202 3.11781 29.4287 3.33943C29.8104 2.92603 30.2407 2.71772 30.7198 2.7145C31.8375 2.70699 32.401 3.38989 32.4103 4.7632L32.423 6.66471C32.4234 6.71753 32.403 6.76462 32.3619 6.80598C32.3266 6.84143 32.2824 6.85934 32.2292 6.85969L31.2711 6.86613C31.2119 6.86653 31.1645 6.84924 31.1288 6.81427C31.093 6.77342 31.075 6.72659 31.0746 6.67377L31.0614 4.71064C31.0581 4.21179 30.8553 3.96371 30.4532 3.96642C30.2757 3.96761 30.1342 4.03312 30.0287 4.16295C29.9289 4.28687 29.8798 4.4486 29.8811 4.64814L29.8948 6.6817C29.8956 6.81081 29.834 6.87579 29.7098 6.87662L28.7428 6.88312C28.6896 6.88348 28.6422 6.86619 28.6005 6.83125C28.5648 6.79041 28.5467 6.74358 28.5463 6.69076L28.5332 4.72763C28.5315 4.48701 28.4948 4.30238 28.423 4.17374C28.3511 4.0451 28.2117 3.98148 28.0047 3.98287C27.8036 3.98422 27.6474 4.04983 27.5359 4.1797C27.4302 4.30366 27.3781 4.47128 27.3796 4.68256L27.3931 6.69851C27.3935 6.75133 27.3731 6.79842 27.3319 6.83978C27.2908 6.87527 27.2465 6.89317 27.1992 6.89349L26.2412 6.89993C26.182 6.90033 26.1346 6.88304 26.0989 6.84806C26.0631 6.80722 26.045 6.76039 26.0447 6.70757Z" fill="#1A171B"/>
<path d="M21.013 4.89306C21.0091 4.31791 21.2157 3.82058 21.6328 3.40107C22.0499 2.98156 22.5512 2.76984 23.1367 2.76591C23.7222 2.76197 24.2234 2.96696 24.6401 3.38087C25.0628 3.79473 25.2761 4.28924 25.28 4.86439C25.2839 5.44541 25.0773 5.9486 24.6603 6.37398C24.2491 6.79932 23.7508 7.01396 23.1653 7.01789C22.5798 7.02183 22.0757 6.81392 21.6529 6.39419C21.2302 5.97445 21.0169 5.47408 21.013 4.89306ZM22.2904 4.88448C22.292 5.1251 22.3762 5.33289 22.543 5.50784C22.7157 5.67688 22.9203 5.76061 23.1568 5.75902C23.3934 5.75743 23.5939 5.67098 23.7584 5.49967C23.9228 5.3225 24.0042 5.1136 24.0026 4.87297C24.001 4.63822 23.9168 4.4363 23.7501 4.26722C23.5833 4.09813 23.3817 4.01438 23.1451 4.01597C22.9086 4.01756 22.7051 4.10403 22.5347 4.27538C22.3703 4.44669 22.2888 4.64972 22.2904 4.88448Z" fill="#1A171B"/>
<path d="M16.1403 6.14068C15.5152 5.52862 15.1996 4.78243 15.1937 3.9021C15.1878 3.02178 15.4933 2.27141 16.1101 1.65101C16.7328 1.0247 17.4877 0.708564 18.3748 0.702603C19.2028 0.697039 19.9203 0.965133 20.5272 1.50688C20.6164 1.58845 20.6199 1.67059 20.5377 1.75331L19.8505 2.47103C19.7741 2.54197 19.7002 2.54247 19.6288 2.47252C19.2837 2.17551 18.8835 2.02854 18.4281 2.0316C17.9313 2.03494 17.5186 2.21672 17.1898 2.57694C16.861 2.9313 16.6982 3.35791 16.7016 3.85676C16.7049 4.34974 16.8733 4.77119 17.2069 5.12109C17.5463 5.46509 17.9644 5.63542 18.4612 5.63208C18.9225 5.62898 19.3178 5.48547 19.6471 5.20154C19.7294 5.13055 19.8063 5.13297 19.8778 5.20879L20.5747 5.93481C20.6521 6.01059 20.6496 6.08984 20.5674 6.17256C19.9798 6.74581 19.2631 7.03528 18.4174 7.04096C17.5303 7.04692 16.7713 6.74683 16.1403 6.14068Z" fill="#1A171B"/>
<path d="M10.4946 6.81255L10.4699 3.13278C10.4695 3.07409 10.4869 3.02702 10.5222 2.99157C10.5634 2.95608 10.6105 2.93815 10.6638 2.9378L11.063 2.93511C11.1399 2.9346 11.2022 2.97526 11.2501 3.05711L11.4036 3.46104C11.5152 3.33704 11.6032 3.24255 11.6679 3.17755C11.7384 3.11252 11.8651 3.04124 12.0479 2.96371C12.2366 2.88027 12.4463 2.83778 12.6769 2.83623C13.2802 2.83218 13.7161 3.01413 13.9847 3.38208C14.2592 3.74412 14.3985 4.23032 14.4026 4.84068L14.4157 6.7862C14.416 6.83902 14.3957 6.88611 14.3545 6.92747C14.3193 6.96292 14.278 6.98081 14.2307 6.98113L13.2637 6.98762C13.2046 6.98802 13.1572 6.97073 13.1214 6.93576C13.0857 6.89491 13.0676 6.84808 13.0673 6.79526L13.0541 4.83213C13.0507 4.33328 12.8509 4.08519 12.4547 4.08785C12.2536 4.0892 12.1003 4.15479 11.9947 4.28462C11.8891 4.40858 11.837 4.5762 11.8384 4.78748L11.8519 6.80343C11.8528 6.93254 11.7911 6.99752 11.6669 6.99835L10.6911 7.00491C10.6379 7.00527 10.5904 6.98798 10.5488 6.95304C10.513 6.9122 10.495 6.86537 10.4946 6.81255Z" fill="#1A171B"/>
<path d="M6.31127 6.76189C6.04348 6.51718 5.90825 6.19529 5.90557 5.79621C5.90288 5.39713 6.03672 5.07049 6.30707 4.8163C6.57742 4.56211 6.94325 4.43347 7.40455 4.43037C7.54057 4.42946 7.6767 4.44322 7.81292 4.47165C7.94914 4.50008 8.04988 4.52874 8.11513 4.55765L8.21301 4.60101C8.21155 4.38386 8.17204 4.22566 8.09449 4.12641C8.01693 4.02716 7.86579 3.97828 7.64105 3.97979C7.26847 3.9823 6.92576 4.03155 6.61295 4.12756C6.47133 4.17547 6.38805 4.1056 6.36314 3.91795L6.26135 3.29357C6.23671 3.14701 6.28931 3.05275 6.41914 3.0108C6.47813 2.98692 6.65833 2.9593 6.95975 2.92793C7.26113 2.89069 7.53602 2.87124 7.78441 2.86957C8.4113 2.86536 8.85281 2.99738 9.10893 3.26564C9.37093 3.52799 9.50397 3.96434 9.50807 4.5747L9.52316 6.81954C9.52351 6.87236 9.50313 6.91945 9.46201 6.96081C9.42084 6.9963 9.37661 7.0142 9.3293 7.01452L8.89461 7.01744C8.81181 7.018 8.74942 6.9744 8.70743 6.88665L8.57253 6.61464C8.45492 6.7152 8.35491 6.79511 8.27251 6.85435C8.19598 6.90769 8.0692 6.9643 7.89217 7.02418C7.72109 7.08989 7.53502 7.12342 7.33394 7.12477C6.92587 7.12751 6.58498 7.00655 6.31127 6.76189ZM7.22671 5.69049C7.22754 5.81374 7.27261 5.91908 7.36191 6.00652C7.45121 6.09395 7.55796 6.13725 7.68216 6.13642C7.80636 6.13558 7.91251 6.09085 8.00063 6.00222C8.09467 5.91356 8.14127 5.8076 8.14044 5.68435C8.13965 5.56697 8.09165 5.46459 7.99643 5.37719C7.90709 5.28389 7.80032 5.23765 7.67613 5.23848C7.55193 5.23932 7.44579 5.28698 7.35771 5.38148C7.26959 5.47011 7.22593 5.57311 7.22671 5.69049Z" fill="#1A171B"/>
<path d="M3.48793 4.20136L4.93008 0.978326C4.9533 0.913609 5.00336 0.880993 5.08024 0.880476L6.2601 0.872548C6.32516 0.872111 6.37263 0.895269 6.40251 0.942021C6.43831 0.988733 6.44162 1.04153 6.41245 1.10042L3.66672 7.04374C3.63167 7.10854 3.58162 7.14115 3.51656 7.14159L3.42785 7.14219C3.36279 7.14262 3.31231 7.11068 3.27639 7.04636L0.468784 1.14036C0.438819 1.08187 0.438464 1.02905 0.467719 0.981898C0.502889 0.934709 0.553001 0.910896 0.618056 0.910459L1.79792 0.902531C1.8748 0.902014 1.92529 0.933955 1.94938 0.998354L3.43471 4.20171L3.48793 4.20136Z" fill="#1A171B"/>
<path d="M45.7029 12.3796C45.701 12.0862 45.7969 11.8361 45.9906 11.6294C46.1844 11.4197 46.4306 11.3139 46.7293 11.3119C46.9984 11.3101 47.2222 11.3981 47.4009 11.5759C47.5824 11.7508 47.6741 11.9746 47.676 12.2475C47.6763 12.2945 47.6736 12.3385 47.668 12.3796C47.6652 12.4061 47.6535 12.4282 47.6329 12.4459C47.6153 12.4636 47.5947 12.4726 47.571 12.4727L46.2581 12.4816C46.2619 12.6107 46.3115 12.7218 46.4067 12.8151C46.5049 12.9054 46.6264 12.9501 46.7713 12.9491C46.9399 12.948 47.0859 12.8971 47.2095 12.7965C47.2653 12.7492 47.3097 12.7489 47.3425 12.7956L47.517 13.0233C47.5588 13.07 47.5561 13.114 47.5091 13.1554C47.2915 13.3418 47.0378 13.4359 46.748 13.4379C46.4464 13.4399 46.1973 13.3389 46.0008 13.1348C45.8042 12.9277 45.7049 12.676 45.7029 12.3796ZM46.2867 12.1204L47.1162 12.1148C47.1096 12.0151 47.0691 11.9317 46.9947 11.8648C46.9233 11.7977 46.8314 11.7646 46.719 11.7654C46.5978 11.7662 46.499 11.8006 46.4225 11.8686C46.3461 11.9337 46.3008 12.0176 46.2867 12.1204Z" fill="#1A171B"/>
<path d="M44.7827 13.3046L44.7633 10.4171C44.7632 10.3937 44.7734 10.3716 44.794 10.3509C44.8145 10.3302 44.8366 10.3198 44.8603 10.3197L45.2196 10.3172C45.2432 10.3171 45.2655 10.3272 45.2863 10.3476C45.3071 10.368 45.3176 10.3899 45.3178 10.4134L45.3372 13.3009C45.3374 13.3273 45.3272 13.3509 45.3066 13.3715C45.286 13.3893 45.2639 13.3982 45.2403 13.3984L44.881 13.4008C44.8573 13.401 44.8351 13.3923 44.8143 13.3748C44.7934 13.3544 44.7829 13.331 44.7827 13.3046Z" fill="#1A171B"/>
<path d="M44.3966 12.3931C44.3986 12.6954 44.3057 12.9484 44.1178 13.1521C43.9329 13.3559 43.6896 13.4587 43.388 13.4608C43.2076 13.462 43.0433 13.4352 42.8951 13.3804L42.9017 14.3664C42.9019 14.3899 42.8917 14.412 42.8711 14.4326C42.8505 14.4533 42.8284 14.4637 42.8048 14.4639L42.4455 14.4663C42.4189 14.4665 42.3951 14.4564 42.3743 14.436C42.3564 14.4155 42.3474 14.3936 42.3473 14.3701L42.3279 11.4826C42.3277 11.4562 42.3364 11.4342 42.354 11.4164C42.3746 11.3958 42.3982 11.3853 42.4248 11.3852L42.5889 11.3841C42.6333 11.3838 42.666 11.4158 42.6871 11.4802L42.7415 11.6427C42.7473 11.6339 42.7561 11.6236 42.7679 11.6117C42.7796 11.597 42.806 11.5719 42.8472 11.5364C42.8913 11.5009 42.9369 11.4698 42.9841 11.443C43.0342 11.4163 43.0976 11.3924 43.1743 11.3713C43.2511 11.3473 43.3293 11.3351 43.4092 11.3345C43.6901 11.3326 43.9244 11.4323 44.112 11.6335C44.2997 11.8318 44.3945 12.085 44.3966 12.3931ZM42.8866 12.1216L42.8915 12.8478C43.0044 12.9234 43.1466 12.9606 43.3181 12.9594C43.4778 12.9583 43.6016 12.9032 43.6896 12.7941C43.7805 12.6819 43.8254 12.5496 43.8244 12.397C43.8234 12.2444 43.7796 12.1126 43.6931 12.0017C43.6066 11.8908 43.488 11.8358 43.3371 11.8368C43.2159 11.8376 43.117 11.8676 43.0406 11.9268C42.9641 11.9861 42.9128 12.051 42.8866 12.1216Z" fill="#1A171B"/>
<path d="M39.8726 12.4138C39.8706 12.1262 39.971 11.8776 40.1736 11.6679C40.3792 11.4581 40.6254 11.3523 40.9123 11.3504C41.2021 11.3484 41.4497 11.451 41.6551 11.6579C41.8635 11.8649 41.9687 12.1121 41.9706 12.3997C41.9726 12.6902 41.8707 12.9418 41.6652 13.1545C41.4626 13.3671 41.2163 13.4744 40.9266 13.4764C40.6397 13.4783 40.3921 13.3743 40.1837 13.1644C39.9782 12.9545 39.8745 12.7043 39.8726 12.4138ZM40.5397 12.0176C40.4369 12.1239 40.3861 12.2548 40.3871 12.4104C40.3881 12.5659 40.4408 12.6991 40.545 12.8099C40.6493 12.9207 40.7753 12.9756 40.9232 12.9746C41.071 12.9736 41.1963 12.917 41.2991 12.8048C41.4048 12.6926 41.4571 12.5587 41.4561 12.4032C41.4551 12.2506 41.4009 12.1204 41.2938 12.0125C41.1895 11.9046 41.0635 11.8512 40.9156 11.8522C40.7678 11.8532 40.6425 11.9083 40.5397 12.0176Z" fill="#1A171B"/>
<path d="M37.6788 12.4329C37.6768 12.1394 37.7727 11.8893 37.9665 11.6826C38.1602 11.473 38.4065 11.3671 38.7051 11.3651C38.9742 11.3633 39.1981 11.4513 39.3767 11.6291C39.5583 11.804 39.65 12.0279 39.6518 12.3008C39.6521 12.3477 39.6494 12.3917 39.6438 12.4329C39.641 12.4593 39.6293 12.4814 39.6088 12.4991C39.5911 12.5169 39.5705 12.5258 39.5468 12.526L38.2339 12.5348C38.2377 12.6639 38.2873 12.7751 38.3825 12.8683C38.4807 12.9586 38.6023 13.0033 38.7472 13.0023C38.9157 13.0012 39.0618 12.9503 39.1853 12.8497C39.2412 12.8024 39.2855 12.8021 39.3184 12.8488L39.4929 13.0765C39.5346 13.1232 39.5319 13.1673 39.4849 13.2087C39.2673 13.395 39.0136 13.4891 38.7238 13.4911C38.4222 13.4931 38.1731 13.3921 37.9766 13.188C37.78 12.9809 37.6808 12.7292 37.6788 12.4329ZM38.2625 12.1736L39.092 12.1681C39.0854 12.0683 39.0449 11.985 38.9705 11.918C38.8991 11.851 38.8072 11.8178 38.6949 11.8186C38.5736 11.8194 38.4748 11.8538 38.3984 11.9218C38.3219 11.9869 38.2766 12.0708 38.2625 12.1736Z" fill="#1A171B"/>
<path d="M35.4967 13.3808L35.4771 10.4669C35.477 10.4435 35.4842 10.4243 35.4989 10.4096C35.5165 10.3918 35.5372 10.3829 35.5608 10.3827L36.6032 10.3757C36.8752 10.3739 37.1095 10.4677 37.3059 10.6571C37.5024 10.8466 37.6015 11.0748 37.6033 11.3418C37.6051 11.6147 37.5091 11.8487 37.3153 12.0436C37.1243 12.2386 36.8929 12.337 36.6208 12.3388L36.0664 12.3426L36.0733 13.3769C36.0735 13.3975 36.0647 13.4166 36.0471 13.4343C36.0324 13.452 36.0133 13.461 35.9896 13.4611L35.5815 13.4639C35.5579 13.464 35.5371 13.4568 35.5193 13.4423C35.5044 13.4248 35.4969 13.4043 35.4967 13.3808ZM36.0628 11.8056L36.595 11.802C36.7192 11.8011 36.8224 11.7564 36.9046 11.6678C36.9898 11.5792 37.032 11.4704 37.0311 11.3413C37.0303 11.2209 36.9867 11.12 36.9004 11.0384C36.8171 10.9568 36.7133 10.9164 36.5891 10.9173L36.0568 10.9208L36.0628 11.8056Z" fill="#1A171B"/>
<path d="M32.087 12.4705C32.085 12.177 32.1809 11.9269 32.3747 11.7202C32.5684 11.5106 32.8147 11.4047 33.1133 11.4027C33.3824 11.4009 33.6063 11.4889 33.7849 11.6667C33.9665 11.8416 34.0582 12.0655 34.06 12.3384C34.0603 12.3853 34.0576 12.4293 34.052 12.4705C34.0492 12.4969 34.0375 12.519 34.017 12.5367C33.9993 12.5545 33.9787 12.5634 33.955 12.5636L32.6421 12.5724C32.6459 12.7015 32.6955 12.8127 32.7907 12.9059C32.8889 12.9962 33.0105 13.0409 33.1554 13.0399C33.3239 13.0388 33.47 12.9879 33.5935 12.8873C33.6494 12.84 33.6937 12.8397 33.7266 12.8864L33.9011 13.1141C33.9428 13.1608 33.9401 13.2049 33.8931 13.2463C33.6755 13.4326 33.4218 13.5267 33.132 13.5287C32.8304 13.5307 32.5813 13.4297 32.3848 13.2256C32.1882 13.0185 32.089 12.7668 32.087 12.4705ZM32.6707 12.2112L33.5002 12.2057C33.4936 12.1059 33.4531 12.0226 33.3787 11.9556C33.3073 11.8886 33.2154 11.8554 33.1031 11.8562C32.9818 11.857 32.883 11.8914 32.8066 11.9594C32.7301 12.0245 32.6848 12.1084 32.6707 12.2112Z" fill="#1A171B"/>
<path d="M30.0093 12.4856C30.0073 12.1863 30.1106 11.9347 30.3192 11.7308C30.5278 11.524 30.7843 11.4195 31.0889 11.4175C31.3817 11.4155 31.6367 11.5283 31.8541 11.7557C31.8958 11.7965 31.8887 11.845 31.8329 11.9011L31.648 12.1048C31.6098 12.1462 31.5655 12.1421 31.5148 12.0925C31.3899 11.976 31.2534 11.9182 31.1056 11.9192C30.9489 11.9203 30.8191 11.9754 30.7164 12.0847C30.6165 12.191 30.5671 12.3234 30.5682 12.4818C30.5693 12.6432 30.6205 12.7779 30.7217 12.8858C30.823 12.9907 30.952 13.0427 31.1087 13.0416C31.2684 13.0406 31.4128 12.9648 31.5419 12.8142C31.5565 12.7965 31.5772 12.7861 31.6038 12.783C31.6304 12.7799 31.6526 12.7856 31.6704 12.8002L31.8711 12.9661C31.9277 13.0156 31.9398 13.0639 31.9076 13.1111C31.7262 13.397 31.4566 13.5411 31.0988 13.5435C30.7971 13.5456 30.5407 13.446 30.3294 13.245C30.118 13.041 30.0114 12.7878 30.0093 12.4856Z" fill="#1A171B"/>
<path d="M27.7628 13.4192L27.7505 11.5793C27.7503 11.5529 27.759 11.5309 27.7766 11.5131C27.7972 11.4924 27.8208 11.482 27.8474 11.4818L28.0159 11.4807C28.0573 11.4804 28.0856 11.5008 28.1006 11.5418L28.1773 11.7305C28.3534 11.5327 28.5731 11.4329 28.8362 11.4312C29.3833 11.4275 29.6589 11.7352 29.663 12.3544L29.6701 13.4064C29.6703 13.4328 29.6601 13.4564 29.6395 13.477C29.619 13.4948 29.5968 13.5037 29.5732 13.5039L29.2139 13.5063C29.1873 13.5065 29.1636 13.4978 29.1428 13.4804C29.1249 13.4599 29.1158 13.4365 29.1157 13.4101L29.1086 12.3581C29.1067 12.0735 28.9875 11.932 28.7509 11.9336C28.5291 11.935 28.382 12.0417 28.3095 12.2535L28.3173 13.4155C28.3175 13.4536 28.3088 13.4801 28.2912 13.4949C28.2735 13.5068 28.2396 13.5129 28.1893 13.5132L27.8611 13.5154C27.8374 13.5156 27.8152 13.5069 27.7943 13.4894C27.7735 13.469 27.763 13.4456 27.7628 13.4192Z" fill="#1A171B"/>
<path d="M25.5499 12.8846C25.5487 12.6998 25.6201 12.5467 25.7642 12.4254C25.9112 12.3041 26.1104 12.2426 26.3618 12.2409C26.4238 12.2405 26.4875 12.2445 26.5526 12.2528C26.6177 12.2612 26.668 12.2711 26.7036 12.2826L26.7569 12.2955C26.7619 12.1634 26.7421 12.0667 26.6973 12.0054C26.6525 11.944 26.5769 11.9137 26.4705 11.9144C26.2546 11.9159 26.0625 11.9421 25.8943 11.9931C25.8294 12.0141 25.7908 11.985 25.7784 11.9059L25.7325 11.6773C25.7173 11.6128 25.7392 11.5716 25.7982 11.5536C25.8395 11.5357 25.931 11.5146 26.0728 11.4901C26.2146 11.4628 26.3564 11.4486 26.4984 11.4477C26.8 11.4456 27.0045 11.5162 27.1119 11.6592C27.2193 11.8023 27.2741 12.025 27.2761 12.3272L27.2835 13.4232C27.2836 13.4496 27.2735 13.4732 27.2529 13.4939C27.2353 13.5116 27.2131 13.5205 27.1865 13.5207L27.0357 13.5217C26.9973 13.522 26.9676 13.4987 26.9465 13.4519L26.888 13.3158C26.7117 13.4872 26.4979 13.5738 26.2465 13.5754C26.0395 13.5768 25.872 13.5163 25.7441 13.3939C25.6161 13.2686 25.5513 13.0988 25.5499 12.8846ZM26.0822 12.8811C26.0828 12.9691 26.1084 13.0393 26.159 13.0918C26.2125 13.1414 26.2866 13.1658 26.3813 13.1652C26.4641 13.1646 26.5423 13.1391 26.6159 13.0888C26.6894 13.0384 26.7335 12.9911 26.748 12.947L26.746 12.6477C26.654 12.6072 26.5533 12.5874 26.4439 12.5881C26.3286 12.5889 26.2386 12.6159 26.1739 12.6692C26.1121 12.7195 26.0816 12.7901 26.0822 12.8811Z" fill="#1A171B"/>
<path d="M24.0868 13.4446L24.0744 11.6047C24.0743 11.5783 24.083 11.5562 24.1006 11.5385C24.1212 11.5178 24.1448 11.5074 24.1714 11.5072L24.3355 11.5061C24.3769 11.5058 24.4066 11.5277 24.4246 11.5716L24.5014 11.7691C24.6449 11.5627 24.8364 11.4587 25.0759 11.4571C25.206 11.4563 25.3097 11.4732 25.3868 11.5079C25.4639 11.5426 25.4894 11.5908 25.4632 11.6526L25.3321 11.9528C25.3088 12.0058 25.269 12.0207 25.2126 11.9976C25.1533 11.9716 25.0896 11.9588 25.0216 11.9593C24.9241 11.96 24.8399 11.984 24.7693 12.0314C24.7016 12.0788 24.6561 12.1261 24.6327 12.1732L24.6412 13.4409C24.6417 13.5054 24.6035 13.538 24.5266 13.5385L24.185 13.5408C24.1614 13.5409 24.1391 13.5323 24.1183 13.5148C24.0975 13.4944 24.087 13.471 24.0868 13.4446Z" fill="#1A171B"/>
<path d="M21.7677 12.6982L21.7604 11.6198C21.7602 11.5904 21.7689 11.5669 21.7866 11.5492C21.8071 11.5314 21.8307 11.5225 21.8573 11.5223L22.2166 11.5199C22.2432 11.5197 22.2655 11.5284 22.2833 11.5458C22.3042 11.5633 22.3147 11.5867 22.3149 11.6161L22.3221 12.6945C22.323 12.8324 22.3503 12.9349 22.404 13.002C22.4577 13.0662 22.5466 13.0979 22.6708 13.0971C22.7743 13.0964 22.8554 13.0592 22.914 12.9854C22.9756 12.9087 23.0149 12.8189 23.032 12.7161L23.0246 11.6113C23.0243 11.5731 23.0315 11.5482 23.0462 11.5363C23.0609 11.5215 23.0904 11.514 23.1348 11.5137L23.4808 11.5114C23.5074 11.5112 23.5296 11.5199 23.5475 11.5373C23.5683 11.5548 23.5788 11.5782 23.579 11.6076L23.5914 13.4475C23.5915 13.4739 23.5813 13.4974 23.5608 13.5181C23.5432 13.5358 23.521 13.5448 23.4944 13.5449L23.3347 13.546C23.2874 13.5463 23.2547 13.5216 23.2367 13.4718L23.1778 13.3006C22.9899 13.4984 22.7792 13.5982 22.5455 13.5997C22.3918 13.6008 22.2615 13.5796 22.1548 13.5363C22.051 13.493 21.9722 13.429 21.9184 13.3442C21.8646 13.2566 21.8255 13.1615 21.8011 13.0589C21.7797 12.9563 21.7686 12.8361 21.7677 12.6982Z" fill="#1A171B"/>
<path d="M20.6443 13.6153C20.3781 13.6171 20.1545 13.5569 19.9733 13.4349C19.9317 13.4088 19.9226 13.3722 19.9459 13.325L20.0772 13.0601C20.1034 13.0012 20.1433 12.9892 20.1967 13.024C20.3392 13.1111 20.4904 13.1541 20.65 13.153C20.8008 13.152 20.8759 13.1031 20.8753 13.0063C20.8747 12.9182 20.7454 12.8252 20.4875 12.7272C20.2859 12.6522 20.1389 12.5652 20.0466 12.466C19.9572 12.3668 19.912 12.241 19.911 12.0884C19.9099 11.9211 19.9725 11.7798 20.0989 11.6645C20.2252 11.5492 20.4067 11.4908 20.6433 11.4892C20.8917 11.4875 21.0946 11.536 21.252 11.6348C21.3084 11.6784 21.3235 11.7253 21.2973 11.7753L21.1835 12.0094C21.1543 12.0565 21.1115 12.07 21.0551 12.0499C20.9039 11.9834 20.7676 11.9506 20.6464 11.9514C20.5813 11.9518 20.5326 11.9653 20.5003 11.992C20.4679 12.0186 20.4519 12.0495 20.4521 12.0847C20.4524 12.1287 20.4734 12.1653 20.515 12.1943C20.5595 12.2234 20.6366 12.2596 20.7463 12.3028C20.9835 12.3952 21.1557 12.4894 21.2628 12.5855C21.3728 12.6787 21.4285 12.8177 21.4297 13.0025C21.4309 13.1727 21.3609 13.317 21.2197 13.4353C21.0815 13.5536 20.8897 13.6136 20.6443 13.6153Z" fill="#1A171B"/>
<path d="M17.6578 13.4881L17.6455 11.6482C17.6453 11.6218 17.654 11.5997 17.6716 11.582C17.6922 11.5613 17.7158 11.5509 17.7424 11.5507L17.911 11.5496C17.9524 11.5493 17.9806 11.5696 17.9957 11.6106L18.0723 11.7994C18.2484 11.6016 18.4681 11.5018 18.7312 11.5C19.2783 11.4963 19.5539 11.8041 19.5581 12.4233L19.5651 13.4752C19.5653 13.5017 19.5551 13.5252 19.5346 13.5459C19.514 13.5636 19.4919 13.5726 19.4682 13.5727L19.1089 13.5752C19.0823 13.5753 19.0586 13.5667 19.0378 13.5492C19.0199 13.5288 19.0109 13.5054 19.0107 13.479L19.0036 12.427C19.0017 12.1423 18.8825 12.0008 18.6459 12.0024C18.4241 12.0039 18.277 12.1105 18.2045 12.3223L18.2123 13.4843C18.2125 13.5225 18.2038 13.549 18.1862 13.5637C18.1685 13.5756 18.1346 13.5817 18.0843 13.582L17.7561 13.5842C17.7324 13.5844 17.7102 13.5757 17.6894 13.5583C17.6685 13.5379 17.658 13.5145 17.6578 13.4881Z" fill="#1A171B"/>
<path d="M16.5363 13.5083L16.5167 10.5944C16.5165 10.5738 16.5238 10.5547 16.5385 10.537C16.5561 10.5193 16.5767 10.5103 16.6004 10.5102L17.0129 10.5074C17.0336 10.5073 17.0529 10.5159 17.0707 10.5334C17.0886 10.5509 17.0976 10.5699 17.0977 10.5905L17.1173 13.5044C17.1175 13.5249 17.1087 13.544 17.0911 13.5618C17.0735 13.5795 17.0543 13.5884 17.0336 13.5886L16.6211 13.5913C16.5974 13.5915 16.5767 13.5828 16.5588 13.5653C16.5439 13.5478 16.5364 13.5288 16.5363 13.5083Z" fill="#1A171B"/>
<path d="M13.0717 13.5203L13.0593 11.6804C13.0591 11.654 13.0678 11.6319 13.0855 11.6142C13.106 11.5935 13.1296 11.5831 13.1562 11.5829L13.3248 11.5818C13.3662 11.5815 13.3944 11.6019 13.4095 11.6428L13.4861 11.8316C13.6622 11.6338 13.8819 11.534 14.1451 11.5322C14.6921 11.5286 14.9677 11.8363 14.9719 12.4555L14.979 13.5075C14.9791 13.5339 14.9689 13.5574 14.9484 13.5781C14.9278 13.5959 14.9057 13.6048 14.882 13.605L14.5227 13.6074C14.4961 13.6076 14.4724 13.5989 14.4516 13.5814C14.4337 13.561 14.4247 13.5376 14.4245 13.5112L14.4174 12.4592C14.4155 12.1746 14.2963 12.033 14.0597 12.0346C13.8379 12.0361 13.6908 12.1428 13.6183 12.3545L13.6261 13.5166C13.6264 13.5547 13.6177 13.5812 13.6 13.596C13.5824 13.6078 13.5484 13.6139 13.4981 13.6143L13.1699 13.6165C13.1462 13.6166 13.124 13.608 13.1032 13.5905C13.0823 13.5701 13.0718 13.5467 13.0717 13.5203Z" fill="#1A171B"/>
<path d="M10.8609 12.9833C10.8597 12.7984 10.9311 12.6453 11.0752 12.524C11.2222 12.4027 11.4214 12.3412 11.6728 12.3395C11.7349 12.3391 11.7985 12.3431 11.8636 12.3515C11.9287 12.3598 11.9791 12.3698 12.0146 12.3813L12.0679 12.3941C12.073 12.262 12.0531 12.1653 12.0083 12.104C11.9636 12.0427 11.8879 12.0124 11.7815 12.0131C11.5656 12.0145 11.3736 12.0408 11.2054 12.0918C11.1404 12.1128 11.1018 12.0837 11.0894 12.0045L11.0436 11.7759C11.0283 11.7115 11.0502 11.6702 11.1093 11.6522C11.1505 11.6344 11.2421 11.6132 11.3839 11.5888C11.5256 11.5614 11.6675 11.5473 11.8094 11.5463C12.111 11.5443 12.3155 11.6148 12.423 11.7579C12.5304 11.9009 12.5851 12.1236 12.5871 12.4258L12.5945 13.5218C12.5947 13.5483 12.5845 13.5718 12.5639 13.5925C12.5463 13.6102 12.5242 13.6192 12.4976 13.6193L12.3468 13.6204C12.3083 13.6206 12.2786 13.5973 12.2576 13.5505L12.199 13.4145C12.0227 13.5858 11.8089 13.6724 11.5576 13.6741C11.3506 13.6755 11.1831 13.615 11.0551 13.4926C10.9271 13.3672 10.8624 13.1975 10.8609 12.9833ZM11.3932 12.9797C11.3938 13.0677 11.4194 13.138 11.47 13.1905C11.5236 13.24 11.5977 13.2644 11.6923 13.2638C11.7751 13.2632 11.8533 13.2378 11.9269 13.1874C12.0005 13.137 12.0445 13.0898 12.059 13.0456L12.057 12.7463C11.9651 12.7059 11.8644 12.686 11.755 12.6867C11.6396 12.6875 11.5496 12.7145 11.4849 12.7678C11.4232 12.8181 11.3926 12.8887 11.3932 12.9797Z" fill="#1A171B"/>
<path d="M9.58741 13.6344L8.19692 10.6813C8.18193 10.652 8.18176 10.6256 8.19638 10.602C8.21397 10.5784 8.23902 10.5665 8.27155 10.5663L8.72398 10.5633C8.76242 10.563 8.78767 10.579 8.79971 10.6112L9.66849 12.4981L9.69067 12.498L10.534 10.5995C10.5456 10.5672 10.5707 10.5509 10.6091 10.5506L11.0615 10.5476C11.0941 10.5473 11.1178 10.5589 11.1327 10.5823C11.1506 10.6057 11.1523 10.6321 11.1377 10.6615L9.78258 13.633C9.76505 13.6654 9.74003 13.6818 9.7075 13.682L9.66314 13.6823C9.63061 13.6825 9.60537 13.6665 9.58741 13.6344Z" fill="#1A171B"/>
<path d="M5.1834 12.6516C5.18143 12.3582 5.27733 12.1081 5.47112 11.9014C5.66488 11.6917 5.9111 11.5859 6.20976 11.5839C6.47885 11.5821 6.70271 11.6701 6.88133 11.8479C7.0629 12.0227 7.15459 12.2466 7.15643 12.5195C7.15674 12.5665 7.15408 12.6105 7.14844 12.6516C7.14566 12.678 7.13398 12.7001 7.1134 12.7179C7.09578 12.7356 7.07514 12.7445 7.05148 12.7447L5.73855 12.7535C5.74238 12.8826 5.79192 12.9938 5.88717 13.0871C5.98537 13.1774 6.10691 13.2221 6.25181 13.2211C6.42036 13.2199 6.5664 13.1691 6.68992 13.0685C6.74579 13.0211 6.79015 13.0208 6.82299 13.0676L6.99752 13.2953C7.03923 13.342 7.03657 13.386 6.98953 13.4274C6.77195 13.6137 6.51827 13.7079 6.22848 13.7098C5.92686 13.7119 5.67778 13.6108 5.48123 13.4067C5.28467 13.1997 5.18539 12.948 5.1834 12.6516ZM5.76718 12.3924L6.59663 12.3868C6.59004 12.2871 6.54956 12.2037 6.47518 12.1367C6.40376 12.0697 6.31186 12.0366 6.1995 12.0373C6.07826 12.0381 5.97942 12.0726 5.90299 12.1406C5.82654 12.2056 5.78127 12.2896 5.76718 12.3924Z" fill="#1A171B"/>
<path d="M2.94193 13.5859L2.92253 10.6984C2.92237 10.6749 2.93257 10.6528 2.95313 10.6322C2.97369 10.6115 2.9958 10.6011 3.01946 10.6009L3.37874 10.5985C3.40535 10.5983 3.4276 10.6084 3.44548 10.6289C3.46632 10.6493 3.47681 10.6712 3.47697 10.6947L3.48422 11.7731C3.61652 11.6577 3.7906 11.5993 4.00646 11.5979C4.55943 11.5942 4.83806 11.9122 4.84236 12.5519L4.84922 13.5731C4.8494 13.5995 4.83921 13.623 4.81865 13.6437C4.79807 13.6614 4.77595 13.6704 4.75229 13.6705L4.39301 13.673C4.3664 13.6731 4.34268 13.6645 4.32186 13.647C4.30398 13.6266 4.29495 13.6032 4.29478 13.5768L4.28789 12.5512C4.28692 12.4074 4.25364 12.2961 4.18805 12.2173C4.12542 12.1385 4.03349 12.0995 3.91225 12.1003C3.69047 12.1018 3.54933 12.2216 3.48883 12.4597L3.49637 13.5821C3.49681 13.6467 3.46154 13.6792 3.39057 13.6797L3.04016 13.6821C3.0165 13.6822 2.99427 13.6736 2.97345 13.6561C2.95261 13.6357 2.9421 13.6123 2.94193 13.5859Z" fill="#1A171B"/>
<path d="M1.29649 13.6101L1.27989 11.1407L0.601253 11.1453C0.577596 11.1455 0.556848 11.1383 0.539007 11.1237C0.524103 11.1062 0.516573 11.0857 0.516415 11.0622L0.51399 10.7013C0.513832 10.6778 0.521096 10.6587 0.535783 10.6439C0.553407 10.6262 0.574047 10.6173 0.597704 10.6171L2.53605 10.6041C2.5597 10.6039 2.57898 10.6126 2.59389 10.6301C2.61173 10.6447 2.62073 10.6637 2.62089 10.6872L2.62331 11.0481C2.62347 11.0716 2.61474 11.0922 2.59711 11.1099C2.58242 11.1247 2.56325 11.1321 2.5396 11.1323L1.86095 11.1368L1.87755 13.6062C1.87768 13.6267 1.86894 13.6458 1.85132 13.6636C1.83665 13.6813 1.81749 13.6902 1.79383 13.6904L1.38132 13.6931C1.36063 13.6933 1.34135 13.6846 1.32348 13.6671C1.30562 13.6496 1.29662 13.6306 1.29649 13.6101Z" fill="#1A171B"/>
</svg>
