<svg width="150" height="40" viewBox="0 0 150 40" fill="none" xmlns="http://www.w3.org/2000/svg">
<path fill-rule="evenodd" clip-rule="evenodd" d="M0 2C0 0.895431 0.895431 0 2 0H148C149.105 0 150 0.895431 150 2V38C150 39.1046 149.105 40 148 40H2C0.895429 40 0 39.1046 0 38V2Z" fill="#553DE8"/>
<path d="M23.6715 19.812C23.6715 22.212 25.6035 24.12 28.0035 24.12C29.0715 24.12 30.1035 23.748 30.9195 22.956C31.0035 22.872 31.0275 22.716 30.9315 22.632L30.1875 21.864C30.1155 21.792 29.9835 21.78 29.8875 21.864C29.3835 22.272 28.7715 22.548 28.0515 22.548C26.5155 22.548 25.3635 21.276 25.3635 19.776C25.3635 18.264 26.5035 16.98 28.0395 16.98C28.7115 16.98 29.3835 17.244 29.8875 17.688C29.9835 17.784 30.1035 17.784 30.1875 17.688L30.9195 16.932C31.0155 16.836 31.0155 16.692 30.9075 16.596C30.0915 15.864 29.2155 15.48 28.0035 15.48C25.6035 15.48 23.6715 17.412 23.6715 19.812ZM31.8515 19.812C31.8515 22.212 33.7595 24.12 36.1595 24.12C38.5595 24.12 40.4795 22.212 40.4795 19.812C40.4795 17.412 38.5595 15.48 36.1595 15.48C33.7595 15.48 31.8515 17.412 31.8515 19.812ZM33.4115 19.812C33.4115 18.3 34.6475 17.04 36.1595 17.04C37.6715 17.04 38.9195 18.3 38.9195 19.812C38.9195 21.324 37.6715 22.56 36.1595 22.56C34.6475 22.56 33.4115 21.324 33.4115 19.812ZM41.4971 23.724C41.4731 23.892 41.5691 24 41.7251 24H42.8051C42.9131 24 43.0091 23.904 43.0211 23.82L43.7171 19.272C43.7291 19.272 43.7531 19.272 43.7531 19.272L45.8771 23.988C45.9131 24.06 45.9731 24.12 46.0811 24.12H46.2971C46.4051 24.12 46.4771 24.06 46.5011 23.988L48.6011 19.272C48.6011 19.272 48.6251 19.272 48.6371 19.272L49.3451 23.82C49.3691 23.904 49.4651 24 49.5731 24H50.6651C50.8211 24 50.9171 23.892 50.8811 23.724L49.4651 15.66C49.4531 15.564 49.3811 15.48 49.2491 15.48H49.0571C48.9491 15.48 48.8891 15.528 48.8531 15.6L46.2131 21.264C46.2011 21.264 46.2011 21.264 46.1771 21.264L43.5371 15.6C43.5011 15.528 43.4291 15.48 43.3331 15.48H43.1411C43.0091 15.48 42.9371 15.564 42.9251 15.66L41.4971 23.724ZM52.5257 23.772C52.5257 23.892 52.6217 24 52.7537 24H53.8577C53.9777 24 54.0857 23.892 54.0857 23.772V20.952H55.5857C57.0497 20.952 58.2617 19.74 58.2617 18.252C58.2617 16.8 57.0497 15.6 55.5737 15.6H52.7537C52.6217 15.6 52.5257 15.708 52.5257 15.828V23.772ZM54.0857 19.488V17.076H55.4777C56.1497 17.076 56.7137 17.58 56.7137 18.24C56.7137 18.948 56.1497 19.488 55.4777 19.488H54.0857ZM58.2705 24H59.3145C59.5065 24 59.6145 23.88 59.6625 23.76L60.2505 22.464H63.8385L64.4265 23.76C64.5105 23.928 64.5945 24 64.7745 24H65.8185C65.9985 24 66.0945 23.844 66.0225 23.688L62.3265 15.612C62.2905 15.54 62.2425 15.48 62.1225 15.48H62.0025C61.8945 15.48 61.8345 15.54 61.7985 15.612L58.0665 23.688C57.9945 23.844 58.0905 24 58.2705 24ZM60.8385 21.132L62.0145 18.492H62.0505L63.2505 21.132H60.8385ZM67.1155 23.772C67.1155 23.892 67.2115 24 67.3435 24H68.4475C68.5675 24 68.6755 23.892 68.6755 23.772V20.712H70.0075L71.6035 23.892C71.6275 23.94 71.6875 24 71.7955 24H73.0555C73.2595 24 73.3435 23.808 73.2595 23.652L71.6155 20.604C72.6595 20.184 73.3915 19.284 73.3915 18.18C73.3915 16.752 72.2155 15.6 70.7755 15.6H67.3435C67.2115 15.6 67.1155 15.708 67.1155 15.828V23.772ZM68.6875 19.428V17.04H70.6435C71.2795 17.04 71.8315 17.568 71.8315 18.204C71.8315 18.876 71.2795 19.428 70.6435 19.428H68.6875ZM75.1077 23.772C75.1077 23.892 75.2037 24 75.3357 24H80.2197C80.3517 24 80.4477 23.892 80.4477 23.772V22.788C80.4477 22.668 80.3517 22.56 80.2197 22.56H76.6677V20.46H79.6317C79.7517 20.46 79.8597 20.364 79.8597 20.232V19.236C79.8597 19.116 79.7517 19.008 79.6317 19.008H76.6677V17.04H80.2197C80.3517 17.04 80.4477 16.932 80.4477 16.812V15.828C80.4477 15.708 80.3517 15.6 80.2197 15.6H75.3357C75.2037 15.6 75.1077 15.708 75.1077 15.828V23.772ZM84.2108 19.812C84.2108 22.212 86.1188 24.12 88.5188 24.12C88.6628 24.12 88.8668 24.108 89.0588 24.084L90.3428 26.256C90.3788 26.328 90.4868 26.376 90.5348 26.376H91.8068C91.9988 26.376 92.1068 26.184 91.9988 26.016L90.4988 23.652C91.8908 22.884 92.8388 21.444 92.8388 19.812C92.8388 17.412 90.9188 15.48 88.5188 15.48C86.1188 15.48 84.2108 17.412 84.2108 19.812ZM85.7708 19.812C85.7708 18.3 87.0068 17.04 88.5188 17.04C90.0308 17.04 91.2788 18.3 91.2788 19.812C91.2788 21.324 90.0308 22.56 88.5188 22.56C87.0068 22.56 85.7708 21.324 85.7708 19.812ZM94.3002 20.82C94.3002 22.644 95.7522 24.12 97.6362 24.12C99.5322 24.12 100.984 22.644 100.984 20.82V15.828C100.984 15.708 100.876 15.6 100.756 15.6H99.6162C99.4842 15.6 99.3882 15.708 99.3882 15.828V20.748C99.3882 21.756 98.6802 22.56 97.6362 22.56C96.5922 22.56 95.8962 21.756 95.8962 20.736V15.828C95.8962 15.708 95.8002 15.6 95.6682 15.6H94.5282C94.4082 15.6 94.3002 15.708 94.3002 15.828V20.82ZM102.445 19.812C102.445 22.212 104.353 24.12 106.753 24.12C109.153 24.12 111.073 22.212 111.073 19.812C111.073 17.412 109.153 15.48 106.753 15.48C104.353 15.48 102.445 17.412 102.445 19.812ZM104.005 19.812C104.005 18.3 105.241 17.04 106.753 17.04C108.265 17.04 109.513 18.3 109.513 19.812C109.513 21.324 108.265 22.56 106.753 22.56C105.241 22.56 104.005 21.324 104.005 19.812ZM113.689 23.772C113.689 23.892 113.797 24 113.917 24H115.033C115.153 24 115.261 23.892 115.261 23.772V17.04H117.097C117.229 17.04 117.325 16.932 117.325 16.812V15.828C117.325 15.708 117.229 15.6 117.097 15.6H111.853C111.721 15.6 111.625 15.708 111.625 15.828V16.812C111.625 16.932 111.721 17.04 111.853 17.04H113.689V23.772ZM118.573 23.772C118.573 23.892 118.669 24 118.801 24H123.685C123.817 24 123.913 23.892 123.913 23.772V22.788C123.913 22.668 123.817 22.56 123.685 22.56H120.133V20.46H123.097C123.217 20.46 123.325 20.364 123.325 20.232V19.236C123.325 19.116 123.217 19.008 123.097 19.008H120.133V17.04H123.685C123.817 17.04 123.913 16.932 123.913 16.812V15.828C123.913 15.708 123.817 15.6 123.685 15.6H118.801C118.669 15.6 118.573 15.708 118.573 15.828V23.772ZM125.195 23.184C125.435 23.412 126.323 24.12 127.835 24.12C129.527 24.12 130.595 22.98 130.595 21.744C130.595 20.196 129.251 19.5 128.087 19.032C127.115 18.636 126.671 18.252 126.671 17.688C126.671 17.304 127.043 16.848 127.727 16.848C128.387 16.848 129.299 17.448 129.395 17.508C129.539 17.604 129.719 17.508 129.815 17.364L130.271 16.68C130.355 16.56 130.319 16.356 130.199 16.284C129.959 16.104 129.023 15.48 127.799 15.48C125.891 15.48 125.099 16.716 125.099 17.784C125.099 19.2 126.227 19.92 127.355 20.376C128.363 20.784 128.879 21.204 128.879 21.816C128.879 22.332 128.411 22.74 127.787 22.74C127.007 22.74 126.035 22.032 125.975 21.996C125.867 21.912 125.663 21.912 125.567 22.08L125.135 22.824C125.027 23.016 125.087 23.076 125.195 23.184Z" fill="white"/>
</svg>
