<svg width="229" height="48" viewBox="0 0 229 48" fill="none" xmlns="http://www.w3.org/2000/svg">
<path fill-rule="evenodd" clip-rule="evenodd" d="M7.24609 40.4269H70.6658V31.2622H7.24609V40.4269Z" fill="#999999"/>
<path fill-rule="evenodd" clip-rule="evenodd" d="M39.874 45.9255C59.9178 45.9255 76.1664 46.1716 76.1664 46.4752C76.1664 46.7789 59.9178 47.0253 39.874 47.0253C19.8306 47.0253 3.58203 46.7789 3.58203 46.4752C3.58203 46.1716 19.8306 45.9255 39.874 45.9255" fill="#333333"/>
<path fill-rule="evenodd" clip-rule="evenodd" d="M5.71995 10C18.4911 10 31.2614 10 44.0326 10C53.647 10 54.318 11.1356 67.2058 24.2174C69.443 25.4625 71.6802 26.708 73.9173 27.9531C76.2705 29.2623 76.8119 31.0225 76.8891 33.4636C76.8932 33.8301 76.8964 34.197 76.9005 34.5635C75.996 34.9038 75.0916 35.2441 74.1871 35.5844C71.1725 35.2441 68.1579 34.9038 65.1433 34.5635C64.5034 34.0886 63.7849 33.714 63.0115 33.4636C63.0111 33.4636 63.0108 33.4636 63.01 33.4636C62.2919 33.2314 61.5265 33.1053 60.7319 33.1053C56.6206 33.1053 53.2876 36.4623 53.2876 40.6035C53.2876 40.6673 53.2883 40.7303 53.2898 40.7934C43.3631 40.7934 33.436 40.7934 23.5093 40.7934C23.5108 40.7303 23.5115 40.6673 23.5115 40.6035C23.5115 36.4623 20.1788 33.1053 16.0676 33.1053C13.9073 33.1053 11.9622 34.0325 10.6024 35.5132C10.2858 35.8473 10.0124 36.2189 9.76493 36.6131C9.04203 37.7686 8.62366 39.1368 8.62366 40.6035C8.62366 40.6673 8.62439 40.7303 8.62585 40.7934C6.92931 40.7934 5.23313 40.7934 3.53659 40.7934C2.55453 40.7934 1.75 39.9837 1.75 38.9937C1.75 38.1999 1.75 37.4065 1.75 36.6131C1.75 36.2462 1.75 35.8797 1.75 35.5132C1.75 32.0076 1.75 28.502 1.75 24.9968C2.47767 20.5979 3.2057 16.1986 3.93373 11.7996C4.09515 10.8233 4.73753 10 5.71995 10" fill="#2664B3"/>
<path fill-rule="evenodd" clip-rule="evenodd" d="M5.71995 10C18.4911 10 31.2614 10 44.0326 10C53.647 10 54.318 11.1356 67.2058 24.2174C69.443 25.4625 71.6802 26.708 73.9173 27.9531C76.2705 29.2623 76.8119 31.0225 76.8891 33.4636C76.8932 33.8301 76.8964 34.197 76.9005 34.5635C75.996 34.9038 75.0916 35.2441 74.1871 35.5844C71.1725 35.2441 68.1579 34.9038 65.1433 34.5635C64.5034 34.0886 63.7849 33.714 63.0115 33.4636C63.0111 33.4636 63.0108 33.4636 63.01 33.4636C62.2919 33.2314 61.5265 33.1053 60.7319 33.1053C56.6206 33.1053 53.2876 36.4623 53.2876 40.6035C53.2876 40.6673 53.2883 40.7303 53.2898 40.7934C43.3631 40.7934 33.436 40.7934 23.5093 40.7934C23.5108 40.7303 23.5115 40.6673 23.5115 40.6035C23.5115 36.4623 20.1788 33.1053 16.0676 33.1053C13.9073 33.1053 11.9622 34.0325 10.6024 35.5132C10.2858 35.8473 10.0124 36.2189 9.76493 36.6131C9.04203 37.7686 8.62366 39.1368 8.62366 40.6035C8.62366 40.6673 8.62439 40.7303 8.62585 40.7934C6.92931 40.7934 5.23313 40.7934 3.53659 40.7934C2.55453 40.7934 1.75 39.9837 1.75 38.9937C1.75 38.1999 1.75 37.4065 1.75 36.6131C1.75 36.2462 1.75 35.8797 1.75 35.5132C1.75 32.0076 1.75 28.502 1.75 24.9968C2.47767 20.5979 3.2057 16.1986 3.93373 11.7996C4.09515 10.8233 4.73753 10 5.71995 10" fill="#2C65AE"/>
<path fill-rule="evenodd" clip-rule="evenodd" d="M50.8711 24.2969C55.8726 24.2969 60.874 24.2969 65.8758 24.2969C67.2582 25.2028 76.4669 28.3598 75.7605 33.0657C75.1723 33.0755 75.9079 33.0852 75.3193 33.095C75.0645 28.7399 70.1024 26.8399 67.9644 25.9918C63.1001 25.9918 55.7353 25.9918 50.8711 25.9918C50.8711 25.427 50.8711 24.8617 50.8711 24.2969" fill="#71A0DE"/>
<path fill-rule="evenodd" clip-rule="evenodd" d="M72.6218 26.863L74.1022 27.6786C75.7955 28.611 76.5657 29.7708 76.8991 31.2398L75.0008 31.2621C75.0008 31.2621 75.0008 31.232 73.4068 29.5831C72.3152 28.4541 72.4365 27.4093 72.6218 26.863" fill="#174682"/>
<path fill-rule="evenodd" clip-rule="evenodd" d="M76.5331 30.8814L75.1974 30.8955C75.1974 30.8955 75.0617 30.6417 73.7707 29.4265C72.9456 28.6498 72.8186 28.0517 72.8808 27.5962L73.9019 28.1248C75.3474 28.8733 76.1248 29.7765 76.5331 30.8814" fill="white"/>
<path fill-rule="evenodd" clip-rule="evenodd" d="M50.7712 15.1323H53.6641C54.4149 15.1323 55.986 15.9023 56.4995 16.4157L63.3539 23.2702C64.2589 24.1752 64.672 25.3968 62.3208 25.3968H53.1862C52.068 25.3968 49.4062 25.2541 49.4062 22.5932V16.4157C49.4062 15.7098 50.0204 15.1323 50.7712 15.1323" fill="#174682"/>
<path fill-rule="evenodd" clip-rule="evenodd" d="M11.2795 34.1948C10.9046 34.4773 10.557 34.7956 10.2413 35.1449C9.92906 35.4791 9.66013 35.8508 9.41643 36.2451C8.70445 37.401 8.29205 38.7697 8.29205 40.2372C8.29205 40.3007 8.29277 40.3637 8.29457 40.4268C6.62367 40.4268 4.07856 40.4268 2.40802 40.4268C1.44081 40.4268 0.648438 39.6169 0.648438 38.6266C0.648438 37.8325 0.648438 37.0388 0.648438 36.2451C0.648438 35.8781 1.52264 35.5115 1.52264 35.1449V34.1948H11.2795" fill="#174682"/>
<path fill-rule="evenodd" clip-rule="evenodd" d="M9.07995 37.4941C8.6998 38.3406 8.48938 39.271 8.48938 40.2479C8.48938 40.3078 8.49012 40.3673 8.49197 40.4268C6.77793 40.4268 4.16712 40.4268 2.45345 40.4268C1.46127 40.4268 0.648438 39.6625 0.648438 38.728V37.4941H9.07995" fill="#174682"/>
<path fill-rule="evenodd" clip-rule="evenodd" d="M24.8397 40.7934H23.4858C23.4873 40.7295 23.488 40.6657 23.488 40.6011C23.488 36.4083 20.1554 33.0095 16.0442 33.0095C13.8839 33.0095 11.9389 33.9483 10.5791 35.4474C10.2625 35.7856 9.98907 36.1619 9.74164 36.561C9.01875 37.7309 8.60038 39.1162 8.60038 40.6011C8.60038 40.6657 8.60111 40.7295 8.60258 40.7934H7.24829C7.24719 40.7295 7.24609 40.6653 7.24609 40.6011C7.24609 35.6457 11.1852 31.6287 16.0442 31.6287C20.9032 31.6287 24.8423 35.6457 24.8423 40.6011C24.8423 40.6653 24.8412 40.7295 24.8397 40.7934" fill="#174682"/>
<path fill-rule="evenodd" clip-rule="evenodd" d="M60.8766 31.2622C63.636 31.2622 66.1027 32.5283 67.7359 34.5151L65.2576 34.2351C64.6222 33.7632 63.9086 33.3909 63.1405 33.142H63.1391C62.4259 32.9112 61.6658 32.7859 60.8766 32.7859C56.7938 32.7859 53.4837 36.1223 53.4837 40.2382C53.4837 40.3016 53.4845 40.3642 53.4859 40.4269H51.9748C51.9737 40.3642 51.9727 40.3012 51.9727 40.2382C51.9727 35.2813 55.9592 31.2622 60.8766 31.2622" fill="#174682"/>
<path fill-rule="evenodd" clip-rule="evenodd" d="M77.0641 34.1948C77.0648 34.4919 77.9944 34.865 77.9955 35.1337C78.001 36.3793 78.0106 36.9747 77.9055 37.7024C77.8584 38.029 77.3133 38.7729 77.3455 39.0257C77.4485 39.8275 78.4602 40.4011 76.3668 40.424C75.752 40.4306 72.2398 40.4236 71.3751 40.4236H68.2347C68.2365 40.3606 68.2369 40.2975 68.2369 40.2341C68.2369 37.7562 67.0292 35.5595 65.168 34.1948H77.0641" fill="#174682"/>
<path fill-rule="evenodd" clip-rule="evenodd" d="M77.6316 37.4941C77.6195 37.6141 77.6043 37.7334 77.5855 37.8571C77.5387 38.1652 76.9958 38.8668 77.0279 39.1053C77.1308 39.8616 78.1381 40.4026 76.053 40.4241C75.4411 40.4304 71.9427 40.4238 71.0814 40.4238H69.4873C69.4884 40.3643 69.4895 40.3045 69.4895 40.2451C69.4895 39.2823 69.3198 38.3571 69.0078 37.4941H77.6316ZM67.954 40.4238H67.9536H67.954ZM67.9559 40.2757V40.2319L67.9562 40.2451L67.9559 40.2757ZM67.3775 37.5181L67.3672 37.4941L67.3775 37.5181V37.5181Z" fill="#174682"/>
<path fill-rule="evenodd" clip-rule="evenodd" d="M51.0466 15.8655H53.5026C54.2047 15.8655 55.6843 16.5703 56.1553 17.0568L62.5408 23.6553C63.3708 24.5126 64.0533 25.3968 61.8531 25.3968H53.3062C52.2603 25.3968 49.7695 25.264 49.7695 22.7931V17.0568C49.7695 16.4015 50.3441 15.8655 51.0466 15.8655" fill="white"/>
<path fill-rule="evenodd" clip-rule="evenodd" d="M51.9685 15.8655H53.5375C53.8089 15.8655 54.1966 15.9711 54.597 16.1292L52.547 25.3603C51.7047 25.2755 50.6556 24.9977 50.1367 24.1135L51.9685 15.8655ZM55.7262 16.7009C55.9167 16.8233 56.0764 16.946 56.1834 17.0568L56.7919 17.6877L55.0798 25.3968H53.7948L55.7262 16.7009ZM58.9767 19.951L60.4012 21.4269L59.5195 25.3968H57.7672L58.9767 19.951V19.951Z" fill="#D9F4FF"/>
<path fill-rule="evenodd" clip-rule="evenodd" d="M49.4674 25.7632H49.7102C49.9462 25.7632 50.1388 25.9632 50.1388 26.2078V28.9841C50.1388 29.2287 49.9462 29.4291 49.7102 29.4291H49.4674C49.2317 29.4291 49.0391 29.2287 49.0391 28.9841V26.2078C49.0391 25.9632 49.2317 25.7632 49.4674 25.7632" fill="#174682"/>
<path fill-rule="evenodd" clip-rule="evenodd" d="M60.7911 20.9976H61.4799C61.6939 20.9976 61.8687 21.1704 61.8687 21.3825V25.3787C61.8687 25.5903 61.6939 25.7632 61.4799 25.7632H60.7911C60.5771 25.7632 60.4023 25.5903 60.4023 25.3787V21.3825C60.4023 21.1704 60.5771 20.9976 60.7911 20.9976" fill="#174682"/>
<path fill-rule="evenodd" clip-rule="evenodd" d="M60.6952 23.9359L63.9405 24.7759C64.0317 24.7995 64.0866 24.8921 64.0626 24.9821L63.9852 25.2709C63.9611 25.3608 63.8669 25.4148 63.7754 25.3912L60.5304 24.5513C60.4389 24.528 60.384 24.435 60.408 24.3454L60.4854 24.0563C60.5094 23.9667 60.6036 23.9123 60.6952 23.9359" fill="#174682"/>
<path fill-rule="evenodd" clip-rule="evenodd" d="M47.5703 37.8607H47.9078V14.0325H47.5703V37.8607Z" fill="#174682"/>
<path fill-rule="evenodd" clip-rule="evenodd" d="M62.9688 32.3619H63.3063V24.6636H62.9688V32.3619Z" fill="#174682"/>
<path fill-rule="evenodd" clip-rule="evenodd" d="M4.3125 30.529H4.65V24.6636H4.3125V30.529Z" fill="#174682"/>
<path fill-rule="evenodd" clip-rule="evenodd" d="M6.03943 14.0325L6.51203 14.1555L4.78472 25.0301L4.3125 24.9071L6.03943 14.0325" fill="#174682"/>
<path fill-rule="evenodd" clip-rule="evenodd" d="M4.3125 30.4999H51.9689V30.1624H4.3125V30.4999Z" fill="#174682"/>
<path fill-rule="evenodd" clip-rule="evenodd" d="M45.0039 31.5997H47.57V31.2622H45.0039V31.5997Z" fill="#174682"/>
<path fill-rule="evenodd" clip-rule="evenodd" d="M45.0039 34.9281H45.3414V31.2622H45.0039V34.9281Z" fill="#174682"/>
<path fill-rule="evenodd" clip-rule="evenodd" d="M45.0039 35.2655H47.57V34.928H45.0039V35.2655Z" fill="#174682"/>
<path fill-rule="evenodd" clip-rule="evenodd" d="M6.14844 14.37H55.6378V14.0325H6.14844V14.37Z" fill="#174682"/>
<path fill-rule="evenodd" clip-rule="evenodd" d="M55.2695 14.3634L55.5983 14.0325L64.0676 22.4996L63.7389 22.8306L55.2695 14.3634" fill="#174682"/>
<path fill-rule="evenodd" clip-rule="evenodd" d="M64.0681 22.0974L64.4351 22.4307L63.3357 23.5638L62.9688 23.2305L64.0681 22.0974" fill="#174682"/>
<path fill-rule="evenodd" clip-rule="evenodd" d="M6.14844 15.8363H47.9394V15.4988H6.14844V15.8363Z" fill="#174682"/>
<path fill-rule="evenodd" clip-rule="evenodd" d="M42.4375 36.3943H48.9613C49.204 36.3943 49.4027 36.6065 49.4027 36.8659V38.8554C49.4027 39.1144 49.204 39.327 48.9613 39.327H42.4375V36.3943" fill="#174682"/>
<path fill-rule="evenodd" clip-rule="evenodd" d="M33.6406 39.327H42.0721V36.3943H33.6406V39.327Z" fill="#174682"/>
<path fill-rule="evenodd" clip-rule="evenodd" d="M26.7588 36.3943H32.9072V39.327H26.7588C26.511 39.327 26.3086 39.1144 26.3086 38.8554V36.8659C26.3086 36.6065 26.511 36.3943 26.7588 36.3943" fill="#174682"/>
<path fill-rule="evenodd" clip-rule="evenodd" d="M76.875 33.095H61.8672C62.2625 33.1509 62.6479 33.2352 63.0202 33.346C63.0209 33.346 63.0213 33.346 63.0216 33.346C63.7943 33.576 64.5121 33.9202 65.1513 34.3565C68.1631 34.6692 71.1748 34.9818 74.1865 35.2945C75.0901 34.9818 75.9937 34.6692 76.8973 34.3565C76.8933 34.0198 76.89 33.6827 76.8859 33.346C76.883 33.2616 76.8794 33.178 76.875 33.095" fill="#174682"/>
<path fill-rule="evenodd" clip-rule="evenodd" d="M30.4324 26.387L31.0751 27.879C30.8468 28.0076 30.5811 28.113 30.2824 28.1941C29.9815 28.2756 29.691 28.3163 29.4092 28.3163C29.0487 28.3163 28.565 28.2266 27.9611 28.0464C27.3579 27.8663 26.9109 27.7759 26.6226 27.7759C26.1303 27.7759 25.6298 27.9605 25.1193 28.3294L24.4766 26.8071C24.934 26.4662 25.2614 26.1041 25.4611 25.7203C25.6611 25.3368 25.762 24.972 25.762 24.6226C25.762 24.5089 25.7537 24.3912 25.7372 24.2645H24.4766V22.8757H25.428C25.2632 22.3805 25.181 21.8808 25.181 21.3747C25.181 20.9184 25.3002 20.4811 25.5393 20.0673C25.7803 19.6536 26.1181 19.3382 26.5569 19.1218C26.9974 18.905 27.4753 18.7981 27.9942 18.7981C28.7873 18.7981 29.4196 19.0059 29.891 19.4241C30.3606 19.842 30.649 20.4403 30.7542 21.2226L29.123 21.4734C29.0465 21.0211 28.9086 20.6952 28.7069 20.4979C28.5072 20.2987 28.2559 20.2 27.955 20.2C27.6358 20.2 27.368 20.3114 27.1561 20.5368C26.9439 20.7618 26.8366 21.0424 26.8366 21.3833C26.8366 21.5593 26.8657 21.7929 26.9235 22.0822C26.9809 22.3715 27.0531 22.6353 27.1375 22.8757H29.0117V24.2645H27.4114C27.4236 24.3568 27.4301 24.4491 27.4301 24.5415C27.4301 24.8715 27.3701 25.1779 27.2488 25.4568C27.1292 25.7374 26.88 26.1063 26.5073 26.5627C26.7278 26.4449 27.0057 26.387 27.3396 26.387C27.4793 26.387 27.6071 26.3956 27.7184 26.4128C27.7759 26.4214 27.9389 26.4621 28.2128 26.535C28.6986 26.6681 29.0282 26.7342 29.2052 26.7342C29.5183 26.7342 29.928 26.6184 30.4324 26.387" fill="#174682"/>
<path fill-rule="evenodd" clip-rule="evenodd" d="M30.0653 26.0203L30.708 27.5123C30.4796 27.6409 30.2139 27.7459 29.9152 27.8274C29.6143 27.9089 29.3242 27.9496 29.042 27.9496C28.6815 27.9496 28.1975 27.8595 27.5939 27.6798C26.9907 27.4992 26.5437 27.4092 26.2554 27.4092C25.7631 27.4092 25.2626 27.5938 24.7521 27.9627L24.1094 26.4404C24.5668 26.0996 24.8943 25.7374 25.0939 25.3536C25.2935 24.9697 25.3948 24.6053 25.3948 24.2559C25.3948 24.1422 25.3865 24.0245 25.37 23.8978H24.1094V22.5086H25.0609C24.896 22.0138 24.8138 21.5141 24.8138 21.008C24.8138 20.5513 24.933 20.114 25.1722 19.7003C25.4131 19.2865 25.7509 18.9715 26.1893 18.7551C26.6302 18.5383 27.1081 18.4314 27.627 18.4314C28.4201 18.4314 29.0524 18.6392 29.5238 19.057C29.9934 19.4753 30.2818 20.0733 30.387 20.8555L28.7558 21.1067C28.6793 20.6544 28.5415 20.3285 28.3397 20.1312C28.14 19.932 27.8887 19.8333 27.5878 19.8333C27.2686 19.8333 27.0008 19.9447 26.7889 20.1697C26.5768 20.3951 26.4694 20.6757 26.4694 21.0166C26.4694 21.1923 26.4985 21.4259 26.5563 21.7155C26.6137 22.0048 26.6859 22.2687 26.7706 22.5086H28.6445V23.8978H27.0442C27.0568 23.9901 27.0629 24.0824 27.0629 24.1748C27.0629 24.5044 27.0029 24.8112 26.8816 25.0897C26.762 25.3707 26.5128 25.7393 26.1401 26.196C26.3606 26.0782 26.6385 26.0203 26.9724 26.0203C27.1121 26.0203 27.2399 26.0289 27.3512 26.0457C27.4087 26.0543 27.5717 26.0954 27.8453 26.1683C28.3314 26.301 28.661 26.3675 28.838 26.3675C29.1511 26.3675 29.5608 26.2517 30.0653 26.0203" fill="white"/>
<path fill-rule="evenodd" clip-rule="evenodd" d="M4.45975 11.833H52.1879C52.269 11.833 52.3355 11.8944 52.3355 11.9694V11.9697C52.3355 12.0446 52.269 12.1057 52.1879 12.1057H4.45975C4.37864 12.1057 4.3125 12.0446 4.3125 11.9697V11.9694C4.3125 11.8944 4.37864 11.833 4.45975 11.833" fill="white"/>
<path fill-rule="evenodd" clip-rule="evenodd" d="M5.92876 10.3667H47.7913C47.8727 10.3667 47.9388 10.4281 47.9388 10.503C47.9388 10.578 47.8727 10.6394 47.7913 10.6394H5.92876C5.84734 10.6394 5.78125 10.578 5.78125 10.503C5.78125 10.4281 5.84734 10.3667 5.92876 10.3667" fill="white"/>
<path fill-rule="evenodd" clip-rule="evenodd" d="M60.951 33.8281C64.2914 33.8281 66.9997 36.5361 66.9997 39.8768C66.9997 43.2172 64.2914 45.9255 60.951 45.9255C57.6103 45.9255 54.9023 43.2172 54.9023 39.8768C54.9023 36.5361 57.6103 33.8281 60.951 33.8281" fill="#1A1A1A"/>
<path fill-rule="evenodd" clip-rule="evenodd" d="M66.2678 40.5294C66.0794 43.3392 63.7746 45.559 60.9588 45.559C58.0194 45.559 55.6367 43.1407 55.6367 40.1578C55.6367 39.0344 55.9746 37.9916 56.5526 37.1274C57.9129 39.3899 60.5738 40.9267 63.6334 40.9267C64.5562 40.9267 65.4424 40.7867 66.2678 40.5294" fill="#333333"/>
<path fill-rule="evenodd" clip-rule="evenodd" d="M60.954 35.6611C63.2824 35.6611 65.1698 37.5485 65.1698 39.8769C65.1698 42.2052 63.2824 44.0926 60.954 44.0926C58.6257 44.0926 56.7383 42.2052 56.7383 39.8769C56.7383 37.5485 58.6257 35.6611 60.954 35.6611" fill="#CCCCCC"/>
<path fill-rule="evenodd" clip-rule="evenodd" d="M61.1348 36.3943C63.1592 36.3943 64.8005 38.0356 64.8005 40.0604C64.8005 42.0848 63.1592 43.726 61.1348 43.726C59.11 43.726 57.4688 42.0848 57.4688 40.0604C57.4688 38.0356 59.11 36.3943 61.1348 36.3943" fill="#999999"/>
<path fill-rule="evenodd" clip-rule="evenodd" d="M60.7686 37.1274C62.3883 37.1274 63.7013 38.4405 63.7013 40.0601C63.7013 41.6798 62.3883 42.9928 60.7686 42.9928C59.149 42.9928 57.8359 41.6798 57.8359 40.0601C57.8359 38.4405 59.149 37.1274 60.7686 37.1274" fill="#333333"/>
<path fill-rule="evenodd" clip-rule="evenodd" d="M62.4187 37.1274L62.627 37.2892L60.7213 39.9928L60.4023 39.7451L62.4187 37.1274ZM62.777 37.4058L62.9685 37.5545L61.2797 40.4267L60.9607 40.179L62.777 37.4058V37.4058Z" fill="#999999"/>
<path fill-rule="evenodd" clip-rule="evenodd" d="M59.1198 37.4941L58.9114 37.6609L61.1842 39.9802L61.503 39.725L59.1198 37.4941ZM58.7614 37.7811L58.5703 37.9341L60.6262 40.4268L60.9451 40.1716L58.7614 37.7811V37.7811Z" fill="#999999"/>
<path fill-rule="evenodd" clip-rule="evenodd" d="M57.8359 40.919L57.9543 41.1492L60.8185 39.6791L60.6377 39.3269L57.8359 40.919ZM58.0394 41.3152L58.1479 41.5264L61.1352 40.2962L60.9544 39.9436L58.0394 41.3152V41.3152Z" fill="#999999"/>
<path fill-rule="evenodd" clip-rule="evenodd" d="M63.8269 41.1598L63.9186 40.9339L60.9096 39.9321L60.7695 40.2777L63.8269 41.1598ZM63.9847 40.7713L64.0688 40.5641L61.1555 39.3269L61.0151 39.6726L63.9847 40.7713V40.7713Z" fill="#999999"/>
<path fill-rule="evenodd" clip-rule="evenodd" d="M60.6197 43.3596L60.8809 43.3574L60.8022 40.0663L60.4023 40.0696L60.6197 43.3596ZM61.0689 43.3559L61.3087 43.3536L61.5021 40.0603L61.1023 40.0637L61.0689 43.3559V43.3559Z" fill="#999999"/>
<path fill-rule="evenodd" clip-rule="evenodd" d="M60.951 38.5938C61.6595 38.5938 62.2341 39.1683 62.2341 39.8768C62.2341 40.5853 61.6595 41.1599 60.951 41.1599C60.2422 41.1599 59.668 40.5853 59.668 39.8768C59.668 39.1683 60.2422 38.5938 60.951 38.5938" fill="#999999"/>
<path fill-rule="evenodd" clip-rule="evenodd" d="M60.0665 39.3694C60.124 39.2757 60.2402 39.2503 60.3267 39.3124C60.4128 39.3749 60.4361 39.5013 60.3787 39.5949C60.3216 39.6886 60.205 39.714 60.1189 39.6519C60.0328 39.5894 60.0095 39.463 60.0665 39.3694ZM60.7685 39.5839C60.9171 39.5839 61.0377 39.7151 61.0377 39.8767C61.0377 40.0384 60.9171 40.1695 60.7685 40.1695C60.6195 40.1695 60.4993 40.0384 60.4993 39.8767C60.4993 39.7151 60.6195 39.5839 60.7685 39.5839ZM61.4701 39.3694C61.4127 39.2757 61.2965 39.2503 61.2103 39.3124C61.1239 39.3749 61.1006 39.5013 61.158 39.5949C61.2154 39.6886 61.3316 39.714 61.4178 39.6519C61.5039 39.5894 61.5272 39.463 61.4701 39.3694ZM60.3787 40.1585C60.3212 40.0648 60.205 40.0391 60.1189 40.1016C60.0328 40.164 60.0091 40.2901 60.0665 40.3841C60.124 40.4778 60.2402 40.5031 60.3263 40.4411C60.4128 40.3786 60.4361 40.2522 60.3787 40.1585ZM60.7685 38.9604C60.8719 38.9604 60.9556 39.0516 60.9556 39.164C60.9556 39.2768 60.8719 39.3679 60.7685 39.3679C60.6648 39.3679 60.581 39.2768 60.581 39.164C60.581 39.0516 60.6648 38.9604 60.7685 38.9604ZM60.7685 40.3856C60.8719 40.3856 60.9556 40.4771 60.9556 40.5895C60.9556 40.7019 60.8719 40.7934 60.7685 40.7934C60.6648 40.7934 60.581 40.7019 60.581 40.5895C60.581 40.4771 60.6648 40.3856 60.7685 40.3856ZM61.158 40.1585C61.2154 40.0648 61.3316 40.0391 61.4178 40.1016C61.5039 40.164 61.5275 40.2901 61.4701 40.3841C61.4127 40.4778 61.2965 40.5031 61.2103 40.4411C61.1242 40.3786 61.1009 40.2522 61.158 40.1585V40.1585Z" fill="#333333"/>
<path fill-rule="evenodd" clip-rule="evenodd" d="M15.8612 33.8281C19.2015 33.8281 21.9099 36.5361 21.9099 39.8768C21.9099 43.2172 19.2015 45.9255 15.8612 45.9255C12.5205 45.9255 9.8125 43.2172 9.8125 39.8768C9.8125 36.5361 12.5205 33.8281 15.8612 33.8281" fill="#1A1A1A"/>
<path fill-rule="evenodd" clip-rule="evenodd" d="M21.5451 40.5294C21.3571 43.3392 19.0519 45.559 16.2361 45.559C13.2968 45.559 10.9141 43.1407 10.9141 40.1578C10.9141 39.0344 11.252 37.9916 11.83 37.1274C13.1903 39.3899 15.8511 40.9267 18.9107 40.9267C19.8335 40.9267 20.7197 40.7867 21.5451 40.5294" fill="#333333"/>
<path fill-rule="evenodd" clip-rule="evenodd" d="M16.2275 35.6611C18.5558 35.6611 20.4432 37.5485 20.4432 39.8769C20.4432 42.2052 18.5558 44.0926 16.2275 44.0926C13.8991 44.0926 12.0117 42.2052 12.0117 39.8769C12.0117 37.5485 13.8991 35.6611 16.2275 35.6611" fill="#CCCCCC"/>
<path fill-rule="evenodd" clip-rule="evenodd" d="M16.045 36.3943C18.0694 36.3943 19.7107 38.0356 19.7107 40.0604C19.7107 42.0848 18.0694 43.726 16.045 43.726C14.0202 43.726 12.3789 42.0848 12.3789 40.0604C12.3789 38.0356 14.0202 36.3943 16.045 36.3943" fill="#999999"/>
<path fill-rule="evenodd" clip-rule="evenodd" d="M16.046 37.1274C17.6657 37.1274 18.9787 38.4405 18.9787 40.0601C18.9787 41.6798 17.6657 42.9928 16.046 42.9928C14.4263 42.9928 13.1133 41.6798 13.1133 40.0601C13.1133 38.4405 14.4263 37.1274 16.046 37.1274" fill="#333333"/>
<path fill-rule="evenodd" clip-rule="evenodd" d="M17.696 37.1274L17.9043 37.2892L15.9986 39.9928L15.6797 39.7451L17.696 37.1274ZM18.0543 37.4058L18.2458 37.5545L16.557 40.4267L16.2381 40.179L18.0543 37.4058V37.4058Z" fill="#999999"/>
<path fill-rule="evenodd" clip-rule="evenodd" d="M14.3932 37.4941L14.1849 37.6609L16.4576 39.9802L16.7765 39.725L14.3932 37.4941ZM14.0352 37.7811L13.8438 37.9341L15.8997 40.4268L16.2185 40.1716L14.0352 37.7811V37.7811Z" fill="#999999"/>
<path fill-rule="evenodd" clip-rule="evenodd" d="M13.1133 40.919L13.2316 41.1492L16.0955 39.6791L15.9147 39.3269L13.1133 40.919ZM13.3167 41.3152L13.4252 41.5264L16.4126 40.2962L16.2314 39.9436L13.3167 41.3152V41.3152Z" fill="#999999"/>
<path fill-rule="evenodd" clip-rule="evenodd" d="M19.1042 41.1598L19.196 40.9339L16.187 39.9321L16.0469 40.2777L19.1042 41.1598ZM19.262 40.7713L19.3462 40.5641L16.4329 39.3269L16.2924 39.6726L19.262 40.7713V40.7713Z" fill="#999999"/>
<path fill-rule="evenodd" clip-rule="evenodd" d="M15.897 43.3596L16.1583 43.3574L16.0795 40.0663L15.6797 40.0696L15.897 43.3596ZM16.3466 43.3559L16.5864 43.3536L16.7795 40.0603L16.3796 40.0637L16.3466 43.3559V43.3559Z" fill="#999999"/>
<path fill-rule="evenodd" clip-rule="evenodd" d="M16.2284 38.5938C16.9369 38.5938 17.5114 39.1683 17.5114 39.8768C17.5114 40.5853 16.9369 41.1599 16.2284 41.1599C15.5199 41.1599 14.9453 40.5853 14.9453 39.8768C14.9453 39.1683 15.5199 38.5938 16.2284 38.5938" fill="#999999"/>
<path fill-rule="evenodd" clip-rule="evenodd" d="M15.3442 39.3694C15.4013 39.2757 15.5175 39.2503 15.604 39.3124C15.6901 39.3749 15.7134 39.5013 15.656 39.5949C15.5989 39.6886 15.4824 39.714 15.3962 39.6519C15.3101 39.5894 15.2868 39.463 15.3442 39.3694ZM16.0458 39.5839C16.1944 39.5839 16.315 39.7151 16.315 39.8767C16.315 40.0384 16.1944 40.1695 16.0458 40.1695C15.8968 40.1695 15.7766 40.0384 15.7766 39.8767C15.7766 39.7151 15.8968 39.5839 16.0458 39.5839ZM16.7474 39.3694C16.69 39.2757 16.5738 39.2503 16.4876 39.3124C16.4015 39.3749 16.3778 39.5013 16.4353 39.5949C16.4927 39.6886 16.6089 39.714 16.695 39.6519C16.7812 39.5894 16.8045 39.463 16.7474 39.3694ZM15.656 40.1585C15.5986 40.0648 15.4824 40.0391 15.3962 40.1016C15.3101 40.164 15.2865 40.2901 15.3439 40.3841C15.4013 40.4778 15.5175 40.5031 15.6036 40.4411C15.6898 40.3786 15.7134 40.2522 15.656 40.1585ZM16.0458 38.9604C16.1492 38.9604 16.2329 39.0516 16.2329 39.164C16.2329 39.2768 16.1492 39.3679 16.0458 39.3679C15.9421 39.3679 15.8583 39.2768 15.8583 39.164C15.8583 39.0516 15.9421 38.9604 16.0458 38.9604ZM16.0458 40.3856C16.1492 40.3856 16.2329 40.4771 16.2329 40.5895C16.2329 40.7019 16.1492 40.7934 16.0458 40.7934C15.9421 40.7934 15.8583 40.7019 15.8583 40.5895C15.8583 40.4771 15.9421 40.3856 16.0458 40.3856ZM16.4353 40.1585C16.4927 40.0648 16.6089 40.0391 16.695 40.1016C16.7815 40.164 16.8048 40.2901 16.7474 40.3841C16.69 40.4778 16.5738 40.5031 16.4876 40.4411C16.4015 40.3786 16.3782 40.2522 16.4353 40.1585V40.1585Z" fill="#333333"/>
<path d="M92.0023 19.6347H91.8474L87.5873 10.2109C87.5357 10.0818 87.3549 9.92687 87.1484 9.92687H83.7145C83.3272 9.92687 83.1207 10.2625 83.2756 10.5982L91.331 27.9742C91.4085 28.1291 91.5634 28.2582 91.7699 28.2582H92.0281C92.2347 28.2582 92.3896 28.1291 92.467 27.9742L100.574 10.5982C100.729 10.2625 100.523 9.92687 100.135 9.92687H96.7013C96.4948 9.92687 96.314 10.0818 96.2624 10.2109L92.0023 19.6347ZM99.0012 24.3596C99.0012 26.7349 100.783 28.284 103.132 28.284C105.017 28.284 106.024 27.432 106.747 26.8123L107.134 27.6127C107.289 27.9484 107.496 28 107.676 28H108.941C109.225 28 109.509 27.7418 109.509 27.432V20.8482C109.509 17.311 108.219 15.8135 104.526 15.8135C102.926 15.8135 100.834 16.0976 100.55 16.2008C100.292 16.2783 100.008 16.5107 100.086 17.027L100.37 18.8602C100.421 19.2991 100.628 19.6347 101.093 19.4798C101.867 19.2474 103.261 19.0667 104.088 19.0667C105.482 19.0667 105.74 19.738 105.74 20.8998C105.74 20.8998 104.733 20.3835 103.39 20.3835C100.679 20.3835 99.0012 22.0617 99.0012 24.3596ZM102.848 24.0755C102.848 23.3784 103.442 22.7588 104.165 22.7588C104.888 22.7588 105.508 23.3784 105.508 24.0755C105.508 24.7985 104.888 25.3923 104.165 25.3923C103.442 25.3923 102.848 24.7985 102.848 24.0755ZM112.33 27.432C112.33 27.7418 112.589 28 112.898 28H115.738C116.152 28 116.281 27.6902 116.281 27.432V21.5195C116.281 20.306 116.9 19.4798 118.088 19.4798C119.43 19.4798 119.818 20.5384 119.818 21.6744V27.432C119.818 27.7418 120.05 28 120.386 28H123.2C123.484 28 123.742 27.7418 123.742 27.432V21.726C123.742 18.4471 122.477 15.8135 118.759 15.8135C116.59 15.8135 115.687 16.8979 115.041 17.6209L114.602 16.4332C114.473 16.2008 114.241 16.0717 114.06 16.0717H112.898C112.589 16.0717 112.33 16.3041 112.33 16.6397V27.432Z" fill="#3E537E"/>
<path d="M126.061 18.9893C126.061 24.153 130.218 28.2582 135.382 28.2582C137.68 28.2582 139.9 27.4578 141.656 25.7538C141.837 25.573 141.863 25.2374 141.682 25.0567L139.668 22.9137C139.513 22.733 139.177 22.733 138.997 22.8879C138.067 23.6883 136.957 24.1272 135.537 24.1272C132.619 24.1272 130.451 21.7519 130.451 18.886C130.451 15.9943 132.594 13.5673 135.511 13.5673C136.776 13.5673 137.938 13.9546 138.997 14.8841C139.177 15.0648 139.461 15.0648 139.642 14.8841L141.656 12.7928C141.863 12.5862 141.863 12.2764 141.63 12.0698C139.875 10.4691 137.964 9.66869 135.382 9.66869C130.218 9.66869 126.061 13.8255 126.061 18.9893ZM142.974 22.01C142.974 25.4181 145.788 28.284 149.196 28.284C152.604 28.284 155.393 25.4181 155.393 22.01C155.393 18.6536 152.604 15.8135 149.196 15.8135C145.788 15.8135 142.974 18.6536 142.974 22.01ZM146.692 22.01C146.692 20.6417 147.802 19.4798 149.196 19.4798C150.564 19.4798 151.675 20.6417 151.675 22.01C151.675 23.4043 150.564 24.5919 149.196 24.5919C147.802 24.5919 146.692 23.4043 146.692 22.01ZM157.589 27.432C157.589 27.7418 157.821 28 158.157 28H160.945C161.229 28 161.513 27.7418 161.513 27.432V21.5195C161.513 20.306 162.133 19.4798 163.346 19.4798C164.663 19.4798 164.87 20.4609 164.87 21.6744V27.432C164.87 27.7418 165.128 28 165.438 28H168.252C168.588 28 168.794 27.7418 168.794 27.432V21.4679C168.794 20.306 169.44 19.4798 170.472 19.4798C171.867 19.4798 172.228 20.4609 172.228 21.6744V27.432C172.228 27.7418 172.46 28 172.796 28H175.584C175.894 28 176.152 27.7418 176.152 27.432V21.8551C176.152 18.4729 174.939 15.8135 171.273 15.8135C169.233 15.8135 168.123 16.9496 167.503 17.6209C166.419 16.4332 165.618 15.8135 163.966 15.8135C162.03 15.8135 161.049 16.8463 160.274 17.6209L159.783 16.4074C159.706 16.2008 159.499 16.0717 159.293 16.0717H158.157C157.821 16.0717 157.589 16.3041 157.589 16.6397V27.432ZM182.87 27.5869C183.257 27.8709 184.471 28.284 185.632 28.284C188.808 28.284 191.519 26.2185 191.519 22.01C191.519 18.602 189.015 15.8135 185.658 15.8135C183.025 15.8135 181.63 17.6467 181.63 17.6467L181.295 16.6656C181.192 16.3557 180.959 16.0717 180.675 16.0717H179.513C179.204 16.0717 178.945 16.3557 178.945 16.6397V33.5769C178.945 33.8867 179.204 34.1449 179.513 34.1449H182.302C182.612 34.1449 182.87 33.8867 182.87 33.5769V27.5869ZM182.534 22.0359C182.534 20.6158 183.593 19.4798 185.064 19.4798C186.484 19.4798 187.595 20.6158 187.595 22.0359C187.595 23.4817 186.484 24.5919 185.064 24.5919C183.593 24.5919 182.534 23.4817 182.534 22.0359ZM193.073 24.3596C193.073 26.7349 194.855 28.284 197.204 28.284C199.089 28.284 200.096 27.432 200.819 26.8123L201.206 27.6127C201.361 27.9484 201.568 28 201.748 28H203.013C203.297 28 203.581 27.7418 203.581 27.432V20.8482C203.581 17.311 202.291 15.8135 198.598 15.8135C196.998 15.8135 194.906 16.0976 194.622 16.2008C194.364 16.2783 194.08 16.5107 194.158 17.027L194.442 18.8602C194.493 19.2991 194.7 19.6347 195.165 19.4798C195.939 19.2474 197.333 19.0667 198.16 19.0667C199.554 19.0667 199.812 19.738 199.812 20.8998C199.812 20.8998 198.805 20.3835 197.462 20.3835C194.751 20.3835 193.073 22.0617 193.073 24.3596ZM196.92 24.0755C196.92 23.3784 197.514 22.7588 198.237 22.7588C198.96 22.7588 199.58 23.3784 199.58 24.0755C199.58 24.7985 198.96 25.3923 198.237 25.3923C197.514 25.3923 196.92 24.7985 196.92 24.0755ZM206.402 27.432C206.402 27.7418 206.661 28 206.97 28H209.681C210.12 28 210.327 27.7934 210.327 27.432V21.1838C210.327 20.1769 210.998 19.5314 211.902 19.5314C212.16 19.5314 212.599 19.6347 212.805 19.7122C213.141 19.8413 213.348 19.6605 213.477 19.4282L214.664 17.0787C214.793 16.8463 214.793 16.5881 214.587 16.4332C214.148 16.0976 213.348 15.8135 212.263 15.8135C210.714 15.8135 209.81 16.7947 209.294 17.75L208.752 16.4332C208.674 16.2266 208.52 16.0717 208.21 16.0717H206.97C206.661 16.0717 206.402 16.3041 206.402 16.6397V27.432ZM215.262 22.0359C215.262 25.7279 217.947 28.284 221.51 28.284C223.395 28.284 224.892 27.6385 225.925 26.58C226.183 26.3218 226.132 25.9603 225.951 25.7279L224.634 23.9981C224.453 23.7657 224.143 23.7657 223.885 23.9981C223.369 24.3596 222.388 24.7468 221.613 24.7468C219.987 24.7468 219.135 23.6108 219.135 22.6813H226.493C226.751 22.6813 227.035 22.4748 227.061 22.165C227.087 21.9842 227.113 21.5711 227.113 21.3904C227.113 18.1114 224.479 15.8135 221.458 15.8135C217.921 15.8135 215.262 18.6794 215.262 22.0359ZM219.574 20.4093C219.728 19.6089 220.374 18.9376 221.355 18.9376C222.362 18.9376 223.033 19.6089 223.085 20.4093H219.574Z" fill="#5199F6"/>
<path d="M190.351 41.7241C190.351 41.8693 190.467 42 190.612 42H194.156C196.959 42 199.253 39.7199 199.253 36.9024C199.253 34.114 196.959 31.8339 194.156 31.8339H190.612C190.467 31.8339 190.351 31.9646 190.351 32.1098V41.7241ZM192.616 39.8506V33.9688H194.141C195.782 33.9688 196.843 35.2613 196.843 36.9024C196.843 38.558 195.782 39.8506 194.141 39.8506H192.616ZM200.498 41.6805C200.498 41.8548 200.643 42 200.817 42H202.386C202.56 42 202.705 41.8548 202.705 41.6805V35.6099C202.705 35.4211 202.56 35.2904 202.386 35.2904H200.817C200.643 35.2904 200.498 35.4211 200.498 35.6099V41.6805ZM201.587 34.3609C202.284 34.3609 202.85 33.7945 202.85 33.1119C202.85 32.4148 202.284 31.8339 201.587 31.8339C200.89 31.8339 200.338 32.4148 200.338 33.1119C200.338 33.7945 200.89 34.3609 201.587 34.3609ZM204.327 41.6805C204.327 41.8548 204.472 42 204.647 42H206.171C206.418 42 206.535 41.8838 206.535 41.6805V38.1659C206.535 37.5995 206.912 37.2364 207.42 37.2364C207.566 37.2364 207.813 37.2945 207.929 37.3381C208.118 37.4107 208.234 37.3091 208.306 37.1783L208.974 35.8568C209.047 35.726 209.047 35.5808 208.931 35.4937C208.684 35.3049 208.234 35.1451 207.624 35.1451C206.752 35.1451 206.244 35.697 205.954 36.2344L205.649 35.4937C205.605 35.3775 205.518 35.2904 205.344 35.2904H204.647C204.472 35.2904 204.327 35.4211 204.327 35.6099V41.6805ZM209.31 38.6452C209.31 40.722 210.821 42.1598 212.825 42.1598C213.885 42.1598 214.728 41.7967 215.309 41.2012C215.454 41.056 215.425 40.8527 215.323 40.722L214.582 39.7489C214.481 39.6182 214.306 39.6182 214.161 39.7489C213.871 39.9523 213.319 40.1701 212.883 40.1701C211.968 40.1701 211.489 39.5311 211.489 39.0083H215.628C215.773 39.0083 215.933 38.8921 215.948 38.7178C215.962 38.6161 215.977 38.3838 215.977 38.2821C215.977 36.4377 214.495 35.1451 212.796 35.1451C210.806 35.1451 209.31 36.7572 209.31 38.6452ZM211.736 37.7302C211.823 37.28 212.186 36.9024 212.738 36.9024C213.304 36.9024 213.682 37.28 213.711 37.7302H211.736ZM216.742 38.6452C216.742 40.6639 218.368 42.1598 220.285 42.1598C221.491 42.1598 222.362 41.695 222.987 40.7655C223.103 40.5913 223.016 40.4315 222.871 40.2863L221.927 39.473C221.839 39.3568 221.665 39.3859 221.549 39.5311C221.259 39.8215 220.968 40.083 220.344 40.083C219.574 40.083 218.949 39.4585 218.949 38.6452C218.949 37.89 219.603 37.2074 220.373 37.2074C220.794 37.2074 221.128 37.4398 221.404 37.6867C221.534 37.8028 221.709 37.7883 221.781 37.7157L222.725 36.8007C222.885 36.67 222.943 36.4812 222.813 36.3215C222.173 35.5663 221.36 35.1451 220.3 35.1451C218.383 35.1451 216.742 36.67 216.742 38.6452ZM224.547 39.8215C224.547 41.3465 225.288 42.1598 226.566 42.1598C227.278 42.1598 228.033 41.971 228.483 41.7822C228.672 41.695 228.744 41.6079 228.701 41.4046L228.41 40.141C228.367 39.9668 228.207 39.8942 228.033 39.9377C227.873 39.9813 227.437 40.083 227.205 40.083C226.914 40.083 226.755 39.9377 226.755 39.6182V37.28H228.105C228.28 37.28 228.425 37.1348 228.425 36.9605V35.6099C228.425 35.4211 228.28 35.2904 228.105 35.2904H226.755V33.4314C226.755 33.2571 226.624 33.1119 226.464 33.1119H224.867C224.692 33.1119 224.547 33.2571 224.547 33.4314V35.2904H223.995C223.836 35.2904 223.705 35.4211 223.705 35.6099V36.9605C223.705 37.1348 223.836 37.28 223.995 37.28H224.547V39.8215Z" fill="#3E537E"/>
</svg>
