<?xml version="1.0" encoding="UTF-8"?>
<svg width="675px" height="99px" viewBox="0 0 675 99" version="1.1" xmlns="http://www.w3.org/2000/svg" xmlns:xlink="http://www.w3.org/1999/xlink">
    <title>tradesman-logo@1x</title>
    <g id="Compare-horizontal" stroke="none" stroke-width="1" fill="none" fill-rule="evenodd">
        <g id="logos-final" transform="translate(-910.000000, -633.000000)">
            <g id="tradesman-logo" transform="translate(910.000000, 633.000000)">
                <path d="M573.488,48.296 C573.488,45.368 575.888,42.968 578.72,42.968 C581.552,42.968 584.048,45.368 584.048,48.296 C584.048,51.128 581.552,53.528 578.72,53.528 C575.888,53.528 573.488,51.128 573.488,48.296 Z M586.928,41.912 C586.928,35.384 592.352,30.344 598.688,30.344 C602.192,30.344 604.88,31.736 606.992,34.232 C607.424,34.76 607.232,35.384 606.704,35.816 L603.584,38.84 C603.344,39.08 602.768,39.128 602.336,38.744 C601.424,37.928 600.32,37.16 598.928,37.16 C596.384,37.16 594.224,39.416 594.224,41.912 C594.224,44.6 596.288,46.664 598.832,46.664 C600.896,46.664 601.856,45.8 602.816,44.84 C603.2,44.36 603.776,44.264 604.064,44.648 L607.184,47.336 C607.664,47.816 607.952,48.344 607.568,48.92 C605.504,51.992 602.624,53.528 598.64,53.528 C592.304,53.528 586.928,48.584 586.928,41.912 Z M610.016,41.864 C610.016,35.624 615.248,30.344 621.584,30.344 C627.92,30.344 633.104,35.624 633.104,41.864 C633.104,48.2 627.92,53.528 621.584,53.528 C615.248,53.528 610.016,48.2 610.016,41.864 Z M616.928,41.864 C616.928,44.456 618.992,46.664 621.584,46.664 C624.128,46.664 626.192,44.456 626.192,41.864 C626.192,39.32 624.128,37.16 621.584,37.16 C618.992,37.16 616.928,39.32 616.928,41.864 Z M637.184,51.944 L637.184,31.88 C637.184,31.256 637.616,30.824 638.24,30.824 L640.352,30.824 C640.736,30.824 641.12,31.064 641.264,31.448 L642.176,33.704 C643.616,32.264 645.44,30.344 649.04,30.344 C652.112,30.344 653.6,31.496 655.616,33.704 C656.768,32.456 658.832,30.344 662.624,30.344 C669.44,30.344 671.696,35.288 671.696,41.576 L671.696,51.944 C671.696,52.52 671.216,53 670.64,53 L665.456,53 C664.832,53 664.4,52.52 664.4,51.944 L664.4,41.24 C664.4,38.984 663.728,37.16 661.136,37.16 C659.216,37.16 658.016,38.696 658.016,40.856 L658.016,51.944 C658.016,52.52 657.632,53 657.008,53 L651.776,53 C651.2,53 650.72,52.52 650.72,51.944 L650.72,41.24 C650.72,38.984 650.336,37.16 647.888,37.16 C645.632,37.16 644.48,38.696 644.48,40.952 L644.48,51.944 C644.48,52.52 643.952,53 643.424,53 L638.24,53 C637.616,53 637.184,52.52 637.184,51.944 Z" id=".com" fill="#475D89"></path>
                <path d="M381.872,36.248 C381.872,26.648 389.6,18.92 399.2,18.92 C404,18.92 407.552,20.408 410.816,23.384 C411.248,23.768 411.248,24.344 410.864,24.728 L407.12,28.616 C406.784,28.952 406.256,28.952 405.92,28.616 C403.952,26.888 401.792,26.168 399.44,26.168 C394.016,26.168 390.032,30.68 390.032,36.056 C390.032,41.384 394.064,45.8 399.488,45.8 C402.128,45.8 404.192,44.984 405.92,43.496 C406.256,43.208 406.88,43.208 407.168,43.544 L410.912,47.528 C411.248,47.864 411.2,48.488 410.864,48.824 C407.6,51.992 403.472,53.48 399.2,53.48 C389.6,53.48 381.872,45.848 381.872,36.248 Z M413.984,41.864 C413.984,35.624 419.216,30.344 425.552,30.344 C431.888,30.344 437.072,35.624 437.072,41.864 C437.072,48.2 431.888,53.528 425.552,53.528 C419.216,53.528 413.984,48.2 413.984,41.864 Z M420.896,41.864 C420.896,44.456 422.96,46.664 425.552,46.664 C428.096,46.664 430.16,44.456 430.16,41.864 C430.16,39.32 428.096,37.16 425.552,37.16 C422.96,37.16 420.896,39.32 420.896,41.864 Z M441.152,51.944 L441.152,31.88 C441.152,31.256 441.584,30.824 442.208,30.824 L444.32,30.824 C444.704,30.824 445.088,31.064 445.232,31.448 L446.144,33.704 C447.584,32.264 449.408,30.344 453.008,30.344 C456.08,30.344 457.568,31.496 459.584,33.704 C460.736,32.456 462.8,30.344 466.592,30.344 C473.408,30.344 475.664,35.288 475.664,41.576 L475.664,51.944 C475.664,52.52 475.184,53 474.608,53 L469.424,53 C468.8,53 468.368,52.52 468.368,51.944 L468.368,41.24 C468.368,38.984 467.696,37.16 465.104,37.16 C463.184,37.16 461.984,38.696 461.984,40.856 L461.984,51.944 C461.984,52.52 461.6,53 460.976,53 L455.744,53 C455.168,53 454.688,52.52 454.688,51.944 L454.688,41.24 C454.688,38.984 454.304,37.16 451.856,37.16 C449.6,37.16 448.448,38.696 448.448,40.952 L448.448,51.944 C448.448,52.52 447.92,53 447.392,53 L442.208,53 C441.584,53 441.152,52.52 441.152,51.944 Z M488.144,52.232 L488.144,63.368 C488.144,63.944 487.664,64.424 487.088,64.424 L481.904,64.424 C481.328,64.424 480.848,63.944 480.848,63.368 L480.848,31.88 C480.848,31.352 481.328,30.824 481.904,30.824 L484.064,30.824 C484.592,30.824 485.024,31.352 485.216,31.928 L485.84,33.752 C485.84,33.752 488.432,30.344 493.328,30.344 C499.568,30.344 504.224,35.528 504.224,41.864 C504.224,49.688 499.184,53.528 493.28,53.528 C491.12,53.528 488.864,52.76 488.144,52.232 Z M487.52,41.912 C487.52,44.6 489.488,46.664 492.224,46.664 C494.864,46.664 496.928,44.6 496.928,41.912 C496.928,39.272 494.864,37.16 492.224,37.16 C489.488,37.16 487.52,39.272 487.52,41.912 Z M507.104,46.232 C507.104,41.96 510.224,38.84 515.264,38.84 C517.76,38.84 519.632,39.8 519.632,39.8 C519.632,37.64 519.152,36.392 516.56,36.392 C515.024,36.392 512.432,36.728 510.992,37.16 C510.128,37.448 509.744,36.824 509.648,36.008 L509.12,32.6 C508.976,31.64 509.504,31.208 509.984,31.064 C510.512,30.872 514.4,30.344 517.376,30.344 C524.24,30.344 526.64,33.128 526.64,39.704 L526.64,51.944 C526.64,52.52 526.112,53 525.584,53 L523.232,53 C522.896,53 522.512,52.904 522.224,52.28 L521.504,50.792 C520.16,51.944 518.288,53.528 514.784,53.528 C510.416,53.528 507.104,50.648 507.104,46.232 Z M514.256,45.704 C514.256,47.048 515.36,48.152 516.704,48.152 C518.048,48.152 519.2,47.048 519.2,45.704 C519.2,44.408 518.048,43.256 516.704,43.256 C515.36,43.256 514.256,44.408 514.256,45.704 Z M531.872,51.944 L531.872,31.88 C531.872,31.256 532.352,30.824 532.928,30.824 L535.232,30.824 C535.808,30.824 536.096,31.112 536.24,31.496 L537.248,33.944 C538.208,32.168 539.888,30.344 542.768,30.344 C544.784,30.344 546.272,30.872 547.088,31.496 C547.472,31.784 547.472,32.264 547.232,32.696 L545.024,37.064 C544.784,37.496 544.4,37.832 543.776,37.592 C543.392,37.448 542.576,37.256 542.096,37.256 C540.416,37.256 539.168,38.456 539.168,40.328 L539.168,51.944 C539.168,52.616 538.784,53 537.968,53 L532.928,53 C532.352,53 531.872,52.52 531.872,51.944 Z M548.96,41.912 C548.96,35.672 553.904,30.344 560.48,30.344 C566.096,30.344 570.992,34.616 570.992,40.712 C570.992,41.048 570.944,41.816 570.896,42.152 C570.848,42.728 570.32,43.112 569.84,43.112 L556.16,43.112 C556.16,44.84 557.744,46.952 560.768,46.952 C562.208,46.952 564.032,46.232 564.992,45.56 C565.472,45.128 566.048,45.128 566.384,45.56 L568.832,48.776 C569.168,49.208 569.264,49.88 568.784,50.36 C566.864,52.328 564.08,53.528 560.576,53.528 C553.952,53.528 548.96,48.776 548.96,41.912 Z M556.976,38.888 L563.504,38.888 C563.408,37.4 562.16,36.152 560.288,36.152 C558.464,36.152 557.264,37.4 556.976,38.888 Z" id="Compare" fill="#5199F6"></path>
                <path d="M157.024,52.088 L157.024,26.456 L150.16,26.456 C149.632,26.456 149.248,26.024 149.248,25.544 L149.248,20.312 C149.248,19.832 149.632,19.4 150.16,19.4 L171.472,19.4 C172,19.4 172.384,19.832 172.384,20.312 L172.384,25.544 C172.384,26.024 172,26.456 171.472,26.456 L164.608,26.456 L164.608,52.088 C164.608,52.568 164.176,53 163.696,53 L157.936,53 C157.456,53 157.024,52.568 157.024,52.088 Z M176.32,51.944 L176.32,31.88 C176.32,31.256 176.8,30.824 177.376,30.824 L179.68,30.824 C180.256,30.824 180.544,31.112 180.688,31.496 L181.696,33.944 C182.656,32.168 184.336,30.344 187.216,30.344 C189.232,30.344 190.72,30.872 191.536,31.496 C191.92,31.784 191.92,32.264 191.68,32.696 L189.472,37.064 C189.232,37.496 188.848,37.832 188.224,37.592 C187.84,37.448 187.024,37.256 186.544,37.256 C184.864,37.256 183.616,38.456 183.616,40.328 L183.616,51.944 C183.616,52.616 183.232,53 182.416,53 L177.376,53 C176.8,53 176.32,52.52 176.32,51.944 Z M193.36,46.232 C193.36,41.96 196.48,38.84 201.52,38.84 C204.016,38.84 205.888,39.8 205.888,39.8 C205.888,37.64 205.408,36.392 202.816,36.392 C201.28,36.392 198.688,36.728 197.248,37.16 C196.384,37.448 196,36.824 195.904,36.008 L195.376,32.6 C195.232,31.64 195.76,31.208 196.24,31.064 C196.768,30.872 200.656,30.344 203.632,30.344 C210.496,30.344 212.896,33.128 212.896,39.704 L212.896,51.944 C212.896,52.52 212.368,53 211.84,53 L209.488,53 C209.152,53 208.768,52.904 208.48,52.28 L207.76,50.792 C206.416,51.944 204.544,53.528 201.04,53.528 C196.672,53.528 193.36,50.648 193.36,46.232 Z M200.512,45.704 C200.512,47.048 201.616,48.152 202.96,48.152 C204.304,48.152 205.456,47.048 205.456,45.704 C205.456,44.408 204.304,43.256 202.96,43.256 C201.616,43.256 200.512,44.408 200.512,45.704 Z M216.928,41.912 C216.928,34.088 222.016,30.344 227.92,30.344 C230.08,30.344 232.336,31.016 233.056,31.592 L233.056,20.456 C233.056,19.928 233.536,19.4 234.112,19.4 L239.296,19.4 C239.872,19.4 240.352,19.928 240.352,20.456 L240.352,51.944 C240.352,52.52 239.872,53 239.296,53 L237.136,53 C236.608,53 236.176,52.52 235.984,51.896 L235.36,50.072 C235.36,50.072 232.768,53.528 227.872,53.528 C221.632,53.528 216.928,48.248 216.928,41.912 Z M224.272,41.864 C224.272,44.6 226.336,46.664 228.976,46.664 C231.712,46.664 233.68,44.6 233.68,41.864 C233.68,39.176 231.712,37.16 228.976,37.16 C226.336,37.16 224.272,39.176 224.272,41.864 Z M244.528,41.912 C244.528,35.672 249.472,30.344 256.048,30.344 C261.664,30.344 266.56,34.616 266.56,40.712 C266.56,41.048 266.512,41.816 266.464,42.152 C266.416,42.728 265.888,43.112 265.408,43.112 L251.728,43.112 C251.728,44.84 253.312,46.952 256.336,46.952 C257.776,46.952 259.6,46.232 260.56,45.56 C261.04,45.128 261.616,45.128 261.952,45.56 L264.4,48.776 C264.736,49.208 264.832,49.88 264.352,50.36 C262.432,52.328 259.648,53.528 256.144,53.528 C249.52,53.528 244.528,48.776 244.528,41.912 Z M252.544,38.888 L259.072,38.888 C258.976,37.4 257.728,36.152 255.856,36.152 C254.032,36.152 252.832,37.4 252.544,38.888 Z M277.888,53.528 C274.288,53.528 271.408,52.568 269.968,51.704 C269.488,51.416 269.344,51.032 269.584,50.552 L271.36,46.904 C271.504,46.52 272.032,46.184 272.512,46.424 C274.288,47.288 275.968,47.816 277.984,47.816 C279.424,47.816 279.664,47.288 279.664,46.76 C279.664,46.04 278.464,45.464 275.872,44.456 C271.6,42.776 269.392,40.808 269.392,37.256 C269.392,33.272 272.032,30.344 277.792,30.344 C280.672,30.344 283.696,31.16 285.376,32.024 C285.952,32.312 286.24,32.888 285.952,33.464 L284.224,37.016 C284.08,37.4 283.504,37.592 283.072,37.4 C281.584,36.68 279.664,36.056 277.888,36.056 C276.64,36.056 276.304,36.392 276.304,36.968 C276.304,37.544 277.216,38.024 278.8,38.6 C283.264,40.232 286.912,42.008 286.912,46.472 C286.912,50.312 283.792,53.528 277.888,53.528 Z M291.088,51.944 L291.088,31.88 C291.088,31.256 291.52,30.824 292.144,30.824 L294.256,30.824 C294.64,30.824 295.024,31.064 295.168,31.448 L296.08,33.704 C297.52,32.264 299.344,30.344 302.944,30.344 C306.016,30.344 307.504,31.496 309.52,33.704 C310.672,32.456 312.736,30.344 316.528,30.344 C323.344,30.344 325.6,35.288 325.6,41.576 L325.6,51.944 C325.6,52.52 325.12,53 324.544,53 L319.36,53 C318.736,53 318.304,52.52 318.304,51.944 L318.304,41.24 C318.304,38.984 317.632,37.16 315.04,37.16 C313.12,37.16 311.92,38.696 311.92,40.856 L311.92,51.944 C311.92,52.52 311.536,53 310.912,53 L305.68,53 C305.104,53 304.624,52.52 304.624,51.944 L304.624,41.24 C304.624,38.984 304.24,37.16 301.792,37.16 C299.536,37.16 298.384,38.696 298.384,40.952 L298.384,51.944 C298.384,52.52 297.856,53 297.328,53 L292.144,53 C291.52,53 291.088,52.52 291.088,51.944 Z M329.44,46.232 C329.44,41.96 332.56,38.84 337.6,38.84 C340.096,38.84 341.968,39.8 341.968,39.8 C341.968,37.64 341.488,36.392 338.896,36.392 C337.36,36.392 334.768,36.728 333.328,37.16 C332.464,37.448 332.08,36.824 331.984,36.008 L331.456,32.6 C331.312,31.64 331.84,31.208 332.32,31.064 C332.848,30.872 336.736,30.344 339.712,30.344 C346.576,30.344 348.976,33.128 348.976,39.704 L348.976,51.944 C348.976,52.52 348.448,53 347.92,53 L345.568,53 C345.232,53 344.848,52.904 344.56,52.28 L343.84,50.792 C342.496,51.944 340.624,53.528 337.12,53.528 C332.752,53.528 329.44,50.648 329.44,46.232 Z M336.592,45.704 C336.592,47.048 337.696,48.152 339.04,48.152 C340.384,48.152 341.536,47.048 341.536,45.704 C341.536,44.408 340.384,43.256 339.04,43.256 C337.696,43.256 336.592,44.408 336.592,45.704 Z M354.208,51.944 L354.208,31.88 C354.208,31.256 354.688,30.824 355.264,30.824 L357.424,30.824 C357.76,30.824 358.192,31.064 358.432,31.496 L359.248,33.704 C360.448,32.36 362.128,30.344 366.16,30.344 C373.072,30.344 375.424,35.24 375.424,41.336 L375.424,51.944 C375.424,52.52 374.944,53 374.416,53 L369.184,53 C368.56,53 368.128,52.52 368.128,51.944 L368.128,41.24 C368.128,39.128 367.408,37.16 364.912,37.16 C362.704,37.16 361.552,38.696 361.552,40.952 L361.552,51.944 C361.552,52.424 361.312,53 360.544,53 L355.264,53 C354.688,53 354.208,52.52 354.208,51.944 Z" id="Tradesman" fill="#3E537E"></path>
                <path d="M152.752,87.544 L152.752,74.08 L149.08,74.08 C148.816,74.08 148.624,73.864 148.624,73.624 L148.624,71.656 C148.624,71.416 148.816,71.2 149.08,71.2 L159.568,71.2 C159.832,71.2 160.024,71.416 160.024,71.656 L160.024,73.624 C160.024,73.864 159.832,74.08 159.568,74.08 L155.896,74.08 L155.896,87.544 C155.896,87.784 155.68,88 155.44,88 L153.208,88 C152.968,88 152.752,87.784 152.752,87.544 Z M161.64,87.472 L161.64,71.728 C161.64,71.464 161.904,71.2 162.168,71.2 L164.112,71.2 C164.4,71.2 164.64,71.464 164.64,71.728 L164.64,77.608 C165.192,77.128 166.152,76.672 167.472,76.672 C171,76.672 171.96,79.12 171.96,81.904 L171.96,87.472 C171.96,87.76 171.696,88 171.432,88 L169.488,88 C169.2,88 168.96,87.76 168.96,87.472 L168.96,81.88 C168.96,80.344 168.264,79.408 166.944,79.408 C165.648,79.408 164.928,80.224 164.64,81.352 L164.64,87.472 C164.64,87.784 164.496,88 164.064,88 L162.168,88 C161.904,88 161.64,87.76 161.64,87.472 Z M173.816,82.456 C173.816,79.336 176.12,76.672 179.408,76.672 C182.288,76.672 184.496,78.808 184.496,81.808 C184.496,81.976 184.472,82.36 184.448,82.528 C184.424,82.816 184.16,83.032 183.92,83.032 L176.816,83.032 C176.84,84.4 177.968,85.6 179.576,85.6 C180.68,85.6 181.448,85.192 181.952,84.784 C182.216,84.568 182.504,84.544 182.672,84.784 L183.608,86.032 C183.8,86.248 183.824,86.512 183.56,86.752 C182.6,87.568 181.232,88.264 179.432,88.264 C176.12,88.264 173.816,85.624 173.816,82.456 Z M176.984,81.064 L181.472,81.064 C181.424,79.984 180.56,79.144 179.336,79.144 C177.992,79.144 177.128,79.96 176.984,81.064 Z M194.232,87.544 L194.232,74.08 L190.56,74.08 C190.296,74.08 190.104,73.864 190.104,73.624 L190.104,71.656 C190.104,71.416 190.296,71.2 190.56,71.2 L201.048,71.2 C201.312,71.2 201.504,71.416 201.504,71.656 L201.504,73.624 C201.504,73.864 201.312,74.08 201.048,74.08 L197.376,74.08 L197.376,87.544 C197.376,87.784 197.16,88 196.92,88 L194.688,88 C194.448,88 194.232,87.784 194.232,87.544 Z M201.2,87.472 L201.2,77.44 C201.2,77.128 201.464,76.912 201.728001,76.912 L202.616,76.912 C202.88,76.912 203,77.032 203.096001,77.272 L203.504001,78.352 C203.888001,77.8 204.920001,76.672 206.624,76.672 C207.944001,76.672 209.024,77.032 208.712,77.752 L207.992001,79.384 C207.872001,79.648 207.608001,79.744 207.344,79.624 C207.08,79.504 206.816001,79.408 206.312001,79.408 C205.112,79.408 204.392,80.176 204.2,80.56 L204.2,87.472 C204.2,87.88 203.936001,88 203.576,88 L201.728001,88 C201.464,88 201.2,87.76 201.2,87.472 Z M209.152001,84.472 C209.152001,82.504 210.760001,80.992 213.568001,80.992 C214.696001,80.992 215.704001,81.304 215.704001,81.304 C215.752001,79.888 215.344001,79.216 214.168001,79.216 C213.160001,79.216 211.696001,79.432 211.048001,79.624 C210.688001,79.744 210.472001,79.48 210.424001,79.144 L210.184001,77.896 C210.088001,77.488 210.304001,77.296 210.544001,77.224 C210.784001,77.128 212.536001,76.672 214.336001,76.672 C217.792001,76.672 218.512001,78.472 218.512001,81.496 L218.512001,87.472 C218.512001,87.76 218.272001,88 217.984001,88 L217.168001,88 C216.976001,88 216.832001,87.928 216.688001,87.616 L216.376001,86.872 C215.728001,87.496 214.624001,88.264 212.896001,88.264 C210.688001,88.264 209.152001,86.848 209.152001,84.472 Z M212.032001,84.472 C212.032001,85.408 212.608001,86.032 213.640001,86.032 C214.624001,86.032 215.488001,85.264 215.632001,84.856 L215.632001,83.224 C215.632001,83.224 214.888001,82.888 214.000001,82.888 C212.728001,82.888 212.032001,83.488 212.032001,84.472 Z M220.416001,82.456 C220.416001,79.216 222.600001,76.672 225.912001,76.672 C227.016001,76.672 228.072001,76.936 228.576001,77.128 L228.576001,71.728 C228.576001,71.464 228.840001,71.2 229.104001,71.2 L231.048001,71.2 C231.336001,71.2 231.576001,71.464 231.576001,71.728 L231.576001,87.472 C231.576001,87.76 231.336001,88 231.048001,88 L230.160001,88 C229.896001,88 229.728001,87.784 229.632001,87.472 L229.344001,86.608 C229.344001,86.608 228.072001,88.264 225.720001,88.264 C222.696001,88.264 220.416001,85.816 220.416001,82.456 Z M228.576001,83.992 L228.576001,80.032 C228.576001,80.032 227.664001,79.408 226.272001,79.408 C224.448001,79.408 223.512001,80.896 223.512001,82.456 C223.512001,84.016 224.400001,85.528 226.128001,85.528 C227.568001,85.528 228.336001,84.616 228.576001,83.992 Z M233.576001,82.456 C233.576001,79.336 235.880001,76.672 239.168001,76.672 C242.048001,76.672 244.256001,78.808 244.256001,81.808 C244.256001,81.976 244.232001,82.36 244.208001,82.528 C244.184001,82.816 243.920001,83.032 243.680001,83.032 L236.576001,83.032 C236.600001,84.4 237.728001,85.6 239.336001,85.6 C240.440001,85.6 241.208001,85.192 241.712001,84.784 C241.976001,84.568 242.264001,84.544 242.432001,84.784 L243.368001,86.032 C243.560001,86.248 243.584001,86.512 243.320001,86.752 C242.360001,87.568 240.992001,88.264 239.192001,88.264 C235.880001,88.264 233.576001,85.624 233.576001,82.456 Z M236.744001,81.064 L241.232001,81.064 C241.184001,79.984 240.320001,79.144 239.096001,79.144 C237.752001,79.144 236.888001,79.96 236.744001,81.064 Z M249.400001,88.264 C247.552001,88.264 246.400001,87.688 245.776001,87.256 C245.632001,87.16 245.512001,86.896 245.632001,86.656 L246.352001,85.216 C246.472001,84.952 246.736001,84.856 247.000001,85.024 C247.504001,85.336 248.296001,85.744 249.448001,85.744 C250.288001,85.744 250.672001,85.432 250.672001,84.952 C250.672001,84.448 250.048001,83.992 248.584001,83.416 C246.448001,82.6 245.488001,81.592 245.488001,79.912 C245.488001,78.232 246.760001,76.672 249.472001,76.672 C251.104001,76.672 252.160001,77.104 252.760001,77.488 C253.000001,77.68 253.144001,77.968 253.000001,78.256 L252.376001,79.528 C252.208001,79.792 251.920001,79.84 251.680001,79.744 C251.152001,79.504 250.384001,79.192 249.472001,79.192 C248.728001,79.192 248.416001,79.552 248.416001,79.912 C248.416001,80.416 248.968001,80.68 250.000001,81.112 C252.136001,81.976 253.672001,82.744 253.672001,84.952 C253.672001,86.704 252.184001,88.264 249.400001,88.264 Z M255.624001,87.472 L255.624001,77.44 C255.624001,77.128 255.888001,76.912 256.152001,76.912 L257.016001,76.912 C257.256001,76.912 257.424001,77.032 257.472001,77.224 L257.880001,78.28 C258.336001,77.752 259.320001,76.672 261.264001,76.672 C262.872001,76.672 263.664001,77.248 264.576001,78.352 C265.056001,77.848 266.160001,76.672 268.152001,76.672 C271.704001,76.672 272.544001,78.928 272.544001,81.808 L272.544001,87.472 C272.544001,87.76 272.304001,88 271.992001,88 L270.072001,88 C269.784001,88 269.544001,87.76 269.544001,87.472 L269.544001,81.736 C269.544001,80.296 269.016001,79.408 267.624001,79.408 C266.016001,79.408 265.560001,80.56 265.560001,80.56 C265.560001,80.56 265.608001,81.112 265.608001,81.616 L265.608001,87.472 C265.608001,87.76 265.344001,88 265.080001,88 L263.112001,88 C262.800001,88 262.584001,87.76 262.584001,87.472 L262.584001,81.736 C262.584001,80.296 262.176001,79.408 260.760001,79.408 C259.392001,79.408 258.888001,80.368 258.624001,81.136 L258.624001,87.472 C258.624001,87.76 258.360001,88 258.096001,88 L256.152001,88 C255.888001,88 255.624001,87.76 255.624001,87.472 Z M274.328001,84.472 C274.328001,82.504 275.936001,80.992 278.744001,80.992 C279.872001,80.992 280.880001,81.304 280.880001,81.304 C280.928001,79.888 280.520001,79.216 279.344001,79.216 C278.336001,79.216 276.872001,79.432 276.224001,79.624 C275.864001,79.744 275.648001,79.48 275.600001,79.144 L275.360001,77.896 C275.264001,77.488 275.480001,77.296 275.720001,77.224 C275.960001,77.128 277.712001,76.672 279.512001,76.672 C282.968001,76.672 283.688001,78.472 283.688001,81.496 L283.688001,87.472 C283.688001,87.76 283.448001,88 283.160001,88 L282.344001,88 C282.152001,88 282.008001,87.928 281.864001,87.616 L281.552001,86.872 C280.904001,87.496 279.800001,88.264 278.072001,88.264 C275.864001,88.264 274.328001,86.848 274.328001,84.472 Z M277.208001,84.472 C277.208001,85.408 277.784001,86.032 278.816001,86.032 C279.800001,86.032 280.664001,85.264 280.808001,84.856 L280.808001,83.224 C280.808001,83.224 280.064001,82.888 279.176001,82.888 C277.904001,82.888 277.208001,83.488 277.208001,84.472 Z M286.264001,87.472 L286.264001,77.44 C286.264001,77.128 286.528001,76.912 286.792001,76.912 L287.704001,76.912 C287.968001,76.912 288.088001,77.032 288.160001,77.248 L288.568001,78.28 C288.976001,77.824 290.008001,76.672 292.144001,76.672 C295.672001,76.672 296.584001,79.048 296.584001,81.736 L296.584001,87.472 C296.584001,87.76 296.320001,88 296.056001,88 L294.112001,88 C293.824001,88 293.584001,87.76 293.584001,87.472 L293.584001,81.736 C293.584001,80.296 293.008001,79.408 291.664001,79.408 C290.224001,79.408 289.528001,80.368 289.264001,81.136 L289.264001,87.472 C289.264001,87.88 289.096001,88 288.568001,88 L286.792001,88 C286.528001,88 286.264001,87.76 286.264001,87.472 Z M305.000001,87.544 L305.000001,71.656 C305.000001,71.416 305.216001,71.2 305.456001,71.2 L307.688001,71.2 C307.928001,71.2 308.144001,71.416 308.144001,71.656 L308.144001,87.544 C308.144001,87.784 307.928001,88 307.688001,88 L305.456001,88 C305.216001,88 305.000001,87.784 305.000001,87.544 Z M311.080001,87.472 L311.080001,77.44 C311.080001,77.128 311.344001,76.912 311.608002,76.912 L312.520002,76.912 C312.784002,76.912 312.904002,77.032 312.976002,77.248 L313.384002,78.28 C313.792001,77.824 314.824002,76.672 316.960001,76.672 C320.488001,76.672 321.400002,79.048 321.400002,81.736 L321.400002,87.472 C321.400002,87.76 321.136002,88 320.872002,88 L318.928002,88 C318.640002,88 318.400002,87.76 318.400002,87.472 L318.400002,81.736 C318.400002,80.296 317.824002,79.408 316.480002,79.408 C315.040002,79.408 314.344001,80.368 314.080001,81.136 L314.080001,87.472 C314.080001,87.88 313.912001,88 313.384002,88 L311.608002,88 C311.344001,88 311.080001,87.76 311.080001,87.472 Z M327.240002,88.264 C325.392002,88.264 324.240002,87.688 323.616002,87.256 C323.472002,87.16 323.352002,86.896 323.472002,86.656 L324.192002,85.216 C324.312002,84.952 324.576002,84.856 324.840002,85.024 C325.344002,85.336 326.136002,85.744 327.288002,85.744 C328.128002,85.744 328.512002,85.432 328.512002,84.952 C328.512002,84.448 327.888002,83.992 326.424002,83.416 C324.288002,82.6 323.328002,81.592 323.328002,79.912 C323.328002,78.232 324.600002,76.672 327.312002,76.672 C328.944002,76.672 330.000002,77.104 330.600002,77.488 C330.840002,77.68 330.984002,77.968 330.840002,78.256 L330.216002,79.528 C330.048002,79.792 329.760002,79.84 329.520002,79.744 C328.992002,79.504 328.224002,79.192 327.312002,79.192 C326.568002,79.192 326.256002,79.552 326.256002,79.912 C326.256002,80.416 326.808002,80.68 327.840002,81.112 C329.976002,81.976 331.512002,82.744 331.512002,84.952 C331.512002,86.704 330.024002,88.264 327.240002,88.264 Z M333.344002,83.32 L333.344002,77.44 C333.344002,77.128 333.584002,76.912 333.872002,76.912 L335.816002,76.912 C336.104002,76.912 336.344002,77.128 336.344002,77.44 L336.344002,83.32 C336.344002,84.784 336.848002,85.528 338.216002,85.528 C339.440002,85.528 340.016002,84.424 340.184002,83.464 L340.184002,77.44 C340.184002,77.008 340.328002,76.912 340.784002,76.912 L342.656002,76.912 C342.944002,76.912 343.184002,77.128 343.184002,77.44 L343.184002,87.472 C343.184002,87.76 342.944002,88 342.656002,88 L341.792002,88 C341.528002,88 341.336002,87.808 341.264002,87.592 L340.952002,86.656 C340.376002,87.256 339.224002,88.264 337.520002,88.264 C334.088002,88.264 333.344002,86.128 333.344002,83.32 Z M345.856002,87.472 L345.856002,77.44 C345.856002,77.128 346.120002,76.912 346.384002,76.912 L347.272002,76.912 C347.536002,76.912 347.656002,77.032 347.752002,77.272 L348.160002,78.352 C348.544002,77.8 349.576002,76.672 351.280002,76.672 C352.600002,76.672 353.680002,77.032 353.368002,77.752 L352.648002,79.384 C352.528002,79.648 352.264002,79.744 352.000002,79.624 C351.736002,79.504 351.472002,79.408 350.968002,79.408 C349.768002,79.408 349.048002,80.176 348.856002,80.56 L348.856002,87.472 C348.856002,87.88 348.592002,88 348.232002,88 L346.384002,88 C346.120002,88 345.856002,87.76 345.856002,87.472 Z M353.808002,84.472 C353.808002,82.504 355.416002,80.992 358.224002,80.992 C359.352002,80.992 360.360002,81.304 360.360002,81.304 C360.408002,79.888 360.000002,79.216 358.824002,79.216 C357.816002,79.216 356.352002,79.432 355.704002,79.624 C355.344002,79.744 355.128002,79.48 355.080002,79.144 L354.840002,77.896 C354.744002,77.488 354.960002,77.296 355.200002,77.224 C355.440002,77.128 357.192002,76.672 358.992002,76.672 C362.448002,76.672 363.168002,78.472 363.168002,81.496 L363.168002,87.472 C363.168002,87.76 362.928002,88 362.640002,88 L361.824002,88 C361.632002,88 361.488002,87.928 361.344002,87.616 L361.032002,86.872 C360.384002,87.496 359.280002,88.264 357.552002,88.264 C355.344002,88.264 353.808002,86.848 353.808002,84.472 Z M356.688002,84.472 C356.688002,85.408 357.264002,86.032 358.296002,86.032 C359.280002,86.032 360.144002,85.264 360.288002,84.856 L360.288002,83.224 C360.288002,83.224 359.544002,82.888 358.656002,82.888 C357.384002,82.888 356.688002,83.488 356.688002,84.472 Z M365.744002,87.472 L365.744002,77.44 C365.744002,77.128 366.008002,76.912 366.272002,76.912 L367.184002,76.912 C367.448002,76.912 367.568002,77.032 367.640002,77.248 L368.048002,78.28 C368.456002,77.824 369.488002,76.672 371.624002,76.672 C375.152002,76.672 376.064002,79.048 376.064002,81.736 L376.064002,87.472 C376.064002,87.76 375.800002,88 375.536002,88 L373.592002,88 C373.304002,88 373.064002,87.76 373.064002,87.472 L373.064002,81.736 C373.064002,80.296 372.488002,79.408 371.144002,79.408 C369.704002,79.408 369.008002,80.368 368.744002,81.136 L368.744002,87.472 C368.744002,87.88 368.576002,88 368.048002,88 L366.272002,88 C366.008002,88 365.744002,87.76 365.744002,87.472 Z M377.944002,82.456 C377.944002,79.192 380.536002,76.672 383.824002,76.672 C385.552002,76.672 386.896002,77.416 387.952002,78.544 C388.192002,78.784 388.072002,79.096 387.832002,79.336 L386.824002,80.44 C386.584002,80.704 386.320002,80.584 386.104002,80.368 C385.576002,79.864 384.928002,79.408 383.896002,79.408 C382.168002,79.408 380.968002,80.752 380.968002,82.456 C380.968002,84.184 382.144002,85.528 383.872002,85.528 C385.096002,85.528 385.744002,84.856 386.224002,84.304 C386.392002,84.112 386.728002,84.064 386.920002,84.232 L388.000002,85.144 C388.264002,85.384 388.384002,85.648 388.192002,85.936 C387.256002,87.4 385.768002,88.264 383.800002,88.264 C380.560002,88.264 377.944002,85.792 377.944002,82.456 Z M389.184002,82.456 C389.184002,79.336 391.488002,76.672 394.776002,76.672 C397.656002,76.672 399.864002,78.808 399.864002,81.808 C399.864002,81.976 399.840002,82.36 399.816002,82.528 C399.792002,82.816 399.528002,83.032 399.288002,83.032 L392.184002,83.032 C392.208002,84.4 393.336002,85.6 394.944002,85.6 C396.048002,85.6 396.816002,85.192 397.320002,84.784 C397.584002,84.568 397.872002,84.544 398.040002,84.784 L398.976002,86.032 C399.168002,86.248 399.192002,86.512 398.928002,86.752 C397.968002,87.568 396.600002,88.264 394.800002,88.264 C391.488002,88.264 389.184002,85.624 389.184002,82.456 Z M392.352002,81.064 L396.840002,81.064 C396.792002,79.984 395.928002,79.144 394.704002,79.144 C393.360002,79.144 392.496002,79.96 392.352002,81.064 Z M407.584002,87.544 L407.584002,71.656 C407.584002,71.416 407.776002,71.2 408.040002,71.2 L413.680002,71.2 C416.632002,71.2 419.056002,73.6 419.056002,76.504 C419.056002,79.48 416.632002,81.904 413.704002,81.904 L410.704002,81.904 L410.704002,87.544 C410.704002,87.784 410.488002,88 410.248002,88 L408.040002,88 C407.776002,88 407.584002,87.784 407.584002,87.544 Z M410.704002,78.976 L413.584002,78.976 C414.928002,78.976 415.960002,77.896 415.960002,76.48 C415.960002,75.16 414.928002,74.152 413.584002,74.152 L410.704002,74.152 L410.704002,78.976 Z M419.448003,82.456 C419.448003,79.336 421.752003,76.672 425.040003,76.672 C427.920003,76.672 430.128002,78.808 430.128002,81.808 C430.128002,81.976 430.104002,82.36 430.080002,82.528 C430.056002,82.816 429.792003,83.032 429.552003,83.032 L422.448003,83.032 C422.472003,84.4 423.600003,85.6 425.208003,85.6 C426.312003,85.6 427.080002,85.192 427.584002,84.784 C427.848003,84.568 428.136003,84.544 428.304003,84.784 L429.240003,86.032 C429.432003,86.248 429.456003,86.512 429.192003,86.752 C428.232003,87.568 426.864002,88.264 425.064003,88.264 C421.752003,88.264 419.448003,85.624 419.448003,82.456 Z M422.616003,81.064 L427.104002,81.064 C427.056002,79.984 426.192003,79.144 424.968003,79.144 C423.624003,79.144 422.760003,79.96 422.616003,81.064 Z M431.312003,82.432 C431.312003,79.312 433.856003,76.672 436.976003,76.672 C440.120003,76.672 442.664003,79.312 442.664003,82.432 C442.664003,85.6 440.120003,88.264 436.976003,88.264 C433.856003,88.264 431.312003,85.6 431.312003,82.432 Z M434.096003,82.432 C434.096003,84.136 435.368003,85.528 436.976003,85.528 C438.584003,85.528 439.880003,84.136 439.880003,82.432 C439.880003,80.752 438.584003,79.408 436.976003,79.408 C435.368003,79.408 434.096003,80.752 434.096003,82.432 Z M455.800003,82.48 C455.800003,85.72 453.616003,88.264 450.304003,88.264 C449.200003,88.264 448.144003,88 447.640003,87.808 L447.640003,93.184 C447.640003,93.448 447.376003,93.712 447.112003,93.712 L445.168003,93.712 C444.880003,93.712 444.640003,93.448 444.640003,93.184 L444.640003,77.44 C444.640003,77.152 444.880003,76.912 445.168003,76.912 L446.056003,76.912 C446.320003,76.912 446.488003,77.128 446.584003,77.44 L446.872003,78.328 C446.872003,78.328 448.144003,76.672 450.496003,76.672 C453.520003,76.672 455.800003,79.12 455.800003,82.48 Z M447.640003,80.944 L447.640003,84.904 C447.640003,84.904 448.552003,85.528 449.944003,85.528 C451.768003,85.528 452.704003,84.04 452.704003,82.48 C452.704003,80.92 451.816003,79.408 450.088003,79.408 C448.648003,79.408 447.880003,80.32 447.640003,80.944 Z M457.848003,87.472 L457.848003,71.728 C457.848003,71.464 458.112003,71.2 458.376003,71.2 L460.320003,71.2 C460.584003,71.2 460.848003,71.464 460.848003,71.728 L460.848003,87.472 C460.848003,87.76 460.584003,88 460.320003,88 L458.376003,88 C458.112003,88 457.848003,87.76 457.848003,87.472 Z M462.872003,82.456 C462.872003,79.336 465.176003,76.672 468.464003,76.672 C471.344003,76.672 473.552003,78.808 473.552003,81.808 C473.552003,81.976 473.528003,82.36 473.504003,82.528 C473.480003,82.816 473.216003,83.032 472.976003,83.032 L465.872003,83.032 C465.896003,84.4 467.024003,85.6 468.632003,85.6 C469.736003,85.6 470.504003,85.192 471.008003,84.784 C471.272003,84.568 471.560003,84.544 471.728003,84.784 L472.664003,86.032 C472.856003,86.248 472.880003,86.512 472.616003,86.752 C471.656003,87.568 470.288003,88.264 468.488003,88.264 C465.176003,88.264 462.872003,85.624 462.872003,82.456 Z M466.040003,81.064 L470.528003,81.064 C470.480003,79.984 469.616003,79.144 468.392003,79.144 C467.048003,79.144 466.184003,79.96 466.040003,81.064 Z" id="The-Tradesman-Insura" fill="#3E537E"></path>
                <g id="Group-9">
                    <g id="Group-4">
                        <path d="M70.7,95 C47.1173844,95 28,95.7834862 28,96.749753 C28,97.7165138 47.1173844,98.5 70.7,98.5 C94.2826156,98.5 113.4,97.7165138 113.4,96.749753 C113.4,95.7834862 94.2826156,95 70.7,95" id="Fill-3744" fill="#333333"></path>
                        <path d="M78.1474414,34.511199 L77.9495694,34.5105668 C76.4558002,34.505333 71.7374889,34.3875722 67.4405241,31.7379542 C62.9437006,28.9650982 51.5568093,14.3867436 50.6230839,7.03653135 C49.6893584,-0.313680931 58.5920146,-0.828030791 61.3705925,3.90751681 C64.1491703,8.6430644 69.1581556,18.5196721 73.345773,20.0572217 C75.072942,20.691379 77.5340054,21.0800715 80.7289632,21.2232993 L80.8521744,21.1975674 L80.8521744,21.1975674 L80.9958414,21.1834552 L100.58611,21.1834552 C110.251095,21.1834552 115.752033,26.6696503 115.752033,39.0082667 L115.752033,39.0082667 L115.752033,54.2114801 C115.752033,57.2676865 113.239741,59.7688863 110.169982,59.7688863 C107.099486,59.7688863 104.587932,57.2676865 104.587932,54.2114801 L104.587932,54.2114801 L104.588423,40.2658044 C104.597683,38.1721466 104.7204,36.0717245 103.42949,36.0717245 L103.42949,36.0717245 L103.42949,90.8059356 C103.42949,94.0353979 100.77562,96.6775518 97.5318363,96.6775518 C94.288053,96.6775518 91.6341825,94.0353979 91.6341825,90.8059356 L91.6341825,90.8059356 L91.6341825,61.6563489 L89.9477691,61.6563489 L89.9477691,61.6563489 L89.9477691,90.8059356 C89.9477691,94.0353979 87.2938986,96.6775518 84.0501152,96.6775518 C80.8063318,96.6775518 78.1524613,94.0353979 78.1524613,90.8059356 L78.1524613,90.8059356 L78.1522745,35.8729595 C78.1517949,35.6017953 78.1504678,35.3063987 78.1491884,34.990905 L78.1474414,34.511199 L78.1474414,34.511199 Z" id="Fill-4268" stroke="#FFFFFF" stroke-width="1.67241379" fill="#2C65AE"></path>
                        <rect id="Rectangle" fill="#174682" x="50.5547945" y="7.94396552" width="71.4452055" height="9.19827586"></rect>
                        <path d="M90.9589866,20.551391 C85.2582162,20.551391 80.6369863,15.9512975 80.6369863,10.2756955 C80.6369863,4.60082758 85.2582162,0 90.9589866,0 C96.6590197,0 101.28025,4.60082758 101.28025,10.2756955 C101.28025,15.9512975 96.6590197,20.551391 90.9589866,20.551391 Z" id="Path" fill="#2C65AE"></path>
                        <path d="M37.6200442,34.511199 L37.4221722,34.5105668 C35.928403,34.505333 31.2100916,34.3875722 26.9131269,31.7379542 C22.4163033,28.9650982 11.0294121,14.3867436 10.0956866,7.03653135 C9.16196111,-0.313680931 18.0646173,-0.828030791 20.8431952,3.90751681 C23.621773,8.6430644 28.6307584,18.5196721 32.8183757,20.0572217 C34.5455447,20.691379 37.0066081,21.0800715 40.2015659,21.2232993 L40.3247771,21.1975674 L40.3247771,21.1975674 L40.4684441,21.1834552 L60.0587129,21.1834552 C69.7236978,21.1834552 75.2246353,26.6696503 75.2246353,39.0082667 L75.2246353,39.0082667 L75.2246353,54.2114801 C75.2246353,57.2676865 72.7123438,59.7688863 69.6425848,59.7688863 C66.5720883,59.7688863 64.0605343,57.2676865 64.0605343,54.2114801 L64.0605343,54.2114801 L64.0610256,40.2658044 C64.0702861,38.1721466 64.193003,36.0717245 62.9020929,36.0717245 L62.9020929,36.0717245 L62.9020929,90.8059356 C62.9020929,94.0353979 60.2482224,96.6775518 57.0044391,96.6775518 C53.7606557,96.6775518 51.1067852,94.0353979 51.1067852,90.8059356 L51.1067852,90.8059356 L51.1067852,61.6563489 L49.4203718,61.6563489 L49.4203718,61.6563489 L49.4203718,90.8059356 C49.4203718,94.0353979 46.7665013,96.6775518 43.5227179,96.6775518 C40.2789346,96.6775518 37.6250641,94.0353979 37.6250641,90.8059356 L37.6250641,90.8059356 L37.6248772,35.8729595 C37.6243976,35.6017953 37.6230706,35.3063987 37.6217912,34.990905 L37.6200442,34.511199 L37.6200442,34.511199 Z" id="Fill-4268" stroke="#FFFFFF" stroke-width="1.67241379" fill="#2C65AE"></path>
                        <rect id="Rectangle" fill="#174682" x="0" y="7.94396552" width="71.4452055" height="9.19827586"></rect>
                        <path d="M50.4315894,20.551391 C44.7308189,20.551391 40.109589,15.9512975 40.109589,10.2756955 C40.109589,4.60082758 44.7308189,0 50.4315894,0 C56.1316224,0 60.7528523,4.60082758 60.7528523,10.2756955 C60.7528523,15.9512975 56.1316224,20.551391 50.4315894,20.551391 Z" id="Path" fill="#2C65AE"></path>
                    </g>
                    <g id="Group-20" transform="translate(46.571429, 29.000000)">
                        <path d="M13.2063492,15.9619048 L14.7619048,19.0019048 C14.2761857,19.1204269 13.7131229,19.3307227 13.2063492,19.7619048 C12.441591,19.6552439 11.8251609,19.7361851 10.8730159,19.7619048 C10.4623633,19.7361851 9.43523773,19.5569042 8.53968254,19.0019048 C6.87438474,18.8390238 5.92614983,18.6589864 5.42857143,19.0019048 C4.27021922,18.6589864 3.20828894,19.0273823 2.31746032,19.7619048 L0.761904762,16.7219048 C1.73179593,16.0484438 2.42634319,15.3260247 3.0952381,14.4419048 C3.27403116,13.796463 3.48827347,13.0695052 3.87301587,12.1619048 C3.48827347,12.1466243 3.47125784,11.9113653 3.0952381,11.4019048 L0.761904762,11.4019048 L0.761904762,9.12190476 L3.0952381,9.12190476 C2.43098382,7.90288497 2.25618685,6.90738392 2.31746032,6.08190476 C2.25618685,4.98824549 2.50910105,4.11680383 3.0952381,3.04190476 C3.52771881,2.46696508 4.24392233,1.83834701 5.42857143,1.52190476 C6.10945462,0.975226417 7.12343175,0.761904762 8.53968254,0.761904762 C9.90703487,0.761904762 11.2481762,1.17644471 12.4285714,2.28190476 C13.2459664,2.84292558 13.8569824,4.03510618 13.984127,5.32190476 L10.8730159,6.08190476 C10.4577227,5.19324608 10.1645897,4.54344714 10.0952381,3.80190476 C9.31303453,3.75294669 8.77936236,3.55626715 7.76190476,3.80190476 C7.46451788,3.55626715 6.896041,3.77866632 6.20634921,4.56190476 C5.99653268,4.67658406 5.76914193,5.23560783 5.42857143,6.08190476 C5.76914193,6.26590604 5.83024353,6.73188525 6.20634921,7.60190476 C6.07464991,7.8854864 6.22779062,8.41122594 6.20634921,9.12190476 L10.0952381,9.12190476 L10.0952381,11.4019048 L6.98412698,11.4019048 C7.014377,11.8432839 7.02752545,12.0271036 6.98412698,12.1619048 C7.02752545,12.8682869 6.90068163,13.4795064 6.98412698,13.6819048 C6.38943915,14.5952845 5.86118104,15.3305634 5.42857143,15.9619048 C5.53788399,16.0053256 6.12801713,15.8903437 6.98412698,15.9619048 C7.13193957,15.8903437 7.40341628,15.9069858 7.76190476,15.9619048 C7.76151804,15.958425 8.1072448,16.0393662 8.53968254,15.9619048 C9.71908945,16.4501239 10.4182773,16.5825044 10.8730159,16.7219048 C11.4585514,16.5825044 12.3278956,16.3517841 13.2063492,15.9619048" id="Fill-3680" fill="#09254A"></path>
                        <path d="M12.4444444,15.2 L14,18.24 C13.514281,18.3585221 12.9512182,18.5688179 12.4444444,19 C11.6796862,18.8933392 11.0632562,18.9742804 10.1111111,19 C9.70045854,18.9742804 8.67333297,18.7949994 7.77777778,18.24 C6.11247997,18.0771191 5.16424507,17.8970817 4.66666667,18.24 C3.50831446,17.8970817 2.44638418,18.2647211 1.55555556,19 L0,15.96 C0.969891166,15.286539 1.66443843,14.5641199 2.33333333,13.68 C2.5121264,13.0345583 2.72636871,12.3076004 3.11111111,11.4 C2.72636871,11.3847195 2.70857964,11.1494605 2.33333333,10.64 L0,10.64 L0,8.36 L2.33333333,8.36 C1.66830562,7.14098021 1.49428208,6.1447227 1.55555556,5.32 C1.49428208,4.22634073 1.74719629,3.35489907 2.33333333,2.28 C2.76581404,1.70506032 3.48201757,1.07644225 4.66666667,0.76 C5.34754986,0.213321655 6.36152699,0 7.77777778,0 C9.1451301,0 10.4862715,0.414539953 11.6666667,1.52 C12.4832882,2.08102082 13.0950776,3.27320142 13.2222222,4.56 L10.1111111,5.32 C9.69581791,4.43134132 9.40268493,3.78154238 9.33333333,3.04 C8.55112977,2.99104192 8.0174576,2.79436238 7,3.04 C6.70261312,2.79436238 6.13413624,3.01676156 5.44444444,3.8 C5.23462792,3.9146793 5.00646373,4.47370307 4.66666667,5.32 C5.00646373,5.50400127 5.06833877,5.96998049 5.44444444,6.84 C5.31274515,7.12358164 5.46588586,7.64932118 5.44444444,8.36 L9.33333333,8.36 L9.33333333,10.64 L6.22222222,10.64 C6.25247224,11.0813791 6.26562068,11.2651989 6.22222222,11.4 C6.26562068,12.1063821 6.13877686,12.7176016 6.22222222,12.92 C5.62753439,13.8333798 5.09927628,14.5686587 4.66666667,15.2 C4.77597923,15.2434208 5.36533893,15.1284389 6.22222222,15.2 C6.3700348,15.1284389 6.64151152,15.145081 7,15.2 C6.99961328,15.1965203 7.34534004,15.2774615 7.77777778,15.2 C8.95718469,15.6882191 9.65637258,15.8205996 10.1111111,15.96 C10.6966466,15.8205996 11.5659908,15.5898794 12.4444444,15.2" id="Fill-3681" fill="#FFFFFF"></path>
                    </g>
                </g>
            </g>
        </g>
    </g>
</svg>