<svg width="301" height="85" viewBox="0 0 301 85" fill="none" xmlns="http://www.w3.org/2000/svg">
<path d="M0.00195312 12.2031H300.002V84.2031H0.00195312V12.2031Z" fill="url(#paint0_linear_1714_82)"/>
<path d="M24.502 11.7031H274.502" stroke="#BFC4D2" stroke-linecap="round" stroke-linejoin="round" stroke-dasharray="3"/>
<path d="M83.902 53.4831C82.8886 53.4831 82.0086 53.4098 81.262 53.2631C80.5153 53.1298 79.822 52.8965 79.182 52.5631V49.4831C79.782 49.9631 80.462 50.3365 81.222 50.6031C81.9953 50.8565 82.7486 50.9831 83.482 50.9831C84.7353 50.9831 85.362 50.5098 85.362 49.5631C85.362 49.1498 85.162 48.8298 84.762 48.6031C84.362 48.3631 83.7153 48.0965 82.822 47.8031C82.4086 47.6698 82.1553 47.5831 82.062 47.5431C81.102 47.2231 80.342 46.7898 79.782 46.2431C79.2353 45.6965 78.962 44.8831 78.962 43.8031C78.962 43.0431 79.1486 42.3431 79.522 41.7031C79.8953 41.0498 80.4686 40.5298 81.242 40.1431C82.0153 39.7565 82.9686 39.5631 84.102 39.5631C84.8886 39.5631 85.562 39.6365 86.122 39.7831C86.6953 39.9165 87.302 40.1365 87.942 40.4431V43.5431C87.382 43.1165 86.782 42.7631 86.142 42.4831C85.502 42.2031 84.8553 42.0631 84.202 42.0631C83.6153 42.0631 83.142 42.1831 82.782 42.4231C82.4353 42.6498 82.262 42.9831 82.262 43.4231C82.262 43.7698 82.3686 44.0565 82.582 44.2831C82.7953 44.4965 83.0553 44.6631 83.362 44.7831C83.682 44.9031 84.1886 45.0698 84.882 45.2831C85.7086 45.5231 86.3886 45.7898 86.922 46.0831C87.4553 46.3765 87.882 46.7698 88.202 47.2631C88.522 47.7565 88.682 48.3898 88.682 49.1631C88.682 49.9765 88.4953 50.7098 88.122 51.3631C87.7486 52.0165 87.1953 52.5365 86.462 52.9231C85.742 53.2965 84.8886 53.4831 83.902 53.4831ZM95.2849 42.7831C96.3916 42.7831 97.3983 43.0431 98.3049 43.5631C99.2116 44.0698 99.6649 44.9898 99.6649 46.3231L99.6449 51.1031C99.6316 51.9431 99.2116 52.5565 98.3849 52.9431C97.5583 53.3165 96.3516 53.5031 94.7649 53.5031C91.8049 53.5031 90.3249 52.3498 90.3249 50.0431C90.3249 49.0698 90.6249 48.3098 91.2249 47.7631C91.8383 47.2165 92.7449 46.9431 93.9449 46.9431C94.4383 46.9431 94.9316 47.0098 95.4249 47.1431C95.9183 47.2631 96.3449 47.4231 96.7049 47.6231V46.9831C96.7049 45.8231 95.9583 45.2431 94.4649 45.2431C93.8916 45.2431 93.2983 45.3498 92.6849 45.5631C92.0849 45.7631 91.6049 46.0098 91.2449 46.3031V43.6631C91.6049 43.4231 92.1516 43.2165 92.8849 43.0431C93.6316 42.8698 94.4316 42.7831 95.2849 42.7831ZM94.8649 51.4031C95.5583 51.4031 96.0383 51.3565 96.3049 51.2631C96.5716 51.1698 96.7049 50.9831 96.7049 50.7031V49.1431C96.2383 48.9831 95.7249 48.9031 95.1649 48.9031C94.5116 48.9031 94.0316 49.0031 93.7249 49.2031C93.4316 49.3898 93.2849 49.6898 93.2849 50.1031C93.2849 50.4898 93.4383 50.8031 93.7449 51.0431C94.0649 51.2831 94.4383 51.4031 94.8649 51.4031ZM112.285 43.0831L108.065 53.2031H105.085L100.865 43.0831H104.085L106.765 49.9231L109.145 43.0831H112.285ZM117.943 42.7431C121.103 42.7431 122.663 44.8031 122.623 48.9231H115.943C116.196 50.3231 117.136 51.0231 118.763 51.0231C119.256 51.0231 119.736 50.9565 120.203 50.8231C120.683 50.6765 121.189 50.4898 121.723 50.2631V52.8231C120.629 53.2765 119.403 53.5031 118.043 53.5031C117.016 53.5031 116.116 53.2965 115.343 52.8831C114.569 52.4565 113.969 51.8498 113.543 51.0631C113.116 50.2765 112.903 49.3498 112.903 48.2831C112.903 46.5231 113.336 45.1631 114.203 44.2031C115.083 43.2298 116.329 42.7431 117.943 42.7431ZM117.823 45.0231C116.756 45.0231 116.123 45.6898 115.923 47.0231H119.663C119.569 46.3031 119.376 45.7898 119.083 45.4831C118.803 45.1765 118.383 45.0231 117.823 45.0231ZM133.12 42.3631H129.38V39.8631H140.16V42.3631H136.36V53.2031H133.12V42.3631ZM141.959 39.4031H145.039V41.7031H141.959V39.4031ZM142.019 43.2231H144.999L145.019 53.2031H142.019V43.2231ZM152.421 53.4631C151.435 53.4631 150.541 53.2698 149.741 52.8831C148.941 52.4965 148.301 51.9165 147.821 51.1431C147.355 50.3565 147.121 49.4031 147.121 48.2831C147.121 46.4831 147.601 45.1231 148.561 44.2031C149.521 43.2698 150.801 42.8031 152.401 42.8031C152.961 42.8031 153.528 42.8631 154.101 42.9831C154.675 43.0898 155.181 43.2431 155.621 43.4431V46.0031C155.075 45.7631 154.588 45.5831 154.161 45.4631C153.735 45.3298 153.308 45.2631 152.881 45.2631C152.001 45.2631 151.315 45.4831 150.821 45.9231C150.328 46.3498 150.081 47.0231 150.081 47.9431C150.081 48.9698 150.308 49.7298 150.761 50.2231C151.228 50.7165 151.981 50.9631 153.021 50.9631C153.808 50.9631 154.681 50.6965 155.641 50.1631V52.7031C155.161 52.9565 154.661 53.1431 154.141 53.2631C153.635 53.3965 153.061 53.4631 152.421 53.4631ZM163.86 53.2031L160.7 49.0231L160.68 53.2031H157.72V39.2631H160.72L160.7 46.8231L163.76 43.0831H167.38L163.2 47.4831L167.64 53.2031H163.86ZM172.982 42.7431C176.142 42.7431 177.702 44.8031 177.662 48.9231H170.982C171.235 50.3231 172.175 51.0231 173.802 51.0231C174.295 51.0231 174.775 50.9565 175.242 50.8231C175.722 50.6765 176.228 50.4898 176.762 50.2631V52.8231C175.668 53.2765 174.442 53.5031 173.082 53.5031C172.055 53.5031 171.155 53.2965 170.382 52.8831C169.608 52.4565 169.008 51.8498 168.582 51.0631C168.155 50.2765 167.942 49.3498 167.942 48.2831C167.942 46.5231 168.375 45.1631 169.242 44.2031C170.122 43.2298 171.368 42.7431 172.982 42.7431ZM172.862 45.0231C171.795 45.0231 171.162 45.6898 170.962 47.0231H174.702C174.608 46.3031 174.415 45.7898 174.122 45.4831C173.842 45.1765 173.422 45.0231 172.862 45.0231ZM183.872 53.6031C182.712 53.6031 181.839 53.3298 181.252 52.7831C180.679 52.2365 180.392 51.4498 180.392 50.4231V45.3631H178.912V43.0831H180.392V40.3031H183.512V43.0831H185.732V45.3631H183.512V50.0431C183.512 50.3898 183.585 50.6498 183.732 50.8231C183.879 50.9831 184.125 51.0631 184.472 51.0631C184.685 51.0631 184.905 51.0298 185.132 50.9631C185.359 50.8831 185.559 50.7765 185.732 50.6431V53.1831C185.225 53.4631 184.605 53.6031 183.872 53.6031Z" fill="white"/>
<path fill-rule="evenodd" clip-rule="evenodd" d="M213.76 46.3504C213.421 46.81 213.517 47.4569 213.976 47.7959C213.976 47.7959 217.918 50.7208 217.923 50.7233C218.275 50.9856 218.801 50.9822 219.151 50.725L223.329 47.661C223.79 47.3236 223.89 46.6776 223.551 46.218C223.212 45.7583 222.566 45.6588 222.107 45.9953L219.575 47.8533V35.238C219.575 34.6661 219.11 34.2031 218.54 34.2031C217.968 34.2031 217.505 34.6645 217.505 35.238V47.8406L215.209 46.1362C214.749 45.7946 214.101 45.8916 213.76 46.3504ZM227.762 47.8246H229.359C231.036 47.8845 231.99 49.4026 231.99 50.9274V51.0995C231.983 52.8132 230.596 54.1989 228.886 54.2031H208.105C206.392 54.1989 205.006 52.8132 205.002 51.0995C205.006 49.5907 205.909 48.0675 207.59 47.9958H209.14C209.711 47.9958 210.174 48.4597 210.174 49.0298C210.174 49.5991 209.711 50.0638 209.14 50.0638H207.59C207.198 50.0638 207.071 50.8271 207.072 51.0995C207.072 51.6612 207.544 52.1335 208.105 52.1335L228.886 52.136C229.711 52.1318 230.172 51.156 229.821 50.4737C229.501 49.8517 228.698 49.8725 228.052 49.8892C227.95 49.8919 227.852 49.8944 227.761 49.8943C227.19 49.8934 226.728 49.4296 226.728 48.8586C226.728 48.2885 227.191 47.8246 227.762 47.8246Z" fill="white"/>
<path d="M0.500013 3.30136C0.500059 2.18639 0.50024 1.28925 0.500668 0.713359C6.62823 0.983915 11.5448 6.23133 11.5448 12.7024C11.5448 19.1726 6.62959 24.4194 0.503211 24.6913L0.502991 24.2199L0.501959 21.5411C0.501208 19.2791 0.500458 16.1541 0.500458 12.7024C0.500458 11.0148 0.500327 9.31578 0.500205 7.73368C0.500078 6.07964 0.499961 4.55336 0.500013 3.30136Z" fill="#090910" stroke="#090910"/>
<path d="M299.541 12.7031V12.7436V12.784V12.8243V12.8647V12.905V12.9453V12.9855V13.0258V13.0659V13.1061V13.1462V13.1863V13.2264V13.2664V13.3064V13.3464V13.3863V13.4262V13.4661V13.5059V13.5457V13.5855V13.6252V13.6649V13.7045V13.7442V13.7838V13.8233V13.8628V13.9023V13.9418V13.9812V14.0206V14.0599V14.0992V14.1385V14.1777V14.2169V14.256V14.2952V14.3342V14.3733V14.4123V14.4513V14.4902V14.5291V14.5679V14.6068V14.6455V14.6843V14.723V14.7616V14.8002V14.8388V14.8773V14.9158V14.9543V14.9927V15.0311V15.0694V15.1077V15.1459V15.1841V15.2223V15.2604V15.2985V15.3365V15.3745V15.4125V15.4504V15.4883V15.5261V15.5639V15.6016V15.6393V15.6769V15.7145V15.7521V15.7896V15.8271V15.8645V15.9019V15.9392V15.9765V16.0137V16.0509V16.0881V16.1252V16.1622V16.1992V16.2362V16.2731V16.3099V16.3468V16.3835V16.4202V16.4569V16.4935V16.5301V16.5666V16.6031V16.6395V16.6759V16.7122V16.7485V16.7847V16.8209V16.857V16.8931V16.9291V16.9651V17.001V17.0369V17.0727V17.1085V17.1442V17.1799V17.2155V17.2511V17.2866V17.322V17.3574V17.3928V17.4281V17.4633V17.4985V17.5336V17.5687V17.6037V17.6387V17.6736V17.7085V17.7433V17.778V17.8127V17.8473V17.8819V17.9164V17.9509V17.9853V18.0197V18.054V18.0882V18.1224V18.1565V18.1906V18.2246V18.2585V18.2924V18.3263V18.3601V18.3938V18.4274V18.461V18.4946V18.528V18.5615V18.5948V18.6281V18.6614V18.6945V18.7277V18.7607V18.7937V18.8267V18.8595V18.8923V18.9251V18.9578V18.9904V19.023V19.0555V19.0879V19.1203V19.1526V19.1848V19.217V19.2491V19.2812V19.3132V19.3451V19.377V19.4088V19.4405V19.4722V19.5038V19.5353V19.5668V19.5982V19.6295V19.6608V19.692V19.7231V19.7542V19.7852V19.8161V19.847V19.8778V19.9086V19.9392V19.9698V20.0003V20.0308V20.0612V20.0915V20.1218V20.152V20.1821V20.2121V20.2421V20.272V20.3018V20.3316V20.3613V20.3909V20.4205V20.4499V20.4794V20.5087V20.538V20.5671V20.5963V20.6253V20.6543V20.6832V20.712V20.7408V20.7695V20.7981V20.8266V20.8551V20.8834V20.9118V20.94V20.9682V20.9962V21.0243V21.0522V21.0801V21.1078V21.1356V21.1632V21.1907V21.2182V21.2456V21.273V21.3002V21.3274V21.3545V21.3815V21.4084V21.4353V21.4621V21.4888V21.5154V21.542V21.5684V21.5948V21.6211V21.6474V21.6735V21.6996V21.7256V21.7515V21.7773V21.8031V21.8287V21.8543V21.8798V21.9052V21.9306V21.9559V21.981V22.0061V22.0311V22.0561V22.0809V22.1057V22.1304V22.155V22.1795V22.2039V22.2283V22.2525V22.2767V22.3008V22.3248V22.3487V22.3726V22.3963V22.42V22.4436V22.4671V22.4905V22.5138V22.537V22.5602V22.5833V22.6062V22.6291V22.6519V22.6747V22.6973V22.7198V22.7423V22.7646V22.7869V22.8091V22.8312V22.8532V22.8751V22.8969V22.9187V22.9403V22.9619V22.9834V23.0047V23.026V23.0472V23.0683V23.0893V23.1103V23.1311V23.1518V23.1725V23.193V23.2135V23.2339V23.2541V23.2743V23.2944V23.3144V23.3343V23.3541V23.3738V23.3935V23.413V23.4324V23.4518V23.471V23.4901V23.5092V23.5282V23.547V23.5658V23.5845V23.603V23.6215V23.6399V23.6582V23.6764V23.6944V23.7124V23.7303V23.7481V23.7658V23.7834V23.8009V23.8183V23.8356V23.8528V23.8699V23.887V23.9039V23.9207V23.9374V23.954V23.9705V23.9869V24.0032V24.0194V24.0355V24.0515V24.0674V24.0832V24.0989V24.1145V24.13V24.1454V24.1607V24.1759V24.191V24.2059V24.2208V24.2356V24.2503V24.2648V24.2793V24.2936V24.3079V24.322V24.3361V24.35V24.3639V24.3776V24.3912V24.4047V24.4181V24.4314V24.4446V24.4577V24.4707V24.4836V24.4963V24.509V24.5216V24.534V24.5464V24.5586V24.5707V24.5827V24.5946V24.6064V24.6181V24.6297V24.6411V24.6525V24.6638V24.6749V24.6859V24.692C293.415 24.42 288.5 19.1732 288.5 12.7031C288.5 6.23303 293.415 0.986232 299.541 0.714206V0.720327V0.731355V0.742493V0.753742V0.7651V0.776568V0.788146V0.799833V0.811629V0.823534V0.835547V0.84767V0.8599V0.872239V0.884685V0.89724V0.909902V0.922671V0.935548V0.948531V0.961622V0.974819V0.988122V1.00153V1.01505V1.02867V1.0424V1.05623V1.07017V1.08421V1.09836V1.11261V1.12697V1.14143V1.15599V1.17066V1.18544V1.20031V1.21529V1.23038V1.24556V1.26085V1.27624V1.29174V1.30733V1.32303V1.33883V1.35473V1.37074V1.38684V1.40305V1.41935V1.43576V1.45227V1.46888V1.48558V1.50239V1.5193V1.53631V1.55341V1.57062V1.58792V1.60533V1.62283V1.64043V1.65813V1.67592V1.69382V1.71181V1.7299V1.74808V1.76637V1.78475V1.80322V1.8218V1.84047V1.85923V1.87809V1.89705V1.9161V1.93525V1.95449V1.97383V1.99326V2.01279V2.03241V2.05213V2.07194V2.09184V2.11184V2.13193V2.15211V2.17239V2.19276V2.21322V2.23378V2.25442V2.27516V2.29599V2.31692V2.33793V2.35903V2.38023V2.40152V2.42289V2.44436V2.46592V2.48757V2.50931V2.53114V2.55306V2.57506V2.59716V2.61934V2.64162V2.66398V2.68643V2.70897V2.7316V2.75431V2.77712V2.80001V2.82299V2.84605V2.8692V2.89244V2.91576V2.93917V2.96267V2.98625V3.00992V3.03368V3.05752V3.08144V3.10545V3.12955V3.15372V3.17799V3.20234V3.22677V3.25128V3.27588V3.30056V3.32533V3.35018V3.37511V3.40012V3.42522V3.4504V3.47566V3.501V3.52643V3.55193V3.57752V3.60319V3.62894V3.65477V3.68068V3.70667V3.73274V3.75889V3.78512V3.81143V3.83782V3.86429V3.89084V3.91746V3.94417V3.97095V3.99782V4.02476V4.05177V4.07887V4.10604V4.13329V4.16062V4.18802V4.21551V4.24306V4.2707V4.29841V4.32619V4.35405V4.38199V4.41V4.43809V4.46626V4.49449V4.5228V4.55119V4.57965V4.60819V4.6368V4.66548V4.69423V4.72306V4.75196V4.78094V4.80999V4.83911V4.8683V4.89756V4.9269V4.95631V4.98579V5.01534V5.04496V5.07465V5.10442V5.13425V5.16416V5.19413V5.22418V5.25429V5.28447V5.31473V5.34505V5.37544V5.4059V5.43643V5.46703V5.4977V5.52843V5.55923V5.5901V5.62104V5.65205V5.68312V5.71426V5.74546V5.77673V5.80807V5.83948V5.87095V5.90248V5.93408V5.96575V5.99748V6.02928V6.06114V6.09307V6.12506V6.15712V6.18924V6.22142V6.25367V6.28598V6.31835V6.35079V6.38329V6.41585V6.44848V6.48116V6.51391V6.54672V6.5796V6.61253V6.64553V6.67859V6.7117V6.74488V6.77812V6.81142V6.84478V6.8782V6.91168V6.94522V6.97882V7.01248V7.0462V7.07997V7.11381V7.1477V7.18165V7.21566V7.24973V7.28386V7.31804V7.35228V7.38658V7.42093V7.45535V7.48981V7.52434V7.55892V7.59355V7.62825V7.66299V7.6978V7.73266V7.76757V7.80254V7.83756V7.87264V7.90777V7.94296V7.9782V8.01349V8.04884V8.08424V8.11969V8.1552V8.19075V8.22637V8.26203V8.29775V8.33351V8.36933V8.40521V8.44113V8.4771V8.51313V8.5492V8.58533V8.62151V8.65773V8.69401V8.73034V8.76672V8.80314V8.83962V8.87614V8.91271V8.94934V8.98601V9.02273V9.05949V9.09631V9.13317V9.17008V9.20704V9.24404V9.2811V9.3182V9.35534V9.39253V9.42977V9.46705V9.50438V9.54176V9.57918V9.61665V9.65416V9.69171V9.72931V9.76696V9.80465V9.84238V9.88016V9.91798V9.95585V9.99375V10.0317V10.0697V10.1077V10.1458V10.1839V10.2221V10.2603V10.2986V10.3368V10.3752V10.4136V10.452V10.4904V10.5289V10.5674V10.606V10.6446V10.6833V10.722V10.7607V10.7995V10.8383V10.8772V10.9161V10.955V10.994V11.033V11.072V11.1111V11.1502V11.1894V11.2286V11.2678V11.3071V11.3464V11.3857V11.4251V11.4645V11.5039V11.5434V11.5829V11.6225V11.6621V11.7017V11.7414V11.7811V11.8208V11.8606V11.9004V11.9402V11.98V12.0199V12.0599V12.0998V12.1398V12.1799V12.2199V12.26V12.3001V12.3403V12.3805V12.4207V12.461V12.5013V12.5416V12.5819V12.6223V12.6627V12.7031Z" fill="#090910" stroke="#090910"/>
<defs>
<linearGradient id="paint0_linear_1714_82" x1="-149.998" y1="48.2031" x2="-117.32" y2="184.36" gradientUnits="userSpaceOnUse">
<stop stop-color="#0BBC54"/>
<stop offset="1" stop-color="#0EA24B"/>
</linearGradient>
</defs>
</svg>
