<svg width="50" height="50" viewBox="0 0 50 50" fill="none" xmlns="http://www.w3.org/2000/svg">
<circle cx="25" cy="25" r="25" fill="#7F56A8"/>
<path d="M25.9472 9.53556C25.8549 9.37348 25.7181 9.23808 25.5514 9.14371C25.3846 9.04934 25.194 8.99951 24.9998 8.99951C24.8055 8.99951 24.6149 9.04934 24.4481 9.14371C24.2814 9.23808 24.1446 9.37348 24.0523 9.53556L21.7969 13.5889H28.2296L25.9472 9.53556Z" fill="white"/>
<path d="M28.7857 14.6406H21.2118L17.9336 20.5369H32.0693L28.7857 14.6406Z" fill="white"/>
<path d="M29.9583 35.1984C29.8339 34.4772 29.5334 33.7937 29.0809 33.2023C29.0285 33.1309 29.0041 33.0443 29.0119 32.9576C29.0198 32.8708 29.0594 32.7895 29.1239 32.7276L29.5869 32.2885L28.8925 31.63L28.4295 32.0639C28.3535 32.1313 28.2537 32.1695 28.1496 32.1711C28.0693 32.1687 27.9912 32.1457 27.9235 32.1047C27.2993 31.68 26.5814 31.3954 25.8242 31.2726C25.7324 31.2603 25.6485 31.2167 25.5881 31.15C25.5277 31.0833 25.4949 30.9981 25.4958 30.9102V30.2925H24.5053V30.9102C24.5064 30.9973 24.4744 31.0819 24.4151 31.1485C24.3558 31.2151 24.2731 31.2591 24.1823 31.2726C23.4215 31.3945 22.6998 31.679 22.0722 32.1047C22.0074 32.1518 21.9278 32.177 21.8461 32.1762C21.7435 32.1754 21.6451 32.137 21.5716 32.069L21.1087 31.6249L20.4142 32.2885L20.8718 32.7224C20.9358 32.7855 20.9754 32.8673 20.9842 32.9544C20.9929 33.0415 20.9704 33.1289 20.9203 33.2023C20.467 33.7939 20.1648 34.4772 20.0374 35.1984C20.0244 35.2854 19.9784 35.365 19.9081 35.4222C19.8378 35.4795 19.7479 35.5106 19.6552 35.5098H19.0039V36.4491H19.6552C19.7471 36.448 19.8364 36.4784 19.9065 36.5347C19.9767 36.5909 20.0232 36.6693 20.0374 36.7554C20.1641 37.4759 20.4644 38.1589 20.9149 38.7514C20.9673 38.8229 20.9917 38.9095 20.9838 38.9962C20.9759 39.0829 20.9363 39.1643 20.8718 39.2262L20.4142 39.6703L21.1087 40.334L21.5716 39.8898C21.6071 39.855 21.6498 39.8275 21.6971 39.8091C21.7443 39.7906 21.7951 39.7816 21.8461 39.7826C21.9281 39.7797 22.0084 39.8051 22.0722 39.8541C22.7 40.2786 23.4217 40.5615 24.1823 40.6811C24.2731 40.6946 24.3558 40.7387 24.4151 40.8052C24.4744 40.8718 24.5064 40.9564 24.5053 41.0435V41.6663H25.4958V41.0435C25.4949 40.9556 25.5277 40.8704 25.5881 40.8037C25.6485 40.7371 25.7324 40.6935 25.8242 40.6811C26.5832 40.5618 27.3033 40.2789 27.9289 39.8541C27.993 39.8093 28.07 39.7844 28.1496 39.7826C28.2014 39.7821 28.2528 39.7913 28.3009 39.8097C28.3489 39.8281 28.3926 39.8553 28.4295 39.8898L28.8925 40.334L29.5869 39.6703L29.1239 39.2262C29.0585 39.1648 29.0182 39.0833 29.0103 38.9963C29.0024 38.9093 29.0274 38.8225 29.0809 38.7514C29.5354 38.1611 29.8361 37.4771 29.9583 36.7554C29.9725 36.6693 30.019 36.5909 30.0892 36.5347C30.1594 36.4784 30.2486 36.448 30.3405 36.4491H30.9972V35.5098H30.3405C30.2481 35.5096 30.1588 35.4781 30.0887 35.421C30.0187 35.3639 29.9724 35.2849 29.9583 35.1984ZM26.567 37.2965C26.4897 37.4635 26.376 37.6132 26.2333 37.7355C26.0739 37.8638 25.8916 37.9641 25.695 38.0316C25.4764 38.106 25.2483 38.1523 25.0167 38.1694L24.9413 38.9556V39.0067C24.9246 39.0225 24.9044 39.0347 24.8821 39.0424H24.7852C24.7316 39.0482 24.6774 39.0482 24.6237 39.0424C24.5577 39.0513 24.4906 39.0513 24.4246 39.0424C24.3835 39.039 24.3434 39.0286 24.3062 39.0118C24.293 39.0077 24.2809 39.0011 24.2707 38.9923C24.2605 38.9835 24.2524 38.9727 24.2469 38.9607C24.2414 38.9372 24.2414 38.9128 24.2469 38.8892L24.3277 38.1439C24.2224 38.1294 24.1182 38.1089 24.0155 38.0827C23.926 38.0624 23.8379 38.0368 23.7517 38.0061C23.6799 37.9834 23.6097 37.9561 23.5418 37.9244C23.4943 37.8997 23.4508 37.8688 23.4126 37.8325C23.3764 37.8002 23.3536 37.7568 23.348 37.71C23.3403 37.6285 23.3403 37.5465 23.348 37.465C23.348 37.3833 23.348 37.3118 23.348 37.2557C23.3488 37.2152 23.358 37.1754 23.3749 37.1382C23.37 37.1156 23.3739 37.0921 23.3857 37.0719C23.4067 37.0659 23.4292 37.0659 23.4503 37.0719C23.5026 37.0766 23.5527 37.0942 23.5956 37.1229C23.6755 37.1699 23.7582 37.2125 23.8432 37.2505C23.9509 37.2914 24.0693 37.3322 24.2146 37.3731C24.3804 37.4102 24.5504 37.4274 24.7206 37.4241C24.957 37.4409 25.1928 37.3855 25.3935 37.2659C25.4636 37.2173 25.5203 37.1535 25.5587 37.0797C25.5971 37.0059 25.6162 36.9244 25.6142 36.8422C25.6213 36.7433 25.5949 36.645 25.5389 36.5614C25.4665 36.4824 25.3811 36.4151 25.2859 36.3623C25.1715 36.301 25.0506 36.2514 24.9252 36.2142L24.5107 36.0509C24.3761 35.9998 24.2362 35.9386 24.1016 35.8722C23.9711 35.8034 23.8515 35.7175 23.7463 35.617C23.6379 35.51 23.5504 35.3855 23.4879 35.2494C23.4248 35.086 23.3938 34.9129 23.3964 34.7389C23.3923 34.5643 23.4252 34.3907 23.4933 34.2284C23.5577 34.0793 23.6529 33.944 23.7732 33.8302C23.9024 33.7136 24.0541 33.6217 24.22 33.5597C24.4131 33.4858 24.616 33.4377 24.8229 33.4167L24.8983 32.6765V32.6255L24.9575 32.5897C24.9878 32.5857 25.0187 32.5857 25.049 32.5897H25.2159C25.2821 32.584 25.3488 32.584 25.415 32.5897C25.458 32.5925 25.5 32.6029 25.5389 32.6203C25.5631 32.6302 25.5823 32.6484 25.5927 32.6714C25.596 32.6968 25.596 32.7225 25.5927 32.748L25.5389 33.4269L25.7649 33.4678C25.842 33.4845 25.9175 33.5067 25.991 33.5341C26.0554 33.554 26.1184 33.5778 26.1794 33.6056C26.2225 33.6214 26.2625 33.6438 26.2979 33.672L26.3517 33.7383C26.3555 33.7637 26.3555 33.7895 26.3517 33.8149C26.3557 33.8522 26.3557 33.8899 26.3517 33.9272C26.3547 33.9748 26.3547 34.0226 26.3517 34.0702C26.3517 34.1518 26.3517 34.208 26.3517 34.259C26.3567 34.2963 26.3567 34.3341 26.3517 34.3713C26.345 34.3917 26.3319 34.4095 26.314 34.4224C26.2984 34.4279 26.2812 34.4279 26.2656 34.4224C26.2158 34.4174 26.168 34.4017 26.1256 34.3765L25.8834 34.2795C25.7787 34.236 25.6708 34.2002 25.5604 34.1723C25.4265 34.141 25.2891 34.1255 25.1513 34.1263C25.0353 34.1232 24.9193 34.1353 24.8068 34.162C24.7221 34.1809 24.643 34.2175 24.5753 34.2692C24.5164 34.3076 24.4699 34.3606 24.4407 34.4224C24.4124 34.4854 24.3978 34.5531 24.3977 34.6215C24.3933 34.7278 24.4275 34.8323 24.4946 34.9176C24.5657 34.9997 24.6536 35.0674 24.7529 35.1167C24.8704 35.1784 24.9928 35.2313 25.119 35.2749C25.2536 35.3209 25.3935 35.3668 25.5335 35.423C25.675 35.4734 25.8133 35.5314 25.948 35.5965C26.0798 35.6637 26.2012 35.7479 26.3086 35.8467C26.4199 35.9496 26.5078 36.0729 26.567 36.2091C26.6369 36.3709 26.6699 36.5449 26.6639 36.7196C26.6754 36.9163 26.6424 37.113 26.567 37.2965Z" fill="white"/>
<path d="M35.9277 27.4695L32.6494 21.5835H17.351L14.0781 27.4695H35.9277Z" fill="white"/>
<path d="M36.5096 28.522H13.4919L11.7586 31.6411C11.6753 31.7956 11.635 31.9676 11.6413 32.141C11.6476 32.3143 11.7003 32.4833 11.7946 32.632C11.8889 32.7806 12.0215 32.904 12.18 32.9906C12.3386 33.0772 12.5177 33.124 12.7006 33.1267H19.8492C19.8664 33.1045 19.8809 33.0805 19.8923 33.0552L19.4778 32.657C19.4249 32.6093 19.3827 32.5519 19.3539 32.4883C19.3251 32.4246 19.3103 32.3561 19.3103 32.2869C19.3103 32.2176 19.3251 32.1491 19.3539 32.0855C19.3827 32.0219 19.4249 31.9645 19.4778 31.9168L20.7267 30.7375C20.8318 30.6423 20.9716 30.5892 21.1169 30.5892C21.2623 30.5892 21.402 30.6423 21.5072 30.7375L21.9271 31.1408C22.4389 30.8479 22.9941 30.6294 23.5743 30.4925V29.9258C23.5743 29.7904 23.631 29.6606 23.7319 29.5649C23.8329 29.4691 23.9698 29.4153 24.1126 29.4153H25.8728C26.0156 29.4153 26.1525 29.4691 26.2534 29.5649C26.3544 29.6606 26.4111 29.7904 26.4111 29.9258V30.4874C26.9788 30.6281 27.5226 30.8446 28.026 31.1306L28.4459 30.7324C28.5516 30.6384 28.6912 30.5861 28.8361 30.5861C28.9811 30.5861 29.1206 30.6384 29.2264 30.7324L30.4752 31.9168C30.5282 31.9645 30.5703 32.0219 30.5991 32.0855C30.6279 32.1491 30.6428 32.2176 30.6428 32.2869C30.6428 32.3561 30.6279 32.4246 30.5991 32.4883C30.5703 32.5519 30.5282 32.6093 30.4752 32.657L30.0554 33.0552C30.0657 33.08 30.0784 33.1039 30.0931 33.1267H37.3009C37.486 33.1229 37.667 33.074 37.8264 32.9846C37.9857 32.8952 38.1181 32.7683 38.2106 32.6162C38.3133 32.4648 38.3706 32.2898 38.3763 32.1099C38.382 31.93 38.3358 31.7521 38.2429 31.5952L36.5096 28.522Z" fill="white"/>
<path d="M38.8271 11.5468L37.083 9.77535C37.0385 9.73565 36.9877 9.7029 36.9323 9.67836L36.8462 9.75493V9.64773C36.766 9.61572 36.6802 9.5984 36.5932 9.59668C36.5082 9.59734 36.4243 9.61443 36.3466 9.6469C36.2688 9.67938 36.1989 9.72656 36.141 9.78556L34.4561 11.5468C34.3639 11.6299 34.3006 11.7377 34.2748 11.8558C34.2489 11.974 34.2617 12.0968 34.3115 12.2078C34.3612 12.3188 34.4456 12.4128 34.5532 12.4771C34.6608 12.5415 34.7866 12.5731 34.9137 12.5678C34.9994 12.5669 35.0841 12.5498 35.1627 12.5173C35.2413 12.4849 35.3122 12.4378 35.3713 12.3789L36.0118 11.6999V19.924C36.0118 20.0811 36.0776 20.2317 36.1947 20.3428C36.3118 20.4538 36.4706 20.5162 36.6363 20.5162C36.8019 20.5162 36.9607 20.4538 37.0778 20.3428C37.1949 20.2317 37.2607 20.0811 37.2607 19.924V11.6948L37.9228 12.3585C37.9819 12.4174 38.0528 12.4645 38.1314 12.4969C38.21 12.5293 38.2946 12.5465 38.3803 12.5474C38.538 12.5469 38.6897 12.4905 38.8056 12.3891C38.8658 12.3354 38.9141 12.2709 38.9478 12.1993C38.9815 12.1278 38.9999 12.0506 39.0019 11.9722C39.0039 11.8939 38.9895 11.8159 38.9595 11.7429C38.9295 11.6698 38.8845 11.6032 38.8271 11.5468Z" fill="white"/>
<path d="M13.3635 20.5162C13.4699 20.5154 13.5741 20.4872 13.6649 20.4345C13.7238 20.4087 13.7768 20.3723 13.821 20.3273L15.549 18.561C15.6318 18.4766 15.6868 18.371 15.7072 18.2573C15.7277 18.1437 15.7127 18.0268 15.6641 17.9211C15.6155 17.8154 15.5355 17.7254 15.4337 17.6623C15.332 17.5991 15.213 17.5655 15.0914 17.5655C15.0057 17.5664 14.921 17.5835 14.8424 17.616C14.7638 17.6484 14.6929 17.6955 14.6338 17.7544L13.9933 18.413V10.1889C13.9933 10.0318 13.9275 9.88118 13.8104 9.77012C13.6933 9.65907 13.5345 9.59668 13.3688 9.59668C13.2032 9.59668 13.0444 9.65907 12.9273 9.77012C12.8102 9.88118 12.7444 10.0318 12.7444 10.1889V18.4181L12.0823 17.7544C12.0232 17.6955 11.9523 17.6484 11.8737 17.616C11.7951 17.5835 11.7105 17.5664 11.6248 17.5655C11.4671 17.566 11.3154 17.6224 11.1995 17.7238C11.1394 17.7767 11.0909 17.8404 11.0567 17.9111C11.0225 17.9819 11.0034 18.0583 11.0004 18.136C10.9974 18.2138 11.0106 18.2913 11.0392 18.3643C11.0678 18.4372 11.1113 18.504 11.1672 18.561L12.9382 20.358C13.0544 20.4589 13.2059 20.5153 13.3635 20.5162Z" fill="white"/>
<ellipse cx="25" cy="36" rx="3" ry="4" fill="white"/>
<path d="M26.7898 39H22.5625V37.9858H26.7898V39ZM25.6648 36.6847H22.5483V35.7159H25.6648V36.6847ZM24.3523 34.8267L24.4432 37.2443C24.4527 37.5038 24.4006 37.7206 24.2869 37.8949C24.1752 38.0672 23.982 38.214 23.7074 38.3352L22.9347 37.9858C23.018 37.9687 23.0805 37.9261 23.1222 37.858C23.1657 37.7879 23.1941 37.7045 23.2074 37.608C23.2225 37.5114 23.2292 37.4129 23.2273 37.3125L23.142 34.8267C23.1269 34.4574 23.1979 34.1449 23.3551 33.8892C23.5142 33.6316 23.7339 33.4366 24.0142 33.304C24.2945 33.1695 24.6108 33.1023 24.9631 33.1023C25.2604 33.1023 25.5246 33.1439 25.7557 33.2273C25.9867 33.3087 26.1818 33.4252 26.3409 33.5767C26.5019 33.7263 26.6212 33.9034 26.6989 34.108C26.7765 34.3125 26.8106 34.5369 26.8011 34.7812L25.6506 34.75C25.6544 34.589 25.6259 34.4602 25.5653 34.3636C25.5047 34.267 25.4233 34.197 25.321 34.1534C25.2188 34.1098 25.1061 34.0881 24.983 34.0881C24.8636 34.0881 24.7557 34.1155 24.6591 34.1705C24.5644 34.2235 24.4886 34.3049 24.4318 34.4148C24.3769 34.5227 24.3504 34.66 24.3523 34.8267Z" fill="#7F56A8"/>
</svg>
