<svg width="298" height="60" viewBox="0 0 298 60" fill="none" xmlns="http://www.w3.org/2000/svg">
<g clip-path="url(#clip0_209_138)">
<mask id="mask0_209_138" style="mask-type:luminance" maskUnits="userSpaceOnUse" x="0" y="0" width="298" height="60">
<path d="M298 0H0V60H298V0Z" fill="white"/>
</mask>
<g mask="url(#mask0_209_138)">
<path d="M62.4698 25.9988C62.2791 25.9988 62.1231 25.9381 62.0018 25.8168C61.8805 25.6781 61.8198 25.5221 61.8198 25.3488V8.44883C61.8198 8.25816 61.8805 8.10216 62.0018 7.98083C62.1231 7.8595 62.2791 7.79883 62.4698 7.79883H70.3998C71.8905 7.79883 73.1125 8.00683 74.0658 8.42283C75.0191 8.83883 75.7211 9.43683 76.1718 10.2168C76.6398 10.9795 76.8738 11.8895 76.8738 12.9468C76.8738 13.5708 76.7525 14.1255 76.5098 14.6108C76.2845 15.0788 75.9985 15.4688 75.6518 15.7808C75.3225 16.0928 75.0105 16.3181 74.7158 16.4568C75.3745 16.7688 75.9551 17.2801 76.4578 17.9908C76.9778 18.7015 77.2378 19.5335 77.2378 20.4868C77.2378 21.6308 76.9778 22.6188 76.4578 23.4508C75.9551 24.2655 75.2098 24.8981 74.2218 25.3488C73.2511 25.7821 72.0551 25.9988 70.6338 25.9988H62.4698ZM66.4998 22.6188H70.1138C70.8591 22.6188 71.4225 22.4021 71.8038 21.9688C72.1851 21.5355 72.3758 21.0415 72.3758 20.4868C72.3758 19.8801 72.1765 19.3688 71.7778 18.9528C71.3965 18.5368 70.8418 18.3288 70.1138 18.3288H66.4998V22.6188ZM66.4998 15.0268H69.8798C70.5905 15.0268 71.1191 14.8448 71.4658 14.4808C71.8298 14.0995 72.0118 13.6315 72.0118 13.0768C72.0118 12.5221 71.8298 12.0715 71.4658 11.7248C71.1191 11.3608 70.5905 11.1788 69.8798 11.1788H66.4998V15.0268ZM80.7764 25.9988C80.5858 25.9988 80.4298 25.9381 80.3084 25.8168C80.1871 25.6781 80.1264 25.5221 80.1264 25.3488V8.44883C80.1264 8.25816 80.1871 8.10216 80.3084 7.98083C80.4298 7.8595 80.5858 7.79883 80.7764 7.79883H84.2604C84.4511 7.79883 84.6071 7.8595 84.7284 7.98083C84.8671 8.10216 84.9364 8.25816 84.9364 8.44883V25.3488C84.9364 25.5221 84.8671 25.6781 84.7284 25.8168C84.6071 25.9381 84.4511 25.9988 84.2604 25.9988H80.7764ZM89.2061 25.9988C89.0155 25.9988 88.8595 25.9381 88.7381 25.8168C88.6168 25.6781 88.5561 25.5221 88.5561 25.3488V8.44883C88.5561 8.25816 88.6168 8.10216 88.7381 7.98083C88.8595 7.8595 89.0155 7.79883 89.2061 7.79883H92.4821C92.6728 7.79883 92.8288 7.8595 92.9501 7.98083C93.0715 8.10216 93.1321 8.25816 93.1321 8.44883V14.2208L97.9421 8.29283C98.0115 8.18883 98.1241 8.08483 98.2801 7.98083C98.4535 7.8595 98.6788 7.79883 98.9561 7.79883H102.7C102.856 7.79883 102.986 7.8595 103.09 7.98083C103.194 8.08483 103.246 8.20616 103.246 8.34483C103.246 8.46616 103.22 8.57016 103.168 8.65683L96.9281 16.5088L103.636 25.1408C103.706 25.2101 103.74 25.3141 103.74 25.4528C103.74 25.5915 103.688 25.7215 103.584 25.8428C103.48 25.9468 103.35 25.9988 103.194 25.9988H99.3201C99.0081 25.9988 98.7655 25.9295 98.5921 25.7908C98.4361 25.6521 98.3321 25.5481 98.2801 25.4788L93.1321 19.0568V25.3488C93.1321 25.5221 93.0715 25.6781 92.9501 25.8168C92.8288 25.9381 92.6728 25.9988 92.4821 25.9988H89.2061ZM106.447 25.9988C106.256 25.9988 106.1 25.9381 105.979 25.8168C105.857 25.6781 105.797 25.5221 105.797 25.3488V8.44883C105.797 8.25816 105.857 8.10216 105.979 7.98083C106.1 7.8595 106.256 7.79883 106.447 7.79883H118.589C118.779 7.79883 118.935 7.8595 119.057 7.98083C119.178 8.10216 119.239 8.25816 119.239 8.44883V10.8928C119.239 11.0835 119.178 11.2395 119.057 11.3608C118.935 11.4821 118.779 11.5428 118.589 11.5428H110.295V15.0528H118.017C118.207 15.0528 118.363 15.1221 118.485 15.2608C118.606 15.3821 118.667 15.5381 118.667 15.7288V17.9908C118.667 18.1641 118.606 18.3201 118.485 18.4588C118.363 18.5801 118.207 18.6408 118.017 18.6408H110.295V22.2548H118.797C118.987 22.2548 119.143 22.3155 119.265 22.4368C119.386 22.5581 119.447 22.7141 119.447 22.9048V25.3488C119.447 25.5221 119.386 25.6781 119.265 25.8168C119.143 25.9381 118.987 25.9988 118.797 25.9988H106.447ZM62.4698 49.9988C62.2791 49.9988 62.1231 49.9381 62.0018 49.8168C61.8805 49.6781 61.8198 49.5221 61.8198 49.3488V32.4488C61.8198 32.2581 61.8805 32.1021 62.0018 31.9808C62.1231 31.8595 62.2791 31.7988 62.4698 31.7988H65.9538C66.1445 31.7988 66.3005 31.8595 66.4218 31.9808C66.5605 32.1021 66.6298 32.2581 66.6298 32.4488V49.3488C66.6298 49.5221 66.5605 49.6781 66.4218 49.8168C66.3005 49.9381 66.1445 49.9988 65.9538 49.9988H62.4698ZM70.8995 49.9988C70.7088 49.9988 70.5528 49.9381 70.4315 49.8168C70.3102 49.6781 70.2495 49.5221 70.2495 49.3488V32.4488C70.2495 32.2581 70.3102 32.1021 70.4315 31.9808C70.5528 31.8595 70.7088 31.7988 70.8995 31.7988H73.6555C73.9502 31.7988 74.1582 31.8681 74.2795 32.0068C74.4182 32.1281 74.5048 32.2235 74.5395 32.2928L80.8835 42.2768V32.4488C80.8835 32.2581 80.9442 32.1021 81.0655 31.9808C81.1868 31.8595 81.3428 31.7988 81.5335 31.7988H84.6535C84.8442 31.7988 85.0002 31.8595 85.1215 31.9808C85.2428 32.1021 85.3035 32.2581 85.3035 32.4488V49.3228C85.3035 49.5135 85.2428 49.6781 85.1215 49.8168C85.0002 49.9381 84.8442 49.9988 84.6535 49.9988H81.8715C81.5942 49.9988 81.3862 49.9295 81.2475 49.7908C81.1262 49.6521 81.0482 49.5568 81.0135 49.5048L74.6695 39.8848V49.3488C74.6695 49.5221 74.6088 49.6781 74.4875 49.8168C74.3662 49.9381 74.2102 49.9988 74.0195 49.9988H70.8995ZM95.723 50.2588C93.9897 50.2588 92.551 50.0161 91.407 49.5308C90.263 49.0281 89.3963 48.3781 88.807 47.5808C88.2177 46.7835 87.9057 45.9341 87.871 45.0328C87.871 44.8941 87.923 44.7728 88.027 44.6688C88.1483 44.5475 88.287 44.4868 88.443 44.4868H91.719C91.9617 44.4868 92.1437 44.5301 92.265 44.6168C92.4037 44.7035 92.525 44.8161 92.629 44.9548C92.7677 45.2148 92.9583 45.4661 93.201 45.7088C93.461 45.9515 93.799 46.1508 94.215 46.3068C94.631 46.4455 95.1337 46.5148 95.723 46.5148C96.7283 46.5148 97.4823 46.3588 97.985 46.0468C98.505 45.7348 98.765 45.3101 98.765 44.7728C98.765 44.3741 98.6263 44.0535 98.349 43.8108C98.0717 43.5681 97.621 43.3515 96.997 43.1608C96.3903 42.9528 95.5757 42.7448 94.553 42.5368C93.2357 42.2595 92.109 41.9041 91.173 41.4708C90.2543 41.0201 89.5523 40.4395 89.067 39.7288C88.5817 39.0008 88.339 38.0995 88.339 37.0248C88.339 35.9675 88.6337 35.0228 89.223 34.1908C89.8297 33.3588 90.6703 32.7088 91.745 32.2408C92.8197 31.7728 94.0937 31.5388 95.567 31.5388C96.763 31.5388 97.8117 31.6948 98.713 32.0068C99.6317 32.3188 100.403 32.7348 101.027 33.2548C101.651 33.7748 102.119 34.3295 102.431 34.9188C102.761 35.4908 102.934 36.0541 102.951 36.6088C102.951 36.7475 102.899 36.8775 102.795 36.9988C102.709 37.1028 102.579 37.1548 102.405 37.1548H98.973C98.7823 37.1548 98.6177 37.1201 98.479 37.0508C98.3403 36.9815 98.219 36.8688 98.115 36.7128C98.011 36.3315 97.7337 36.0021 97.283 35.7248C96.8497 35.4301 96.2777 35.2828 95.567 35.2828C94.8043 35.2828 94.2063 35.4215 93.773 35.6988C93.357 35.9588 93.149 36.3661 93.149 36.9208C93.149 37.2675 93.2617 37.5708 93.487 37.8308C93.7297 38.0908 94.1197 38.3161 94.657 38.5068C95.2117 38.6975 95.9657 38.8968 96.919 39.1048C98.4963 39.3995 99.7703 39.7721 100.741 40.2228C101.712 40.6561 102.423 41.2281 102.873 41.9388C103.341 42.6321 103.575 43.5075 103.575 44.5648C103.575 45.7435 103.237 46.7575 102.561 47.6068C101.885 48.4561 100.958 49.1148 99.779 49.5828C98.6177 50.0335 97.2657 50.2588 95.723 50.2588ZM113.821 50.2588C112.244 50.2588 110.866 50.0075 109.687 49.5048C108.526 48.9848 107.625 48.1961 106.983 47.1388C106.342 46.0641 106.021 44.7035 106.021 43.0568V32.4488C106.021 32.2581 106.082 32.1021 106.203 31.9808C106.325 31.8595 106.481 31.7988 106.671 31.7988H110.025C110.216 31.7988 110.372 31.8595 110.493 31.9808C110.632 32.1021 110.701 32.2581 110.701 32.4488V43.0308C110.701 44.1575 110.97 45.0068 111.507 45.5788C112.045 46.1335 112.807 46.4108 113.795 46.4108C114.766 46.4108 115.52 46.1335 116.057 45.5788C116.612 45.0068 116.889 44.1575 116.889 43.0308V32.4488C116.889 32.2581 116.95 32.1021 117.071 31.9808C117.21 31.8595 117.366 31.7988 117.539 31.7988H120.919C121.093 31.7988 121.24 31.8595 121.361 31.9808C121.5 32.1021 121.569 32.2581 121.569 32.4488V43.0568C121.569 44.7035 121.249 46.0641 120.607 47.1388C119.966 48.1961 119.065 48.9848 117.903 49.5048C116.742 50.0075 115.381 50.2588 113.821 50.2588ZM125.667 49.9988C125.477 49.9988 125.321 49.9381 125.199 49.8168C125.078 49.6781 125.017 49.5221 125.017 49.3488V32.4488C125.017 32.2581 125.078 32.1021 125.199 31.9808C125.321 31.8595 125.477 31.7988 125.667 31.7988H132.739C134.993 31.7988 136.761 32.3188 138.043 33.3588C139.326 34.3815 139.967 35.8375 139.967 37.7268C139.967 38.9575 139.673 39.9975 139.083 40.8468C138.494 41.6961 137.714 42.3375 136.743 42.7708L140.305 49.1668C140.357 49.2708 140.383 49.3661 140.383 49.4528C140.383 49.5915 140.323 49.7215 140.201 49.8428C140.097 49.9468 139.976 49.9988 139.837 49.9988H136.379C136.05 49.9988 135.807 49.9208 135.651 49.7648C135.495 49.5915 135.383 49.4355 135.313 49.2968L132.349 43.5768H129.697V49.3488C129.697 49.5221 129.628 49.6781 129.489 49.8168C129.368 49.9381 129.212 49.9988 129.021 49.9988H125.667ZM129.697 39.8848H132.687C133.502 39.8848 134.109 39.6855 134.507 39.2868C134.923 38.8881 135.131 38.3508 135.131 37.6748C135.131 36.9988 134.932 36.4528 134.533 36.0368C134.152 35.6208 133.537 35.4128 132.687 35.4128H129.697V39.8848ZM141.954 49.9988C141.815 49.9988 141.685 49.9468 141.564 49.8428C141.46 49.7215 141.408 49.5915 141.408 49.4528C141.408 49.3661 141.416 49.2881 141.434 49.2188L147.544 32.5268C147.596 32.3361 147.7 32.1715 147.856 32.0328C148.029 31.8768 148.263 31.7988 148.558 31.7988H152.406C152.7 31.7988 152.926 31.8768 153.082 32.0328C153.255 32.1715 153.368 32.3361 153.42 32.5268L159.504 49.2188C159.538 49.2881 159.556 49.3661 159.556 49.4528C159.556 49.5915 159.495 49.7215 159.374 49.8428C159.27 49.9468 159.14 49.9988 158.984 49.9988H155.786C155.526 49.9988 155.326 49.9381 155.188 49.8168C155.066 49.6781 154.988 49.5568 154.954 49.4528L153.94 46.8008H146.998L146.01 49.4528C145.975 49.5568 145.897 49.6781 145.776 49.8168C145.654 49.9381 145.446 49.9988 145.152 49.9988H141.954ZM148.064 43.0568H152.9L150.482 36.1928L148.064 43.0568ZM162.255 49.9988C162.064 49.9988 161.908 49.9381 161.787 49.8168C161.666 49.6781 161.605 49.5221 161.605 49.3488V32.4488C161.605 32.2581 161.666 32.1021 161.787 31.9808C161.908 31.8595 162.064 31.7988 162.255 31.7988H165.011C165.306 31.7988 165.514 31.8681 165.635 32.0068C165.774 32.1281 165.86 32.2235 165.895 32.2928L172.239 42.2768V32.4488C172.239 32.2581 172.3 32.1021 172.421 31.9808C172.542 31.8595 172.698 31.7988 172.889 31.7988H176.009C176.2 31.7988 176.356 31.8595 176.477 31.9808C176.598 32.1021 176.659 32.2581 176.659 32.4488V49.3228C176.659 49.5135 176.598 49.6781 176.477 49.8168C176.356 49.9381 176.2 49.9988 176.009 49.9988H173.227C172.95 49.9988 172.742 49.9295 172.603 49.7908C172.482 49.6521 172.404 49.5568 172.369 49.5048L166.025 39.8848V49.3488C166.025 49.5221 165.964 49.6781 165.843 49.8168C165.722 49.9381 165.566 49.9988 165.375 49.9988H162.255ZM187.755 50.2588C186.125 50.2588 184.721 49.9901 183.543 49.4528C182.364 48.9155 181.445 48.1268 180.787 47.0868C180.145 46.0468 179.79 44.7555 179.721 43.2128C179.703 42.5021 179.695 41.7395 179.695 40.9248C179.695 40.1101 179.703 39.3301 179.721 38.5848C179.79 37.0768 180.154 35.7941 180.813 34.7368C181.471 33.6795 182.39 32.8821 183.569 32.3448C184.747 31.8075 186.143 31.5388 187.755 31.5388C188.899 31.5388 189.956 31.6861 190.927 31.9808C191.897 32.2581 192.747 32.6741 193.475 33.2288C194.203 33.7661 194.766 34.4248 195.165 35.2048C195.581 35.9675 195.797 36.8341 195.815 37.8048C195.832 37.9608 195.78 38.0908 195.659 38.1948C195.555 38.2988 195.425 38.3508 195.269 38.3508H191.759C191.533 38.3508 191.36 38.3075 191.239 38.2208C191.117 38.1168 191.013 37.9348 190.927 37.6748C190.684 36.7561 190.285 36.1321 189.731 35.8028C189.193 35.4561 188.526 35.2828 187.729 35.2828C186.775 35.2828 186.021 35.5515 185.467 36.0888C184.912 36.6088 184.609 37.4841 184.557 38.7148C184.505 40.1361 184.505 41.5921 184.557 43.0828C184.609 44.3135 184.912 45.1975 185.467 45.7348C186.021 46.2548 186.775 46.5148 187.729 46.5148C188.526 46.5148 189.202 46.3415 189.757 45.9948C190.311 45.6481 190.701 45.0241 190.927 44.1228C190.996 43.8628 191.091 43.6895 191.213 43.6028C191.351 43.4988 191.533 43.4468 191.759 43.4468H195.269C195.425 43.4468 195.555 43.4988 195.659 43.6028C195.78 43.7068 195.832 43.8368 195.815 43.9928C195.797 44.9635 195.581 45.8388 195.165 46.6188C194.766 47.3815 194.203 48.0401 193.475 48.5948C192.747 49.1321 191.897 49.5481 190.927 49.8428C189.956 50.1201 188.899 50.2588 187.755 50.2588ZM199.199 49.9988C199.008 49.9988 198.852 49.9381 198.731 49.8168C198.609 49.6781 198.549 49.5221 198.549 49.3488V32.4488C198.549 32.2581 198.609 32.1021 198.731 31.9808C198.852 31.8595 199.008 31.7988 199.199 31.7988H211.341C211.531 31.7988 211.687 31.8595 211.809 31.9808C211.93 32.1021 211.991 32.2581 211.991 32.4488V34.8928C211.991 35.0835 211.93 35.2395 211.809 35.3608C211.687 35.4821 211.531 35.5428 211.341 35.5428H203.047V39.0528H210.769C210.959 39.0528 211.115 39.1221 211.237 39.2608C211.358 39.3821 211.419 39.5381 211.419 39.7288V41.9908C211.419 42.1641 211.358 42.3201 211.237 42.4588C211.115 42.5801 210.959 42.6408 210.769 42.6408H203.047V46.2548H211.549C211.739 46.2548 211.895 46.3155 212.017 46.4368C212.138 46.5581 212.199 46.7141 212.199 46.9048V49.3488C212.199 49.5221 212.138 49.6781 212.017 49.8168C211.895 49.9381 211.739 49.9988 211.549 49.9988H199.199ZM215.388 49.9988C215.197 49.9988 215.041 49.9381 214.92 49.8168C214.799 49.6781 214.738 49.5221 214.738 49.3488V46.0468C214.738 45.8561 214.799 45.7001 214.92 45.5788C215.041 45.4575 215.197 45.3968 215.388 45.3968H218.69C218.863 45.3968 219.011 45.4575 219.132 45.5788C219.271 45.7001 219.34 45.8561 219.34 46.0468V49.3488C219.34 49.5221 219.271 49.6781 219.132 49.8168C219.011 49.9381 218.863 49.9988 218.69 49.9988H215.388Z" fill="#0F182A"/>
<path d="M296 28H226C224.895 28 224 28.8954 224 30V50C224 51.1046 224.895 52 226 52H296C297.105 52 298 51.1046 298 50V30C298 28.8954 297.105 28 296 28Z" fill="#1AA945"/>
<path d="M235.744 48.2189C234.365 48.2189 233.192 47.9916 232.224 47.5369C231.271 47.0676 230.53 46.3929 230.002 45.5129C229.474 44.6182 229.181 43.5329 229.122 42.2569C229.107 41.6556 229.1 41.0102 229.1 40.3209C229.1 39.6316 229.107 38.9716 229.122 38.3409C229.181 37.0796 229.474 36.0089 230.002 35.1289C230.545 34.2342 231.3 33.5522 232.268 33.0829C233.236 32.6136 234.395 32.3789 235.744 32.3789C236.727 32.3789 237.621 32.5036 238.428 32.7529C239.235 33.0022 239.931 33.3616 240.518 33.8309C241.105 34.3002 241.559 34.8502 241.882 35.4809C242.205 36.1116 242.381 36.8156 242.41 37.5929C242.41 37.7249 242.359 37.8349 242.256 37.9229C242.168 38.0109 242.058 38.0549 241.926 38.0549H239.418C239.242 38.0549 239.103 38.0109 239 37.9229C238.897 37.8349 238.817 37.6882 238.758 37.4829C238.538 36.6176 238.171 36.0236 237.658 35.7009C237.145 35.3782 236.507 35.2169 235.744 35.2169C234.835 35.2169 234.116 35.4662 233.588 35.9649C233.06 36.4636 232.774 37.2922 232.73 38.4509C232.686 39.6536 232.686 40.8856 232.73 42.1469C232.774 43.3056 233.06 44.1342 233.588 44.6329C234.116 45.1316 234.835 45.3809 235.744 45.3809C236.507 45.3809 237.145 45.2196 237.658 44.8969C238.186 44.5596 238.553 43.9656 238.758 43.1149C238.817 42.8949 238.897 42.7482 239 42.6749C239.103 42.5869 239.242 42.5429 239.418 42.5429H241.926C242.058 42.5429 242.168 42.5869 242.256 42.6749C242.359 42.7629 242.41 42.8729 242.41 43.0049C242.381 43.7822 242.205 44.4862 241.882 45.1169C241.559 45.7476 241.105 46.2976 240.518 46.7669C239.931 47.2362 239.235 47.5956 238.428 47.8449C237.621 48.0942 236.727 48.2189 235.744 48.2189ZM250.998 48.2189C249.663 48.2189 248.512 47.9989 247.544 47.5589C246.576 47.1189 245.821 46.4589 245.278 45.5789C244.735 44.6842 244.442 43.5622 244.398 42.2129C244.383 41.5822 244.376 40.9589 244.376 40.3429C244.376 39.7122 244.383 39.0742 244.398 38.4289C244.442 37.1089 244.735 36.0016 245.278 35.1069C245.835 34.1976 246.598 33.5156 247.566 33.0609C248.549 32.6062 249.693 32.3789 250.998 32.3789C252.289 32.3789 253.418 32.6062 254.386 33.0609C255.369 33.5156 256.139 34.1976 256.696 35.1069C257.253 36.0016 257.547 37.1089 257.576 38.4289C257.605 39.0742 257.62 39.7122 257.62 40.3429C257.62 40.9589 257.605 41.5822 257.576 42.2129C257.532 43.5622 257.239 44.6842 256.696 45.5789C256.153 46.4589 255.398 47.1189 254.43 47.5589C253.462 47.9989 252.318 48.2189 250.998 48.2189ZM250.998 45.3809C251.849 45.3809 252.545 45.1242 253.088 44.6109C253.645 44.0829 253.939 43.2469 253.968 42.1029C253.997 41.4576 254.012 40.8562 254.012 40.2989C254.012 39.7269 253.997 39.1256 253.968 38.4949C253.953 37.7322 253.814 37.1089 253.55 36.6249C253.286 36.1409 252.934 35.7889 252.494 35.5689C252.069 35.3342 251.57 35.2169 250.998 35.2169C250.426 35.2169 249.92 35.3342 249.48 35.5689C249.04 35.7889 248.688 36.1409 248.424 36.6249C248.175 37.1089 248.035 37.7322 248.006 38.4949C247.991 39.1256 247.984 39.7269 247.984 40.2989C247.984 40.8562 247.991 41.4576 248.006 42.1029C248.05 43.2469 248.343 44.0829 248.886 44.6109C249.429 45.1242 250.133 45.3809 250.998 45.3809ZM260.312 47.9989C260.15 47.9989 260.018 47.9476 259.916 47.8449C259.813 47.7422 259.762 47.6102 259.762 47.4489V44.9849C259.762 44.8236 259.813 44.6916 259.916 44.5889C260.018 44.4862 260.15 44.4349 260.312 44.4349H262.776C262.937 44.4349 263.069 44.4862 263.172 44.5889C263.274 44.6916 263.326 44.8236 263.326 44.9849V47.4489C263.326 47.6102 263.274 47.7422 263.172 47.8449C263.069 47.9476 262.937 47.9989 262.776 47.9989H260.312ZM272.186 48.2189C270.895 48.2189 269.766 48.0062 268.798 47.5809C267.83 47.1409 267.082 46.4736 266.554 45.5789C266.026 44.6696 265.762 43.5182 265.762 42.1249V33.1489C265.762 32.9876 265.813 32.8556 265.916 32.7529C266.018 32.6502 266.15 32.5989 266.312 32.5989H268.71C268.871 32.5989 269.003 32.6502 269.106 32.7529C269.208 32.8556 269.26 32.9876 269.26 33.1489V42.1029C269.26 43.1882 269.516 43.9949 270.03 44.5229C270.543 45.0509 271.262 45.3149 272.186 45.3149C273.095 45.3149 273.806 45.0509 274.32 44.5229C274.833 43.9949 275.09 43.1882 275.09 42.1029V33.1489C275.09 32.9876 275.141 32.8556 275.244 32.7529C275.361 32.6502 275.493 32.5989 275.64 32.5989H278.06C278.206 32.5989 278.331 32.6502 278.434 32.7529C278.536 32.8556 278.588 32.9876 278.588 33.1489V42.1249C278.588 43.5182 278.324 44.6696 277.796 45.5789C277.268 46.4736 276.527 47.1409 275.574 47.5809C274.62 48.0062 273.491 48.2189 272.186 48.2189ZM282.256 47.9989C282.095 47.9989 281.963 47.9476 281.86 47.8449C281.757 47.7422 281.706 47.6102 281.706 47.4489V33.1489C281.706 32.9876 281.757 32.8556 281.86 32.7529C281.963 32.6502 282.095 32.5989 282.256 32.5989H284.588C284.749 32.5989 284.881 32.6502 284.984 32.7529C285.087 32.8556 285.138 32.9876 285.138 33.1489V38.1649L289.67 33.0169C289.729 32.9289 289.824 32.8409 289.956 32.7529C290.103 32.6502 290.293 32.5989 290.528 32.5989H293.19C293.322 32.5989 293.432 32.6502 293.52 32.7529C293.608 32.8409 293.652 32.9436 293.652 33.0609C293.652 33.1636 293.623 33.2516 293.564 33.3249L287.91 39.9689L293.982 47.2729C294.041 47.3316 294.07 47.4196 294.07 47.5369C294.07 47.6542 294.026 47.7642 293.938 47.8669C293.85 47.9549 293.74 47.9989 293.608 47.9989H290.858C290.594 47.9989 290.396 47.9402 290.264 47.8229C290.132 47.7056 290.044 47.6249 290 47.5809L285.138 41.9489V47.4489C285.138 47.6102 285.087 47.7422 284.984 47.8449C284.881 47.9476 284.749 47.9989 284.588 47.9989H282.256Z" fill="white"/>
<path fill-rule="evenodd" clip-rule="evenodd" d="M30.2338 0.472206L51.5807 9.1112C54.2628 10.1966 55.8915 12.9262 55.5791 15.8027C53.5411 34.5652 40.8413 60 27.8085 60C14.7758 60 2.07596 34.5652 0.0380222 15.8027C-0.27393 12.9305 1.35806 10.1951 4.03638 9.1112L25.3831 0.472206C26.9386 -0.157402 28.6781 -0.157402 30.2338 0.472206ZM27.8083 53.3373C38.5262 53.3373 47.3441 33.2458 48.7499 18.9528C48.9649 16.7664 47.6964 14.7099 45.6437 13.9257L29.547 7.77489C28.9871 7.56094 28.3978 7.45407 27.8083 7.45407C27.2191 7.45407 26.6294 7.56094 26.0697 7.77489L9.97256 13.9257C7.92322 14.7086 6.65196 16.7698 6.86655 18.9528C8.27234 33.2458 17.0902 53.3373 27.8083 53.3373Z" fill="#1966FF"/>
<path d="M19.3076 38.5203C16.2729 32.9651 13.9551 25.6933 13.1743 19.3646L25.8084 14.5371V46.4223C25.2973 46.1109 24.73 45.6797 24.1129 45.1C22.5504 43.6323 20.8879 41.4131 19.3076 38.5203Z" stroke="#1966FF" stroke-width="4"/>
</g>
</g>
<defs>
<clipPath id="clip0_209_138">
<rect width="298" height="60" fill="white"/>
</clipPath>
</defs>
</svg>
