<svg width="276" height="79" viewBox="0 0 276 79" fill="none" xmlns="http://www.w3.org/2000/svg">
<path fill-rule="evenodd" clip-rule="evenodd" d="M53.0003 70C82.2709 70 106 70.4478 106 71C106 71.5522 82.2709 72 53.0003 72C23.7291 72 0 71.5522 0 71C0 70.4478 23.7291 70 53.0003 70Z" fill="#1A1A1A"/>
<path fill-rule="evenodd" clip-rule="evenodd" d="M91.8955 40.0004C100.732 39.9425 107.942 47.0594 108 55.8961C108.057 64.7323 100.94 71.9424 92.1039 71.9996C83.2671 72.0575 76.057 64.9406 76.0004 56.1039C75.9425 47.2677 83.0594 40.0576 91.8955 40.0004ZM91.9357 46.1433C97.3793 46.1079 101.821 50.4921 101.856 55.9363C101.891 61.3798 97.5073 65.8212 92.0637 65.8567C86.6202 65.8921 82.1782 61.5079 82.1433 56.0637C82.1073 50.6202 86.4921 46.1788 91.9357 46.1433Z" fill="#1A1A1A"/>
<path fill-rule="evenodd" clip-rule="evenodd" d="M78 58.8977C79.4181 65.2863 85.1264 70.0442 91.9227 69.9997C99.7489 69.9488 106.051 63.5503 106 55.7084C105.982 52.8598 105.126 50.2136 103.672 48C103.287 49.9251 102.576 51.7325 101.599 53.3619C101.793 54.1211 101.899 54.9159 101.904 55.7353C101.939 61.1336 97.6006 65.5379 92.2136 65.5731C88.8417 65.5947 85.8588 63.9003 84.0896 61.3051C81.8812 60.9035 79.8212 60.0712 78 58.8977Z" fill="#333333"/>
<path fill-rule="evenodd" clip-rule="evenodd" d="M91.4251 44.0002C97.7768 43.9592 102.959 49.0739 103 55.4248C103.041 61.7763 97.9259 66.9587 91.5749 66.9998C85.2232 67.0408 80.0413 61.9261 80.0003 55.5746C79.9586 49.2237 85.0741 44.0413 91.4251 44.0002ZM91.4373 45.8441C96.7701 45.8094 101.122 50.1043 101.156 55.4376C101.191 60.7703 96.8956 65.1212 91.5627 65.1559C86.2299 65.1906 81.8783 60.8957 81.8442 55.5624C81.8089 50.2297 86.1044 45.8788 91.4373 45.8441Z" fill="#808080"/>
<path fill-rule="evenodd" clip-rule="evenodd" d="M91.9611 50.0001C95.2746 49.9781 97.9784 52.6472 97.9999 55.9608C98.0213 59.2745 95.3524 61.9784 92.0389 61.9999C88.7254 62.0213 86.0216 59.3529 86.0001 56.0392C85.9787 52.7249 88.6476 50.0216 91.9611 50.0001Z" fill="#808080"/>
<path fill-rule="evenodd" clip-rule="evenodd" d="M97.2763 47.1178L94.0375 52.1307L96.1019 54.3404L102 54.4075L101.91 55.6434L95.3794 55.8771L95.1026 58.3994L98.3582 63.5666L97.8242 64.1141L93.6443 59.348L90.6237 60.3071L89.0974 66L87.973 65.7103L89.2021 59.4757L87.0441 57.8595L81.5921 60.366L81 59.431L86.3037 56.6784L87.3547 54.2368L81.9993 51.9947L82.7084 51.2375L87.9126 52.942L88.7571 50.9796L87.499 45.156L88.6699 45L90.5655 51.2634L92.9073 51.0509L96.5399 46.4802C96.5399 46.4802 97.2274 47.1184 97.2763 47.1178Z" fill="#808080"/>
<path fill-rule="evenodd" clip-rule="evenodd" d="M83 45.5359L90.1069 56.5084L91.7769 57L93.4994 56.0871L94 54.5767L88.1779 41C88.1779 41 83.1217 45.2943 83 45.5359Z" fill="#1A1A1A"/>
<path fill-rule="evenodd" clip-rule="evenodd" d="M18.3928 38.0004C27.5057 37.9411 34.9404 45.2804 34.9996 54.3928C35.0589 63.5057 27.7202 70.9409 18.6078 70.9996C9.49483 71.0589 2.05963 63.7202 2.00036 54.6072C1.94108 45.4948 9.28039 38.0596 18.3928 38.0004ZM18.434 44.336C24.0479 44.2994 28.6285 48.8202 28.6646 54.434C28.7012 60.0479 24.1798 64.6279 18.5665 64.6646C12.9521 64.7012 8.37206 60.1798 8.33544 54.566C8.29941 48.9527 12.8207 44.3721 18.434 44.336Z" fill="#1A1A1A"/>
<path fill-rule="evenodd" clip-rule="evenodd" d="M32 58.1215C30.6186 64.8661 24.7792 69.9532 17.7505 69.9997C9.65643 70.0532 3.0528 63.404 3.00031 55.1473C2.98128 52.1483 3.82973 49.3506 5.30458 47C5.76139 49.1776 6.60811 51.2063 7.76573 53.0079C7.63133 53.6893 7.56212 54.3947 7.56673 55.1167C7.60307 60.8004 12.1487 65.378 17.7211 65.3409C21.2406 65.318 24.327 63.4581 26.1145 60.6592C28.2486 60.1844 30.2368 59.3112 32 58.1215Z" fill="#333333"/>
<path fill-rule="evenodd" clip-rule="evenodd" d="M17.4193 43.0003C24.3225 42.9559 29.9553 48.5155 29.9997 55.4187C30.0447 62.3225 24.4851 67.9547 17.5813 67.9997C10.6775 68.0447 5.04528 62.4851 5.00027 55.5813C4.95527 48.6781 10.5155 43.0453 17.4193 43.0003ZM17.4319 45.0051C23.2286 44.9673 27.9583 49.6352 27.9955 55.4319C28.0333 61.2286 23.3648 65.9577 17.5687 65.9955C11.7714 66.0333 7.0423 61.3648 7.0045 55.5681C6.9673 49.772 11.6358 45.0423 17.4319 45.0051Z" fill="#808080"/>
<path fill-rule="evenodd" clip-rule="evenodd" d="M40.5676 37L35.9061 38.9963L35.6589 40.4983L33 42.4299L33.786 44.8046L35.5338 45L34.953 42.5723L36.5915 41.7336L37.8795 42.3981L45 39.2994C45 39.2994 40.5676 37.0518 40.5676 37Z" fill="#999999"/>
<path fill-rule="evenodd" clip-rule="evenodd" d="M75.0296 28.2666L76.81 27.0264L77.2014 26.1165L76.3457 24.2019L79.4065 21.2991L82.0302 20L84.1218 20.9992L84.2833 23.1323L83.3 24.6863L84.7906 24.8362L87.7509 21.8278L92.6825 24.4077L95 29.9942C95 29.9942 91.2975 33.5417 90.6039 33.7068C89.9097 33.8719 85.6486 35.449 83.858 34.8747C82.0669 34.3005 74.4676 33.8197 75.0296 28.2666Z" fill="#333333"/>
<path fill-rule="evenodd" clip-rule="evenodd" d="M17.9608 49.0001C21.2749 48.9791 23.9782 51.6478 23.9999 54.9611C24.0215 58.2751 21.3527 60.9788 18.0392 60.9999C14.7251 61.0215 12.0212 58.3528 12.0001 55.0389C11.9785 51.7255 14.6473 49.0217 17.9608 49.0001Z" fill="#808080"/>
<path fill-rule="evenodd" clip-rule="evenodd" d="M10.8356 46.3371L14.286 51.5418L12.1588 53.8853L6 54.0367L6.11022 55.3297L12.9344 55.4846L13.257 58.122L9.92664 63.5793L10.4911 64.1446L14.793 59.0959L17.9609 60.0581L19.6304 66L20.8016 65.6814L19.4344 59.1684L21.6666 57.446L27.3944 59.9963L28 59.0088L22.4236 56.1983L19.7847 50.2634L21.0203 44.1472L19.7958 44L17.9 50.5861L15.4514 50.3953L11.5967 45.6587C11.5967 45.6587 10.8867 46.3365 10.8356 46.3371Z" fill="#808080"/>
<path d="M96.9082 37.0504L96.7197 36.5873C96.9873 36.4784 97.7422 35.8095 97.4229 34.357L97.9112 34.2497L97.4229 34.357C97.2519 33.5794 96.5592 31.6962 95.4794 29.5111C94.4035 27.3341 92.9683 24.9086 91.3367 23.0339C89.6728 21.1222 87.2122 18.4644 85.1337 16.2762C84.0948 15.1826 83.1536 14.2087 82.4573 13.5062C82.1086 13.1545 81.824 12.8734 81.6202 12.6801C81.6007 12.6617 81.5822 12.6441 81.5645 12.6276C81.5393 12.6511 81.5122 12.6769 81.4831 12.705C81.311 12.8714 81.1015 13.0877 80.8637 13.3331C80.7956 13.4035 80.7251 13.4763 80.6525 13.5509C80.0287 14.1926 79.2317 14.9965 78.6036 15.3713M96.9082 37.0504L78.3474 14.942M96.9082 37.0504L96.7204 36.587C96.722 36.5864 96.7219 36.5864 96.7197 36.5871C96.7138 36.5889 96.6933 36.5952 96.6507 36.6051C96.5983 36.6174 96.5287 36.6316 96.441 36.6479C96.2658 36.6805 96.0368 36.718 95.7622 36.7619C95.6912 36.7733 95.6174 36.785 95.541 36.7972C95.031 36.8784 94.4071 36.9777 93.7471 37.0991C92.2526 37.3738 90.4794 37.7766 89.3807 38.3877M96.9082 37.0504L74.9755 60.1374L74.9747 60.0934C74.9745 60.0842 74.9743 60.0742 74.9742 60.0634C74.9734 60.0204 74.9726 59.9642 74.9719 59.8961C74.9699 59.7255 74.9683 59.48 74.9696 59.1787C74.9721 58.5764 74.986 57.749 75.0318 56.8498C75.0775 55.9517 75.1552 54.9753 75.2865 54.0769C75.4165 53.1879 75.604 52.3372 75.8846 51.7119C76.0376 51.3709 76.3418 50.9324 76.7243 50.4472C77.1147 49.9518 77.6139 49.3742 78.1851 48.7474C79.3279 47.4931 80.774 46.025 82.2489 44.5949C83.7242 43.1645 85.2329 41.7676 86.5024 40.6558C87.7541 39.5597 88.8169 38.7012 89.3807 38.3877M78.6036 15.3713L78.3474 14.942M78.6036 15.3713C78.6037 15.3713 78.6038 15.3712 78.6039 15.3712L78.3474 14.942M78.6036 15.3713C78.0831 15.6824 77.5298 15.9017 77.1019 16.0713C77.0356 16.0976 76.9724 16.1227 76.9127 16.1467C76.6768 16.2417 76.5147 16.3133 76.4109 16.3765C76.4108 16.3766 76.4106 16.3767 76.4104 16.3768M78.3474 14.942C77.8644 15.2306 77.3521 15.434 76.9222 15.6046C76.357 15.829 75.934 15.9968 75.9066 16.2279C75.8584 16.6348 76.2729 17.5977 76.7848 17.8485L77.0044 17.3993C77.0045 17.3994 77.0047 17.3994 77.0048 17.3995M76.4104 16.3768C76.4087 16.3658 76.4072 16.3555 76.4061 16.3458C76.4039 16.327 76.403 16.3124 76.4028 16.3017C76.4026 16.2908 76.4032 16.2861 76.4031 16.2867C76.3944 16.3606 76.3641 16.4031 76.3511 16.4178M76.4104 16.3768C76.3777 16.3967 76.3596 16.4106 76.3511 16.4178M76.4104 16.3768C76.4156 16.409 76.4235 16.4468 76.4349 16.4896C76.4654 16.6049 76.5159 16.7393 76.5828 16.873C76.7291 17.1653 76.8983 17.3473 77.0048 17.3995M76.3511 16.4178C76.3465 16.4217 76.3447 16.4237 76.345 16.4237C76.3452 16.4237 76.3475 16.4218 76.3511 16.4178ZM77.0048 17.3995C77.0631 17.4279 77.2159 17.4886 77.4464 17.58C78.9103 18.1608 83.5051 19.9838 86.8763 22.678C88.8096 24.2228 90.1495 25.4359 91.0242 26.3472C91.4611 26.8024 91.7888 27.1895 92.0178 27.5108C92.235 27.8157 92.4026 28.1144 92.4496 28.3837C92.4868 28.597 92.498 29.0018 92.453 29.4658C92.4072 29.9382 92.2992 30.5142 92.0729 31.0632C91.8469 31.6115 91.4904 32.162 90.9309 32.5374C90.3609 32.9197 89.6315 33.0857 88.7338 32.9476L88.7337 32.9476C87.1507 32.7037 83.7415 32.1795 80.7281 31.7163L76.7825 31.1098L75.5531 30.9209L75.2153 30.869L75.1271 30.8554L75.1046 30.8519L75.0989 30.8511L75.0975 30.8508L75.0971 30.8508C75.097 30.8508 75.097 30.8508 75.1729 30.3566L77.0048 17.3995ZM34.7248 59.078C34.8039 59.1365 34.8943 59.2035 34.9939 59.2777C35.3677 59.5563 35.8713 59.9368 36.3885 60.3434C36.9046 60.7492 37.4398 61.185 37.8746 61.5736C38.0917 61.7676 38.2892 61.9546 38.4488 62.1235C38.5991 62.2827 38.7482 62.459 38.8345 62.6283C38.9378 62.8308 39.046 63.072 39.1532 63.3111L39.1751 63.3599C39.2921 63.6206 39.4103 63.8819 39.5331 64.1223C39.6569 64.365 39.7761 64.5674 39.8898 64.7146C39.9459 64.7873 39.9942 64.8379 40.0333 64.8709C40.052 64.8866 40.0661 64.8963 40.0758 64.9022C40.0879 64.9035 40.1033 64.9049 40.1222 64.9065C40.1898 64.9123 40.2866 64.9185 40.4133 64.925C40.6657 64.938 41.0216 64.9515 41.4685 64.9653C42.3615 64.993 43.6071 65.0218 45.0912 65.051C48.0591 65.1096 51.9743 65.17 55.9162 65.227C57.7727 65.2539 59.6371 65.28 61.412 65.3049C67.1588 65.3855 71.9666 65.4529 72.5253 65.489C73.1996 65.5326 73.7323 65.4474 74.0939 65.2132C74.4227 65.0004 74.6956 64.6076 74.7351 63.8117C74.7351 63.8116 74.7351 63.8116 74.7351 63.8115L34.7248 59.078ZM34.7248 59.078L37.3439 54.1588L37.5304 53.8086L37.2318 53.5474L34.1525 50.8542L33.9202 50.651L33.6344 50.7676L20.4459 56.1487L16.4588 56.168L15.6927 54.2887L18.3098 51.5687L29.9656 44.6969L35.0389 43.9964L37.4327 46.1606L37.7561 46.453L38.0898 46.1723L40.5254 44.1241L40.6467 44.022L40.6871 43.8688L41.3002 41.541L45.2562 40.952L46.7004 40.737L45.4276 40.0216L45.1826 40.4575C45.4276 40.0216 45.4275 40.0216 45.4274 40.0215L45.4268 40.0212L45.4245 40.0198L45.415 40.0145L45.3776 39.9935L45.2308 39.9107C45.1019 39.838 44.9124 39.731 44.67 39.5937C44.1852 39.3191 43.4889 38.9235 42.6429 38.4396C40.9509 37.4717 38.661 36.1509 36.269 34.7391C33.8764 33.3269 31.3844 31.8252 29.287 30.4951C27.1771 29.1571 25.5019 28.0145 24.7162 27.3148C23.8461 26.5398 22.3639 25.6455 20.6743 24.7427C18.9725 23.8335 17.0178 22.8937 15.1733 22.0315C14.3251 21.6351 13.5039 21.2567 12.74 20.9046C11.8342 20.4872 11.0087 20.1069 10.3139 19.7773C9.67488 19.4742 9.16161 19.2212 8.8106 19.0288C8.79427 19.0198 8.77842 19.0111 8.76303 19.0025C8.99921 18.8759 9.31934 18.7421 9.67411 18.6151C10.46 18.3339 11.2886 18.1308 11.5528 18.1087C11.6187 18.1032 11.6809 18.097 11.744 18.0907C12.0109 18.0641 12.2923 18.0361 12.9236 18.0565C13.719 18.0823 15.0553 18.1858 17.5281 18.474M34.7248 59.078L36.6298 27.3801M89.3807 38.3877L89.6236 38.8247L89.3806 38.3878C89.3806 38.3878 89.3806 38.3878 89.3807 38.3877ZM17.5281 18.474C19.977 18.7598 22.2019 19.2474 23.7975 19.7354C24.598 19.9802 25.2242 20.2204 25.6368 20.4281C25.8193 20.5199 25.9423 20.5967 26.0166 20.6542C26.0137 20.6765 26.0107 20.6981 26.0078 20.7193C25.9877 20.8674 25.9707 20.9923 25.9666 21.1417C25.9605 21.3579 25.9772 21.6583 26.0189 22.2961C26.0683 23.051 26.3871 23.7792 26.6685 24.2938C26.812 24.5564 26.9526 24.7753 27.0576 24.9292C27.1103 25.0064 27.1544 25.0677 27.1859 25.1105C27.2017 25.1319 27.2144 25.1488 27.2234 25.1607L27.2343 25.1749L27.2376 25.1791L27.2387 25.1805L27.2391 25.181L27.2393 25.1812C27.2393 25.1813 27.2394 25.1814 27.6329 24.873M17.5281 18.474L17.586 17.9774M17.5281 18.474L17.586 17.9774M27.6329 24.873L27.2394 25.1814L27.5204 25.5399L27.9034 25.2935L27.6329 24.873ZM27.6329 24.873L27.9034 25.2934L27.9035 25.2934L27.9036 25.2934L27.904 25.2931L27.9058 25.2919L27.9128 25.2874L27.9397 25.2701L28.0378 25.2072C28.1202 25.1543 28.2325 25.0823 28.3528 25.0056C28.5692 24.8675 28.8048 24.7179 28.9392 24.6352C28.9633 24.6334 29.0004 24.6325 29.0519 24.635C29.1787 24.641 29.3506 24.6647 29.5487 24.7072C29.9481 24.7928 30.3922 24.9413 30.7105 25.1133C30.7105 25.1133 30.7106 25.1134 30.7106 25.1134L30.9484 24.6736M30.9484 24.6736C31.6908 25.0752 36.6298 27.3801 36.6298 27.3801M30.9484 24.6736C30.2054 24.2719 28.9795 24.0257 28.7253 24.18L30.9484 24.6736ZM36.6298 27.3801L36.6463 27.8798M36.6298 27.3801L36.4183 27.8332L36.5267 27.8838L36.6463 27.8798M36.6463 27.8798L36.6463 27.8798L36.6463 27.8798M36.6463 27.8798L36.6463 27.8798M36.6463 27.8798L36.6466 27.8798L36.6483 27.8798L36.6557 27.8796L36.6863 27.8787C36.7135 27.878 36.754 27.877 36.8064 27.876C36.9111 27.874 37.063 27.872 37.2498 27.8717C37.6239 27.8712 38.136 27.8781 38.6892 27.9072C39.2438 27.9363 39.8318 27.9875 40.3602 28.074C40.8994 28.1622 41.3328 28.2807 41.6051 28.4242L41.6052 28.4242C42.2401 28.7584 42.7529 29.1902 43.1088 29.5425C43.2859 29.7178 43.4219 29.8711 43.5125 29.9791C43.5577 30.033 43.5914 30.0754 43.6131 30.1033C43.6239 30.1173 43.6318 30.1276 43.6365 30.1339L43.6413 30.1404L43.6414 30.1405L43.6415 30.1407M36.6463 27.8798L43.6415 30.1407M17.586 17.9774C13.093 17.4536 12.298 17.5329 11.6942 17.5932C11.6324 17.5993 11.5726 17.6053 11.5111 17.6104C10.8482 17.6659 7.99652 18.497 8 19.0559C8.00135 19.2715 9.9516 20.1702 12.5353 21.3609C16.6483 23.2562 22.3665 25.8913 24.3836 27.6882C27.2722 30.2605 41.1655 38.1839 44.4742 40.0574L17.586 17.9774ZM43.6415 30.1407L43.6417 30.1408L43.6418 30.1411L43.642 30.1412L44.1539 30.8466L44.5031 30.0497L44.5034 30.049L44.5037 30.0484L44.5038 30.0481L44.5038 30.048L44.5039 30.0477L44.5041 30.0475L44.5112 30.0322C44.5191 30.0154 44.5331 29.9857 44.5563 29.938C44.6028 29.8424 44.6849 29.676 44.8259 29.3972C45.1078 28.8394 45.623 27.835 46.555 26.0518L46.555 26.0518C47.42 24.3964 48.9021 23.2592 50.5647 22.543C52.2289 21.8259 54.0422 21.5456 55.5069 21.5849C56.2226 21.6041 57.5708 21.8176 59.2508 22.163C60.9175 22.5057 62.8741 22.9702 64.7863 23.4766C66.6994 23.9831 68.561 24.5297 70.0394 25.0356C70.7792 25.2888 71.4162 25.5295 71.913 25.7477C72.4268 25.9734 72.7389 26.1535 72.8733 26.2728C73.5645 26.8862 74.023 27.8926 74.3085 28.8063C74.4483 29.2538 74.5409 29.6603 74.5985 29.9546C74.6272 30.1014 74.6471 30.2196 74.6596 30.2999C74.6659 30.3401 74.6703 30.3708 74.6731 30.3908L74.676 30.4128L74.6767 30.4175L74.6767 30.4179L74.6767 30.4181L74.6768 30.4183L43.6415 30.1407ZM40.0446 64.8983C40.0452 64.8984 40.0461 64.8985 40.047 64.8987C40.0421 64.898 40.0416 64.8978 40.0446 64.8983ZM28.9118 24.6387C28.912 24.6386 28.9135 24.6383 28.9165 24.6378C28.9133 24.6386 28.9117 24.6388 28.9118 24.6387ZM26.0359 20.5024L26.0358 20.5029L26.0359 20.5024ZM8.45377 19.213C8.4535 19.213 8.45512 19.2107 8.45942 19.206C8.45618 19.2107 8.45403 19.213 8.45377 19.213Z" fill="white" stroke="black"/>
<path fill-rule="evenodd" clip-rule="evenodd" d="M45 31.195C45 31.195 48.3849 34 49.8406 34C51.2962 34 52.7732 31.4129 60.5607 32.2044C68.3481 32.9959 69.468 33.5959 69.468 33.5959L75 30.5936C75 30.5936 74.322 27.0562 72.8441 26.1593C71.3663 25.2624 59.1927 22 56.3814 22C53.5701 22 50.1954 22.9015 48.4353 24.9963C46.6752 27.0911 45 31.195 45 31.195Z" fill="#E3E3E3"/>
<path fill-rule="evenodd" clip-rule="evenodd" d="M24.4606 47L17.9839 50.6192L15 53.5596L16.0494 56L20.6148 55.9791L33 51.1889L32.692 50.0801L24.4606 47Z" fill="#1A1A1A"/>
<path fill-rule="evenodd" clip-rule="evenodd" d="M39 64.2345C39.3877 65.0599 39.8549 66.2225 40.3934 66.3937C41.0115 66.5905 71.7513 66.8968 73.1909 66.9881C74.6305 67.0794 75.8614 66.6704 75.9526 64.8643C75.9673 64.5745 75.9836 64.2835 76 64L39 64.2345Z" fill="#999999"/>
<path fill-rule="evenodd" clip-rule="evenodd" d="M91.6873 23.6858C88.4783 19.8536 82.2135 13.0499 81.9682 13.0009C81.723 12.9513 80.0302 14.9613 78.956 15.6276C77.9984 16.2223 77.2547 16.0741 77 16.4052C77.8841 16.7814 81.3585 17.8683 82.6484 18.2732C84.0536 18.7146 90.3818 24.3031 94 27C93.2988 25.8243 92.5206 24.6815 91.6873 23.6858Z" fill="#BCD5F5"/>
<path fill-rule="evenodd" clip-rule="evenodd" d="M34.0782 52.9772C34.0055 53.0296 31.9824 52.5541 27.1827 50.6769C22.3831 48.7992 19.246 46.6429 19.246 46.6429C19.246 46.6429 17.8949 43.1671 18.0066 41.7843C18.1182 40.402 20.044 39.4287 21.6807 40.3793C23.3174 41.3298 35.9817 47.9762 35.9817 47.9762L36 48.0087C35.9634 49.1044 35.5294 50.7327 34.0444 53L34.0782 52.9772Z" fill="#B3B3B3"/>
<path fill-rule="evenodd" clip-rule="evenodd" d="M43 59.1348C42.0582 59.9829 42.0582 59.9829 42.0582 59.9829C42.0582 59.9829 40.6391 60.1221 40.2812 59.607C39.9228 59.0925 36.4103 55.4947 35.4012 54.9845C34.3926 54.4743 34.037 54.3473 34.037 54.3473L34 54.3743C35.455 51.9331 35.8802 50.1798 35.9161 49L37.3347 51.7368C37.3347 51.7368 39.5369 53.9849 39.9559 54.6932C40.3743 55.4021 42.517 57.5214 43 59.1348Z" fill="#333333"/>
<path fill-rule="evenodd" clip-rule="evenodd" d="M19.7529 46.7575C19.5209 46.6207 19.3911 46.5427 19.3911 46.5427C19.3911 46.5427 17.8827 43.1193 18.0073 41.7574C18.132 40.396 20.2821 39.4373 22.1095 40.3735C22.243 40.4414 22.4444 40.5407 22.6988 40.6641C22.888 41.0635 23.0113 41.584 22.9992 42.2616C22.9519 44.7993 23.421 47.8951 19.7529 46.7575Z" fill="#808080"/>
<path d="M77 30C74.1999 31.5189 72.007 32.9224 69.2075 34.4412C58.5277 31.9721 56.0934 31.0919 49 35" stroke="#B7B7B7" stroke-width="1.055"/>
<path fill-rule="evenodd" clip-rule="evenodd" d="M47.9999 36.0595L46.7563 39L40 33.5871L40.1192 33C40.1192 33 48.0315 36.1768 47.9999 36.0595Z" fill="#999999"/>
<path fill-rule="evenodd" clip-rule="evenodd" d="M37.7076 54.0557L36 57.2651C36.9254 57.9474 38.8858 59.3756 39.4419 59.6483C40.1777 60.0094 51.6166 60.118 54.7952 59.8534C57.9739 59.5894 62.2321 56.027 63.5083 54.7386C64.784 53.4508 63.1744 50.4142 63.1744 50.4142L56.2315 36.2589L53.1039 35L50.6645 36.1122L46.3529 45.8304C46.3529 45.8304 45.653 50.8319 45.6565 51.3808C45.66 51.9291 45.5417 52.5392 44.7491 52.9101C43.9559 53.281 41.4382 51.713 41.4382 51.713L37.7076 54.0557Z" fill="#333333"/>
<path fill-rule="evenodd" clip-rule="evenodd" d="M52.5899 56.7068C53.197 56.7027 53.6921 57.2125 53.696 57.8457C53.7 58.479 53.2111 58.9953 52.604 59C51.9968 59.0035 51.5018 58.4936 51.4978 57.8604C51.4939 57.2272 51.9828 56.7109 52.5899 56.7068ZM51.161 46.6786C53.4741 46.6634 55.3609 48.6059 55.3761 51.0184C55.3913 53.4308 53.5282 55.3992 51.2151 55.4151C48.902 55.4309 47.0147 53.4878 47.0001 51.0753C46.9849 48.6629 48.848 46.6945 51.161 46.6786ZM58.1763 47.4987C59.1771 47.4922 59.9932 48.3328 60 49.376C60.0062 50.4198 59.2002 51.271 58.2 51.278C57.1992 51.2845 56.3831 50.4439 56.3763 49.4007C56.3701 48.3569 57.1761 47.5057 58.1763 47.4987ZM49.0496 42.9451L56.5143 40.5421L56.6455 40.9856L49.1814 43.3892L49.0496 42.9451ZM54.1742 44.9253L57.5151 43.8497L57.6469 44.2938L54.306 45.3693L54.1742 44.9253ZM54.6563 46.5535L57.9972 45.478L58.129 45.9221L54.7875 46.9976L54.6563 46.5535ZM54.4023 45.6953L57.7432 44.6198L57.8744 45.0639L54.5335 46.1394L54.4023 45.6953ZM49.5317 44.5734L56.9964 42.1698L57.1276 42.6138L49.6629 45.0175L49.5317 44.5734ZM49.2777 43.7152L56.7424 41.3116L56.8736 41.7556L49.4095 44.1593L49.2777 43.7152ZM49.7598 45.3435L57.2245 42.9398L57.3557 43.3833L49.891 45.787L49.7598 45.3435ZM54.8844 47.3236L58.2253 46.2475L58.3565 46.6916L55.0156 47.7671L54.8844 47.3236ZM53.0016 37C54.0018 36.9936 54.8185 37.8341 54.8252 38.8774C54.8314 39.9212 54.0255 40.7729 53.0252 40.7794C52.0244 40.7858 51.2084 39.9459 51.2016 38.902C51.1954 37.8588 52.0013 37.0071 53.0016 37Z" fill="#B3B3B3"/>
<path fill-rule="evenodd" clip-rule="evenodd" d="M44.9701 29.1926C44.9701 29.1926 44.4324 28.5009 43.5 27.8868L42.5856 27.3978L41.3567 27.1173C39.7578 26.8888 37.754 26.9508 37.754 26.9508C37.754 26.9508 32.9483 24.8559 32.226 24.4909C31.5031 24.1258 30.3103 23.902 30.0629 24.0423C29.8155 24.182 29 24.6721 29 24.6721C29 24.6721 40.5016 29.4506 41.9333 29.6911C43.3644 29.9317 44.7385 30 44.7385 30C44.7978 29.7426 45.0938 28.9311 44.9701 29.1926Z" fill="#333333"/>
<path d="M96 35C96 35 88.1104 35.6803 85.5782 37.9715C83.046 40.2626 75.5738 47.4383 74.4791 49.2315C73.3843 51.0247 73 64 73 64" stroke="#B7B7B7"/>
<path d="M67.5557 37L72.6358 42.1319L67.5557 47.2639" stroke="#BABABA" stroke-width="3"/>
<path d="M66 37L71.0801 42.1319L66 47.2639" stroke="#FF7A00" stroke-width="3"/>
<path d="M133.484 14.3318C134.595 13.7764 135.62 12.6016 135.62 10.9996C135.62 8.7568 133.655 7.048 131.113 7.048H126.221C125.986 7.048 125.816 7.24024 125.816 7.45384V21.5942C125.816 21.8078 125.986 22 126.221 22H131.391C133.996 22 136.047 20.2698 136.047 17.8775C136.047 15.8697 134.723 14.8658 133.484 14.4386V14.3318ZM128.571 13.3278V9.58984H130.899C131.989 9.58984 132.694 10.3374 132.694 11.4054C132.694 12.4734 131.989 13.3278 130.899 13.3278H128.571ZM128.571 19.4795V15.6774H131.198C132.266 15.6774 133.078 16.4678 133.078 17.5358C133.078 18.6465 132.266 19.4795 131.198 19.4795H128.571ZM138.258 21.5301C138.258 21.7864 138.493 22 138.728 22H140.458C140.693 22 140.928 21.7864 140.928 21.5301V12.6016C140.928 12.3239 140.693 12.1317 140.458 12.1317H138.728C138.493 12.1317 138.258 12.3239 138.258 12.6016V21.5301ZM139.561 10.4442C140.522 10.4442 141.27 9.67528 141.27 8.73544C141.27 7.7956 140.522 7.048 139.561 7.048C138.6 7.048 137.874 7.7956 137.874 8.73544C137.874 9.67528 138.6 10.4442 139.561 10.4442ZM143.661 21.5301C143.661 21.7864 143.896 22 144.131 22H145.861C146.117 22 146.331 21.7864 146.331 21.5301V17.3649L150.047 21.8078C150.111 21.9146 150.304 22 150.475 22H152.568C152.974 22 153.123 21.5728 152.867 21.2951L148.766 16.7027L152.675 12.8579C152.91 12.5802 152.76 12.1317 152.354 12.1317H150.346C150.069 12.1317 149.898 12.2812 149.727 12.4307L146.331 15.8697V7.51792C146.331 7.28296 146.117 7.048 145.861 7.048H144.131C143.896 7.048 143.661 7.28296 143.661 7.51792V21.5301ZM153.597 17.0658C153.597 19.8854 155.647 22.235 158.595 22.235C160.197 22.235 161.414 21.6155 162.269 20.8893C162.504 20.6757 162.482 20.4407 162.311 20.2485L161.478 19.1378C161.329 18.9242 161.073 18.9455 160.838 19.1378C160.389 19.5009 159.706 19.864 158.723 19.864C157.292 19.864 156.288 18.796 156.267 17.5785H162.589C162.803 17.5785 163.038 17.3862 163.059 17.1299C163.08 16.9804 163.102 16.6386 163.102 16.4891C163.102 13.8191 161.137 11.9181 158.573 11.9181C155.647 11.9181 153.597 14.289 153.597 17.0658ZM156.416 15.827C156.544 14.8444 157.313 14.1182 158.509 14.1182C159.599 14.1182 160.368 14.8658 160.41 15.827H156.416Z" fill="#FF7A00"/>
<path d="M126.799 48.3743C126.799 48.7036 127.062 49 127.425 49H139.477C139.839 49 140.103 48.7036 140.103 48.3743V45.6741C140.103 45.3448 139.839 45.0484 139.477 45.0484H131.08V26.5747C131.08 26.2454 130.784 25.949 130.454 25.949H127.425C127.062 25.949 126.799 26.2454 126.799 26.5747V48.3743ZM142.733 48.2755C142.733 48.6707 143.096 49 143.458 49H146.125C146.487 49 146.85 48.6707 146.85 48.2755V34.5108C146.85 34.0827 146.487 33.7863 146.125 33.7863H143.458C143.096 33.7863 142.733 34.0827 142.733 34.5108V48.2755ZM144.742 31.1849C146.224 31.1849 147.376 29.9994 147.376 28.5505C147.376 27.1015 146.224 25.949 144.742 25.949C143.26 25.949 142.141 27.1015 142.141 28.5505C142.141 29.9994 143.26 31.1849 144.742 31.1849ZM151.062 48.2755C151.062 48.6707 151.425 49 151.787 49H154.224C154.948 49 155.179 48.8353 155.179 48.2755V39.582C155.541 38.5283 156.496 37.2111 158.472 37.2111C160.316 37.2111 161.106 38.4295 161.106 40.4053V48.2755C161.106 48.6707 161.435 49 161.83 49H164.498C164.86 49 165.222 48.6707 165.222 48.2755V40.4053C165.222 36.7171 163.971 33.457 159.13 33.457C156.199 33.457 154.783 35.0377 154.224 35.6633L153.664 34.2474C153.565 33.951 153.4 33.7863 153.038 33.7863H151.787C151.425 33.7863 151.062 34.0827 151.062 34.5108V48.2755ZM168.342 41.3932C168.342 45.7399 171.503 49.3622 176.047 49.3622C178.517 49.3622 180.394 48.4073 181.711 47.2876C182.074 46.9583 182.041 46.5961 181.777 46.2997L180.493 44.5874C180.262 44.2581 179.867 44.291 179.505 44.5874C178.814 45.1472 177.76 45.707 176.245 45.707C174.039 45.707 172.491 44.0605 172.458 42.1835H182.205C182.535 42.1835 182.897 41.8871 182.93 41.492C182.963 41.2614 182.996 40.7346 182.996 40.5041C182.996 36.3878 179.966 33.457 176.014 33.457C171.503 33.457 168.342 37.1123 168.342 41.3932ZM172.689 39.4832C172.886 37.9684 174.072 36.8488 175.916 36.8488C177.595 36.8488 178.781 38.0014 178.846 39.4832H172.689ZM186.292 48.3743C186.292 48.7036 186.555 49 186.884 49H194.689C201.044 49 206.247 43.83 206.247 37.4416C206.247 31.119 201.044 25.949 194.689 25.949H186.884C186.555 25.949 186.292 26.2454 186.292 26.5747V48.3743ZM190.54 44.9825V29.9335H194.294C198.575 29.9335 201.703 32.9631 201.703 37.4416C201.703 41.953 198.575 44.9825 194.294 44.9825H190.54ZM209.462 48.2755C209.462 48.6707 209.824 49 210.186 49H212.853C213.216 49 213.578 48.6707 213.578 48.2755V34.5108C213.578 34.0827 213.216 33.7863 212.853 33.7863H210.186C209.824 33.7863 209.462 34.0827 209.462 34.5108V48.2755ZM211.47 31.1849C212.952 31.1849 214.105 29.9994 214.105 28.5505C214.105 27.1015 212.952 25.949 211.47 25.949C209.988 25.949 208.869 27.1015 208.869 28.5505C208.869 29.9994 209.988 31.1849 211.47 31.1849ZM217.791 48.2755C217.791 48.6707 218.153 49 218.515 49H221.051C221.545 49 221.907 48.8353 221.907 48.2755V38.7917C222.17 38.2648 223.158 37.2111 224.805 37.2111C225.496 37.2111 225.858 37.3428 226.221 37.5074C226.583 37.6721 226.945 37.5404 227.11 37.1781L228.098 34.9389C228.526 33.951 227.044 33.457 225.233 33.457C222.895 33.457 221.479 35.0047 220.952 35.7621L220.392 34.2803C220.26 33.951 220.096 33.7863 219.733 33.7863H218.515C218.153 33.7863 217.791 34.0827 217.791 34.5108V48.2755ZM229.217 41.3932C229.217 45.7399 232.379 49.3622 236.923 49.3622C239.393 49.3622 241.27 48.4073 242.587 47.2876C242.949 46.9583 242.916 46.5961 242.653 46.2997L241.368 44.5874C241.138 44.2581 240.743 44.291 240.381 44.5874C239.689 45.1472 238.635 45.707 237.12 45.707C234.914 45.707 233.366 44.0605 233.334 42.1835H243.081C243.41 42.1835 243.772 41.8871 243.805 41.492C243.838 41.2614 243.871 40.7346 243.871 40.5041C243.871 36.3878 240.842 33.457 236.89 33.457C232.379 33.457 229.217 37.1123 229.217 41.3932ZM233.564 39.4832C233.762 37.9684 234.947 36.8488 236.791 36.8488C238.471 36.8488 239.656 38.0014 239.722 39.4832H233.564ZM246.036 41.3932C246.036 45.9704 249.625 49.3622 254.071 49.3622C256.771 49.3622 258.813 48.1767 260.097 46.168C260.361 45.7729 260.196 45.4106 259.834 45.0813L258.352 43.83C258.088 43.5995 257.627 43.6653 257.397 43.9288C256.738 44.6862 255.849 45.6082 254.17 45.6082C251.799 45.6082 250.185 43.7641 250.185 41.3932C250.185 39.0551 251.832 37.2111 254.203 37.2111C255.619 37.2111 256.508 37.8367 257.232 38.5283C257.529 38.8246 257.891 38.9893 258.22 38.627L259.603 37.1123C259.932 36.783 260.097 36.3549 259.768 36.0256C258.319 34.4779 256.475 33.457 254.104 33.457C249.592 33.457 246.036 36.9147 246.036 41.3932ZM264.187 44.4557C264.187 47.0901 265.043 49.3622 268.435 49.3622C270.015 49.3622 272.189 48.6707 272.715 48.3743C273.078 48.1767 273.242 47.8804 273.144 47.4852L272.715 45.4765C272.65 45.1143 272.287 44.9167 271.859 45.0813C271.464 45.213 270.213 45.5753 269.554 45.5753C268.797 45.5753 268.303 45.3448 268.303 44.3239V37.4745H271.859C272.254 37.4745 272.584 37.1123 272.584 36.75V34.5108C272.584 34.0827 272.254 33.7863 271.859 33.7863H268.303V29.5713C268.303 29.1761 268.006 28.8468 267.611 28.8468H264.911C264.549 28.8468 264.187 29.1761 264.187 29.5713V33.7863H262.705C262.31 33.7863 262.013 34.0827 262.013 34.5108V36.75C262.013 37.1123 262.31 37.4745 262.705 37.4745H264.187V44.4557Z" fill="#505050"/>
<path d="M125.111 68.7802C125.111 68.8959 125.203 69 125.319 69H127.911C130.144 69 131.972 67.1835 131.972 64.9389C131.972 62.7175 130.144 60.901 127.911 60.901H125.319C125.203 60.901 125.111 61.0051 125.111 61.1208V68.7802ZM125.99 68.2017V61.6878H127.807C129.704 61.6878 131.035 63.0414 131.035 64.9389C131.035 66.848 129.704 68.2017 127.807 68.2017H125.99ZM133.098 66.3273C133.098 67.8546 134.069 69.1273 135.689 69.1273C136.615 69.1273 137.321 68.7686 137.645 68.5141C137.841 68.3636 137.795 68.3058 137.691 68.1438L137.552 67.9471C137.413 67.7389 137.332 67.7851 137.147 67.9124C136.846 68.1091 136.407 68.3521 135.701 68.3521C134.729 68.3521 133.977 67.4149 133.954 66.524H137.841C137.957 66.524 138.073 66.4315 138.084 66.2926C138.096 66.2001 138.107 66.0612 138.107 65.9687C138.107 64.5687 137.089 63.539 135.689 63.539C134.069 63.539 133.098 64.8232 133.098 66.3273ZM133.965 65.8414C134.069 65.0083 134.787 64.3141 135.689 64.3141C136.603 64.3141 137.228 65.0546 137.251 65.8414H133.965ZM139.176 66.3158C139.176 67.843 140.218 69.1273 141.571 69.1273C142.578 69.1273 143.261 68.4331 143.261 68.4331L143.33 68.7802C143.376 68.9074 143.446 69 143.561 69H143.77C143.908 69 144.036 68.8843 144.036 68.7455V61.1555C144.036 61.0283 143.908 60.901 143.77 60.901H143.446C143.307 60.901 143.191 61.0283 143.191 61.1555V63.8745C143.191 63.8745 142.589 63.539 141.71 63.539C140.102 63.539 139.176 64.7538 139.176 66.3158ZM140.044 66.3273C140.044 65.2629 140.68 64.3141 141.826 64.3141C142.566 64.3141 143.191 64.615 143.191 64.615V67.4959C143.191 67.4959 142.636 68.3521 141.675 68.3521C140.704 68.3521 140.044 67.3686 140.044 66.3273ZM146.244 62.2778C146.603 62.2778 146.88 61.9886 146.88 61.653C146.88 61.2828 146.603 61.0051 146.244 61.0051C145.897 61.0051 145.619 61.2828 145.619 61.653C145.619 61.9886 145.897 62.2778 146.244 62.2778ZM145.839 68.7455C145.839 68.8843 145.955 69 146.094 69H146.441C146.568 69 146.695 68.8843 146.695 68.7455V63.9092C146.695 63.7819 146.568 63.6547 146.441 63.6547H146.094C145.955 63.6547 145.839 63.7819 145.839 63.9092V68.7455ZM148.159 66.3389C148.159 67.9471 149.269 69.1273 150.854 69.1273C151.745 69.1273 152.463 68.6413 152.868 68.0513C152.96 67.9124 152.914 67.7967 152.798 67.681L152.729 67.6116C152.578 67.4612 152.428 67.4149 152.278 67.5885C151.977 67.9356 151.63 68.3521 150.82 68.3521C149.825 68.3521 149.026 67.4612 149.026 66.3273C149.026 65.2166 149.836 64.3141 150.854 64.3141C151.398 64.3141 151.826 64.4761 152.197 64.8926C152.301 65.0083 152.405 65.1241 152.578 64.9736L152.763 64.8001C152.891 64.696 152.914 64.5455 152.81 64.4183C152.312 63.8513 151.664 63.539 150.866 63.539C149.316 63.539 148.159 64.7654 148.159 66.3389ZM153.874 67.3802C153.874 68.4562 154.592 69.1273 155.529 69.1273C156.35 69.1273 156.906 68.7223 157.183 68.4446L157.287 68.8033C157.322 68.919 157.368 69 157.507 69H157.727C157.866 69 157.982 68.8843 157.982 68.7455V65.7835C157.982 64.21 157.692 63.539 156.327 63.539C155.448 63.539 154.754 63.7704 154.487 63.8861C154.36 63.9439 154.279 64.0133 154.325 64.1753L154.441 64.4877C154.487 64.615 154.557 64.6844 154.696 64.6265C154.939 64.5455 155.552 64.3141 156.281 64.3141C157.044 64.3141 157.172 64.8001 157.16 65.7835C157.16 65.7835 156.582 65.61 156.015 65.61C154.638 65.61 153.874 66.362 153.874 67.3802ZM154.719 67.3802C154.719 66.6976 155.274 66.3389 156.015 66.3389C156.547 66.3389 156.975 66.4546 157.149 66.5472V67.6347C156.917 67.9818 156.339 68.3521 155.679 68.3521C155.089 68.3521 154.719 67.924 154.719 67.3802ZM160.084 64.3951V67.6463C160.084 68.4793 160.292 69.1273 161.31 69.1273C162.028 69.1273 162.583 68.8612 162.814 68.6992C162.953 68.6066 162.976 68.5256 162.907 68.3521L162.803 68.1091C162.745 67.9818 162.676 67.8777 162.467 68.005C162.247 68.1438 161.912 68.3521 161.414 68.3521C161.114 68.3521 160.94 68.1438 160.94 67.5885V64.3951H162.514C162.664 64.3951 162.78 64.2794 162.78 64.1406V63.9092C162.78 63.7588 162.664 63.6547 162.514 63.6547H160.94V62.1506C160.94 62.0117 160.836 61.8845 160.697 61.896L160.338 61.9192C160.211 61.9307 160.084 62.0349 160.084 62.1737V63.6547H159.378C159.216 63.6547 159.112 63.7588 159.112 63.9092V64.1406C159.112 64.2794 159.216 64.3951 159.378 64.3951H160.084ZM163.785 66.3273C163.785 67.8546 164.757 69.1273 166.377 69.1273C167.302 69.1273 168.008 68.7686 168.332 68.5141C168.529 68.3636 168.483 68.3058 168.378 68.1438L168.24 67.9471C168.101 67.7389 168.02 67.7851 167.835 67.9124C167.534 68.1091 167.094 68.3521 166.388 68.3521C165.417 68.3521 164.664 67.4149 164.641 66.524H168.529C168.645 66.524 168.76 66.4315 168.772 66.2926C168.783 66.2001 168.795 66.0612 168.795 65.9687C168.795 64.5687 167.777 63.539 166.377 63.539C164.757 63.539 163.785 64.8232 163.785 66.3273ZM164.653 65.8414C164.757 65.0083 165.474 64.3141 166.377 64.3141C167.291 64.3141 167.916 65.0546 167.939 65.8414H164.653ZM169.864 66.3158C169.864 67.843 170.905 69.1273 172.259 69.1273C173.266 69.1273 173.948 68.4331 173.948 68.4331L174.018 68.7802C174.064 68.9074 174.133 69 174.249 69H174.457C174.596 69 174.723 68.8843 174.723 68.7455V61.1555C174.723 61.0283 174.596 60.901 174.457 60.901H174.133C173.994 60.901 173.879 61.0283 173.879 61.1555V63.8745C173.879 63.8745 173.277 63.539 172.398 63.539C170.79 63.539 169.864 64.7538 169.864 66.3158ZM170.732 66.3273C170.732 65.2629 171.368 64.3141 172.513 64.3141C173.254 64.3141 173.879 64.615 173.879 64.615V67.4959C173.879 67.4959 173.323 68.3521 172.363 68.3521C171.391 68.3521 170.732 67.3686 170.732 66.3273ZM179.473 64.3951V67.6463C179.473 68.4793 179.681 69.1273 180.699 69.1273C181.416 69.1273 181.972 68.8612 182.203 68.6992C182.342 68.6066 182.365 68.5256 182.296 68.3521L182.192 68.1091C182.134 67.9818 182.064 67.8777 181.856 68.005C181.636 68.1438 181.301 68.3521 180.803 68.3521C180.502 68.3521 180.329 68.1438 180.329 67.5885V64.3951H181.902C182.053 64.3951 182.168 64.2794 182.168 64.1406V63.9092C182.168 63.7588 182.053 63.6547 181.902 63.6547H180.329V62.1506C180.329 62.0117 180.225 61.8845 180.086 61.896L179.727 61.9192C179.6 61.9307 179.473 62.0349 179.473 62.1737V63.6547H178.767C178.605 63.6547 178.501 63.7588 178.501 63.9092V64.1406C178.501 64.2794 178.605 64.3951 178.767 64.3951H179.473ZM183.162 66.3158C183.162 67.843 184.366 69.1273 185.847 69.1273C187.328 69.1273 188.531 67.843 188.531 66.3158C188.531 64.8117 187.328 63.539 185.847 63.539C184.366 63.539 183.162 64.8117 183.162 66.3158ZM184.007 66.3158C184.007 65.2282 184.794 64.3141 185.847 64.3141C186.899 64.3141 187.675 65.2282 187.675 66.3158C187.675 67.4265 186.899 68.3521 185.847 68.3521C184.794 68.3521 184.007 67.4265 184.007 66.3158ZM192.462 64.9621C192.462 67.2761 194.325 69.1157 196.639 69.1157C197.669 69.1157 198.629 68.6876 199.393 67.9934C199.474 67.9124 199.497 67.7504 199.404 67.681L199.138 67.4149C199.046 67.3223 198.953 67.3108 198.837 67.4033C198.224 67.924 197.634 68.2711 196.628 68.2711C194.8 68.2711 193.4 66.7323 193.4 64.9505C193.4 63.1572 194.8 61.6183 196.628 61.6183C197.472 61.6183 198.236 61.9654 198.837 62.4861C198.953 62.6018 199.046 62.6134 199.138 62.4977L199.451 62.1853C199.543 62.0927 199.532 61.9539 199.439 61.8613C198.652 61.1903 197.808 60.7853 196.639 60.7853C194.325 60.7853 192.462 62.6481 192.462 64.9621ZM200.516 67.3802C200.516 68.4562 201.233 69.1273 202.17 69.1273C202.992 69.1273 203.547 68.7223 203.825 68.4446L203.929 68.8033C203.964 68.919 204.01 69 204.149 69H204.369C204.507 69 204.623 68.8843 204.623 68.7455V65.7835C204.623 64.21 204.334 63.539 202.969 63.539C202.089 63.539 201.395 63.7704 201.129 63.8861C201.002 63.9439 200.921 64.0133 200.967 64.1753L201.083 64.4877C201.129 64.615 201.198 64.6844 201.337 64.6265C201.58 64.5455 202.193 64.3141 202.922 64.3141C203.686 64.3141 203.813 64.8001 203.802 65.7835C203.802 65.7835 203.223 65.61 202.656 65.61C201.279 65.61 200.516 66.362 200.516 67.3802ZM201.36 67.3802C201.36 66.6976 201.916 66.3389 202.656 66.3389C203.188 66.3389 203.617 66.4546 203.79 66.5472V67.6347C203.559 67.9818 202.98 68.3521 202.321 68.3521C201.731 68.3521 201.36 67.924 201.36 67.3802ZM206.378 68.7455C206.378 68.8843 206.494 69 206.633 69H206.98C207.107 69 207.234 68.8843 207.234 68.7455V65.0431C207.234 65.0431 207.651 64.3604 208.681 64.3604C208.935 64.3604 209.132 64.453 209.259 64.5108C209.387 64.5687 209.514 64.5571 209.572 64.3836L209.722 63.967C209.849 63.5968 209.19 63.539 208.785 63.539C207.674 63.539 207.142 64.2216 207.142 64.2216L207.049 63.8398C207.015 63.7125 206.922 63.6547 206.818 63.6547H206.633C206.494 63.6547 206.378 63.7819 206.378 63.9092V68.7455ZM213.569 68.7802C213.569 68.8959 213.673 69 213.789 69H214.252C214.368 69 214.472 68.8959 214.472 68.7802V61.1208C214.472 61.0051 214.368 60.901 214.252 60.901H213.789C213.673 60.901 213.569 61.0051 213.569 61.1208V68.7802ZM216.4 68.7455C216.4 68.8843 216.516 69 216.655 69H217.002C217.129 69 217.257 68.8843 217.257 68.7455V65.0546C217.257 65.0546 217.893 64.3141 218.899 64.3141C219.686 64.3141 220.033 64.7885 220.033 65.8067V68.7455C220.033 68.8843 220.149 69 220.288 69H220.635C220.762 69 220.89 68.8843 220.89 68.7455V65.9224C220.89 64.5455 220.508 63.539 218.957 63.539C217.847 63.539 217.164 64.2216 217.164 64.2216L217.048 63.8166C217.025 63.7009 216.956 63.6547 216.84 63.6547H216.655C216.516 63.6547 216.4 63.7819 216.4 63.9092V68.7455ZM224.13 69.1273C225.217 69.1273 225.946 68.4446 225.946 67.6C225.946 66.6281 225.148 66.281 224.222 65.853C223.574 65.5521 223.204 65.3786 223.204 64.9042C223.204 64.6497 223.401 64.3141 223.991 64.3141C224.489 64.3141 224.859 64.4877 225.09 64.6265C225.206 64.696 225.379 64.6844 225.46 64.534L225.576 64.3141C225.657 64.1637 225.634 64.048 225.518 63.9555C225.264 63.7704 224.685 63.539 223.991 63.539C222.753 63.539 222.336 64.3836 222.336 64.9389C222.336 65.853 223.146 66.2348 223.852 66.5819C224.627 66.9637 225.044 67.1719 225.044 67.681C225.044 68.0975 224.674 68.3521 224.13 68.3521C223.447 68.3521 222.984 68.0166 222.799 67.8777C222.649 67.7736 222.556 67.8199 222.487 67.9471L222.325 68.2479C222.279 68.3405 222.302 68.4215 222.36 68.4793C222.637 68.7339 223.239 69.1273 224.13 69.1273ZM227.28 66.7901C227.28 68.2017 227.65 69.1273 229.189 69.1273C230.149 69.1273 230.647 68.6413 230.843 68.4331L230.947 68.7686C230.982 68.9074 231.04 69 231.19 69H231.376C231.503 69 231.619 68.8843 231.619 68.7455V63.9092C231.619 63.7819 231.503 63.6547 231.376 63.6547H231.017C230.878 63.6547 230.774 63.7819 230.774 63.9092V67.5769C230.531 67.8546 230.057 68.3521 229.258 68.3521C228.483 68.3521 228.136 67.8661 228.136 66.8017V63.9092C228.136 63.7819 228.02 63.6547 227.881 63.6547H227.534C227.384 63.6547 227.28 63.7819 227.28 63.9092V66.7901ZM233.428 68.7455C233.428 68.8843 233.543 69 233.682 69H234.029C234.157 69 234.284 68.8843 234.284 68.7455V65.0431C234.284 65.0431 234.7 64.3604 235.73 64.3604C235.985 64.3604 236.181 64.453 236.309 64.5108C236.436 64.5687 236.563 64.5571 236.621 64.3836L236.771 63.967C236.899 63.5968 236.239 63.539 235.834 63.539C234.724 63.539 234.191 64.2216 234.191 64.2216L234.099 63.8398C234.064 63.7125 233.971 63.6547 233.867 63.6547H233.682C233.543 63.6547 233.428 63.7819 233.428 63.9092V68.7455ZM237.418 67.3802C237.418 68.4562 238.135 69.1273 239.072 69.1273C239.894 69.1273 240.449 68.7223 240.727 68.4446L240.831 68.8033C240.866 68.919 240.912 69 241.051 69H241.271C241.409 69 241.525 68.8843 241.525 68.7455V65.7835C241.525 64.21 241.236 63.539 239.871 63.539C238.991 63.539 238.297 63.7704 238.031 63.8861C237.904 63.9439 237.823 64.0133 237.869 64.1753L237.985 64.4877C238.031 64.615 238.1 64.6844 238.239 64.6265C238.482 64.5455 239.095 64.3141 239.824 64.3141C240.588 64.3141 240.715 64.8001 240.704 65.7835C240.704 65.7835 240.125 65.61 239.558 65.61C238.181 65.61 237.418 66.362 237.418 67.3802ZM238.262 67.3802C238.262 66.6976 238.818 66.3389 239.558 66.3389C240.09 66.3389 240.518 66.4546 240.692 66.5472V67.6347C240.461 67.9818 239.882 68.3521 239.223 68.3521C238.633 68.3521 238.262 67.924 238.262 67.3802ZM243.28 68.7455C243.28 68.8843 243.396 69 243.535 69H243.882C244.009 69 244.136 68.8843 244.136 68.7455V65.0546C244.136 65.0546 244.773 64.3141 245.779 64.3141C246.566 64.3141 246.913 64.7885 246.913 65.8067V68.7455C246.913 68.8843 247.029 69 247.168 69H247.515C247.642 69 247.769 68.8843 247.769 68.7455V65.9224C247.769 64.5455 247.388 63.539 245.837 63.539C244.727 63.539 244.044 64.2216 244.044 64.2216L243.928 63.8166C243.905 63.7009 243.836 63.6547 243.72 63.6547H243.535C243.396 63.6547 243.28 63.7819 243.28 63.9092V68.7455ZM249.17 66.3389C249.17 67.9471 250.281 69.1273 251.866 69.1273C252.757 69.1273 253.474 68.6413 253.879 68.0513C253.972 67.9124 253.925 67.7967 253.81 67.681L253.74 67.6116C253.59 67.4612 253.439 67.4149 253.289 67.5885C252.988 67.9356 252.641 68.3521 251.831 68.3521C250.836 68.3521 250.038 67.4612 250.038 66.3273C250.038 65.2166 250.848 64.3141 251.866 64.3141C252.41 64.3141 252.838 64.4761 253.208 64.8926C253.312 65.0083 253.416 65.1241 253.59 64.9736L253.775 64.8001C253.902 64.696 253.925 64.5455 253.821 64.4183C253.324 63.8513 252.676 63.539 251.878 63.539C250.327 63.539 249.17 64.7654 249.17 66.3389ZM254.91 66.3273C254.91 67.8546 255.882 69.1273 257.502 69.1273C258.427 69.1273 259.133 68.7686 259.457 68.5141C259.654 68.3636 259.608 68.3058 259.503 68.1438L259.365 67.9471C259.226 67.7389 259.145 67.7851 258.96 67.9124C258.659 68.1091 258.219 68.3521 257.513 68.3521C256.542 68.3521 255.79 67.4149 255.766 66.524H259.654C259.77 66.524 259.885 66.4315 259.897 66.2926C259.908 66.2001 259.92 66.0612 259.92 65.9687C259.92 64.5687 258.902 63.539 257.502 63.539C255.882 63.539 254.91 64.8232 254.91 66.3273ZM255.778 65.8414C255.882 65.0083 256.599 64.3141 257.502 64.3141C258.416 64.3141 259.041 65.0546 259.064 65.8414H255.778Z" fill="#A8A8A8"/>
</svg>
