<svg width="150" height="40" viewBox="0 0 150 40" fill="none" xmlns="http://www.w3.org/2000/svg">
<path fill-rule="evenodd" clip-rule="evenodd" d="M0 2C0 0.895431 0.895431 0 2 0H148C149.105 0 150 0.895431 150 2V38C150 39.1046 149.105 40 148 40H2C0.895429 40 0 39.1046 0 38V2Z" fill="#3662FF"/>
<path d="M54.568 19.812C54.568 22.212 56.5 24.12 58.9 24.12C59.968 24.12 61 23.748 61.816 22.956C61.9 22.872 61.924 22.716 61.828 22.632L61.084 21.864C61.012 21.792 60.88 21.78 60.784 21.864C60.28 22.272 59.668 22.548 58.948 22.548C57.412 22.548 56.26 21.276 56.26 19.776C56.26 18.264 57.4 16.98 58.936 16.98C59.608 16.98 60.28 17.244 60.784 17.688C60.88 17.784 61 17.784 61.084 17.688L61.816 16.932C61.912 16.836 61.912 16.692 61.804 16.596C60.988 15.864 60.112 15.48 58.9 15.48C56.5 15.48 54.568 17.412 54.568 19.812ZM62.4951 24H63.5391C63.7311 24 63.8391 23.88 63.8871 23.76L64.4751 22.464H68.0631L68.6511 23.76C68.7351 23.928 68.8191 24 68.9991 24H70.0431C70.2231 24 70.3191 23.844 70.2471 23.688L66.5511 15.612C66.5151 15.54 66.4671 15.48 66.3471 15.48H66.2271C66.1191 15.48 66.0591 15.54 66.0231 15.612L62.2911 23.688C62.2191 23.844 62.3151 24 62.4951 24ZM65.0631 21.132L66.2391 18.492H66.2751L67.4751 21.132H65.0631ZM71.3401 23.772C71.3401 23.892 71.4361 24 71.5681 24H75.9601C76.0921 24 76.1881 23.892 76.1881 23.772V22.788C76.1881 22.668 76.0921 22.56 75.9601 22.56H72.9001V15.828C72.9001 15.708 72.7921 15.6 72.6721 15.6H71.5681C71.4361 15.6 71.3401 15.708 71.3401 15.828V23.772ZM77.3987 23.772C77.3987 23.892 77.4947 24 77.6267 24H82.0187C82.1507 24 82.2467 23.892 82.2467 23.772V22.788C82.2467 22.668 82.1507 22.56 82.0187 22.56H78.9587V15.828C78.9587 15.708 78.8507 15.6 78.7307 15.6H77.6267C77.4947 15.6 77.3987 15.708 77.3987 15.828V23.772ZM85.9857 20.82C85.9857 22.644 87.4377 24.12 89.3217 24.12C91.2177 24.12 92.6697 22.644 92.6697 20.82V15.828C92.6697 15.708 92.5617 15.6 92.4417 15.6H91.3017C91.1697 15.6 91.0737 15.708 91.0737 15.828V20.748C91.0737 21.756 90.3657 22.56 89.3217 22.56C88.2777 22.56 87.5817 21.756 87.5817 20.736V15.828C87.5817 15.708 87.4857 15.6 87.3537 15.6H86.2137C86.0937 15.6 85.9857 15.708 85.9857 15.828V20.82ZM94.2987 23.184C94.5387 23.412 95.4267 24.12 96.9387 24.12C98.6307 24.12 99.6987 22.98 99.6987 21.744C99.6987 20.196 98.3547 19.5 97.1907 19.032C96.2187 18.636 95.7747 18.252 95.7747 17.688C95.7747 17.304 96.1467 16.848 96.8307 16.848C97.4907 16.848 98.4027 17.448 98.4987 17.508C98.6427 17.604 98.8227 17.508 98.9187 17.364L99.3747 16.68C99.4587 16.56 99.4227 16.356 99.3027 16.284C99.0627 16.104 98.1267 15.48 96.9027 15.48C94.9947 15.48 94.2027 16.716 94.2027 17.784C94.2027 19.2 95.3307 19.92 96.4587 20.376C97.4667 20.784 97.9827 21.204 97.9827 21.816C97.9827 22.332 97.5147 22.74 96.8907 22.74C96.1107 22.74 95.1387 22.032 95.0787 21.996C94.9707 21.912 94.7667 21.912 94.6707 22.08L94.2387 22.824C94.1307 23.016 94.1907 23.076 94.2987 23.184Z" fill="white"/>
</svg>
