<?xml version="1.0" encoding="UTF-8"?>
<svg width="982px" height="273px" viewBox="0 0 982 273" version="1.1" xmlns="http://www.w3.org/2000/svg" xmlns:xlink="http://www.w3.org/1999/xlink">
    <!-- Generator: Sketch 51.3 (57544) - http://www.bohemiancoding.com/sketch -->
    <title>Artboard 2</title>
    <desc>Created with Sketch.</desc>
    <defs></defs>
    <g id="Artboard-2" stroke="none" stroke-width="1" fill="none" fill-rule="evenodd">
        <g id="liability-compare" transform="translate(1.000000, 34.000000)">
            <path d="M9.31508033,90.8449474 L9.31508033,4.29715789 C9.31508033,2.98978947 10.3596454,1.81315789 11.7959224,1.81315789 L27.3338283,1.81315789 C28.6395346,1.81315789 29.8146704,2.98978947 29.8146704,4.29715789 L29.8146704,74.1106316 L60.890482,74.1106316 C62.326759,74.1106316 63.3713241,75.2872632 63.3713241,76.5946316 L63.3713241,90.8449474 C63.3713241,92.1523158 62.326759,93.3289474 60.890482,93.3289474 L11.7959224,93.3289474 C10.3596454,93.3289474 9.31508033,92.1523158 9.31508033,90.8449474 Z M72.9029806,90.4527368 L72.9029806,35.8047368 C72.9029806,34.1051579 74.208687,32.9285263 75.7755346,32.9285263 L89.8771634,32.9285263 C91.4440111,32.9285263 92.7497175,34.1051579 92.7497175,35.8047368 L92.7497175,90.4527368 C92.7497175,92.0215789 91.4440111,93.3289474 89.8771634,93.3289474 L75.7755346,93.3289474 C74.208687,93.3289474 72.9029806,92.0215789 72.9029806,90.4527368 Z M82.6957784,24.5613684 C76.4283878,24.5613684 71.4667036,19.4626316 71.4667036,13.318 C71.4667036,7.04263158 76.4283878,1.81315789 82.6957784,1.81315789 C88.963169,1.81315789 94.0554238,7.04263158 94.0554238,13.318 C94.0554238,19.4626316 88.963169,24.5613684 82.6957784,24.5613684 Z M103.848222,74.8950526 C103.848222,63.2594737 112.335313,54.7615789 126.04523,54.7615789 C132.834903,54.7615789 137.927158,57.3763158 137.927158,57.3763158 C137.927158,51.4931579 136.621452,48.094 129.570637,48.094 C125.392377,48.094 118.341562,49.0091579 114.424443,50.1857895 C112.074172,50.9702105 111.029607,49.2706316 110.768465,47.0481053 L109.332188,37.7657895 C108.940476,35.1510526 110.376753,33.9744211 111.68246,33.5822105 C113.118737,33.0592632 123.694958,31.6211579 131.790338,31.6211579 C150.461939,31.6211579 156.990471,39.2038947 156.990471,57.1148421 L156.990471,90.4527368 C156.990471,92.0215789 155.554194,93.3289474 154.117917,93.3289474 L147.719956,93.3289474 C146.805961,93.3289474 145.761396,93.0674737 144.977972,91.3678947 L143.019413,87.3150526 C139.363435,90.4527368 134.27118,94.7670526 124.739524,94.7670526 C112.857596,94.7670526 103.848222,86.9228421 103.848222,74.8950526 Z M123.303247,73.4569474 C123.303247,77.1175789 126.306371,80.1245263 129.962349,80.1245263 C133.618327,80.1245263 136.752022,77.1175789 136.752022,73.4569474 C136.752022,69.9270526 133.618327,66.7893684 129.962349,66.7893684 C126.306371,66.7893684 123.303247,69.9270526 123.303247,73.4569474 Z M171.353241,90.4527368 L171.353241,4.68936842 C171.353241,3.25126316 172.658947,1.81315789 174.225795,1.81315789 L188.327424,1.81315789 C189.894271,1.81315789 191.199978,3.25126316 191.199978,4.68936842 L191.199978,35.5432632 C193.158537,33.9744211 199.034216,31.6211579 205.171036,31.6211579 C221.231224,31.6211579 235.071712,41.8186316 235.071712,63.1287368 C235.071712,80.386 222.275789,94.7670526 205.301607,94.7670526 C191.983402,94.7670526 184.932587,85.354 184.932587,85.354 L183.235169,90.322 C182.712886,92.0215789 181.537751,93.3289474 180.101474,93.3289474 L174.225795,93.3289474 C172.658947,93.3289474 171.353241,92.0215789 171.353241,90.4527368 Z M189.763701,62.998 C189.763701,70.45 195.117097,75.8102105 202.559623,75.8102105 C209.741008,75.8102105 215.224975,70.45 215.224975,62.998 C215.224975,55.6767368 209.741008,50.4472632 202.559623,50.4472632 C195.117097,50.4472632 189.763701,55.6767368 189.763701,62.998 Z M246.431357,90.4527368 L246.431357,35.8047368 C246.431357,34.1051579 247.737064,32.9285263 249.303911,32.9285263 L263.40554,32.9285263 C264.972388,32.9285263 266.278094,34.1051579 266.278094,35.8047368 L266.278094,90.4527368 C266.278094,92.0215789 264.972388,93.3289474 263.40554,93.3289474 L249.303911,93.3289474 C247.737064,93.3289474 246.431357,92.0215789 246.431357,90.4527368 Z M256.224155,24.5613684 C249.956765,24.5613684 244.99508,19.4626316 244.99508,13.318 C244.99508,7.04263158 249.956765,1.81315789 256.224155,1.81315789 C262.491546,1.81315789 267.583801,7.04263158 267.583801,13.318 C267.583801,19.4626316 262.491546,24.5613684 256.224155,24.5613684 Z M281.032576,90.4527368 L281.032576,4.68936842 C281.032576,3.25126316 282.338283,1.81315789 283.90513,1.81315789 L298.006759,1.81315789 C299.573607,1.81315789 300.879313,3.25126316 300.879313,4.68936842 L300.879313,90.4527368 C300.879313,92.0215789 299.573607,93.3289474 298.006759,93.3289474 L283.90513,93.3289474 C282.338283,93.3289474 281.032576,92.0215789 281.032576,90.4527368 Z M315.633795,90.4527368 L315.633795,35.8047368 C315.633795,34.1051579 316.939501,32.9285263 318.506349,32.9285263 L332.607978,32.9285263 C334.174825,32.9285263 335.480532,34.1051579 335.480532,35.8047368 L335.480532,90.4527368 C335.480532,92.0215789 334.174825,93.3289474 332.607978,93.3289474 L318.506349,93.3289474 C316.939501,93.3289474 315.633795,92.0215789 315.633795,90.4527368 Z M325.426593,24.5613684 C319.159202,24.5613684 314.197518,19.4626316 314.197518,13.318 C314.197518,7.04263158 319.159202,1.81315789 325.426593,1.81315789 C331.693983,1.81315789 336.786238,7.04263158 336.786238,13.318 C336.786238,19.4626316 331.693983,24.5613684 325.426593,24.5613684 Z M353.890992,73.7184211 L353.890992,50.8394737 L348.929307,50.8394737 C347.49303,50.8394737 346.317895,49.5321053 346.317895,47.9632632 L346.317895,35.8047368 C346.317895,34.1051579 347.49303,32.9285263 348.929307,32.9285263 L353.890992,32.9285263 L353.890992,16.1942105 C353.890992,14.6253684 355.196698,13.318 356.763546,13.318 L371.126316,13.318 C372.562593,13.318 373.737729,14.6253684 373.737729,16.1942105 L373.737729,32.9285263 L385.880798,32.9285263 C387.447645,32.9285263 388.753352,34.1051579 388.753352,35.8047368 L388.753352,47.9632632 C388.753352,49.5321053 387.447645,50.8394737 385.880798,50.8394737 L373.737729,50.8394737 L373.737729,71.8881053 C373.737729,74.7643158 375.174006,76.0716842 377.785418,76.0716842 C379.874548,76.0716842 383.791668,75.1565263 385.227945,74.7643158 C386.794792,74.3721053 388.231069,75.0257895 388.622781,76.5946316 L391.234194,87.9687368 C391.625906,89.7990526 390.973053,90.5834737 389.275634,91.3678947 C385.227945,93.0674737 378.438271,94.7670526 372.04031,94.7670526 C360.550094,94.7670526 353.890992,87.4457895 353.890992,73.7184211 Z M414.214626,88.7531579 L396.326449,36.8506316 C395.673596,34.8895789 396.58759,32.9285263 398.807291,32.9285263 L414.345197,32.9285263 C415.389762,32.9285263 416.434327,33.5822105 416.695468,34.6281053 L424.921418,66.6586316 L425.18256,66.6586316 L436.803346,34.6281053 C437.195058,33.5822105 438.239623,32.9285263 439.414759,32.9285263 L454.299812,32.9285263 C456.650083,32.9285263 457.825219,34.7588421 456.911224,36.8506316 L421.26544,122.614 C420.873729,123.529158 419.829163,124.444316 418.784598,124.444316 L404.160687,124.444316 C401.940986,124.444316 400.76585,122.483263 401.679845,120.391474 L414.214626,88.7531579 Z" id="Liability" fill="#3E537E"></path>
            <path d="M466.529928,47.7017895 C466.529928,21.5544211 487.551801,0.505789474 513.665928,0.505789474 C526.722992,0.505789474 536.385219,4.55863158 545.264022,12.6643158 C546.439158,13.7102105 546.439158,15.2790526 545.394593,16.3249474 L535.210083,26.9146316 C534.296089,27.8297895 532.859812,27.8297895 531.945817,26.9146316 C526.592421,22.2081053 520.716742,20.2470526 514.318781,20.2470526 C499.564299,20.2470526 488.726936,32.5363158 488.726936,47.1788421 C488.726936,61.6906316 499.69487,73.7184211 514.449352,73.7184211 C521.630737,73.7184211 527.245274,71.4958947 531.945817,67.4430526 C532.859812,66.6586316 534.55723,66.6586316 535.340654,67.5737895 L545.525163,78.4249474 C546.439158,79.3401053 546.308587,81.0396842 545.394593,81.9548421 C536.515789,90.5834737 525.286715,94.6363158 513.665928,94.6363158 C487.551801,94.6363158 466.529928,73.8491579 466.529928,47.7017895 Z M553.881684,62.998 C553.881684,46.0022105 568.113884,31.6211579 585.349208,31.6211579 C602.584532,31.6211579 616.686161,46.0022105 616.686161,62.998 C616.686161,80.2552632 602.584532,94.7670526 585.349208,94.7670526 C568.113884,94.7670526 553.881684,80.2552632 553.881684,62.998 Z M572.683856,62.998 C572.683856,70.0577895 578.298393,76.0716842 585.349208,76.0716842 C592.269452,76.0716842 597.883989,70.0577895 597.883989,62.998 C597.883989,56.0689474 592.269452,50.1857895 585.349208,50.1857895 C578.298393,50.1857895 572.683856,56.0689474 572.683856,62.998 Z M627.784665,90.4527368 L627.784665,35.8047368 C627.784665,34.1051579 628.959801,32.9285263 630.657219,32.9285263 L636.402327,32.9285263 C637.446892,32.9285263 638.491457,33.5822105 638.883169,34.6281053 L641.364011,40.7727368 C645.28113,36.8506316 650.242814,31.6211579 660.035612,31.6211579 C668.392133,31.6211579 672.439823,34.7588421 677.923789,40.7727368 C681.057485,37.3735789 686.672022,31.6211579 696.987102,31.6211579 C715.528133,31.6211579 721.664953,45.0870526 721.664953,62.2135789 L721.664953,90.4527368 C721.664953,92.0215789 720.359247,93.3289474 718.792399,93.3289474 L704.69077,93.3289474 C702.993352,93.3289474 701.818216,92.0215789 701.818216,90.4527368 L701.818216,61.2984211 C701.818216,55.1537895 699.990227,50.1857895 692.939413,50.1857895 C687.716587,50.1857895 684.452321,54.3693684 684.452321,60.2525263 L684.452321,90.4527368 C684.452321,92.0215789 683.407756,93.3289474 681.710338,93.3289474 L667.478139,93.3289474 C665.911291,93.3289474 664.605584,92.0215789 664.605584,90.4527368 L664.605584,61.2984211 C664.605584,55.1537895 663.561019,50.1857895 656.901917,50.1857895 C650.765097,50.1857895 647.631402,54.3693684 647.631402,60.514 L647.631402,90.4527368 C647.631402,92.0215789 646.195125,93.3289474 644.758848,93.3289474 L630.657219,93.3289474 C628.959801,93.3289474 627.784665,92.0215789 627.784665,90.4527368 Z M755.613319,91.2371579 L755.613319,121.568105 C755.613319,123.136947 754.307612,124.444316 752.740765,124.444316 L738.639136,124.444316 C737.072288,124.444316 735.766582,123.136947 735.766582,121.568105 L735.766582,35.8047368 C735.766582,34.3666316 737.072288,32.9285263 738.639136,32.9285263 L744.514814,32.9285263 C745.951091,32.9285263 747.126227,34.3666316 747.64851,35.9354737 L749.345928,40.9034737 C749.345928,40.9034737 756.396742,31.6211579 769.714947,31.6211579 C786.68913,31.6211579 799.354482,45.7407368 799.354482,62.998 C799.354482,84.3081053 785.644565,94.7670526 769.584377,94.7670526 C763.708698,94.7670526 757.571878,92.6752632 755.613319,91.2371579 Z M753.9159,63.1287368 C753.9159,70.45 759.269296,76.0716842 766.711823,76.0716842 C773.893208,76.0716842 779.507745,70.45 779.507745,63.1287368 C779.507745,55.9382105 773.893208,50.1857895 766.711823,50.1857895 C759.269296,50.1857895 753.9159,55.9382105 753.9159,63.1287368 Z M807.18872,74.8950526 C807.18872,63.2594737 815.675812,54.7615789 829.385729,54.7615789 C836.175402,54.7615789 841.267657,57.3763158 841.267657,57.3763158 C841.267657,51.4931579 839.96195,48.094 832.911136,48.094 C828.732875,48.094 821.682061,49.0091579 817.764942,50.1857895 C815.41467,50.9702105 814.370105,49.2706316 814.108964,47.0481053 L812.672687,37.7657895 C812.280975,35.1510526 813.717252,33.9744211 815.022958,33.5822105 C816.459235,33.0592632 827.035457,31.6211579 835.130837,31.6211579 C853.802438,31.6211579 860.33097,39.2038947 860.33097,57.1148421 L860.33097,90.4527368 C860.33097,92.0215789 858.894693,93.3289474 857.458416,93.3289474 L851.060454,93.3289474 C850.14646,93.3289474 849.101895,93.0674737 848.318471,91.3678947 L846.359911,87.3150526 C842.703934,90.4527368 837.611679,94.7670526 828.080022,94.7670526 C816.198094,94.7670526 807.18872,86.9228421 807.18872,74.8950526 Z M826.643745,73.4569474 C826.643745,77.1175789 829.64687,80.1245263 833.302848,80.1245263 C836.958825,80.1245263 840.092521,77.1175789 840.092521,73.4569474 C840.092521,69.9270526 836.958825,66.7893684 833.302848,66.7893684 C829.64687,66.7893684 826.643745,69.9270526 826.643745,73.4569474 Z M874.563169,90.4527368 L874.563169,35.8047368 C874.563169,34.1051579 875.868875,32.9285263 877.435723,32.9285263 L883.703114,32.9285263 C885.269961,32.9285263 886.053385,33.7129474 886.445097,34.7588421 L889.18708,41.4264211 C891.798493,36.5891579 896.368465,31.6211579 904.202704,31.6211579 C909.68667,31.6211579 913.73436,33.0592632 915.954061,34.7588421 C916.998626,35.5432632 916.998626,36.8506316 916.345773,38.0272632 L910.339524,49.9243158 C909.68667,51.1009474 908.642105,52.0161053 906.944687,51.3624211 C905.900122,50.9702105 903.680421,50.4472632 902.374715,50.4472632 C897.804742,50.4472632 894.409906,53.7156842 894.409906,58.8144211 L894.409906,90.4527368 C894.409906,92.2830526 893.365341,93.3289474 891.14564,93.3289474 L877.435723,93.3289474 C875.868875,93.3289474 874.563169,92.0215789 874.563169,90.4527368 Z M921.046316,63.1287368 C921.046316,46.1329474 934.495091,31.6211579 952.383269,31.6211579 C967.660033,31.6211579 980.978238,43.2567368 980.978238,59.8603158 C980.978238,60.7754737 980.847668,62.8672632 980.717097,63.7824211 C980.586526,65.3512632 979.150249,66.3971579 977.844543,66.3971579 L940.631911,66.3971579 C940.631911,71.1036842 944.940742,76.8561053 953.166693,76.8561053 C957.083812,76.8561053 962.045496,74.8950526 964.656909,73.0647368 C965.962615,71.8881053 967.529463,71.8881053 968.443457,73.0647368 L975.10256,81.8241053 C976.016554,83.0007368 976.277695,84.8310526 974.971989,86.1384211 C969.749163,91.4986316 962.176066,94.7670526 952.64441,94.7670526 C934.625662,94.7670526 921.046316,81.8241053 921.046316,63.1287368 Z M942.851612,54.8923158 L960.609219,54.8923158 C960.348078,50.8394737 956.953241,47.4403158 951.860986,47.4403158 C946.899302,47.4403158 943.635036,50.8394737 942.851612,54.8923158 Z" id="Compare" fill="#5199F6"></path>
            <path d="M11.9264931,187.415895 L11.9264931,150.744211 L1.93783934,150.744211 C1.21970083,150.744211 0.697418283,150.155895 0.697418283,149.502211 L0.697418283,144.142 C0.697418283,143.488316 1.21970083,142.9 1.93783934,142.9 L30.4675235,142.9 C31.185662,142.9 31.7079446,143.488316 31.7079446,144.142 L31.7079446,149.502211 C31.7079446,150.155895 31.185662,150.744211 30.4675235,150.744211 L20.4788698,150.744211 L20.4788698,187.415895 C20.4788698,188.069579 19.8913019,188.657895 19.2384488,188.657895 L13.1669141,188.657895 C12.5140609,188.657895 11.9264931,188.069579 11.9264931,187.415895 Z M36.103823,187.219789 L36.103823,144.338105 C36.103823,143.619053 36.8219615,142.9 37.5401,142.9 L42.8282108,142.9 C43.6116346,142.9 44.2644878,143.619053 44.2644878,144.338105 L44.2644878,160.353368 C45.7660501,159.046 48.3774629,157.804 51.9681554,157.804 C61.5650972,157.804 64.17651,164.471579 64.17651,172.054316 L64.17651,187.219789 C64.17651,188.004211 63.4583715,188.657895 62.740233,188.657895 L57.4521222,188.657895 C56.6686983,188.657895 56.0158451,188.004211 56.0158451,187.219789 L56.0158451,171.988947 C56.0158451,167.805368 54.1225709,165.256 50.5318784,165.256 C47.0064712,165.256 45.0479116,167.478526 44.2644878,170.550842 L44.2644878,187.219789 C44.2644878,188.069579 43.8727759,188.657895 42.6976402,188.657895 L37.5401,188.657895 C36.8219615,188.657895 36.103823,188.004211 36.103823,187.219789 Z M69.2252415,173.557789 C69.2252415,165.059895 75.4926321,157.804 84.4367208,157.804 C92.270959,157.804 98.2772083,163.621789 98.2772083,171.792842 C98.2772083,172.250421 98.211923,173.296316 98.1466377,173.753895 C98.0813523,174.538316 97.3632138,175.126632 96.7103607,175.126632 L77.3859064,175.126632 C77.4511917,178.852632 80.5196017,182.121053 84.893718,182.121053 C87.8968426,182.121053 89.9859728,181.009789 91.3569645,179.898526 C92.075103,179.310211 92.8585269,179.244842 93.3155241,179.898526 L95.8616515,183.297684 C96.3839341,183.886 96.4492194,184.605053 95.7310809,185.258737 C93.1196681,187.481263 89.398405,189.376947 84.5020061,189.376947 C75.4926321,189.376947 69.2252415,182.186421 69.2252415,173.557789 Z M77.8429036,169.766421 L90.0512582,169.766421 C89.9206875,166.824842 87.5704161,164.536947 84.2408648,164.536947 C80.584887,164.536947 78.2346155,166.759474 77.8429036,169.766421 Z M119.27732,187.415895 L119.27732,144.142 C119.27732,143.488316 119.799602,142.9 120.517741,142.9 L126.52399,142.9 C127.176843,142.9 127.764411,143.488316 127.764411,144.142 L127.764411,180.813684 L144.412167,180.813684 C145.130306,180.813684 145.652588,181.402 145.652588,182.055684 L145.652588,187.415895 C145.652588,188.069579 145.130306,188.657895 144.412167,188.657895 L120.517741,188.657895 C119.799602,188.657895 119.27732,188.069579 119.27732,187.415895 Z M149.787325,187.219789 L149.787325,159.895789 C149.787325,159.046 150.505464,158.457684 151.223602,158.457684 L156.511713,158.457684 C157.229852,158.457684 157.94799,159.046 157.94799,159.895789 L157.94799,187.219789 C157.94799,188.004211 157.229852,188.657895 156.511713,188.657895 L151.223602,188.657895 C150.505464,188.657895 149.787325,188.004211 149.787325,187.219789 Z M153.76973,153.293579 C150.831891,153.293579 148.61219,150.940316 148.61219,148.064105 C148.61219,145.187895 150.831891,142.9 153.76973,142.9 C156.707569,142.9 158.992555,145.187895 158.992555,148.064105 C158.992555,150.940316 156.707569,153.293579 153.76973,153.293579 Z M163.127292,179.048737 C163.127292,173.688526 167.501409,169.570316 175.139791,169.570316 C178.208201,169.570316 180.950184,170.420105 180.950184,170.420105 C181.080755,166.563368 179.970905,164.733053 176.771924,164.733053 C174.029941,164.733053 170.047536,165.321368 168.284833,165.844316 C167.305553,166.171158 166.717985,165.452105 166.587414,164.536947 L165.934561,161.137789 C165.67342,160.026526 166.260988,159.503579 166.913841,159.307474 C167.566694,159.046 172.332522,157.804 177.228921,157.804 C186.630007,157.804 188.588567,162.706632 188.588567,170.943053 L188.588567,187.219789 C188.588567,188.004211 187.935714,188.657895 187.15229,188.657895 L184.932589,188.657895 C184.410306,188.657895 184.018594,188.461789 183.626883,187.612 L182.778173,185.585579 C181.01547,187.285158 178.012345,189.376947 173.311802,189.376947 C167.305553,189.376947 163.127292,185.520211 163.127292,179.048737 Z M170.961531,179.048737 C170.961531,181.598105 172.528378,183.297684 175.335647,183.297684 C178.012345,183.297684 180.362617,181.205895 180.754329,180.094632 L180.754329,175.649579 C180.754329,175.649579 178.730484,174.734421 176.314927,174.734421 C172.854805,174.734421 170.961531,176.368632 170.961531,179.048737 Z M195.595858,187.219789 L195.595858,144.338105 C195.595858,143.619053 196.313996,142.9 197.032135,142.9 L202.320246,142.9 C203.103669,142.9 203.756523,143.619053 203.756523,144.338105 L203.756523,159.111368 C205.127514,158.523053 208.130639,157.804 211.133764,157.804 C220.077852,157.804 225.757675,164.733053 225.757675,173.557789 C225.757675,182.186421 219.816711,189.376947 211.590761,189.376947 C204.996944,189.376947 201.536822,184.866526 201.536822,184.866526 L200.818683,187.219789 C200.492257,188.069579 200.03526,188.657895 199.317121,188.657895 L197.032135,188.657895 C196.313996,188.657895 195.595858,188.004211 195.595858,187.219789 Z M203.756523,177.741368 C204.409376,179.440947 206.498506,181.924947 210.415625,181.924947 C215.116168,181.924947 217.531725,177.806737 217.531725,173.557789 C217.531725,169.308842 214.985597,165.256 210.023913,165.256 C206.237365,165.256 203.756523,166.955579 203.756523,166.955579 L203.756523,177.741368 Z M231.263404,187.219789 L231.263404,159.895789 C231.263404,159.046 231.981542,158.457684 232.699681,158.457684 L237.987792,158.457684 C238.70593,158.457684 239.424069,159.046 239.424069,159.895789 L239.424069,187.219789 C239.424069,188.004211 238.70593,188.657895 237.987792,188.657895 L232.699681,188.657895 C231.981542,188.657895 231.263404,188.004211 231.263404,187.219789 Z M235.245808,153.293579 C232.307969,153.293579 230.088268,150.940316 230.088268,148.064105 C230.088268,145.187895 232.307969,142.9 235.245808,142.9 C238.183648,142.9 240.468634,145.187895 240.468634,148.064105 C240.468634,150.940316 238.183648,153.293579 235.245808,153.293579 Z M246.757786,187.219789 L246.757786,144.338105 C246.757786,143.619053 247.475925,142.9 248.194063,142.9 L253.482174,142.9 C254.200313,142.9 254.918451,143.619053 254.918451,144.338105 L254.918451,187.219789 C254.918451,188.004211 254.200313,188.657895 253.482174,188.657895 L248.194063,188.657895 C247.475925,188.657895 246.757786,188.004211 246.757786,187.219789 Z M262.252169,187.219789 L262.252169,159.895789 C262.252169,159.046 262.970307,158.457684 263.688446,158.457684 L268.976557,158.457684 C269.694695,158.457684 270.412834,159.046 270.412834,159.895789 L270.412834,187.219789 C270.412834,188.004211 269.694695,188.657895 268.976557,188.657895 L263.688446,188.657895 C262.970307,188.657895 262.252169,188.004211 262.252169,187.219789 Z M266.234573,153.293579 C263.296734,153.293579 261.077033,150.940316 261.077033,148.064105 C261.077033,145.187895 263.296734,142.9 266.234573,142.9 C269.172413,142.9 271.457399,145.187895 271.457399,148.064105 C271.457399,150.940316 269.172413,153.293579 266.234573,153.293579 Z M279.705111,179.637053 L279.705111,165.778947 L276.767272,165.778947 C275.983848,165.778947 275.39628,165.059895 275.39628,164.340842 L275.39628,159.895789 C275.39628,159.046 275.983848,158.457684 276.767272,158.457684 L279.705111,158.457684 L279.705111,150.090526 C279.705111,149.306105 280.42325,148.652421 281.141388,148.652421 L286.494784,148.652421 C287.278208,148.652421 287.865776,149.306105 287.865776,150.090526 L287.865776,158.457684 L294.91659,158.457684 C295.700014,158.457684 296.352867,159.046 296.352867,159.895789 L296.352867,164.340842 C296.352867,165.059895 295.700014,165.778947 294.91659,165.778947 L287.865776,165.778947 L287.865776,179.375579 C287.865776,181.402 288.845056,181.859579 290.346618,181.859579 C291.652324,181.859579 294.133166,181.140526 294.91659,180.879053 C295.765299,180.552211 296.483438,180.944421 296.614009,181.663474 L297.462718,185.650947 C297.658574,186.435368 297.332147,187.023684 296.614009,187.415895 C295.569443,188.004211 291.260612,189.376947 288.126917,189.376947 C281.402529,189.376947 279.705111,184.866526 279.705111,179.637053 Z M308.648269,186.892947 L299.247183,160.418737 C298.855471,159.372842 299.377754,158.457684 300.55289,158.457684 L306.82028,158.457684 C307.473133,158.457684 307.930131,158.784526 308.060701,159.307474 L313.479383,177.349158 L313.609953,177.349158 L320.464912,159.307474 C320.921909,158.523053 321.444192,158.457684 322.358186,158.457684 L327.907438,158.457684 C329.082574,158.457684 329.670142,159.438211 329.213145,160.418737 L311.455538,203.300421 C311.259682,203.758 310.737399,204.215579 310.149832,204.215579 L303.882441,204.215579 C302.707305,204.215579 302.119737,203.235053 302.576735,202.189158 L308.648269,186.892947 Z M347.993555,187.415895 L347.993555,144.142 C347.993555,143.488316 348.581123,142.9 349.233976,142.9 L355.305511,142.9 C355.958364,142.9 356.545932,143.488316 356.545932,144.142 L356.545932,187.415895 C356.545932,188.069579 355.958364,188.657895 355.305511,188.657895 L349.233976,188.657895 C348.581123,188.657895 347.993555,188.069579 347.993555,187.415895 Z M364.532503,187.219789 L364.532503,159.895789 C364.532503,159.046 365.250641,158.457684 365.96878,158.457684 L368.449622,158.457684 C369.16776,158.457684 369.494187,158.784526 369.690043,159.372842 L370.799893,162.183684 C371.909744,160.941684 374.717012,157.804 380.527406,157.804 C390.124348,157.804 392.60519,164.275474 392.60519,171.596737 L392.60519,187.219789 C392.60519,188.004211 391.887051,188.657895 391.168913,188.657895 L385.880802,188.657895 C385.097378,188.657895 384.444525,188.004211 384.444525,187.219789 L384.444525,171.596737 C384.444525,167.674632 382.877677,165.256 379.221699,165.256 C375.30458,165.256 373.411306,167.870737 372.693168,169.962526 L372.693168,187.219789 C372.693168,188.331053 372.23617,188.657895 370.799893,188.657895 L365.96878,188.657895 C365.250641,188.657895 364.532503,188.004211 364.532503,187.219789 Z M408.491284,189.376947 C403.464315,189.376947 400.330619,187.808105 398.633201,186.631474 C398.241489,186.37 397.915063,185.650947 398.241489,184.997263 L400.200049,181.075158 C400.526475,180.356105 401.244614,180.094632 401.962752,180.552211 C403.333744,181.402 405.488159,182.513263 408.621855,182.513263 C410.906841,182.513263 411.951406,181.663474 411.951406,180.356105 C411.951406,178.983368 410.253988,177.741368 406.271583,176.172526 C400.46119,173.95 397.849777,171.204526 397.849777,166.628737 C397.849777,162.052947 401.309899,157.804 408.68714,157.804 C413.126542,157.804 415.999096,158.980632 417.631229,160.026526 C418.284082,160.549474 418.675794,161.333895 418.284082,162.118316 L416.586664,165.582842 C416.129666,166.301895 415.346243,166.432632 414.693389,166.171158 C413.257112,165.517474 411.167982,164.667684 408.68714,164.667684 C406.663295,164.667684 405.814586,165.648211 405.814586,166.628737 C405.814586,168.001474 407.316148,168.720526 410.123417,169.897158 C415.93381,172.250421 420.112071,174.342211 420.112071,180.356105 C420.112071,185.128 416.064381,189.376947 408.491284,189.376947 Z M425.095517,175.911053 L425.095517,159.895789 C425.095517,159.046 425.74837,158.457684 426.531794,158.457684 L431.819905,158.457684 C432.603329,158.457684 433.256182,159.046 433.256182,159.895789 L433.256182,175.911053 C433.256182,179.898526 434.627174,181.924947 438.348437,181.924947 C441.677988,181.924947 443.244836,178.918 443.701833,176.303263 L443.701833,159.895789 C443.701833,158.719158 444.093545,158.457684 445.333966,158.457684 L450.426221,158.457684 C451.209645,158.457684 451.862498,159.046 451.862498,159.895789 L451.862498,187.219789 C451.862498,188.004211 451.209645,188.657895 450.426221,188.657895 L448.075949,188.657895 C447.357811,188.657895 446.835528,188.134947 446.639672,187.546632 L445.790963,184.997263 C444.224115,186.631474 441.09042,189.376947 436.455163,189.376947 C427.119362,189.376947 425.095517,183.559158 425.095517,175.911053 Z M459.13093,187.219789 L459.13093,159.895789 C459.13093,159.046 459.849069,158.457684 460.567207,158.457684 L462.982764,158.457684 C463.700902,158.457684 464.027329,158.784526 464.28847,159.438211 L465.398321,162.379789 C466.442886,160.876316 469.250154,157.804 473.885412,157.804 C477.476105,157.804 480.413944,158.784526 479.565235,160.745579 L477.606675,165.190632 C477.280249,165.909684 476.56211,166.171158 475.843972,165.844316 C475.125833,165.517474 474.407695,165.256 473.036703,165.256 C469.772437,165.256 467.813877,167.347789 467.291595,168.393684 L467.291595,187.219789 C467.291595,188.331053 466.573456,188.657895 465.594177,188.657895 L460.567207,188.657895 C459.849069,188.657895 459.13093,188.004211 459.13093,187.219789 Z M480.762133,179.048737 C480.762133,173.688526 485.136249,169.570316 492.774631,169.570316 C495.843041,169.570316 498.585025,170.420105 498.585025,170.420105 C498.715595,166.563368 497.605745,164.733053 494.406764,164.733053 C491.664781,164.733053 487.682376,165.321368 485.919673,165.844316 C484.940393,166.171158 484.352825,165.452105 484.222254,164.536947 L483.569401,161.137789 C483.30826,160.026526 483.895828,159.503579 484.548681,159.307474 C485.201534,159.046 489.967363,157.804 494.863761,157.804 C504.264847,157.804 506.223407,162.706632 506.223407,170.943053 L506.223407,187.219789 C506.223407,188.004211 505.570554,188.657895 504.78713,188.657895 L502.567429,188.657895 C502.045146,188.657895 501.653435,188.461789 501.261723,187.612 L500.413013,185.585579 C498.65031,187.285158 495.647185,189.376947 490.946642,189.376947 C484.940393,189.376947 480.762133,185.520211 480.762133,179.048737 Z M488.596371,179.048737 C488.596371,181.598105 490.163218,183.297684 492.970487,183.297684 C495.647185,183.297684 497.997457,181.205895 498.389169,180.094632 L498.389169,175.649579 C498.389169,175.649579 496.365324,174.734421 493.949767,174.734421 C490.489645,174.734421 488.596371,176.368632 488.596371,179.048737 Z M513.230698,187.219789 L513.230698,159.895789 C513.230698,159.046 513.948836,158.457684 514.666975,158.457684 L517.147817,158.457684 C517.865956,158.457684 518.192382,158.784526 518.388238,159.372842 L519.498089,162.183684 C520.607939,160.941684 523.415208,157.804 529.225601,157.804 C538.822543,157.804 541.303385,164.275474 541.303385,171.596737 L541.303385,187.219789 C541.303385,188.004211 540.585246,188.657895 539.867108,188.657895 L534.578997,188.657895 C533.795573,188.657895 533.14272,188.004211 533.14272,187.219789 L533.14272,171.596737 C533.14272,167.674632 531.575872,165.256 527.919895,165.256 C524.002776,165.256 522.109501,167.870737 521.391363,169.962526 L521.391363,187.219789 C521.391363,188.331053 520.934366,188.657895 519.498089,188.657895 L514.666975,188.657895 C513.948836,188.657895 513.230698,188.004211 513.230698,187.219789 Z M546.417402,173.557789 C546.417402,164.667684 553.468216,157.804 562.412305,157.804 C567.112848,157.804 570.768826,159.830421 573.64138,162.902737 C574.294233,163.556421 573.967806,164.406211 573.314953,165.059895 L570.57297,168.066842 C569.920117,168.785895 569.201978,168.459053 568.61441,167.870737 C567.178133,166.498 565.41543,165.256 562.608161,165.256 C557.907618,165.256 554.643352,168.916632 554.643352,173.557789 C554.643352,178.264316 557.842333,181.924947 562.542876,181.924947 C565.872427,181.924947 567.63513,180.094632 568.940837,178.591158 C569.397834,178.068211 570.311828,177.937474 570.834111,178.395053 L573.77195,180.879053 C574.490089,181.532737 574.816515,182.251789 574.294233,183.036211 C571.748105,187.023684 567.700416,189.376947 562.34702,189.376947 C553.533502,189.376947 546.417402,182.644 546.417402,173.557789 Z M576.992693,173.557789 C576.992693,165.059895 583.260084,157.804 592.204172,157.804 C600.03841,157.804 606.04466,163.621789 606.04466,171.792842 C606.04466,172.250421 605.979374,173.296316 605.914089,173.753895 C605.848804,174.538316 605.130665,175.126632 604.477812,175.126632 L585.153358,175.126632 C585.218643,178.852632 588.287053,182.121053 592.661169,182.121053 C595.664294,182.121053 597.753424,181.009789 599.124416,179.898526 C599.842554,179.310211 600.625978,179.244842 601.082976,179.898526 L603.629103,183.297684 C604.151385,183.886 604.216671,184.605053 603.498532,185.258737 C600.88712,187.481263 597.165856,189.376947 592.269458,189.376947 C583.260084,189.376947 576.992693,182.186421 576.992693,173.557789 Z M585.610355,169.766421 L597.81871,169.766421 C597.688139,166.824842 595.337867,164.536947 592.008316,164.536947 C588.352338,164.536947 586.002067,166.759474 585.610355,169.766421 Z M627.044771,187.415895 L627.044771,144.142 C627.044771,143.488316 627.567054,142.9 628.285192,142.9 L643.627242,142.9 C651.657336,142.9 658.251153,149.436842 658.251153,157.346421 C658.251153,165.452105 651.657336,172.054316 643.692527,172.054316 L635.531862,172.054316 L635.531862,187.415895 C635.531862,188.069579 634.944295,188.657895 634.291441,188.657895 L628.285192,188.657895 C627.567054,188.657895 627.044771,188.069579 627.044771,187.415895 Z M635.531862,164.079368 L643.366101,164.079368 C647.022079,164.079368 649.829347,161.137789 649.829347,157.281053 C649.829347,153.685789 647.022079,150.940316 643.366101,150.940316 L635.531862,150.940316 L635.531862,164.079368 Z M659.31748,173.557789 C659.31748,165.059895 665.584871,157.804 674.52896,157.804 C682.363198,157.804 688.369447,163.621789 688.369447,171.792842 C688.369447,172.250421 688.304162,173.296316 688.238877,173.753895 C688.173591,174.538316 687.455453,175.126632 686.8026,175.126632 L667.478145,175.126632 C667.543431,178.852632 670.611841,182.121053 674.985957,182.121053 C677.989082,182.121053 680.078212,181.009789 681.449203,179.898526 C682.167342,179.310211 682.950766,179.244842 683.407763,179.898526 L685.95389,183.297684 C686.476173,183.886 686.541458,184.605053 685.82332,185.258737 C683.211907,187.481263 679.490644,189.376947 674.594245,189.376947 C665.584871,189.376947 659.31748,182.186421 659.31748,173.557789 Z M667.935143,169.766421 L680.143497,169.766421 C680.012926,166.824842 677.662655,164.536947 674.333104,164.536947 C670.677126,164.536947 668.326854,166.759474 667.935143,169.766421 Z M691.59019,173.492421 C691.59019,164.994526 698.510434,157.804 706.997525,157.804 C715.549902,157.804 722.470146,164.994526 722.470146,173.492421 C722.470146,182.121053 715.549902,189.376947 706.997525,189.376947 C698.510434,189.376947 691.59019,182.121053 691.59019,173.492421 Z M699.163287,173.492421 C699.163287,178.133579 702.623409,181.924947 706.997525,181.924947 C711.371641,181.924947 714.897049,178.133579 714.897049,173.492421 C714.897049,168.916632 711.371641,165.256 706.997525,165.256 C702.623409,165.256 699.163287,168.916632 699.163287,173.492421 Z M758.202977,173.623158 C758.202977,182.447895 752.262013,189.376947 743.252639,189.376947 C740.249514,189.376947 737.37696,188.657895 736.005969,188.134947 L736.005969,202.777474 C736.005969,203.496526 735.28783,204.215579 734.569692,204.215579 L729.281581,204.215579 C728.498157,204.215579 727.845304,203.496526 727.845304,202.777474 L727.845304,159.895789 C727.845304,159.111368 728.498157,158.457684 729.281581,158.457684 L731.697138,158.457684 C732.415276,158.457684 732.872273,159.046 733.133415,159.895789 L733.916838,162.314421 C733.916838,162.314421 737.37696,157.804 743.774921,157.804 C752.000872,157.804 758.202977,164.471579 758.202977,173.623158 Z M736.005969,169.439579 L736.005969,180.225368 C736.005969,180.225368 738.486811,181.924947 742.273359,181.924947 C747.235043,181.924947 749.781171,177.872105 749.781171,173.623158 C749.781171,169.374211 747.365614,165.256 742.665071,165.256 C738.747952,165.256 736.658822,167.74 736.005969,169.439579 Z M763.773991,187.219789 L763.773991,144.338105 C763.773991,143.619053 764.49213,142.9 765.210268,142.9 L770.498379,142.9 C771.216517,142.9 771.934656,143.619053 771.934656,144.338105 L771.934656,187.219789 C771.934656,188.004211 771.216517,188.657895 770.498379,188.657895 L765.210268,188.657895 C764.49213,188.657895 763.773991,188.004211 763.773991,187.219789 Z M777.440385,173.557789 C777.440385,165.059895 783.707775,157.804 792.651864,157.804 C800.486102,157.804 806.492351,163.621789 806.492351,171.792842 C806.492351,172.250421 806.427066,173.296316 806.361781,173.753895 C806.296495,174.538316 805.578357,175.126632 804.925504,175.126632 L785.601049,175.126632 C785.666335,178.852632 788.734745,182.121053 793.108861,182.121053 C796.111986,182.121053 798.201116,181.009789 799.572108,179.898526 C800.290246,179.310211 801.07367,179.244842 801.530667,179.898526 L804.076795,183.297684 C804.599077,183.886 804.664362,184.605053 803.946224,185.258737 C801.334811,187.481263 797.613548,189.376947 792.717149,189.376947 C783.707775,189.376947 777.440385,182.186421 777.440385,173.557789 Z M786.058047,169.766421 L798.266401,169.766421 C798.135831,166.824842 795.785559,164.536947 792.456008,164.536947 C788.80003,164.536947 786.449759,166.759474 786.058047,169.766421 Z" id="The-Liability-Insura" fill="#3E537E"></path>
        </g>
    </g>
</svg>