<?xml version="1.0" encoding="UTF-8"?>
<svg width="167px" height="47px" viewBox="0 0 167 47" version="1.1" xmlns="http://www.w3.org/2000/svg" xmlns:xlink="http://www.w3.org/1999/xlink">
    <!-- Generator: Sketch 43 (38999) - http://www.bohemiancoding.com/sketch -->
    <title>Group</title>
    <desc>Created with Sketch.</desc>
    <defs></defs>
    <g id="Page-1" stroke="none" stroke-width="1" fill="none" fill-rule="evenodd">
        <g id="Group">
            <path d="M48.7509998,12.8606875 C48.7509998,19.0606875 53.7419998,23.9896875 59.9419998,23.9896875 C62.7009998,23.9896875 65.3669998,23.0286875 67.4749998,20.9826875 C67.6919998,20.7656875 67.7229998,20.3626875 67.5059998,20.1456875 L65.0879998,17.5726875 C64.9019998,17.3556875 64.4989998,17.3556875 64.2819998,17.5416875 C63.1659998,18.5026875 61.8329998,19.0296875 60.1279998,19.0296875 C56.6249998,19.0296875 54.0209998,16.1776875 54.0209998,12.7366875 C54.0209998,9.2646875 56.5939998,6.3506875 60.0969998,6.3506875 C61.6159998,6.3506875 63.0109998,6.8156875 64.2819998,7.9316875 C64.4989998,8.1486875 64.8399998,8.1486875 65.0569998,7.9316875 L67.4749998,5.4206875 C67.7229998,5.1726875 67.7229998,4.8006875 67.4439998,4.5526875 C65.3359998,2.6306875 63.0419998,1.6696875 59.9419998,1.6696875 C53.7419998,1.6696875 48.7509998,6.6606875 48.7509998,12.8606875 Z M68.4553748,16.4876875 C68.4553748,12.4576875 71.8343748,9.0476875 75.9263748,9.0476875 C80.0183748,9.0476875 83.3663748,12.4576875 83.3663748,16.4876875 C83.3663748,20.5796875 80.0183748,24.0206875 75.9263748,24.0206875 C71.8343748,24.0206875 68.4553748,20.5796875 68.4553748,16.4876875 Z M72.9193748,16.4876875 C72.9193748,18.1616875 74.2523748,19.5876875 75.9263748,19.5876875 C77.5693748,19.5876875 78.9023748,18.1616875 78.9023748,16.4876875 C78.9023748,14.8446875 77.5693748,13.4496875 75.9263748,13.4496875 C74.2523748,13.4496875 72.9193748,14.8446875 72.9193748,16.4876875 Z M85.4007497,22.9976875 C85.4007497,23.3696875 85.6797497,23.6796875 86.0827497,23.6796875 L89.4307497,23.6796875 C89.7717497,23.6796875 90.1127497,23.3696875 90.1127497,22.9976875 L90.1127497,15.8986875 C90.1127497,14.4416875 90.8567497,13.4496875 92.3137497,13.4496875 C93.8947497,13.4496875 94.1427497,14.6276875 94.1427497,16.0846875 L94.1427497,22.9976875 C94.1427497,23.3696875 94.4527497,23.6796875 94.8247497,23.6796875 L98.2037497,23.6796875 C98.6067497,23.6796875 98.8547497,23.3696875 98.8547497,22.9976875 L98.8547497,15.8366875 C98.8547497,14.4416875 99.6297497,13.4496875 100.86975,13.4496875 C102.54375,13.4496875 102.97775,14.6276875 102.97775,16.0846875 L102.97775,22.9976875 C102.97775,23.3696875 103.25675,23.6796875 103.65975,23.6796875 L107.00775,23.6796875 C107.37975,23.6796875 107.68975,23.3696875 107.68975,22.9976875 L107.68975,16.3016875 C107.68975,12.2406875 106.23275,9.0476875 101.83075,9.0476875 C99.3817497,9.0476875 98.0487497,10.4116875 97.3047497,11.2176875 C96.0027497,9.7916875 95.0417497,9.0476875 93.0577497,9.0476875 C90.7327497,9.0476875 89.5547497,10.2876875 88.6247497,11.2176875 L88.0357497,9.7606875 C87.9427497,9.5126875 87.6947497,9.3576875 87.4467497,9.3576875 L86.0827497,9.3576875 C85.6797497,9.3576875 85.4007497,9.6366875 85.4007497,10.0396875 L85.4007497,22.9976875 Z M115.149125,23.1836875 L115.149125,30.3756875 C115.149125,30.7476875 114.839125,31.0576875 114.467125,31.0576875 L111.119125,31.0576875 C110.747125,31.0576875 110.437125,30.7476875 110.437125,30.3756875 L110.437125,10.0396875 C110.437125,9.6986875 110.747125,9.3576875 111.119125,9.3576875 L112.514125,9.3576875 C112.855125,9.3576875 113.134125,9.6986875 113.258125,10.0706875 L113.661125,11.2486875 C113.661125,11.2486875 115.335125,9.0476875 118.497125,9.0476875 C122.527125,9.0476875 125.534125,12.3956875 125.534125,16.4876875 C125.534125,21.5406875 122.279125,24.0206875 118.466125,24.0206875 C117.071125,24.0206875 115.614125,23.5246875 115.149125,23.1836875 Z M114.746125,16.5186875 C114.746125,18.2546875 116.017125,19.5876875 117.784125,19.5876875 C119.489125,19.5876875 120.822125,18.2546875 120.822125,16.5186875 C120.822125,14.8136875 119.489125,13.4496875 117.784125,13.4496875 C116.017125,13.4496875 114.746125,14.8136875 114.746125,16.5186875 Z M126.7935,19.3086875 C126.7935,16.5496875 128.8085,14.5346875 132.0635,14.5346875 C133.6755,14.5346875 134.8845,15.1546875 134.8845,15.1546875 C134.8845,13.7596875 134.5745,12.9536875 132.9005,12.9536875 C131.9085,12.9536875 130.2345,13.1706875 129.3045,13.4496875 C128.7465,13.6356875 128.4985,13.2326875 128.4365,12.7056875 L128.0955,10.5046875 C128.0025,9.8846875 128.3435,9.6056875 128.6535,9.5126875 C128.9945,9.3886875 131.5055,9.0476875 133.4275,9.0476875 C137.8605,9.0476875 139.4105,10.8456875 139.4105,15.0926875 L139.4105,22.9976875 C139.4105,23.3696875 139.0695,23.6796875 138.7285,23.6796875 L137.2095,23.6796875 C136.9925,23.6796875 136.7445,23.6176875 136.5585,23.2146875 L136.0935,22.2536875 C135.2255,22.9976875 134.0165,24.0206875 131.7535,24.0206875 C128.9325,24.0206875 126.7935,22.1606875 126.7935,19.3086875 Z M131.4125,18.9676875 C131.4125,19.8356875 132.1255,20.5486875 132.9935,20.5486875 C133.8615,20.5486875 134.6055,19.8356875 134.6055,18.9676875 C134.6055,18.1306875 133.8615,17.3866875 132.9935,17.3866875 C132.1255,17.3866875 131.4125,18.1306875 131.4125,18.9676875 Z M142.188875,22.9976875 C142.188875,23.3696875 142.498875,23.6796875 142.870875,23.6796875 L146.125875,23.6796875 C146.652875,23.6796875 146.900875,23.4316875 146.900875,22.9976875 L146.900875,15.4956875 C146.900875,14.2866875 147.706875,13.5116875 148.791875,13.5116875 C149.101875,13.5116875 149.628875,13.6356875 149.876875,13.7286875 C150.279875,13.8836875 150.527875,13.6666875 150.682875,13.3876875 L152.108875,10.5666875 C152.263875,10.2876875 152.263875,9.9776875 152.015875,9.7916875 C151.488875,9.3886875 150.527875,9.0476875 149.225875,9.0476875 C147.365875,9.0476875 146.280875,10.2256875 145.660875,11.3726875 L145.009875,9.7916875 C144.916875,9.5436875 144.730875,9.3576875 144.358875,9.3576875 L142.870875,9.3576875 C142.498875,9.3576875 142.188875,9.6366875 142.188875,10.0396875 L142.188875,22.9976875 Z M152.22125,16.5186875 C152.22125,12.4886875 155.41425,9.0476875 159.66125,9.0476875 C163.28825,9.0476875 166.45025,11.8066875 166.45025,15.7436875 C166.45025,15.9606875 166.41925,16.4566875 166.38825,16.6736875 C166.35725,17.0456875 166.01625,17.2936875 165.70625,17.2936875 L156.87125,17.2936875 C156.87125,18.4096875 157.89425,19.7736875 159.84725,19.7736875 C160.77725,19.7736875 161.95525,19.3086875 162.57525,18.8746875 C162.88525,18.5956875 163.25725,18.5956875 163.47425,18.8746875 L165.05525,20.9516875 C165.27225,21.2306875 165.33425,21.6646875 165.02425,21.9746875 C163.78425,23.2456875 161.98625,24.0206875 159.72325,24.0206875 C155.44525,24.0206875 152.22125,20.9516875 152.22125,16.5186875 Z M157.39825,14.5656875 L161.61425,14.5656875 C161.55225,13.6046875 160.74625,12.7986875 159.53725,12.7986875 C158.35925,12.7986875 157.58425,13.6046875 157.39825,14.5656875 Z" id="VanCompare" fill="#419BF9"></path>
            <path d="M1.72,43.4896875 C1.72,43.5896875 1.81,43.6796875 1.91,43.6796875 L2.84,43.6796875 C2.94,43.6796875 3.03,43.5896875 3.03,43.4896875 L3.03,37.8796875 L4.56,37.8796875 C4.67,37.8796875 4.75,37.7896875 4.75,37.6896875 L4.75,36.8696875 C4.75,36.7696875 4.67,36.6796875 4.56,36.6796875 L0.19,36.6796875 C0.08,36.6796875 0,36.7696875 0,36.8696875 L0,37.6896875 C0,37.7896875 0.08,37.8796875 0.19,37.8796875 L1.72,37.8796875 L1.72,43.4896875 Z M5.61,43.4596875 C5.61,43.5796875 5.72,43.6796875 5.83,43.6796875 L6.62,43.6796875 C6.8,43.6796875 6.86,43.5896875 6.86,43.4596875 L6.86,40.9096875 C6.98,40.4396875 7.28,40.0996875 7.82,40.0996875 C8.37,40.0996875 8.66,40.4896875 8.66,41.1296875 L8.66,43.4596875 C8.66,43.5796875 8.76,43.6796875 8.88,43.6796875 L9.69,43.6796875 C9.8,43.6796875 9.91,43.5796875 9.91,43.4596875 L9.91,41.1396875 C9.91,39.9796875 9.51,38.9596875 8.04,38.9596875 C7.49,38.9596875 7.09,39.1496875 6.86,39.3496875 L6.86,36.8996875 C6.86,36.7896875 6.76,36.6796875 6.64,36.6796875 L5.83,36.6796875 C5.72,36.6796875 5.61,36.7896875 5.61,36.8996875 L5.61,43.4596875 Z M10.87,41.3696875 C10.87,40.0696875 11.83,38.9596875 13.2,38.9596875 C14.4,38.9596875 15.32,39.8496875 15.32,41.0996875 C15.32,41.1696875 15.31,41.3296875 15.3,41.3996875 C15.29,41.5196875 15.18,41.6096875 15.08,41.6096875 L12.12,41.6096875 C12.13,42.1796875 12.6,42.6796875 13.27,42.6796875 C13.73,42.6796875 14.05,42.5096875 14.26,42.3396875 C14.37,42.2496875 14.49,42.2396875 14.56,42.3396875 L14.95,42.8596875 C15.03,42.9496875 15.04,43.0596875 14.93,43.1596875 C14.53,43.4996875 13.96,43.7896875 13.21,43.7896875 C11.83,43.7896875 10.87,42.6896875 10.87,41.3696875 Z M12.19,40.7896875 L14.06,40.7896875 C14.04,40.3396875 13.68,39.9896875 13.17,39.9896875 C12.61,39.9896875 12.25,40.3296875 12.19,40.7896875 Z M21.16,43.6696875 L18.07,36.9396875 C18.01,36.8096875 18.09,36.6796875 18.24,36.6796875 L19.26,36.6796875 C19.35,36.6796875 19.41,36.7396875 19.43,36.7896875 L21.36,41.0896875 L21.41,41.0896875 L23.34,36.7896875 C23.36,36.7396875 23.42,36.6796875 23.51,36.6796875 L24.53,36.6796875 C24.68,36.6796875 24.76,36.8096875 24.7,36.9396875 L21.6,43.6696875 C21.57,43.7296875 21.52,43.7796875 21.43,43.7796875 L21.33,43.7796875 C21.24,43.7796875 21.19,43.7296875 21.16,43.6696875 Z M24.22,42.2096875 C24.22,41.3896875 24.89,40.7596875 26.06,40.7596875 C26.53,40.7596875 26.95,40.8896875 26.95,40.8896875 C26.97,40.2996875 26.8,40.0196875 26.31,40.0196875 C25.89,40.0196875 25.28,40.1096875 25.01,40.1896875 C24.86,40.2396875 24.77,40.1296875 24.75,39.9896875 L24.65,39.4696875 C24.61,39.2996875 24.7,39.2196875 24.8,39.1896875 C24.9,39.1496875 25.63,38.9596875 26.38,38.9596875 C27.82,38.9596875 28.12,39.7096875 28.12,40.9696875 L28.12,43.4596875 C28.12,43.5796875 28.02,43.6796875 27.9,43.6796875 L27.56,43.6796875 C27.48,43.6796875 27.42,43.6496875 27.36,43.5196875 L27.23,43.2096875 C26.96,43.4696875 26.5,43.7896875 25.78,43.7896875 C24.86,43.7896875 24.22,43.1996875 24.22,42.2096875 Z M25.42,42.2096875 C25.42,42.5996875 25.66,42.8596875 26.09,42.8596875 C26.5,42.8596875 26.86,42.5396875 26.92,42.3696875 L26.92,41.6896875 C26.92,41.6896875 26.61,41.5496875 26.24,41.5496875 C25.71,41.5496875 25.42,41.7996875 25.42,42.2096875 Z M29.38,43.4596875 C29.38,43.5796875 29.49,43.6796875 29.6,43.6796875 L30.34,43.6796875 C30.56,43.6796875 30.63,43.6296875 30.63,43.4596875 L30.63,40.8196875 C30.74,40.4996875 31.03,40.0996875 31.63,40.0996875 C32.19,40.0996875 32.43,40.4696875 32.43,41.0696875 L32.43,43.4596875 C32.43,43.5796875 32.53,43.6796875 32.65,43.6796875 L33.46,43.6796875 C33.57,43.6796875 33.68,43.5796875 33.68,43.4596875 L33.68,41.0696875 C33.68,39.9496875 33.3,38.9596875 31.83,38.9596875 C30.94,38.9596875 30.51,39.4396875 30.34,39.6296875 L30.17,39.1996875 C30.14,39.1096875 30.09,39.0596875 29.98,39.0596875 L29.6,39.0596875 C29.49,39.0596875 29.38,39.1496875 29.38,39.2796875 L29.38,43.4596875 Z M37.56,43.4896875 C37.56,43.5896875 37.65,43.6796875 37.75,43.6796875 L38.68,43.6796875 C38.78,43.6796875 38.87,43.5896875 38.87,43.4896875 L38.87,36.8696875 C38.87,36.7696875 38.78,36.6796875 38.68,36.6796875 L37.75,36.6796875 C37.65,36.6796875 37.56,36.7696875 37.56,36.8696875 L37.56,43.4896875 Z M40.28,43.4596875 C40.28,43.5796875 40.39,43.6796875 40.5,43.6796875 L41.24,43.6796875 C41.46,43.6796875 41.53,43.6296875 41.53,43.4596875 L41.53,40.8196875 C41.64,40.4996875 41.93,40.0996875 42.53,40.0996875 C43.09,40.0996875 43.33,40.4696875 43.33,41.0696875 L43.33,43.4596875 C43.33,43.5796875 43.43,43.6796875 43.55,43.6796875 L44.36,43.6796875 C44.47,43.6796875 44.58,43.5796875 44.58,43.4596875 L44.58,41.0696875 C44.58,39.9496875 44.2,38.9596875 42.73,38.9596875 C41.84,38.9596875 41.41,39.4396875 41.24,39.6296875 L41.07,39.1996875 C41.04,39.1096875 40.99,39.0596875 40.88,39.0596875 L40.5,39.0596875 C40.39,39.0596875 40.28,39.1496875 40.28,39.2796875 L40.28,43.4596875 Z M47.2,43.7896875 C48.36,43.7896875 48.98,43.1396875 48.98,42.4096875 C48.98,41.4896875 48.34,41.1696875 47.45,40.8096875 C47.02,40.6296875 46.79,40.5196875 46.79,40.3096875 C46.79,40.1596875 46.92,40.0096875 47.23,40.0096875 C47.61,40.0096875 47.93,40.1396875 48.15,40.2396875 C48.25,40.2796875 48.37,40.2596875 48.44,40.1496875 L48.7,39.6196875 C48.76,39.4996875 48.7,39.3796875 48.6,39.2996875 C48.35,39.1396875 47.91,38.9596875 47.23,38.9596875 C46.1,38.9596875 45.57,39.6096875 45.57,40.3096875 C45.57,41.0096875 45.97,41.4296875 46.86,41.7696875 C47.47,42.0096875 47.73,42.1996875 47.73,42.4096875 C47.73,42.6096875 47.57,42.7396875 47.22,42.7396875 C46.74,42.7396875 46.41,42.5696875 46.2,42.4396875 C46.09,42.3696875 45.98,42.4096875 45.93,42.5196875 L45.63,43.1196875 C45.58,43.2196875 45.63,43.3296875 45.69,43.3696875 C45.95,43.5496875 46.43,43.7896875 47.2,43.7896875 Z M49.93,41.7296875 C49.93,42.8996875 50.24,43.7896875 51.67,43.7896875 C52.38,43.7896875 52.86,43.3696875 53.1,43.1196875 L53.23,43.5096875 C53.26,43.5996875 53.34,43.6796875 53.45,43.6796875 L53.81,43.6796875 C53.93,43.6796875 54.03,43.5796875 54.03,43.4596875 L54.03,39.2796875 C54.03,39.1496875 53.93,39.0596875 53.81,39.0596875 L53.03,39.0596875 C52.84,39.0596875 52.78,39.0996875 52.78,39.2796875 L52.78,41.7896875 C52.71,42.1896875 52.47,42.6496875 51.96,42.6496875 C51.39,42.6496875 51.18,42.3396875 51.18,41.7296875 L51.18,39.2796875 C51.18,39.1496875 51.08,39.0596875 50.96,39.0596875 L50.15,39.0596875 C50.03,39.0596875 49.93,39.1496875 49.93,39.2796875 L49.93,41.7296875 Z M55.33,43.4596875 C55.33,43.5796875 55.44,43.6796875 55.55,43.6796875 L56.32,43.6796875 C56.47,43.6796875 56.58,43.6296875 56.58,43.4596875 L56.58,40.5796875 C56.66,40.4196875 56.96,40.0996875 57.46,40.0996875 C57.67,40.0996875 57.78,40.1396875 57.89,40.1896875 C58,40.2396875 58.11,40.1996875 58.16,40.0896875 L58.46,39.4096875 C58.59,39.1096875 58.14,38.9596875 57.59,38.9596875 C56.88,38.9596875 56.45,39.4296875 56.29,39.6596875 L56.12,39.2096875 C56.08,39.1096875 56.03,39.0596875 55.92,39.0596875 L55.55,39.0596875 C55.44,39.0596875 55.33,39.1496875 55.33,39.2796875 L55.33,43.4596875 Z M58.83,42.2096875 C58.83,41.3896875 59.5,40.7596875 60.67,40.7596875 C61.14,40.7596875 61.56,40.8896875 61.56,40.8896875 C61.58,40.2996875 61.41,40.0196875 60.92,40.0196875 C60.5,40.0196875 59.89,40.1096875 59.62,40.1896875 C59.47,40.2396875 59.38,40.1296875 59.36,39.9896875 L59.26,39.4696875 C59.22,39.2996875 59.31,39.2196875 59.41,39.1896875 C59.51,39.1496875 60.24,38.9596875 60.99,38.9596875 C62.43,38.9596875 62.73,39.7096875 62.73,40.9696875 L62.73,43.4596875 C62.73,43.5796875 62.63,43.6796875 62.51,43.6796875 L62.17,43.6796875 C62.09,43.6796875 62.03,43.6496875 61.97,43.5196875 L61.84,43.2096875 C61.57,43.4696875 61.11,43.7896875 60.39,43.7896875 C59.47,43.7896875 58.83,43.1996875 58.83,42.2096875 Z M60.03,42.2096875 C60.03,42.5996875 60.27,42.8596875 60.7,42.8596875 C61.11,42.8596875 61.47,42.5396875 61.53,42.3696875 L61.53,41.6896875 C61.53,41.6896875 61.22,41.5496875 60.85,41.5496875 C60.32,41.5496875 60.03,41.7996875 60.03,42.2096875 Z M63.99,43.4596875 C63.99,43.5796875 64.1,43.6796875 64.21,43.6796875 L64.95,43.6796875 C65.17,43.6796875 65.24,43.6296875 65.24,43.4596875 L65.24,40.8196875 C65.35,40.4996875 65.64,40.0996875 66.24,40.0996875 C66.8,40.0996875 67.04,40.4696875 67.04,41.0696875 L67.04,43.4596875 C67.04,43.5796875 67.14,43.6796875 67.26,43.6796875 L68.07,43.6796875 C68.18,43.6796875 68.29,43.5796875 68.29,43.4596875 L68.29,41.0696875 C68.29,39.9496875 67.91,38.9596875 66.44,38.9596875 C65.55,38.9596875 65.12,39.4396875 64.95,39.6296875 L64.78,39.1996875 C64.75,39.1096875 64.7,39.0596875 64.59,39.0596875 L64.21,39.0596875 C64.1,39.0596875 63.99,39.1496875 63.99,39.2796875 L63.99,43.4596875 Z M69.26,41.3696875 C69.26,42.7596875 70.35,43.7896875 71.7,43.7896875 C72.52,43.7896875 73.14,43.4296875 73.53,42.8196875 C73.61,42.6996875 73.56,42.5896875 73.45,42.4896875 L73,42.1096875 C72.92,42.0396875 72.78,42.0596875 72.71,42.1396875 C72.51,42.3696875 72.24,42.6496875 71.73,42.6496875 C71.01,42.6496875 70.52,42.0896875 70.52,41.3696875 C70.52,40.6596875 71.02,40.0996875 71.74,40.0996875 C72.17,40.0996875 72.44,40.2896875 72.66,40.4996875 C72.75,40.5896875 72.86,40.6396875 72.96,40.5296875 L73.38,40.0696875 C73.48,39.9696875 73.53,39.8396875 73.43,39.7396875 C72.99,39.2696875 72.43,38.9596875 71.71,38.9596875 C70.34,38.9596875 69.26,40.0096875 69.26,41.3696875 Z M74.13,41.3696875 C74.13,40.0696875 75.09,38.9596875 76.46,38.9596875 C77.66,38.9596875 78.58,39.8496875 78.58,41.0996875 C78.58,41.1696875 78.57,41.3296875 78.56,41.3996875 C78.55,41.5196875 78.44,41.6096875 78.34,41.6096875 L75.38,41.6096875 C75.39,42.1796875 75.86,42.6796875 76.53,42.6796875 C76.99,42.6796875 77.31,42.5096875 77.52,42.3396875 C77.63,42.2496875 77.75,42.2396875 77.82,42.3396875 L78.21,42.8596875 C78.29,42.9496875 78.3,43.0596875 78.19,43.1596875 C77.79,43.4996875 77.22,43.7896875 76.47,43.7896875 C75.09,43.7896875 74.13,42.6896875 74.13,41.3696875 Z M75.45,40.7896875 L77.32,40.7896875 C77.3,40.3396875 76.94,39.9896875 76.43,39.9896875 C75.87,39.9896875 75.51,40.3296875 75.45,40.7896875 Z M81.76,40.1896875 C81.76,42.1896875 83.37,43.7796875 85.37,43.7796875 C86.26,43.7796875 87.12,43.4696875 87.8,42.8096875 C87.87,42.7396875 87.89,42.6096875 87.81,42.5396875 L87.19,41.8996875 C87.13,41.8396875 87.02,41.8296875 86.94,41.8996875 C86.52,42.2396875 86.01,42.4696875 85.41,42.4696875 C84.13,42.4696875 83.17,41.4096875 83.17,40.1596875 C83.17,38.8996875 84.12,37.8296875 85.4,37.8296875 C85.96,37.8296875 86.52,38.0496875 86.94,38.4196875 C87.02,38.4996875 87.12,38.4996875 87.19,38.4196875 L87.8,37.7896875 C87.88,37.7096875 87.88,37.5896875 87.79,37.5096875 C87.11,36.8996875 86.38,36.5796875 85.37,36.5796875 C83.37,36.5796875 81.76,38.1896875 81.76,40.1896875 Z M88.47,41.3596875 C88.47,40.0596875 89.53,38.9596875 90.83,38.9596875 C92.14,38.9596875 93.2,40.0596875 93.2,41.3596875 C93.2,42.6796875 92.14,43.7896875 90.83,43.7896875 C89.53,43.7896875 88.47,42.6796875 88.47,41.3596875 Z M89.63,41.3596875 C89.63,42.0696875 90.16,42.6496875 90.83,42.6496875 C91.5,42.6496875 92.04,42.0696875 92.04,41.3596875 C92.04,40.6596875 91.5,40.0996875 90.83,40.0996875 C90.16,40.0996875 89.63,40.6596875 89.63,41.3596875 Z M94.21,43.4596875 C94.21,43.5796875 94.32,43.6796875 94.43,43.6796875 L95.24,43.6796875 C95.35,43.6796875 95.46,43.5796875 95.46,43.4596875 L95.46,40.8196875 C95.57,40.4996875 95.78,40.0996875 96.35,40.0996875 C96.94,40.0996875 97.11,40.4696875 97.11,41.0696875 L97.11,43.4596875 C97.11,43.5796875 97.2,43.6796875 97.33,43.6796875 L98.15,43.6796875 C98.26,43.6796875 98.37,43.5796875 98.37,43.4596875 L98.37,41.0196875 C98.37,40.8096875 98.35,40.5796875 98.35,40.5796875 C98.35,40.5796875 98.54,40.0996875 99.21,40.0996875 C99.79,40.0996875 100.01,40.4696875 100.01,41.0696875 L100.01,43.4596875 C100.01,43.5796875 100.11,43.6796875 100.23,43.6796875 L101.03,43.6796875 C101.16,43.6796875 101.26,43.5796875 101.26,43.4596875 L101.26,41.0996875 C101.26,39.8996875 100.91,38.9596875 99.43,38.9596875 C98.6,38.9596875 98.14,39.4496875 97.94,39.6596875 C97.56,39.1996875 97.23,38.9596875 96.56,38.9596875 C95.75,38.9596875 95.34,39.4096875 95.15,39.6296875 L94.98,39.1896875 C94.96,39.1096875 94.89,39.0596875 94.79,39.0596875 L94.43,39.0596875 C94.32,39.0596875 94.21,39.1496875 94.21,39.2796875 L94.21,43.4596875 Z M107.16,41.3796875 C107.16,42.7296875 106.25,43.7896875 104.87,43.7896875 C104.41,43.7896875 103.97,43.6796875 103.76,43.5996875 L103.76,45.8396875 C103.76,45.9496875 103.65,46.0596875 103.54,46.0596875 L102.73,46.0596875 C102.61,46.0596875 102.51,45.9496875 102.51,45.8396875 L102.51,39.2796875 C102.51,39.1596875 102.61,39.0596875 102.73,39.0596875 L103.1,39.0596875 C103.21,39.0596875 103.28,39.1496875 103.32,39.2796875 L103.44,39.6496875 C103.44,39.6496875 103.97,38.9596875 104.95,38.9596875 C106.21,38.9596875 107.16,39.9796875 107.16,41.3796875 Z M103.76,40.7396875 L103.76,42.3896875 C103.76,42.3896875 104.14,42.6496875 104.72,42.6496875 C105.48,42.6496875 105.87,42.0296875 105.87,41.3796875 C105.87,40.7296875 105.5,40.0996875 104.78,40.0996875 C104.18,40.0996875 103.86,40.4796875 103.76,40.7396875 Z M107.87,42.2096875 C107.87,41.3896875 108.54,40.7596875 109.71,40.7596875 C110.18,40.7596875 110.6,40.8896875 110.6,40.8896875 C110.62,40.2996875 110.45,40.0196875 109.96,40.0196875 C109.54,40.0196875 108.93,40.1096875 108.66,40.1896875 C108.51,40.2396875 108.42,40.1296875 108.4,39.9896875 L108.3,39.4696875 C108.26,39.2996875 108.35,39.2196875 108.45,39.1896875 C108.55,39.1496875 109.28,38.9596875 110.03,38.9596875 C111.47,38.9596875 111.77,39.7096875 111.77,40.9696875 L111.77,43.4596875 C111.77,43.5796875 111.67,43.6796875 111.55,43.6796875 L111.21,43.6796875 C111.13,43.6796875 111.07,43.6496875 111.01,43.5196875 L110.88,43.2096875 C110.61,43.4696875 110.15,43.7896875 109.43,43.7896875 C108.51,43.7896875 107.87,43.1996875 107.87,42.2096875 Z M109.07,42.2096875 C109.07,42.5996875 109.31,42.8596875 109.74,42.8596875 C110.15,42.8596875 110.51,42.5396875 110.57,42.3696875 L110.57,41.6896875 C110.57,41.6896875 110.26,41.5496875 109.89,41.5496875 C109.36,41.5496875 109.07,41.7996875 109.07,42.2096875 Z M113.03,43.4596875 C113.03,43.5796875 113.14,43.6796875 113.25,43.6796875 L114.02,43.6796875 C114.17,43.6796875 114.28,43.6296875 114.28,43.4596875 L114.28,40.5796875 C114.36,40.4196875 114.66,40.0996875 115.16,40.0996875 C115.37,40.0996875 115.48,40.1396875 115.59,40.1896875 C115.7,40.2396875 115.81,40.1996875 115.86,40.0896875 L116.16,39.4096875 C116.29,39.1096875 115.84,38.9596875 115.29,38.9596875 C114.58,38.9596875 114.15,39.4296875 113.99,39.6596875 L113.82,39.2096875 C113.78,39.1096875 113.73,39.0596875 113.62,39.0596875 L113.25,39.0596875 C113.14,39.0596875 113.03,39.1496875 113.03,39.2796875 L113.03,43.4596875 Z M116.92,43.4596875 C116.92,43.5796875 117.03,43.6796875 117.14,43.6796875 L117.95,43.6796875 C118.06,43.6796875 118.17,43.5796875 118.17,43.4596875 L118.17,39.2796875 C118.17,39.1496875 118.06,39.0596875 117.95,39.0596875 L117.14,39.0596875 C117.03,39.0596875 116.92,39.1496875 116.92,39.2796875 L116.92,43.4596875 Z M117.53,38.2696875 C117.98,38.2696875 118.33,37.9096875 118.33,37.4696875 C118.33,37.0296875 117.98,36.6796875 117.53,36.6796875 C117.08,36.6796875 116.74,37.0296875 116.74,37.4696875 C116.74,37.9096875 117.08,38.2696875 117.53,38.2696875 Z M120.84,43.7896875 C122,43.7896875 122.62,43.1396875 122.62,42.4096875 C122.62,41.4896875 121.98,41.1696875 121.09,40.8096875 C120.66,40.6296875 120.43,40.5196875 120.43,40.3096875 C120.43,40.1596875 120.56,40.0096875 120.87,40.0096875 C121.25,40.0096875 121.57,40.1396875 121.79,40.2396875 C121.89,40.2796875 122.01,40.2596875 122.08,40.1496875 L122.34,39.6196875 C122.4,39.4996875 122.34,39.3796875 122.24,39.2996875 C121.99,39.1396875 121.55,38.9596875 120.87,38.9596875 C119.74,38.9596875 119.21,39.6096875 119.21,40.3096875 C119.21,41.0096875 119.61,41.4296875 120.5,41.7696875 C121.11,42.0096875 121.37,42.1996875 121.37,42.4096875 C121.37,42.6096875 121.21,42.7396875 120.86,42.7396875 C120.38,42.7396875 120.05,42.5696875 119.84,42.4396875 C119.73,42.3696875 119.62,42.4096875 119.57,42.5196875 L119.27,43.1196875 C119.22,43.2196875 119.27,43.3296875 119.33,43.3696875 C119.59,43.5496875 120.07,43.7896875 120.84,43.7896875 Z M123.34,41.3596875 C123.34,40.0596875 124.4,38.9596875 125.7,38.9596875 C127.01,38.9596875 128.07,40.0596875 128.07,41.3596875 C128.07,42.6796875 127.01,43.7896875 125.7,43.7896875 C124.4,43.7896875 123.34,42.6796875 123.34,41.3596875 Z M124.5,41.3596875 C124.5,42.0696875 125.03,42.6496875 125.7,42.6496875 C126.37,42.6496875 126.91,42.0696875 126.91,41.3596875 C126.91,40.6596875 126.37,40.0996875 125.7,40.0996875 C125.03,40.0996875 124.5,40.6596875 124.5,41.3596875 Z M129.08,43.4596875 C129.08,43.5796875 129.19,43.6796875 129.3,43.6796875 L130.04,43.6796875 C130.26,43.6796875 130.33,43.6296875 130.33,43.4596875 L130.33,40.8196875 C130.44,40.4996875 130.73,40.0996875 131.33,40.0996875 C131.89,40.0996875 132.13,40.4696875 132.13,41.0696875 L132.13,43.4596875 C132.13,43.5796875 132.23,43.6796875 132.35,43.6796875 L133.16,43.6796875 C133.27,43.6796875 133.38,43.5796875 133.38,43.4596875 L133.38,41.0696875 C133.38,39.9496875 133,38.9596875 131.53,38.9596875 C130.64,38.9596875 130.21,39.4396875 130.04,39.6296875 L129.87,39.1996875 C129.84,39.1096875 129.79,39.0596875 129.68,39.0596875 L129.3,39.0596875 C129.19,39.0596875 129.08,39.1496875 129.08,39.2796875 L129.08,43.4596875 Z M137.26,43.4896875 L137.26,36.8696875 C137.26,36.7696875 137.34,36.6796875 137.45,36.6796875 L139.8,36.6796875 C141.03,36.6796875 142.04,37.6796875 142.04,38.8896875 C142.04,40.1296875 141.03,41.1396875 139.81,41.1396875 L138.56,41.1396875 L138.56,43.4896875 C138.56,43.5896875 138.47,43.6796875 138.37,43.6796875 L137.45,43.6796875 C137.34,43.6796875 137.26,43.5896875 137.26,43.4896875 Z M138.56,39.9196875 L139.76,39.9196875 C140.32,39.9196875 140.75,39.4696875 140.75,38.8796875 C140.75,38.3296875 140.32,37.9096875 139.76,37.9096875 L138.56,37.9096875 L138.56,39.9196875 Z M142.39,41.3696875 C142.39,40.0696875 143.35,38.9596875 144.72,38.9596875 C145.92,38.9596875 146.84,39.8496875 146.84,41.0996875 C146.84,41.1696875 146.83,41.3296875 146.82,41.3996875 C146.81,41.5196875 146.7,41.6096875 146.6,41.6096875 L143.64,41.6096875 C143.65,42.1796875 144.12,42.6796875 144.79,42.6796875 C145.25,42.6796875 145.57,42.5096875 145.78,42.3396875 C145.89,42.2496875 146.01,42.2396875 146.08,42.3396875 L146.47,42.8596875 C146.55,42.9496875 146.56,43.0596875 146.45,43.1596875 C146.05,43.4996875 145.48,43.7896875 144.73,43.7896875 C143.35,43.7896875 142.39,42.6896875 142.39,41.3696875 Z M143.71,40.7896875 L145.58,40.7896875 C145.56,40.3396875 145.2,39.9896875 144.69,39.9896875 C144.13,39.9896875 143.77,40.3296875 143.71,40.7896875 Z M147.52,41.3596875 C147.52,40.0596875 148.58,38.9596875 149.88,38.9596875 C151.19,38.9596875 152.25,40.0596875 152.25,41.3596875 C152.25,42.6796875 151.19,43.7896875 149.88,43.7896875 C148.58,43.7896875 147.52,42.6796875 147.52,41.3596875 Z M148.68,41.3596875 C148.68,42.0696875 149.21,42.6496875 149.88,42.6496875 C150.55,42.6496875 151.09,42.0696875 151.09,41.3596875 C151.09,40.6596875 150.55,40.0996875 149.88,40.0996875 C149.21,40.0996875 148.68,40.6596875 148.68,41.3596875 Z M157.91,41.3796875 C157.91,42.7296875 157,43.7896875 155.62,43.7896875 C155.16,43.7896875 154.72,43.6796875 154.51,43.5996875 L154.51,45.8396875 C154.51,45.9496875 154.4,46.0596875 154.29,46.0596875 L153.48,46.0596875 C153.36,46.0596875 153.26,45.9496875 153.26,45.8396875 L153.26,39.2796875 C153.26,39.1596875 153.36,39.0596875 153.48,39.0596875 L153.85,39.0596875 C153.96,39.0596875 154.03,39.1496875 154.07,39.2796875 L154.19,39.6496875 C154.19,39.6496875 154.72,38.9596875 155.7,38.9596875 C156.96,38.9596875 157.91,39.9796875 157.91,41.3796875 Z M154.51,40.7396875 L154.51,42.3896875 C154.51,42.3896875 154.89,42.6496875 155.47,42.6496875 C156.23,42.6496875 156.62,42.0296875 156.62,41.3796875 C156.62,40.7296875 156.25,40.0996875 155.53,40.0996875 C154.93,40.0996875 154.61,40.4796875 154.51,40.7396875 Z M158.95,43.4596875 C158.95,43.5796875 159.06,43.6796875 159.17,43.6796875 L159.98,43.6796875 C160.09,43.6796875 160.2,43.5796875 160.2,43.4596875 L160.2,36.8996875 C160.2,36.7896875 160.09,36.6796875 159.98,36.6796875 L159.17,36.6796875 C159.06,36.6796875 158.95,36.7896875 158.95,36.8996875 L158.95,43.4596875 Z M161.23,41.3696875 C161.23,40.0696875 162.19,38.9596875 163.56,38.9596875 C164.76,38.9596875 165.68,39.8496875 165.68,41.0996875 C165.68,41.1696875 165.67,41.3296875 165.66,41.3996875 C165.65,41.5196875 165.54,41.6096875 165.44,41.6096875 L162.48,41.6096875 C162.49,42.1796875 162.96,42.6796875 163.63,42.6796875 C164.09,42.6796875 164.41,42.5096875 164.62,42.3396875 C164.73,42.2496875 164.85,42.2396875 164.92,42.3396875 L165.31,42.8596875 C165.39,42.9496875 165.4,43.0596875 165.29,43.1596875 C164.89,43.4996875 164.32,43.7896875 163.57,43.7896875 C162.19,43.7896875 161.23,42.6896875 161.23,41.3696875 Z M162.55,40.7896875 L164.42,40.7896875 C164.4,40.3396875 164.04,39.9896875 163.53,39.9896875 C162.97,39.9896875 162.61,40.3296875 162.55,40.7896875 Z" id="The-Van-Insurance-Co" fill="#1C2B5F"></path>
            <g id="Group-2" transform="translate(0.032969, 0.000000)" fill="#30406B">
                <path d="M10.5401136,11.656 L15.6551136,0.341 C15.7171136,0.186 15.9341136,0 16.1821136,0 L20.3051136,0 C20.7701136,0 21.0181136,0.403 20.8321136,0.806 L11.0981136,21.669 C11.0051136,21.855 10.8191136,22.01 10.5711136,22.01 L10.2611136,22.01 C10.0131136,22.01 9.82711355,21.855 9.73411355,21.669 L0.0621135504,0.806 C-0.12388645,0.403 0.12411355,0 0.58911355,0 L4.71211355,0 C4.96011355,0 5.17711355,0.186 5.23911355,0.341 L10.3541136,11.656 L10.5401136,11.656 Z" id="Path"></path>
                <path d="M18.3211135,17.329 C18.3211135,14.57 20.3361135,12.555 23.5911135,12.555 C25.2031135,12.555 26.4121135,13.175 26.4121135,13.175 C26.4121135,11.78 26.1021135,10.974 24.4281135,10.974 C23.4361135,10.974 21.7621135,11.191 20.8321135,11.47 C20.2741135,11.656 20.0261135,11.253 19.9641135,10.726 L19.6231135,8.525 C19.5301135,7.905 19.8711135,7.626 20.1811135,7.533 C20.5221135,7.409 23.0331135,7.068 24.9551135,7.068 C29.3881135,7.068 30.9381135,8.866 30.9381135,13.113 L30.9381135,21.018 C30.9381135,21.39 30.5971135,21.7 30.2561135,21.7 L28.7371135,21.7 C28.5201135,21.7 28.2721135,21.638 28.0861135,21.235 L27.6211135,20.274 C26.7531135,21.018 25.5441135,22.041 23.2811135,22.041 C20.4601135,22.041 18.3211135,20.181 18.3211135,17.329 Z M22.9401135,16.988 C22.9401135,17.856 23.6531135,18.569 24.5211135,18.569 C25.3891135,18.569 26.1331135,17.856 26.1331135,16.988 C26.1331135,16.151 25.3891135,15.407 24.5211135,15.407 C23.6531135,15.407 22.9401135,16.151 22.9401135,16.988 Z" id="Combined-Shape"></path>
                <path d="M33.6971134,21.018 C33.6971134,21.39 34.0071134,21.7 34.3791134,21.7 L37.7891134,21.7 C38.2851134,21.7 38.4401134,21.328 38.4401134,21.018 L38.4401134,13.919 C38.4401134,12.462 39.1841134,11.47 40.6101134,11.47 C42.2221134,11.47 42.6871134,12.741 42.6871134,14.105 L42.6871134,21.018 C42.6871134,21.39 42.9661134,21.7 43.3691134,21.7 L46.7481134,21.7 C47.0891134,21.7 47.3991134,21.39 47.3991134,21.018 L47.3991134,14.167 C47.3991134,10.23 45.8801134,7.068 41.4161134,7.068 C38.8121134,7.068 37.7271134,8.37 36.9521134,9.238 L36.4251134,7.812 C36.2701134,7.533 35.9911134,7.378 35.7741134,7.378 L34.3791134,7.378 C34.0071134,7.378 33.6971134,7.657 33.6971134,8.06 L33.6971134,21.018 Z" id="Path"></path>
            </g>
        </g>
    </g>
</svg>