<?xml version="1.0" encoding="UTF-8"?>
<svg width="398px" height="58px" viewBox="0 0 398 58" version="1.1" xmlns="http://www.w3.org/2000/svg" xmlns:xlink="http://www.w3.org/1999/xlink">
    <!-- Generator: Sketch 51.3 (57544) - http://www.bohemiancoding.com/sketch -->
    <title>van-compare</title>
    <desc>Created with Sketch.</desc>
    <defs></defs>
    <g id="Page-1" stroke="none" stroke-width="1" fill="none" fill-rule="evenodd">
        <g id="van-compare">
            <g id="Group-2" transform="translate(0.000000, 0.358696)">
                <polygon id="Fill-1379" fill="#999999" points="10.1172362 47.0291649 107.355118 47.0291649 107.355118 32.8637538 10.1172362 32.8637538"></polygon>
                <path d="M7.77310926,0 C27.3543503,0 46.934469,0 66.51571,0 C81.2570605,0 82.2857617,1.75522943 102.046029,21.9751305 C105.476156,23.8996142 108.906282,25.8246678 112.336409,27.7491514 C115.94444,29.7727942 116.774472,32.4933998 116.892888,36.2665732 C116.899061,36.8330336 116.904112,37.4000639 116.910285,37.9665243 C115.523531,38.4925232 114.136776,39.0185222 112.750022,39.5445211 C108.127882,39.0185222 103.505741,38.4925232 98.8836008,37.9665243 C97.9026026,37.2325193 96.8009438,36.6535215 95.6151033,36.2665732 C95.6145421,36.2665732 95.6139809,36.2665732 95.6128584,36.2665732 C94.5117609,35.907549 93.338267,35.7126501 92.1198762,35.7126501 C85.8163452,35.7126501 80.7059505,40.9014047 80.7059505,47.3022933 C80.7059505,47.4008825 80.7070729,47.4983319 80.7093178,47.5957813 C65.4892536,47.5957813 50.2686283,47.5957813 35.0485642,47.5957813 C35.050809,47.4983319 35.0519314,47.4008825 35.0519314,47.3022933 C35.0519314,40.9014047 29.942098,35.7126501 23.638567,35.7126501 C20.3262949,35.7126501 17.3440154,37.1458976 15.2591135,39.4345344 C14.7736653,39.9508454 14.3544401,40.5252841 13.9750609,41.1344855 C12.8666676,42.9204884 12.2252025,45.0353119 12.2252025,47.3022933 C12.2252025,47.4008825 12.2263249,47.4983319 12.2285698,47.5957813 C9.62735307,47.5957813 7.02669757,47.5957813 4.42548085,47.5957813 C2.91974958,47.5957813 1.68620604,46.3443255 1.68620604,44.8141986 C1.68620604,43.5872476 1.68620604,42.3608665 1.68620604,41.1344855 C1.68620604,40.5674552 1.68620604,40.0009948 1.68620604,39.4345344 C1.68620604,34.0161183 1.68620604,28.5977023 1.68620604,23.1798561 C2.8018951,16.3806216 3.91814538,9.58081725 5.03439566,2.78158274 C5.28189007,1.27254133 6.26681678,0 7.77310926,0" id="Fill-1381" fill="#2664B3"></path>
                <path d="M7.77310926,0 C27.3543503,0 46.934469,0 66.51571,0 C81.2570605,0 82.2857617,1.75522943 102.046029,21.9751305 C105.476156,23.8996142 108.906282,25.8246678 112.336409,27.7491514 C115.94444,29.7727942 116.774472,32.4933998 116.892888,36.2665732 C116.899061,36.8330336 116.904112,37.4000639 116.910285,37.9665243 C115.523531,38.4925232 114.136776,39.0185222 112.750022,39.5445211 C108.127882,39.0185222 103.505741,38.4925232 98.8836008,37.9665243 C97.9026026,37.2325193 96.8009438,36.6535215 95.6151033,36.2665732 C95.6145421,36.2665732 95.6139809,36.2665732 95.6128584,36.2665732 C94.5117609,35.907549 93.338267,35.7126501 92.1198762,35.7126501 C85.8163452,35.7126501 80.7059505,40.9014047 80.7059505,47.3022933 C80.7059505,47.4008825 80.7070729,47.4983319 80.7093178,47.5957813 C65.4892536,47.5957813 50.2686283,47.5957813 35.0485642,47.5957813 C35.050809,47.4983319 35.0519314,47.4008825 35.0519314,47.3022933 C35.0519314,40.9014047 29.942098,35.7126501 23.638567,35.7126501 C20.3262949,35.7126501 17.3440154,37.1458976 15.2591135,39.4345344 C14.7736653,39.9508454 14.3544401,40.5252841 13.9750609,41.1344855 C12.8666676,42.9204884 12.2252025,45.0353119 12.2252025,47.3022933 C12.2252025,47.4008825 12.2263249,47.4983319 12.2285698,47.5957813 C9.62735307,47.5957813 7.02669757,47.5957813 4.42548085,47.5957813 C2.91974958,47.5957813 1.68620604,46.3443255 1.68620604,44.8141986 C1.68620604,43.5872476 1.68620604,42.3608665 1.68620604,41.1344855 C1.68620604,40.5674552 1.68620604,40.0009948 1.68620604,39.4345344 C1.68620604,34.0161183 1.68620604,28.5977023 1.68620604,23.1798561 C2.8018951,16.3806216 3.91814538,9.58081725 5.03439566,2.78158274 C5.28189007,1.27254133 6.26681678,0 7.77310926,0" id="Fill-1382" fill="#2C65AE"></path>
                <path d="M58.4515437,53.9439841 C88.2376055,53.9439841 112.383803,54.4971991 112.383803,55.1799473 C112.383803,55.8626956 88.2376055,56.4168102 58.4515437,56.4168102 C28.666028,56.4168102 4.51983038,55.8626956 4.51983038,55.1799473 C4.51983038,54.4971991 28.666028,53.9439841 58.4515437,53.9439841" id="Fill-1380" fill="#333333"></path>
                <path d="M77.003409,22.0980413 C84.6718701,22.0980413 92.3403313,22.0980413 100.00935,22.0980413 C102.128906,23.4982214 116.248116,28.3778908 115.1649,35.6515607 C114.263056,35.6666525 115.390918,35.6817442 114.488517,35.696836 C114.097867,28.9653516 106.489677,26.0286067 103.211565,24.7178593 C95.7534969,24.7178593 84.4614772,24.7178593 77.003409,24.7178593 C77.003409,23.8447729 77.003409,22.9711277 77.003409,22.0980413" id="Fill-2112" fill="#71A0DE"></path>
                <path d="M110.352171,26.0643564 L112.622068,27.3249478 C115.218274,28.7661151 116.399145,30.5586887 116.910285,32.8293584 L113.999751,32.8637538 C113.999751,32.8637538 113.999751,32.81732 111.555861,30.2686208 C109.882105,28.5236275 110.068078,26.9087635 110.352171,26.0643564" id="Fill-2134" fill="#09254A"></path>
                <path d="M116.348217,32.2754094 L114.300371,32.2971373 C114.300371,32.2971373 114.092311,31.904948 112.112861,30.0265674 C110.847829,28.8260986 110.652988,27.9015746 110.748397,27.1975893 L112.314025,28.0145599 C114.530272,29.1715729 115.72231,30.5675931 116.348217,32.2754094" id="Fill-2135" fill="#FFFFFF"></path>
                <path d="M76.8479471,7.93263022 L81.2834526,7.93263022 C82.4345839,7.93263022 84.8435367,9.12275101 85.6307982,9.91635342 L96.1403463,20.5109173 C97.5278806,21.9097618 98.1612836,23.7978907 94.5562773,23.7978907 L80.5506593,23.7978907 C78.8363159,23.7978907 74.7551343,23.5772884 74.7551343,19.4644708 L74.7551343,9.91635342 C74.7551343,8.82522081 75.6968158,7.93263022 76.8479471,7.93263022" id="Fill-2136" fill="#09254A"></path>
                <path d="M16.2999917,37.3966853 C15.7251531,37.8333592 15.1923219,38.32533 14.7081308,38.8651867 C14.2294671,39.3816705 13.817131,39.9563014 13.4434859,40.5657067 C12.3518452,42.3523073 11.7195227,44.4678386 11.7195227,46.7361487 C11.7195227,46.8342008 11.7206281,46.9316828 11.7233918,47.0291649 C9.16149075,47.0291649 5.25922078,47.0291649 2.69787248,47.0291649 C1.21489935,47.0291649 0,45.7772903 0,44.2466512 C0,43.0192897 0,41.7924982 0,40.5657067 C0,39.9984866 1.34036893,39.4318366 1.34036893,38.8651867 L1.34036893,37.3966853 L16.2999917,37.3966853" id="Fill-2137" fill="#09254A"></path>
                <path d="M12.9275796,42.4962333 C12.3447045,43.8045753 12.022082,45.2425679 12.022082,46.7526485 C12.022082,46.8451793 12.023216,46.9371721 12.026051,47.0291649 C9.39801018,47.0291649 5.39499649,47.0291649 2.76752264,47.0291649 C1.24626403,47.0291649 0,45.8477837 0,44.4033354 L0,42.4962333 L12.9275796,42.4962333" id="Fill-2138" fill="#09254A"></path>
                <path d="M37.0926044,47.5957813 L35.0167127,47.5957813 C35.0189575,47.4971179 35.0200799,47.3984545 35.0200799,47.2986371 C35.0200799,40.8180092 29.9103221,35.5646155 23.6068845,35.5646155 C20.2946615,35.5646155 17.3124262,37.0157176 15.2275552,39.3328652 C14.7421142,39.8556082 14.3228952,40.437203 13.9435216,41.0539936 C12.8351447,42.8622457 12.1936891,45.0034147 12.1936891,47.2986371 C12.1936891,47.3984545 12.1948115,47.4971179 12.1970564,47.5957813 L10.1206034,47.5957813 C10.1189198,47.4971179 10.1172362,47.3978775 10.1172362,47.2986371 C10.1172362,39.6392411 16.1569082,33.4303702 23.6068845,33.4303702 C31.0568608,33.4303702 37.0965328,39.6392411 37.0965328,47.2986371 C37.0965328,47.3978775 37.0948492,47.4971179 37.0926044,47.5957813" id="Fill-2139" fill="#09254A"></path>
                <path d="M92.3416042,32.8637538 C96.5723553,32.8637538 100.35445,34.8206308 102.858568,37.8915968 L99.0586392,37.4588749 C98.0844127,36.7293648 96.9903586,36.1539126 95.8127039,35.7693339 L95.8104746,35.7693339 C94.7169778,35.4125083 93.5515845,35.2188029 92.3416042,35.2188029 C86.0815861,35.2188029 81.0064682,40.3757829 81.0064682,46.7374741 C81.0064682,46.8354595 81.0075829,46.9323122 81.0098122,47.0291649 L78.6929591,47.0291649 C78.691287,46.9323122 78.689615,46.8348931 78.689615,46.7374741 C78.689615,39.0759181 84.8019386,32.8637538 92.3416042,32.8637538" id="Fill-2140" fill="#09254A"></path>
                <path d="M117.163745,37.3966853 C117.164881,37.8559243 118.590076,38.432537 118.591779,38.8479032 C118.600296,40.7731743 118.615059,41.6933615 118.453802,42.8180981 C118.381691,43.3229191 117.545879,44.4727259 117.595278,44.8635918 C117.753128,46.1028533 119.304377,46.9894238 116.094565,47.0247498 C115.152006,47.0350058 109.766926,47.0241801 108.441097,47.0241801 L103.626095,47.0241801 C103.628935,46.9267485 103.629502,46.8293169 103.629502,46.7313155 C103.629502,42.9012854 101.777884,39.5059938 98.9240875,37.3966853 L117.163745,37.3966853" id="Fill-2141" fill="#09254A"></path>
                <path d="M118.034423,42.4962333 C118.01576,42.6816403 117.992574,42.8659725 117.963732,43.057291 C117.891911,43.5334376 117.059462,44.6179342 117.108662,44.9865985 C117.266443,46.1554687 118.810885,46.9916811 115.613987,47.0250006 C114.675785,47.034674 109.311805,47.0244632 107.99131,47.0244632 L105.547122,47.0244632 C105.548819,46.9325658 105.550515,46.840131 105.550515,46.7482337 C105.550515,45.260141 105.290375,43.8300888 104.811943,42.4962333 L118.034423,42.4962333 Z M103.196246,47.0244632 L103.19568,47.0244632 L103.196246,47.0244632 Z M103.199073,46.7955259 L103.199073,46.727812 L103.199639,46.7482337 L103.199073,46.7955259 Z M102.312334,42.5333147 L102.2965,42.4962333 L102.312334,42.5333147 Z" id="Fill-2142" fill="#09254A"></path>
                <path d="M77.275289,9.06586311 L81.0409245,9.06586311 C82.1174551,9.06586311 84.3860575,10.1553145 85.1081885,10.9072947 L94.8986186,21.1061696 C96.1712356,22.4313334 97.2177701,23.7978907 93.8443073,23.7978907 L80.7398514,23.7978907 C79.136165,23.7978907 75.317203,23.5926484 75.317203,19.7735319 L75.317203,10.9072947 C75.317203,9.8943061 76.1982028,9.06586311 77.275289,9.06586311" id="Fill-2143" fill="#FFFFFF"></path>
                <path d="M78.6877748,9.06586311 L81.0934802,9.06586311 C81.5095752,9.06586311 82.1040759,9.22913709 82.7179685,9.47347316 L79.5748163,23.7415496 C78.2833149,23.6104705 76.6748942,23.181014 75.8792716,21.8144567 L78.6877748,9.06586311 Z M84.4493893,10.3571074 C84.7413761,10.5462522 84.9862683,10.735972 85.1502685,10.9072947 L86.0832966,11.8823393 L83.4581855,23.7978907 L81.4879671,23.7978907 L84.4493893,10.3571074 Z M89.4331111,15.3806569 L91.6171946,17.6618934 L90.2653012,23.7978907 L87.5786901,23.7978907 L89.4331111,15.3806569 Z" id="Fill-2144" fill="#D9F4FF"></path>
                <path d="M74.849758,24.3645071 L75.2220301,24.3645071 C75.5838699,24.3645071 75.8792716,24.6736437 75.8792716,25.0517328 L75.8792716,29.3428712 C75.8792716,29.7209603 75.5838699,30.0306715 75.2220301,30.0306715 L74.849758,30.0306715 C74.4884674,30.0306715 74.1930656,29.7209603 74.1930656,29.3428712 L74.1930656,25.0517328 C74.1930656,24.6736437 74.4884674,24.3645071 74.849758,24.3645071" id="Fill-2145" fill="#09254A"></path>
                <path d="M92.2133281,16.9984933 L93.2693359,16.9984933 C93.5974932,16.9984933 93.8654694,17.2656691 93.8654694,17.5934123 L93.8654694,23.7701542 C93.8654694,24.0973313 93.5974932,24.3645071 93.2693359,24.3645071 L92.2133281,24.3645071 C91.8851708,24.3645071 91.6171946,24.0973313 91.6171946,23.7701542 L91.6171946,17.5934123 C91.6171946,17.2656691 91.8851708,16.9984933 92.2133281,16.9984933" id="Fill-2146" fill="#09254A"></path>
                <path d="M92.0661419,21.5399645 L97.0421159,22.8382236 C97.1818642,22.8747371 97.266064,23.0178933 97.2292266,23.1569925 L97.1105282,23.6032691 C97.0736908,23.7423682 96.9292648,23.8258278 96.7889318,23.7893142 L91.8135425,22.4910552 C91.6732095,22.4551212 91.5890097,22.3113854 91.6258472,22.1728658 L91.7445455,21.7260097 C91.7813829,21.5874901 91.9258089,21.503451 92.0661419,21.5399645" id="Fill-2147" fill="#09254A"></path>
                <polygon id="Fill-2148" fill="#09254A" points="71.9447909 43.0628498 72.5068596 43.0628498 72.5068596 6.23278089 71.9447909 6.23278089"></polygon>
                <polygon id="Fill-2149" fill="#09254A" points="95.5516754 34.5636031 96.1137441 34.5636031 96.1137441 22.6646578 95.5516754 22.6646578"></polygon>
                <polygon id="Fill-2150" fill="#09254A" points="5.62068679 31.7305209 6.18275547 31.7305209 6.18275547 22.6646578 5.62068679 22.6646578"></polygon>
                <polyline id="Fill-2151" fill="#09254A" points="8.26849148 6.23278089 8.99309886 6.42288414 6.34471401 23.2312742 5.62068679 23.041171 8.26849148 6.23278089"></polyline>
                <polygon id="Fill-2152" fill="#09254A" points="5.62068679 31.7305209 78.689615 31.7305209 78.689615 31.1639044 5.62068679 31.1639044"></polygon>
                <polygon id="Fill-2153" fill="#09254A" points="68.0103101 33.4303702 71.9447909 33.4303702 71.9447909 32.8637538 68.0103101 32.8637538"></polygon>
                <polygon id="Fill-2154" fill="#09254A" points="68.0103101 38.5299182 68.5723788 38.5299182 68.5723788 32.8637538 68.0103101 32.8637538"></polygon>
                <polygon id="Fill-2155" fill="#09254A" points="68.0103101 39.0965347 71.9447909 39.0965347 71.9447909 38.5299182 68.0103101 38.5299182"></polygon>
                <polygon id="Fill-2156" fill="#09254A" points="8.43103018 6.79939733 84.3103018 6.79939733 84.3103018 6.23278089 8.43103018 6.23278089"></polygon>
                <polyline id="Fill-2157" fill="#09254A" points="83.7482331 6.74429928 84.2522662 6.23278089 97.2378814 19.3200572 96.7338483 19.8315755 83.7482331 6.74429928"></polyline>
                <polyline id="Fill-2158" fill="#09254A" points="97.2372848 18.6983427 97.7999501 19.2134485 96.1143408 20.9648084 95.5516754 20.4497026 97.2372848 18.6983427"></polyline>
                <polygon id="Fill-2159" fill="#09254A" points="8.43103018 9.06586311 72.5068596 9.06586311 72.5068596 8.49924666 8.43103018 8.49924666"></polygon>
                <path d="M64.0758294,40.796384 L74.0783863,40.796384 C74.4505977,40.796384 74.7551343,41.1243897 74.7551343,41.5252856 L74.7551343,44.6004139 C74.7551343,45.0007124 74.4505977,45.3293155 74.0783863,45.3293155 L64.0758294,45.3293155 L64.0758294,40.796384" id="Fill-2160" fill="#09254A"></path>
                <polygon id="Fill-2161" fill="#09254A" points="50.5861811 45.3293155 63.5137607 45.3293155 63.5137607 40.796384 50.5861811 40.796384"></polygon>
                <path d="M40.0350431,40.796384 L49.4620437,40.796384 L49.4620437,45.3293155 L40.0350431,45.3293155 C39.6551591,45.3293155 39.3448075,45.0007124 39.3448075,44.6004139 L39.3448075,41.5252856 C39.3448075,41.1243897 39.6551591,40.796384 40.0350431,40.796384" id="Fill-2162" fill="#09254A"></path>
                <path d="M116.876084,35.696836 L93.8654694,35.696836 C94.4715578,35.7832291 95.062508,35.9136041 95.633274,36.0848195 C95.6343953,36.0848195 95.634956,36.0848195 95.6355166,36.0848195 C96.8202205,36.4403401 97.9208232,36.972312 98.900881,37.6467017 C103.518591,38.1299793 108.1363,38.613257 112.75401,39.0965347 C114.139435,38.613257 115.52486,38.1299793 116.910285,37.6467017 C116.904118,37.1262488 116.899072,36.6052723 116.892904,36.0848195 C116.888419,35.9544444 116.882812,35.8251166 116.876084,35.696836" id="Fill-2163" fill="#09254A"></path>
                <path d="M45.666291,24.2870761 L46.6517003,26.3884118 C46.3015772,26.5694888 45.8942013,26.7179298 45.4361787,26.8321557 C44.9748529,26.946908 44.529492,27.0042842 44.0973432,27.0042842 C43.5446331,27.0042842 42.8030988,26.8779514 41.8771444,26.624233 C40.9522909,26.3705146 40.2669084,26.243129 39.8248505,26.243129 C39.070104,26.243129 38.3026959,26.5031641 37.5198735,27.0227077 L36.5344641,24.8787348 C37.2358113,24.3986701 37.7378746,23.8886014 38.0439571,23.3480023 C38.35059,22.8079296 38.5052828,22.2941762 38.5052828,21.8020046 C38.5052828,21.6419831 38.4926211,21.4761713 38.4672977,21.2977262 L36.5344641,21.2977262 L36.5344641,19.3416733 L37.9933104,19.3416733 C37.7406272,18.644211 37.6145608,17.940432 37.6145608,17.2277044 C37.6145608,16.5849863 37.7973295,15.9691139 38.1639678,15.3864038 C38.5333587,14.8036938 39.0513867,14.3594234 39.7241075,14.0546455 C40.3995809,13.7493413 41.132307,13.5987947 41.9277911,13.5987947 C43.1438633,13.5987947 44.1133079,13.8914657 44.8361249,14.4804923 C45.5561894,15.0689927 45.9982473,15.9117377 46.1595462,17.013465 L43.6585883,17.3666705 C43.5413301,16.7297426 43.329935,16.2707334 43.0205495,15.9928013 C42.714467,15.7122372 42.3291114,15.5732711 41.8677857,15.5732711 C41.3783841,15.5732711 40.9677051,15.7301343 40.6429054,16.0475455 C40.3175552,16.3644303 40.1529533,16.7597467 40.1529533,17.2398113 C40.1529533,17.4877394 40.1975444,17.8167311 40.2861762,18.2241544 C40.3742575,18.6315777 40.4849096,19.0032067 40.614279,19.3416733 L43.4879308,19.3416733 L43.4879308,21.2977262 L41.0343166,21.2977262 C41.0530339,21.4277437 41.062943,21.5577612 41.062943,21.6877787 C41.062943,22.1525782 40.9710082,22.5842152 40.7849365,22.9768997 C40.6016173,23.3722161 40.2195647,23.8917597 39.6481374,24.5344779 C39.9861493,24.3686661 40.4122425,24.2870761 40.924215,24.2870761 C41.1383626,24.2870761 41.3343435,24.299183 41.5050009,24.3233968 C41.5930822,24.3355037 41.8430129,24.3928799 42.2630505,24.4955253 C43.0078878,24.6829189 43.5132542,24.7760894 43.7846546,24.7760894 C44.2646976,24.7760894 44.8928272,24.6129095 45.666291,24.2870761" id="Fill-2164" fill="#09254A"></path>
                <path d="M44.9122807,23.5843685 L45.6140351,25.5020704 C45.2740405,25.6880854 44.8784493,25.8360001 44.2105263,26.1413043 C43.9856961,26.0655047 43.5537532,26.1228808 42.8070175,26.1413043 C42.5968502,26.1228808 41.8762326,25.9960216 40.7017544,25.5020704 C40.0795001,25.4885849 39.4139446,25.3617257 39.2982456,25.5020704 C38.2517617,25.3617257 37.5065534,25.6217607 36.4912281,26.1413043 L35.7894737,24.2236025 C36.4705321,23.5172668 36.9580715,23.0071981 37.1929825,22.3059006 C37.5525275,21.9259998 37.7032799,21.4127728 37.8947368,21.0274327 C37.7032799,20.7605797 37.6909845,20.5947679 37.8947368,20.3881988 L35.7894737,20.3881988 L35.7894737,18.4704969 L37.1929825,18.4704969 C36.9607444,17.7628076 36.838325,17.0590286 36.4912281,16.552795 C36.838325,15.7030565 37.0158065,15.0871841 37.1929825,14.6350932 C37.7305436,13.921764 38.2335859,13.4780201 38.5964912,13.3566253 C39.542779,12.8679379 40.2543086,12.7173913 40.7017544,12.7173913 C42.2076739,12.7173913 43.1490741,13.0100623 43.5087719,13.3566253 C44.5502155,14.1875893 44.9794854,15.029808 44.9122807,15.9135611 L42.8070175,16.552795 C42.5936427,15.8483393 42.3883629,15.3893301 42.1052632,15.2743271 C41.7906994,14.8308338 41.4164915,14.6918677 40.7017544,14.6350932 C40.4932671,14.6918677 40.0944684,14.848731 40,15.2743271 C39.4631262,15.4830269 39.303286,15.8783433 39.2982456,16.552795 C39.303286,16.6058097 39.3465872,16.9348014 39.2982456,17.192029 C39.5181882,17.7501743 39.6256394,18.1218033 40,18.4704969 L42.8070175,18.4704969 L42.8070175,20.3881988 L40,20.3881988 C40.1778633,20.5463404 40.1869512,20.6763579 40,21.0274327 C40.1869512,21.2706484 40.0976759,21.7028119 40,22.3059006 C39.7389709,22.4908127 39.3679705,23.00983 38.5964912,23.5843685 C39.1413074,23.4872627 39.5550744,23.4056728 40,23.5843685 C40.2601891,23.4056728 40.4505005,23.4177797 40.7017544,23.5843685 C40.7017544,23.453574 40.9444549,23.5114765 41.4035088,23.5843685 C42.075632,23.8009892 42.5663789,23.894686 42.8070175,23.5843685 C43.2960844,23.894686 43.9060433,23.7315061 44.9122807,23.5843685" id="Fill-2165" fill="#FFFFFF"></path>
                <path d="M5.84646282,2.83308222 L79.0253474,2.83308222 C79.1497203,2.83308222 79.2516837,2.93620641 79.2516837,3.06199526 L79.2516837,3.06256188 C79.2516837,3.18835073 79.1497203,3.29090831 79.0253474,3.29090831 L5.84646282,3.29090831 C5.72208992,3.29090831 5.62068679,3.18835073 5.62068679,3.06256188 L5.62068679,3.06199526 C5.62068679,2.93620641 5.72208992,2.83308222 5.84646282,2.83308222" id="Fill-2166" fill="#FFFFFF"></path>
                <path d="M8.09513257,0.566616444 L72.2806885,0.566616444 C72.4055305,0.566616444 72.5068596,0.669740637 72.5068596,0.795529488 C72.5068596,0.921318338 72.4055305,1.02444253 72.2806885,1.02444253 L8.09513257,1.02444253 C7.97029062,1.02444253 7.8689615,0.921318338 7.8689615,0.795529488 C7.8689615,0.669740637 7.97029062,0.566616444 8.09513257,0.566616444" id="Fill-2167" fill="#FFFFFF"></path>
                <path d="M92.4602977,36.8300689 C97.5818753,36.8300689 101.734431,41.0156648 101.734431,46.1792402 C101.734431,51.3422571 97.5818753,55.5284115 92.4602977,55.5284115 C87.338166,55.5284115 83.1861645,51.3422571 83.1861645,46.1792402 C83.1861645,41.0156648 87.338166,36.8300689 92.4602977,36.8300689" id="Fill-2168" fill="#1A1A1A"></path>
                <path d="M100.610294,47.1878264 C100.321543,51.5307495 96.787675,54.9617951 92.4702929,54.9617951 C87.9635568,54.9617951 84.3103018,51.2239496 84.3103018,46.6134288 C84.3103018,44.8771686 84.8283877,43.2653328 85.714631,41.9296169 C87.8003014,45.4265677 91.8800193,47.8019943 96.5711118,47.8019943 C97.9859915,47.8019943 99.3447869,47.58553 100.610294,47.1878264" id="Fill-2169" fill="#333333"></path>
                <path d="M92.4602977,39.6631511 C96.030226,39.6631511 98.9240875,42.5804271 98.9240875,46.1792402 C98.9240875,49.7780533 96.030226,52.6953293 92.4602977,52.6953293 C88.8903693,52.6953293 85.9965079,49.7780533 85.9965079,46.1792402 C85.9965079,42.5804271 88.8903693,39.6631511 92.4602977,39.6631511" id="Fill-2170" fill="#CCCCCC"></path>
                <path d="M92.7416197,40.796384 C95.8455252,40.796384 98.3620188,43.3332388 98.3620188,46.4628384 C98.3620188,49.591858 95.8455252,52.1287129 92.7416197,52.1287129 C89.6371388,52.1287129 87.1206452,49.591858 87.1206452,46.4628384 C87.1206452,43.3332388 89.6371388,40.796384 92.7416197,40.796384" id="Fill-2171" fill="#999999"></path>
                <path d="M92.1792633,41.9296169 C94.6626408,41.9296169 96.6758128,43.9590777 96.6758128,46.4625484 C96.6758128,48.9660192 94.6626408,50.99548 92.1792633,50.99548 C89.6958859,50.99548 87.6827139,48.9660192 87.6827139,46.4625484 C87.6827139,43.9590777 89.6958859,41.9296169 92.1792633,41.9296169" id="Fill-2172" fill="#333333"></path>
                <path d="M94.70869,41.9296169 L95.0281024,42.1795715 L92.106192,46.3584827 L91.6171946,45.9755734 L94.70869,41.9296169 Z M95.2580574,42.3597989 L95.5516754,42.5896627 L92.9623491,47.0291649 L92.4733517,46.6462556 L95.2580574,42.3597989 Z" id="Fill-2173" fill="#999999"></path>
                <path d="M89.6493292,42.4962333 L89.32987,42.7539658 L92.8145046,46.3387905 L93.3034007,45.9442909 L89.6493292,42.4962333 Z M89.0998359,42.939773 L88.8068513,43.1762548 L91.9590836,47.0291649 L92.4479797,46.6346652 L89.0998359,42.939773 Z" id="Fill-2174" fill="#999999"></path>
                <path d="M87.6827139,47.7901552 L87.8641789,48.1458926 L92.255745,45.8737099 L91.9785067,45.3293155 L87.6827139,47.7901552 Z M87.9946769,48.4025989 L88.1610199,48.7290142 L92.741332,46.8275066 L92.4640937,46.282559 L87.9946769,48.4025989 Z" id="Fill-2175" fill="#999999"></path>
                <path d="M96.8669419,48.1623978 L97.0075668,47.8131208 L92.394076,46.2646939 L92.1792633,46.7989737 L96.8669419,48.1623978 Z M97.1088831,47.5617864 L97.2378814,47.2415294 L92.7711056,45.3293155 L92.5557392,45.8635954 L97.1088831,47.5617864 Z" id="Fill-2176" fill="#999999"></path>
                <path d="M91.9504303,51.5620964 L92.3509808,51.5586473 L92.2302593,46.4717461 L91.6171946,46.4769198 L91.9504303,51.5620964 Z M92.6391546,51.5563479 L93.0068821,51.5528987 L93.3034007,46.4625484 L92.690336,46.4677221 L92.6391546,51.5563479 Z" id="Fill-2177" fill="#999999"></path>
                <path d="M92.4602977,44.1960827 C93.5465814,44.1960827 94.427538,45.0841672 94.427538,46.1792402 C94.427538,47.2743132 93.5465814,48.1623978 92.4602977,48.1623978 C91.3734404,48.1623978 90.4930573,47.2743132 90.4930573,46.1792402 C90.4930573,45.0841672 91.3734404,44.1960827 92.4602977,44.1960827" id="Fill-2178" fill="#999999"></path>
                <path d="M91.1032515,45.3947337 C91.1913006,45.2499279 91.3694705,45.2107452 91.5020621,45.3067145 C91.6341358,45.4032517 91.6698734,45.5985975 91.5818243,45.7434032 C91.4942931,45.888209 91.3156052,45.9273917 91.1835316,45.8314224 C91.0514579,45.7348853 91.0157203,45.5395394 91.1032515,45.3947337 Z M92.1795223,45.7263673 C92.4074141,45.7263673 92.5923172,45.9290953 92.5923172,46.1789563 C92.5923172,46.4288172 92.4074141,46.6315453 92.1795223,46.6315453 C91.9511126,46.6315453 91.7667274,46.4288172 91.7667274,46.1789563 C91.7667274,45.9290953 91.9511126,45.7263673 92.1795223,45.7263673 Z M93.2552751,45.3947337 C93.167226,45.2499279 92.9890561,45.2107452 92.8569824,45.3067145 C92.7243909,45.4032517 92.6886533,45.5985975 92.7767024,45.7434032 C92.8647515,45.888209 93.0429214,45.9273917 93.1749951,45.8314224 C93.3070687,45.7348853 93.3428063,45.5395394 93.2552751,45.3947337 Z M91.5818243,46.6145093 C91.4937752,46.4697035 91.3156052,46.4299529 91.1835316,46.5264901 C91.0514579,46.6230273 91.0152024,46.8178052 91.1032515,46.9631789 C91.1913006,47.1079846 91.3694705,47.1471674 91.5015442,47.0511981 C91.6341358,46.9546609 91.6698734,46.7593151 91.5818243,46.6145093 Z M92.1795223,44.7626991 C92.3380107,44.7626991 92.4664588,44.9035298 92.4664588,45.0772967 C92.4664588,45.2516315 92.3380107,45.3924622 92.1795223,45.3924622 C92.020516,45.3924622 91.8920679,45.2516315 91.8920679,45.0772967 C91.8920679,44.9035298 92.020516,44.7626991 92.1795223,44.7626991 Z M92.1795223,46.9654503 C92.3380107,46.9654503 92.4664588,47.1068489 92.4664588,47.2806158 C92.4664588,47.4543827 92.3380107,47.5957813 92.1795223,47.5957813 C92.020516,47.5957813 91.8920679,47.4543827 91.8920679,47.2806158 C91.8920679,47.1068489 92.020516,46.9654503 92.1795223,46.9654503 Z M92.7767024,46.6145093 C92.8647515,46.4697035 93.0429214,46.4299529 93.1749951,46.5264901 C93.3070687,46.6230273 93.3433243,46.8178052 93.2552751,46.9631789 C93.167226,47.1079846 92.9890561,47.1471674 92.8569824,47.0511981 C92.7249088,46.9546609 92.6891712,46.7593151 92.7767024,46.6145093 Z" id="Fill-2179" fill="#333333"></path>
                <path d="M23.3258502,36.8300689 C28.4474278,36.8300689 32.5999834,41.0156648 32.5999834,46.1792402 C32.5999834,51.3422571 28.4474278,55.5284115 23.3258502,55.5284115 C18.2037185,55.5284115 14.051717,51.3422571 14.051717,46.1792402 C14.051717,41.0156648 18.2037185,36.8300689 23.3258502,36.8300689" id="Fill-2180" fill="#1A1A1A"></path>
                <path d="M32.0379147,47.1878264 C31.749719,51.5307495 28.2152962,54.9617951 23.8979141,54.9617951 C19.3911779,54.9617951 15.737923,51.2239496 15.737923,46.6134288 C15.737923,44.8771686 16.2560089,43.2653328 17.1422522,41.9296169 C19.2279226,45.4265677 23.3076405,47.8019943 27.998733,47.8019943 C29.4136127,47.8019943 30.7724081,47.58553 32.0379147,47.1878264" id="Fill-2181" fill="#333333"></path>
                <path d="M23.8879188,39.6631511 C27.4578472,39.6631511 30.3517087,42.5804271 30.3517087,46.1792402 C30.3517087,49.7780533 27.4578472,52.6953293 23.8879188,52.6953293 C20.3179905,52.6953293 17.424129,49.7780533 17.424129,46.1792402 C17.424129,42.5804271 20.3179905,39.6631511 23.8879188,39.6631511" id="Fill-2182" fill="#CCCCCC"></path>
                <path d="M23.6071722,40.796384 C26.7110777,40.796384 29.2275713,43.3332388 29.2275713,46.4628384 C29.2275713,49.591858 26.7110777,52.1287129 23.6071722,52.1287129 C20.5026913,52.1287129 17.9861977,49.591858 17.9861977,46.4628384 C17.9861977,43.3332388 20.5026913,40.796384 23.6071722,40.796384" id="Fill-2183" fill="#999999"></path>
                <path d="M23.6068845,41.9296169 C26.090262,41.9296169 28.1034339,43.9590777 28.1034339,46.4625484 C28.1034339,48.9660192 26.090262,50.99548 23.6068845,50.99548 C21.123507,50.99548 19.1103351,48.9660192 19.1103351,46.4625484 C19.1103351,43.9590777 21.123507,41.9296169 23.6068845,41.9296169" id="Fill-2184" fill="#333333"></path>
                <path d="M26.1363112,41.9296169 L26.4557236,42.1795715 L23.5338132,46.3584827 L23.0448158,45.9755734 L26.1363112,41.9296169 Z M26.6856786,42.3597989 L26.9792966,42.5896627 L24.3899703,47.0291649 L23.9009729,46.6462556 L26.6856786,42.3597989 Z" id="Fill-2185" fill="#999999"></path>
                <path d="M21.0769504,42.4962333 L20.7574912,42.7539658 L24.2421258,46.3387905 L24.7310219,45.9442909 L21.0769504,42.4962333 Z M20.5280454,42.939773 L20.2344724,43.1762548 L23.3867048,47.0291649 L23.8756008,46.6346652 L20.5280454,42.939773 Z" id="Fill-2186" fill="#999999"></path>
                <path d="M19.1103351,47.7901552 L19.29178,48.1458926 L23.6828599,45.8737099 L23.4056523,45.3293155 L19.1103351,47.7901552 Z M19.4222636,48.4025989 L19.5885881,48.7290142 L24.1689532,46.8275066 L23.8911856,46.282559 L19.4222636,48.4025989 Z" id="Fill-2187" fill="#999999"></path>
                <path d="M28.2945631,48.1623978 L28.4351879,47.8131208 L23.8216972,46.2646939 L23.6068845,46.7989737 L28.2945631,48.1623978 Z M28.5365043,47.5617864 L28.6655026,47.2415294 L24.1987268,45.3293155 L23.9833604,45.8635954 L28.5365043,47.5617864 Z" id="Fill-2188" fill="#999999"></path>
                <path d="M23.3780515,51.5620964 L23.778602,51.5586473 L23.6578805,46.4717461 L23.0448158,46.4769198 L23.3780515,51.5620964 Z M24.0673321,51.5563479 L24.4350596,51.5528987 L24.7310219,46.4625484 L24.1179572,46.4677221 L24.0673321,51.5563479 Z" id="Fill-2189" fill="#999999"></path>
                <path d="M23.8879188,44.1960827 C24.9742026,44.1960827 25.8551592,45.0841672 25.8551592,46.1792402 C25.8551592,47.2743132 24.9742026,48.1623978 23.8879188,48.1623978 C22.8016351,48.1623978 21.9206785,47.2743132 21.9206785,46.1792402 C21.9206785,45.0841672 22.8016351,44.1960827 23.8879188,44.1960827" id="Fill-2190" fill="#999999"></path>
                <path d="M22.5313877,45.3947337 C22.6189137,45.2499279 22.797073,45.2107452 22.9296567,45.3067145 C23.0617224,45.4032517 23.0974579,45.5985975 23.009414,45.7434032 C22.9218881,45.888209 22.7432109,45.9273917 22.6111451,45.8314224 C22.4790793,45.7348853 22.4433439,45.5395394 22.5313877,45.3947337 Z M23.6070764,45.7263673 C23.8349546,45.7263673 24.0198467,45.9290953 24.0198467,46.1789563 C24.0198467,46.4288172 23.8349546,46.6315453 23.6070764,46.6315453 C23.3786803,46.6315453 23.1943061,46.4288172 23.1943061,46.1789563 C23.1943061,45.9290953 23.3786803,45.7263673 23.6070764,45.7263673 Z M24.6827651,45.3947337 C24.5947212,45.2499279 24.4165619,45.2107452 24.2844961,45.3067145 C24.1524304,45.4032517 24.116177,45.5985975 24.2042209,45.7434032 C24.2922647,45.888209 24.470424,45.9273917 24.6024898,45.8314224 C24.7345556,45.7348853 24.770291,45.5395394 24.6827651,45.3947337 Z M23.009414,46.6145093 C22.9213702,46.4697035 22.7432109,46.4299529 22.6111451,46.5264901 C22.4790793,46.6230273 22.442826,46.8178052 22.5308698,46.9631789 C22.6189137,47.1079846 22.797073,47.1471674 22.9291388,47.0511981 C23.0612045,46.9546609 23.0974579,46.7593151 23.009414,46.6145093 Z M23.6070764,44.7626991 C23.7655553,44.7626991 23.8939958,44.9035298 23.8939958,45.0772967 C23.8939958,45.2516315 23.7655553,45.3924622 23.6070764,45.3924622 C23.4480796,45.3924622 23.3196391,45.2516315 23.3196391,45.0772967 C23.3196391,44.9035298 23.4480796,44.7626991 23.6070764,44.7626991 Z M23.6070764,46.9654503 C23.7655553,46.9654503 23.8939958,47.1068489 23.8939958,47.2806158 C23.8939958,47.4543827 23.7655553,47.5957813 23.6070764,47.5957813 C23.4480796,47.5957813 23.3196391,47.4543827 23.3196391,47.2806158 C23.3196391,47.1068489 23.4480796,46.9654503 23.6070764,46.9654503 Z M24.2042209,46.6145093 C24.2922647,46.4697035 24.470424,46.4299529 24.6024898,46.5264901 C24.7350735,46.6230273 24.7708089,46.8178052 24.6827651,46.9631789 C24.5947212,47.1079846 24.4165619,47.1471674 24.2844961,47.0511981 C24.1524304,46.9546609 24.1166949,46.7593151 24.2042209,46.6145093 Z" id="Fill-2191" fill="#333333"></path>
            </g>
            <path d="M146.122105,19.0447826 L151.68,6.66652174 C151.747368,6.49695652 151.983158,6.29347826 152.252632,6.29347826 L156.732632,6.29347826 C157.237895,6.29347826 157.507368,6.73434783 157.305263,7.17521739 L146.728421,29.9986957 C146.627368,30.2021739 146.425263,30.3717391 146.155789,30.3717391 L145.818947,30.3717391 C145.549474,30.3717391 145.347368,30.2021739 145.246316,29.9986957 L134.736842,7.17521739 C134.534737,6.73434783 134.804211,6.29347826 135.309474,6.29347826 L139.789474,6.29347826 C140.058947,6.29347826 140.294737,6.49695652 140.362105,6.66652174 L145.92,19.0447826 L146.122105,19.0447826 Z M158.248421,25.2508696 C158.248421,22.2326087 160.437895,20.0282609 163.974737,20.0282609 C165.726316,20.0282609 167.04,20.7065217 167.04,20.7065217 C167.04,19.1804348 166.703158,18.2986957 164.884211,18.2986957 C163.806316,18.2986957 161.987368,18.536087 160.976842,18.8413043 C160.370526,19.0447826 160.101053,18.603913 160.033684,18.0273913 L159.663158,15.6195652 C159.562105,14.9413043 159.932632,14.636087 160.269474,14.5343478 C160.64,14.3986957 163.368421,14.0256522 165.456842,14.0256522 C170.273684,14.0256522 171.957895,15.9926087 171.957895,20.6386957 L171.957895,29.2865217 C171.957895,29.6934783 171.587368,30.0326087 171.216842,30.0326087 L169.566316,30.0326087 C169.330526,30.0326087 169.061053,29.9647826 168.858947,29.523913 L168.353684,28.4726087 C167.410526,29.2865217 166.096842,30.4056522 163.637895,30.4056522 C160.572632,30.4056522 158.248421,28.3708696 158.248421,25.2508696 Z M163.267368,24.8778261 C163.267368,25.8273913 164.042105,26.6073913 164.985263,26.6073913 C165.928421,26.6073913 166.736842,25.8273913 166.736842,24.8778261 C166.736842,23.9621739 165.928421,23.1482609 164.985263,23.1482609 C164.042105,23.1482609 163.267368,23.9621739 163.267368,24.8778261 Z M175.629474,29.2865217 L175.629474,15.1108696 C175.629474,14.67 175.966316,14.3647826 176.370526,14.3647826 L177.886316,14.3647826 C178.122105,14.3647826 178.425263,14.5343478 178.593684,14.8395652 L179.166316,16.3995652 C180.008421,15.45 181.187368,14.0256522 184.016842,14.0256522 C188.867368,14.0256522 190.517895,17.4847826 190.517895,21.7917391 L190.517895,29.2865217 C190.517895,29.6934783 190.181053,30.0326087 189.810526,30.0326087 L186.138947,30.0326087 C185.701053,30.0326087 185.397895,29.6934783 185.397895,29.2865217 L185.397895,21.723913 C185.397895,20.2317391 184.892632,18.8413043 183.141053,18.8413043 C181.591579,18.8413043 180.783158,19.9265217 180.783158,21.5204348 L180.783158,29.2865217 C180.783158,29.6256522 180.614737,30.0326087 180.075789,30.0326087 L176.370526,30.0326087 C175.966316,30.0326087 175.629474,29.6934783 175.629474,29.2865217 Z" id="Van" fill="#3E537E"></path>
            <path d="M193.594386,18.1969565 C193.594386,11.4143478 199.017544,5.95434783 205.754386,5.95434783 C209.122807,5.95434783 211.615439,7.00565217 213.905965,9.10826087 C214.209123,9.37956522 214.209123,9.78652174 213.939649,10.0578261 L211.312281,12.8047826 C211.076491,13.0421739 210.705965,13.0421739 210.470175,12.8047826 C209.089123,11.583913 207.573333,11.0752174 205.922807,11.0752174 C202.116491,11.0752174 199.320702,14.2630435 199.320702,18.0613043 C199.320702,21.8256522 202.150175,24.9456522 205.956491,24.9456522 C207.809123,24.9456522 209.257544,24.3691304 210.470175,23.3178261 C210.705965,23.1143478 211.14386,23.1143478 211.345965,23.3517391 L213.973333,26.1665217 C214.209123,26.403913 214.175439,26.8447826 213.939649,27.0821739 C211.649123,29.3204348 208.752281,30.3717391 205.754386,30.3717391 C199.017544,30.3717391 193.594386,24.9795652 193.594386,18.1969565 Z M216.129123,22.1647826 C216.129123,17.756087 219.800702,14.0256522 224.247018,14.0256522 C228.693333,14.0256522 232.331228,17.756087 232.331228,22.1647826 C232.331228,26.6413043 228.693333,30.4056522 224.247018,30.4056522 C219.800702,30.4056522 216.129123,26.6413043 216.129123,22.1647826 Z M220.979649,22.1647826 C220.979649,23.996087 222.42807,25.556087 224.247018,25.556087 C226.032281,25.556087 227.480702,23.996087 227.480702,22.1647826 C227.480702,20.3673913 226.032281,18.8413043 224.247018,18.8413043 C222.42807,18.8413043 220.979649,20.3673913 220.979649,22.1647826 Z M235.194386,29.2865217 L235.194386,15.1108696 C235.194386,14.67 235.497544,14.3647826 235.935439,14.3647826 L237.417544,14.3647826 C237.687018,14.3647826 237.956491,14.5343478 238.057544,14.8056522 L238.697544,16.3995652 C239.70807,15.3821739 240.98807,14.0256522 243.514386,14.0256522 C245.670175,14.0256522 246.714386,14.8395652 248.129123,16.3995652 C248.937544,15.5178261 250.385965,14.0256522 253.047018,14.0256522 C257.830175,14.0256522 259.413333,17.5186957 259.413333,21.9613043 L259.413333,29.2865217 C259.413333,29.6934783 259.076491,30.0326087 258.672281,30.0326087 L255.034386,30.0326087 C254.596491,30.0326087 254.293333,29.6934783 254.293333,29.2865217 L254.293333,21.723913 C254.293333,20.13 253.821754,18.8413043 252.002807,18.8413043 C250.655439,18.8413043 249.813333,19.9265217 249.813333,21.4526087 L249.813333,29.2865217 C249.813333,29.6934783 249.54386,30.0326087 249.105965,30.0326087 L245.434386,30.0326087 C245.030175,30.0326087 244.693333,29.6934783 244.693333,29.2865217 L244.693333,21.723913 C244.693333,20.13 244.42386,18.8413043 242.705965,18.8413043 C241.122807,18.8413043 240.314386,19.9265217 240.314386,21.5204348 L240.314386,29.2865217 C240.314386,29.6934783 239.94386,30.0326087 239.573333,30.0326087 L235.935439,30.0326087 C235.497544,30.0326087 235.194386,29.6934783 235.194386,29.2865217 Z M268.171228,29.49 L268.171228,37.3578261 C268.171228,37.7647826 267.834386,38.103913 267.430175,38.103913 L263.792281,38.103913 C263.38807,38.103913 263.051228,37.7647826 263.051228,37.3578261 L263.051228,15.1108696 C263.051228,14.7378261 263.38807,14.3647826 263.792281,14.3647826 L265.30807,14.3647826 C265.678596,14.3647826 265.981754,14.7378261 266.116491,15.1447826 L266.554386,16.4334783 C266.554386,16.4334783 268.373333,14.0256522 271.809123,14.0256522 C276.18807,14.0256522 279.455439,17.6882609 279.455439,22.1647826 C279.455439,27.6926087 275.918596,30.4056522 271.775439,30.4056522 C270.259649,30.4056522 268.676491,29.8630435 268.171228,29.49 Z M267.733333,22.1986957 C267.733333,24.0978261 269.114386,25.556087 271.034386,25.556087 C272.887018,25.556087 274.335439,24.0978261 274.335439,22.1986957 C274.335439,20.3334783 272.887018,18.8413043 271.034386,18.8413043 C269.114386,18.8413043 267.733333,20.3334783 267.733333,22.1986957 Z M281.476491,25.2508696 C281.476491,22.2326087 283.665965,20.0282609 287.202807,20.0282609 C288.954386,20.0282609 290.26807,20.7065217 290.26807,20.7065217 C290.26807,19.1804348 289.931228,18.2986957 288.112281,18.2986957 C287.034386,18.2986957 285.215439,18.536087 284.204912,18.8413043 C283.598596,19.0447826 283.329123,18.603913 283.261754,18.0273913 L282.891228,15.6195652 C282.790175,14.9413043 283.160702,14.636087 283.497544,14.5343478 C283.86807,14.3986957 286.596491,14.0256522 288.684912,14.0256522 C293.501754,14.0256522 295.185965,15.9926087 295.185965,20.6386957 L295.185965,29.2865217 C295.185965,29.6934783 294.815439,30.0326087 294.444912,30.0326087 L292.794386,30.0326087 C292.558596,30.0326087 292.289123,29.9647826 292.087018,29.523913 L291.581754,28.4726087 C290.638596,29.2865217 289.324912,30.4056522 286.865965,30.4056522 C283.800702,30.4056522 281.476491,28.3708696 281.476491,25.2508696 Z M286.495439,24.8778261 C286.495439,25.8273913 287.270175,26.6073913 288.213333,26.6073913 C289.156491,26.6073913 289.964912,25.8273913 289.964912,24.8778261 C289.964912,23.9621739 289.156491,23.1482609 288.213333,23.1482609 C287.270175,23.1482609 286.495439,23.9621739 286.495439,24.8778261 Z M298.857544,29.2865217 L298.857544,15.1108696 C298.857544,14.67 299.194386,14.3647826 299.598596,14.3647826 L301.215439,14.3647826 C301.619649,14.3647826 301.821754,14.5682609 301.922807,14.8395652 L302.630175,16.5691304 C303.30386,15.3143478 304.482807,14.0256522 306.50386,14.0256522 C307.918596,14.0256522 308.962807,14.3986957 309.535439,14.8395652 C309.804912,15.0430435 309.804912,15.3821739 309.636491,15.6873913 L308.087018,18.7734783 C307.918596,19.0786957 307.649123,19.316087 307.211228,19.1465217 C306.941754,19.0447826 306.369123,18.9091304 306.032281,18.9091304 C304.853333,18.9091304 303.977544,19.7569565 303.977544,21.0795652 L303.977544,29.2865217 C303.977544,29.7613043 303.70807,30.0326087 303.135439,30.0326087 L299.598596,30.0326087 C299.194386,30.0326087 298.857544,29.6934783 298.857544,29.2865217 Z M310.849123,22.1986957 C310.849123,17.79 314.318596,14.0256522 318.933333,14.0256522 C322.874386,14.0256522 326.310175,17.043913 326.310175,21.3508696 C326.310175,21.5882609 326.276491,22.1308696 326.242807,22.3682609 C326.209123,22.7752174 325.838596,23.0465217 325.501754,23.0465217 L315.901754,23.0465217 C315.901754,24.2673913 317.013333,25.7595652 319.135439,25.7595652 C320.145965,25.7595652 321.425965,25.2508696 322.099649,24.776087 C322.436491,24.4708696 322.840702,24.4708696 323.076491,24.776087 L324.794386,27.0482609 C325.030175,27.3534783 325.097544,27.8282609 324.760702,28.1673913 C323.413333,29.5578261 321.459649,30.4056522 319.000702,30.4056522 C314.352281,30.4056522 310.849123,27.0482609 310.849123,22.1986957 Z M316.474386,20.0621739 L321.055439,20.0621739 C320.98807,19.0108696 320.112281,18.1291304 318.798596,18.1291304 C317.518596,18.1291304 316.676491,19.0108696 316.474386,20.0621739 Z" id="Compare" fill="#5199F6"></path>
            <path d="M328.763509,26.7091304 C328.763509,24.6404348 330.447719,22.9447826 332.435088,22.9447826 C334.422456,22.9447826 336.174035,24.6404348 336.174035,26.7091304 C336.174035,28.71 334.422456,30.4056522 332.435088,30.4056522 C330.447719,30.4056522 328.763509,28.71 328.763509,26.7091304 Z M338.195088,22.1986957 C338.195088,17.5865217 342.001404,14.0256522 346.447719,14.0256522 C348.906667,14.0256522 350.792982,15.0091304 352.275088,16.7726087 C352.578246,17.1456522 352.443509,17.5865217 352.072982,17.8917391 L349.883509,20.0282609 C349.715088,20.1978261 349.310877,20.2317391 349.007719,19.9604348 C348.367719,19.383913 347.592982,18.8413043 346.61614,18.8413043 C344.830877,18.8413043 343.315088,20.4352174 343.315088,22.1986957 C343.315088,24.0978261 344.763509,25.556087 346.548772,25.556087 C347.997193,25.556087 348.670877,24.9456522 349.344561,24.2673913 C349.614035,23.9282609 350.018246,23.8604348 350.220351,24.1317391 L352.409825,26.0308696 C352.746667,26.37 352.948772,26.7430435 352.679298,27.15 C351.230877,29.3204348 349.209825,30.4056522 346.414035,30.4056522 C341.967719,30.4056522 338.195088,26.9126087 338.195088,22.1986957 Z M354.397193,22.1647826 C354.397193,17.756087 358.068772,14.0256522 362.515088,14.0256522 C366.961404,14.0256522 370.599298,17.756087 370.599298,22.1647826 C370.599298,26.6413043 366.961404,30.4056522 362.515088,30.4056522 C358.068772,30.4056522 354.397193,26.6413043 354.397193,22.1647826 Z M359.247719,22.1647826 C359.247719,23.996087 360.69614,25.556087 362.515088,25.556087 C364.300351,25.556087 365.748772,23.996087 365.748772,22.1647826 C365.748772,20.3673913 364.300351,18.8413043 362.515088,18.8413043 C360.69614,18.8413043 359.247719,20.3673913 359.247719,22.1647826 Z M373.462456,29.2865217 L373.462456,15.1108696 C373.462456,14.67 373.765614,14.3647826 374.203509,14.3647826 L375.685614,14.3647826 C375.955088,14.3647826 376.224561,14.5343478 376.325614,14.8056522 L376.965614,16.3995652 C377.97614,15.3821739 379.25614,14.0256522 381.782456,14.0256522 C383.938246,14.0256522 384.982456,14.8395652 386.397193,16.3995652 C387.205614,15.5178261 388.654035,14.0256522 391.315088,14.0256522 C396.098246,14.0256522 397.681404,17.5186957 397.681404,21.9613043 L397.681404,29.2865217 C397.681404,29.6934783 397.344561,30.0326087 396.940351,30.0326087 L393.302456,30.0326087 C392.864561,30.0326087 392.561404,29.6934783 392.561404,29.2865217 L392.561404,21.723913 C392.561404,20.13 392.089825,18.8413043 390.270877,18.8413043 C388.923509,18.8413043 388.081404,19.9265217 388.081404,21.4526087 L388.081404,29.2865217 C388.081404,29.6934783 387.81193,30.0326087 387.374035,30.0326087 L383.702456,30.0326087 C383.298246,30.0326087 382.961404,29.6934783 382.961404,29.2865217 L382.961404,21.723913 C382.961404,20.13 382.69193,18.8413043 380.974035,18.8413043 C379.390877,18.8413043 378.582456,19.9265217 378.582456,21.5204348 L378.582456,29.2865217 C378.582456,29.6934783 378.21193,30.0326087 377.841404,30.0326087 L374.203509,30.0326087 C373.765614,30.0326087 373.462456,29.6934783 373.462456,29.2865217 Z" id=".com" fill="#475D89"></path>
            <path d="M138.071579,53.0256522 L138.071579,43.5130435 L135.494737,43.5130435 C135.309474,43.5130435 135.174737,43.3604348 135.174737,43.1908696 L135.174737,41.8004348 C135.174737,41.6308696 135.309474,41.4782609 135.494737,41.4782609 L142.854737,41.4782609 C143.04,41.4782609 143.174737,41.6308696 143.174737,41.8004348 L143.174737,43.1908696 C143.174737,43.3604348 143.04,43.5130435 142.854737,43.5130435 L140.277895,43.5130435 L140.277895,53.0256522 C140.277895,53.1952174 140.126316,53.3478261 139.957895,53.3478261 L138.391579,53.3478261 C138.223158,53.3478261 138.071579,53.1952174 138.071579,53.0256522 Z M144.308772,52.9747826 L144.308772,41.8513043 C144.308772,41.6647826 144.494035,41.4782609 144.679298,41.4782609 L146.043509,41.4782609 C146.245614,41.4782609 146.414035,41.6647826 146.414035,41.8513043 L146.414035,46.0056522 C146.801404,45.6665217 147.475088,45.3443478 148.401404,45.3443478 C150.877193,45.3443478 151.550877,47.073913 151.550877,49.0408696 L151.550877,52.9747826 C151.550877,53.1782609 151.365614,53.3478261 151.180351,53.3478261 L149.81614,53.3478261 C149.614035,53.3478261 149.445614,53.1782609 149.445614,52.9747826 L149.445614,49.023913 C149.445614,47.9386957 148.957193,47.2773913 148.030877,47.2773913 C147.121404,47.2773913 146.61614,47.853913 146.414035,48.6508696 L146.414035,52.9747826 C146.414035,53.1952174 146.312983,53.3478261 146.009825,53.3478261 L144.679298,53.3478261 C144.494035,53.3478261 144.308772,53.1782609 144.308772,52.9747826 Z M152.853333,49.4308696 C152.853333,47.2265217 154.470176,45.3443478 156.777544,45.3443478 C158.798597,45.3443478 160.34807,46.8534783 160.34807,48.9730435 C160.34807,49.0917391 160.331228,49.3630435 160.314386,49.4817391 C160.297544,49.6852174 160.112281,49.8378261 159.94386,49.8378261 L154.958597,49.8378261 C154.975439,50.8043478 155.767018,51.6521739 156.895439,51.6521739 C157.670176,51.6521739 158.209123,51.363913 158.562807,51.0756522 C158.74807,50.9230435 158.950176,50.906087 159.06807,51.0756522 L159.724912,51.9573913 C159.859649,52.11 159.876491,52.2965217 159.691228,52.466087 C159.017544,53.0426087 158.057544,53.5343478 156.794386,53.5343478 C154.470176,53.5343478 152.853333,51.6691304 152.853333,49.4308696 Z M155.076491,48.4473913 L158.225965,48.4473913 C158.192281,47.6843478 157.585965,47.0908696 156.727018,47.0908696 C155.78386,47.0908696 155.177544,47.6673913 155.076491,48.4473913 Z M169.555088,53.3308696 L164.350877,41.9191304 C164.249825,41.6986957 164.384562,41.4782609 164.637193,41.4782609 L166.355088,41.4782609 C166.506667,41.4782609 166.60772,41.58 166.641404,41.6647826 L169.89193,48.956087 L169.976141,48.956087 L173.226667,41.6647826 C173.260351,41.58 173.361404,41.4782609 173.512983,41.4782609 L175.230877,41.4782609 C175.483509,41.4782609 175.618246,41.6986957 175.517193,41.9191304 L170.296141,53.3308696 C170.245614,53.4326087 170.161404,53.5173913 170.009825,53.5173913 L169.841404,53.5173913 C169.689825,53.5173913 169.605614,53.4326087 169.555088,53.3308696 Z M174.394386,50.8552174 C174.394386,49.4647826 175.522807,48.3965217 177.493334,48.3965217 C178.284913,48.3965217 178.992281,48.6169565 178.992281,48.6169565 C179.025965,47.6165217 178.739649,47.1417391 177.914386,47.1417391 C177.207018,47.1417391 176.179649,47.2943478 175.724913,47.43 C175.472281,47.5147826 175.320702,47.3282609 175.287018,47.0908696 L175.118597,46.2091304 C175.051228,45.9208696 175.202807,45.7852174 175.371228,45.7343478 C175.539649,45.6665217 176.769123,45.3443478 178.032281,45.3443478 C180.457544,45.3443478 180.962807,46.616087 180.962807,48.7526087 L180.962807,52.9747826 C180.962807,53.1782609 180.794386,53.3478261 180.592281,53.3478261 L180.019649,53.3478261 C179.884913,53.3478261 179.78386,53.2969565 179.682807,53.0765217 L179.46386,52.5508696 C179.009123,52.9917391 178.234386,53.5343478 177.021755,53.5343478 C175.472281,53.5343478 174.394386,52.533913 174.394386,50.8552174 Z M176.415439,50.8552174 C176.415439,51.5165217 176.819649,51.9573913 177.54386,51.9573913 C178.234386,51.9573913 178.840702,51.4147826 178.941755,51.1265217 L178.941755,49.9734783 C178.941755,49.9734783 178.419649,49.736087 177.796492,49.736087 C176.90386,49.736087 176.415439,50.16 176.415439,50.8552174 Z M182.770527,52.9747826 L182.770527,45.8869565 C182.770527,45.6665217 182.95579,45.513913 183.141053,45.513913 L183.781053,45.513913 C183.966316,45.513913 184.050527,45.5986957 184.101053,45.7513043 L184.387369,46.4804348 C184.673685,46.1582609 185.397895,45.3443478 186.896843,45.3443478 C189.372632,45.3443478 190.012632,47.0230435 190.012632,48.9221739 L190.012632,52.9747826 C190.012632,53.1782609 189.827369,53.3478261 189.642106,53.3478261 L188.277895,53.3478261 C188.07579,53.3478261 187.907369,53.1782609 187.907369,52.9747826 L187.907369,48.9221739 C187.907369,47.9047826 187.503158,47.2773913 186.56,47.2773913 C185.549474,47.2773913 185.061053,47.9556522 184.87579,48.4982609 L184.87579,52.9747826 C184.87579,53.2630435 184.757895,53.3478261 184.387369,53.3478261 L183.141053,53.3478261 C182.95579,53.3478261 182.770527,53.1782609 182.770527,52.9747826 Z M195.918597,53.0256522 L195.918597,41.8004348 C195.918597,41.6308696 196.070176,41.4782609 196.238597,41.4782609 L197.804913,41.4782609 C197.973334,41.4782609 198.124913,41.6308696 198.124913,41.8004348 L198.124913,53.0256522 C198.124913,53.1952174 197.973334,53.3478261 197.804913,53.3478261 L196.238597,53.3478261 C196.070176,53.3478261 195.918597,53.1952174 195.918597,53.0256522 Z M200.185264,52.9747826 L200.185264,45.8869565 C200.185264,45.6665217 200.370527,45.513913 200.55579,45.513913 L201.19579,45.513913 C201.381053,45.513913 201.465264,45.5986957 201.51579,45.7513043 L201.802106,46.4804348 C202.088422,46.1582609 202.812632,45.3443478 204.31158,45.3443478 C206.787369,45.3443478 207.427369,47.0230435 207.427369,48.9221739 L207.427369,52.9747826 C207.427369,53.1782609 207.242106,53.3478261 207.056843,53.3478261 L205.692632,53.3478261 C205.490527,53.3478261 205.322106,53.1782609 205.322106,52.9747826 L205.322106,48.9221739 C205.322106,47.9047826 204.917895,47.2773913 203.974737,47.2773913 C202.964211,47.2773913 202.47579,47.9556522 202.290527,48.4982609 L202.290527,52.9747826 C202.290527,53.2630435 202.172632,53.3478261 201.802106,53.3478261 L200.55579,53.3478261 C200.370527,53.3478261 200.185264,53.1782609 200.185264,52.9747826 Z M211.525615,53.5343478 C210.228773,53.5343478 209.420352,53.1273913 208.982457,52.8221739 C208.881404,52.7543478 208.797194,52.5678261 208.881404,52.3982609 L209.386667,51.3808696 C209.470878,51.1943478 209.656141,51.1265217 209.841404,51.2452174 C210.195088,51.4656522 210.750878,51.753913 211.559299,51.753913 C212.148773,51.753913 212.418246,51.5334783 212.418246,51.1943478 C212.418246,50.8382609 211.980352,50.516087 210.952983,50.1091304 C209.454036,49.5326087 208.780352,48.8204348 208.780352,47.6334783 C208.780352,46.4465217 209.672983,45.3443478 211.576141,45.3443478 C212.721404,45.3443478 213.462457,45.6495652 213.883509,45.9208696 C214.051931,46.0565217 214.152983,46.26 214.051931,46.4634783 L213.614036,47.3621739 C213.496141,47.5486957 213.294036,47.5826087 213.125615,47.5147826 C212.755088,47.3452174 212.216141,47.1247826 211.576141,47.1247826 C211.054036,47.1247826 210.835088,47.3791304 210.835088,47.6334783 C210.835088,47.9895652 211.222457,48.176087 211.946667,48.4813043 C213.445615,49.0917391 214.523509,49.6343478 214.523509,51.1943478 C214.523509,52.4321739 213.479299,53.5343478 211.525615,53.5343478 Z M215.809124,50.0413043 L215.809124,45.8869565 C215.809124,45.6665217 215.977545,45.513913 216.17965,45.513913 L217.54386,45.513913 C217.745966,45.513913 217.914387,45.6665217 217.914387,45.8869565 L217.914387,50.0413043 C217.914387,51.0756522 218.268071,51.6013043 219.228071,51.6013043 C220.087018,51.6013043 220.491229,50.8213043 220.609124,50.1430435 L220.609124,45.8869565 C220.609124,45.5817391 220.710176,45.513913 221.030176,45.513913 L222.34386,45.513913 C222.545966,45.513913 222.714387,45.6665217 222.714387,45.8869565 L222.714387,52.9747826 C222.714387,53.1782609 222.545966,53.3478261 222.34386,53.3478261 L221.737545,53.3478261 C221.552281,53.3478261 221.417545,53.2121739 221.367018,53.0595652 L221.148071,52.3982609 C220.74386,52.8221739 219.935439,53.5343478 218.73965,53.5343478 C216.331229,53.5343478 215.809124,52.0252174 215.809124,50.0413043 Z M224.589475,52.9747826 L224.589475,45.8869565 C224.589475,45.6665217 224.774738,45.513913 224.960001,45.513913 L225.583159,45.513913 C225.768422,45.513913 225.852632,45.5986957 225.920001,45.7682609 L226.206317,46.5313043 C226.47579,46.1413043 227.200001,45.3443478 228.39579,45.3443478 C229.322106,45.3443478 230.080001,45.5986957 229.861053,46.1073913 L229.35579,47.2604348 C229.27158,47.4469565 229.086317,47.5147826 228.901053,47.43 C228.71579,47.3452174 228.530527,47.2773913 228.176843,47.2773913 C227.334738,47.2773913 226.829475,47.82 226.694738,48.0913043 L226.694738,52.9747826 C226.694738,53.2630435 226.509475,53.3478261 226.256843,53.3478261 L224.960001,53.3478261 C224.774738,53.3478261 224.589475,53.1782609 224.589475,52.9747826 Z M230.169825,50.8552174 C230.169825,49.4647826 231.298247,48.3965217 233.268773,48.3965217 C234.060352,48.3965217 234.76772,48.6169565 234.76772,48.6169565 C234.801404,47.6165217 234.515089,47.1417391 233.689825,47.1417391 C232.982457,47.1417391 231.955089,47.2943478 231.500352,47.43 C231.24772,47.5147826 231.096141,47.3282609 231.062457,47.0908696 L230.894036,46.2091304 C230.826668,45.9208696 230.978247,45.7852174 231.146668,45.7343478 C231.315089,45.6665217 232.544562,45.3443478 233.80772,45.3443478 C236.232983,45.3443478 236.738247,46.616087 236.738247,48.7526087 L236.738247,52.9747826 C236.738247,53.1782609 236.569825,53.3478261 236.36772,53.3478261 L235.795089,53.3478261 C235.660352,53.3478261 235.559299,53.2969565 235.458247,53.0765217 L235.239299,52.5508696 C234.784562,52.9917391 234.009825,53.5343478 232.797194,53.5343478 C231.24772,53.5343478 230.169825,52.533913 230.169825,50.8552174 Z M232.190878,50.8552174 C232.190878,51.5165217 232.595089,51.9573913 233.319299,51.9573913 C234.009825,51.9573913 234.616141,51.4147826 234.717194,51.1265217 L234.717194,49.9734783 C234.717194,49.9734783 234.195089,49.736087 233.571931,49.736087 C232.679299,49.736087 232.190878,50.16 232.190878,50.8552174 Z M238.545966,52.9747826 L238.545966,45.8869565 C238.545966,45.6665217 238.731229,45.513913 238.916492,45.513913 L239.556492,45.513913 C239.741755,45.513913 239.825966,45.5986957 239.876492,45.7513043 L240.162808,46.4804348 C240.449124,46.1582609 241.173334,45.3443478 242.672282,45.3443478 C245.148071,45.3443478 245.788071,47.0230435 245.788071,48.9221739 L245.788071,52.9747826 C245.788071,53.1782609 245.602808,53.3478261 245.417545,53.3478261 L244.053334,53.3478261 C243.851229,53.3478261 243.682808,53.1782609 243.682808,52.9747826 L243.682808,48.9221739 C243.682808,47.9047826 243.278597,47.2773913 242.33544,47.2773913 C241.324913,47.2773913 240.836492,47.9556522 240.651229,48.4982609 L240.651229,52.9747826 C240.651229,53.2630435 240.533334,53.3478261 240.162808,53.3478261 L238.916492,53.3478261 C238.731229,53.3478261 238.545966,53.1782609 238.545966,52.9747826 Z M247.107369,49.4308696 C247.107369,47.1247826 248.926317,45.3443478 251.233685,45.3443478 C252.446317,45.3443478 253.389475,45.87 254.130527,46.6669565 C254.298948,46.8365217 254.214738,47.0569565 254.046317,47.2265217 L253.338948,48.0065217 C253.170527,48.1930435 252.985264,48.1082609 252.833685,47.9556522 C252.463159,47.5995652 252.008422,47.2773913 251.284212,47.2773913 C250.07158,47.2773913 249.229475,48.2269565 249.229475,49.4308696 C249.229475,50.6517391 250.054738,51.6013043 251.267369,51.6013043 C252.126317,51.6013043 252.581054,51.1265217 252.917896,50.7365217 C253.035791,50.6008696 253.27158,50.5669565 253.406317,50.6856522 L254.164212,51.33 C254.349475,51.4995652 254.433685,51.686087 254.298948,51.8895652 C253.642106,52.923913 252.597896,53.5343478 251.216843,53.5343478 C248.943159,53.5343478 247.107369,51.7878261 247.107369,49.4308696 Z M254.995089,49.4308696 C254.995089,47.2265217 256.611931,45.3443478 258.919299,45.3443478 C260.940352,45.3443478 262.489826,46.8534783 262.489826,48.9730435 C262.489826,49.0917391 262.472984,49.3630435 262.456141,49.4817391 C262.439299,49.6852174 262.254036,49.8378261 262.085615,49.8378261 L257.100352,49.8378261 C257.117194,50.8043478 257.908773,51.6521739 259.037194,51.6521739 C259.811931,51.6521739 260.350878,51.363913 260.704563,51.0756522 C260.889826,50.9230435 261.091931,50.906087 261.209826,51.0756522 L261.866668,51.9573913 C262.001405,52.11 262.018247,52.2965217 261.832984,52.466087 C261.159299,53.0426087 260.199299,53.5343478 258.936141,53.5343478 C256.611931,53.5343478 254.995089,51.6691304 254.995089,49.4308696 Z M257.218247,48.4473913 L260.36772,48.4473913 C260.334036,47.6843478 259.72772,47.0908696 258.868773,47.0908696 C257.925615,47.0908696 257.319299,47.6673913 257.218247,48.4473913 Z M267.90737,53.0256522 L267.90737,41.8004348 C267.90737,41.6308696 268.042107,41.4782609 268.22737,41.4782609 L272.185264,41.4782609 C274.256843,41.4782609 275.957896,43.173913 275.957896,45.2256522 C275.957896,47.3282609 274.256843,49.0408696 272.202107,49.0408696 L270.096843,49.0408696 L270.096843,53.0256522 C270.096843,53.1952174 269.945264,53.3478261 269.776843,53.3478261 L268.22737,53.3478261 C268.042107,53.3478261 267.90737,53.1952174 267.90737,53.0256522 Z M270.096843,46.9721739 L272.117896,46.9721739 C273.061054,46.9721739 273.785264,46.2091304 273.785264,45.2086957 C273.785264,44.276087 273.061054,43.563913 272.117896,43.563913 L270.096843,43.563913 L270.096843,46.9721739 Z M276.232984,49.4308696 C276.232984,47.2265217 277.849826,45.3443478 280.157194,45.3443478 C282.178247,45.3443478 283.727721,46.8534783 283.727721,48.9730435 C283.727721,49.0917391 283.710879,49.3630435 283.694036,49.4817391 C283.677194,49.6852174 283.491931,49.8378261 283.32351,49.8378261 L278.338247,49.8378261 C278.355089,50.8043478 279.146668,51.6521739 280.275089,51.6521739 C281.049826,51.6521739 281.588773,51.363913 281.942457,51.0756522 C282.127721,50.9230435 282.329826,50.906087 282.447721,51.0756522 L283.104563,51.9573913 C283.2393,52.11 283.256142,52.2965217 283.070879,52.466087 C282.397194,53.0426087 281.437194,53.5343478 280.174036,53.5343478 C277.849826,53.5343478 276.232984,51.6691304 276.232984,49.4308696 Z M278.456142,48.4473913 L281.605615,48.4473913 C281.571931,47.6843478 280.965615,47.0908696 280.106668,47.0908696 C279.16351,47.0908696 278.557194,47.6673913 278.456142,48.4473913 Z M284.558598,49.413913 C284.558598,47.2095652 286.343861,45.3443478 288.533335,45.3443478 C290.739651,45.3443478 292.524914,47.2095652 292.524914,49.413913 C292.524914,51.6521739 290.739651,53.5343478 288.533335,53.5343478 C286.343861,53.5343478 284.558598,51.6521739 284.558598,49.413913 Z M286.512282,49.413913 C286.512282,50.6178261 287.404914,51.6013043 288.533335,51.6013043 C289.661756,51.6013043 290.571229,50.6178261 290.571229,49.413913 C290.571229,48.2269565 289.661756,47.2773913 288.533335,47.2773913 C287.404914,47.2773913 286.512282,48.2269565 286.512282,49.413913 Z M301.743159,49.4478261 C301.743159,51.7369565 300.210528,53.5343478 297.886317,53.5343478 C297.11158,53.5343478 296.370528,53.3478261 296.016844,53.2121739 L296.016844,57.0104348 C296.016844,57.1969565 295.83158,57.3834783 295.646317,57.3834783 L294.282107,57.3834783 C294.080001,57.3834783 293.91158,57.1969565 293.91158,57.0104348 L293.91158,45.8869565 C293.91158,45.6834783 294.080001,45.513913 294.282107,45.513913 L294.905265,45.513913 C295.090528,45.513913 295.208423,45.6665217 295.275791,45.8869565 L295.477896,46.5143478 C295.477896,46.5143478 296.370528,45.3443478 298.021054,45.3443478 C300.143159,45.3443478 301.743159,47.073913 301.743159,49.4478261 Z M296.016844,48.3626087 L296.016844,51.1604348 C296.016844,51.1604348 296.656844,51.6013043 297.633686,51.6013043 C298.913686,51.6013043 299.570528,50.55 299.570528,49.4478261 C299.570528,48.3456522 298.94737,47.2773913 297.734738,47.2773913 C296.724212,47.2773913 296.185265,47.9217391 296.016844,48.3626087 Z M303.180352,52.9747826 L303.180352,41.8513043 C303.180352,41.6647826 303.365616,41.4782609 303.550879,41.4782609 L304.915089,41.4782609 C305.100352,41.4782609 305.285616,41.6647826 305.285616,41.8513043 L305.285616,52.9747826 C305.285616,53.1782609 305.100352,53.3478261 304.915089,53.3478261 L303.550879,53.3478261 C303.365616,53.3478261 303.180352,53.1782609 303.180352,52.9747826 Z M306.705967,49.4308696 C306.705967,47.2265217 308.322809,45.3443478 310.630177,45.3443478 C312.65123,45.3443478 314.200703,46.8534783 314.200703,48.9730435 C314.200703,49.0917391 314.183861,49.3630435 314.167019,49.4817391 C314.150177,49.6852174 313.964914,49.8378261 313.796493,49.8378261 L308.81123,49.8378261 C308.828072,50.8043478 309.619651,51.6521739 310.748072,51.6521739 C311.522809,51.6521739 312.061756,51.363913 312.41544,51.0756522 C312.600703,50.9230435 312.802809,50.906087 312.920703,51.0756522 L313.577545,51.9573913 C313.712282,52.11 313.729124,52.2965217 313.543861,52.466087 C312.870177,53.0426087 311.910177,53.5343478 310.647019,53.5343478 C308.322809,53.5343478 306.705967,51.6691304 306.705967,49.4308696 Z M308.929124,48.4473913 L312.078598,48.4473913 C312.044914,47.6843478 311.438598,47.0908696 310.579651,47.0908696 C309.636493,47.0908696 309.030177,47.6673913 308.929124,48.4473913 Z" id="The-Van-Insurance-Pe" fill="#3E537E"></path>
        </g>
    </g>
</svg>