<svg width="129" height="110" viewBox="0 0 129 110" fill="none" xmlns="http://www.w3.org/2000/svg">
<rect x="0.883545" y="0.991455" width="127.117" height="108.425" rx="3.39564" fill="white" stroke="#D9D9D9"/>
<path fill-rule="evenodd" clip-rule="evenodd" d="M63.3883 64.9132C78.0203 64.9132 89.8819 65.287 89.8819 65.7483C89.8819 66.2096 78.0203 66.584 63.3883 66.584C48.7564 66.584 36.8949 66.2096 36.8949 65.7483C36.8949 65.287 48.7564 64.9132 63.3883 64.9132Z" fill="#333333"/>
<path fill-rule="evenodd" clip-rule="evenodd" d="M67.1831 25.1496L87.0783 55.3712C88.5279 57.5733 87.918 60.5336 85.7159 61.9832C84.9366 62.4962 84.0241 62.7696 83.0911 62.7696H43.3008C40.6644 62.7696 38.5272 60.6324 38.5272 57.996C38.5272 57.063 38.8006 56.1505 39.3136 55.3712L59.2088 25.1496C60.6584 22.9475 63.6187 22.3375 65.8208 23.7872C66.3628 24.144 66.8263 24.6076 67.1831 25.1496Z" stroke="url(#paint0_linear)" stroke-width="5.25096" stroke-linecap="round" stroke-linejoin="round"/>
<path fill-rule="evenodd" clip-rule="evenodd" d="M66.0789 48.0647L66.7298 49.5382C66.498 49.6654 66.2293 49.7696 65.9266 49.8495C65.6223 49.9302 65.3278 49.9704 65.0423 49.9704C64.6773 49.9704 64.187 49.8817 63.5757 49.7036C62.9647 49.5255 62.512 49.4368 62.2203 49.4368C61.7213 49.4368 61.2146 49.6189 60.6976 49.9831L60.0468 48.4798C60.5097 48.143 60.8414 47.7852 61.0438 47.4059C61.2459 47.027 61.3481 46.6672 61.3481 46.3221C61.3481 46.2095 61.3399 46.093 61.3234 45.9682H60.0468V44.5961H61.0101C60.8433 44.1071 60.7603 43.6132 60.7603 43.1135C60.7603 42.6626 60.8809 42.2308 61.1229 41.8221C61.3669 41.4133 61.7092 41.102 62.1533 40.8881C62.5997 40.6742 63.0838 40.5681 63.6093 40.5681C64.4122 40.5681 65.0525 40.7736 65.5303 41.1867C66.0061 41.5994 66.2978 42.1902 66.4044 42.9632L64.7525 43.2109C64.675 42.764 64.5351 42.4423 64.3307 42.2475C64.1286 42.0507 63.8741 41.9533 63.5698 41.9533C63.2463 41.9533 62.9749 42.063 62.7603 42.2857C62.5457 42.5079 62.4368 42.7854 62.4368 43.1222C62.4368 43.2956 62.4662 43.5266 62.5246 43.8124C62.5829 44.0983 62.6561 44.3587 62.7415 44.5961H64.6397V45.9682H63.0188C63.0317 46.0592 63.0376 46.1503 63.0376 46.2413C63.0376 46.5674 62.9773 46.8703 62.8543 47.1455C62.7333 47.423 62.4811 47.7872 62.1036 48.2381C62.3264 48.122 62.6084 48.0647 62.9459 48.0647C63.0877 48.0647 63.2173 48.0731 63.3297 48.0902C63.3881 48.0985 63.553 48.1387 63.8302 48.2106C64.3229 48.3418 64.6562 48.4074 64.8355 48.4074C65.1527 48.4074 65.5679 48.2933 66.0789 48.0647Z" fill="#2C65AE"/>
<path d="M30.3096 88.4329C30.3096 88.5914 30.4363 88.734 30.6107 88.734H36.4104C36.5847 88.734 36.7115 88.5914 36.7115 88.4329V87.1335C36.7115 86.9751 36.5847 86.8324 36.4104 86.8324H32.3696V77.9427C32.3696 77.7842 32.227 77.6416 32.0685 77.6416H30.6107C30.4363 77.6416 30.3096 77.7842 30.3096 77.9427V88.4329ZM38.5422 88.4329C38.5422 88.5914 38.6848 88.734 38.8432 88.734H40.3169C40.4754 88.734 40.618 88.5914 40.618 88.4329V77.9427C40.618 77.7842 40.4754 77.6416 40.3169 77.6416H38.8432C38.6848 77.6416 38.5422 77.7842 38.5422 77.9427V88.4329ZM42.4946 88.734H43.8732C44.1268 88.734 44.2694 88.5755 44.3328 88.4171L45.1093 86.7057H49.8473L50.6238 88.4171C50.7347 88.6389 50.8456 88.734 51.0833 88.734H52.462C52.6996 88.734 52.8264 88.528 52.7313 88.322L47.8507 77.6574C47.8031 77.5623 47.7397 77.4831 47.5813 77.4831H47.4228C47.2802 77.4831 47.201 77.5623 47.1534 77.6574L42.2252 88.322C42.1301 88.528 42.2569 88.734 42.4946 88.734ZM45.8857 84.9467L47.4387 81.4605H47.4862L49.0708 84.9467H45.8857ZM60.0462 83.0452C60.8702 82.6332 61.6308 81.7616 61.6308 80.5731C61.6308 78.9093 60.173 77.6416 58.2872 77.6416H54.6584C54.4841 77.6416 54.3574 77.7842 54.3574 77.9427V88.4329C54.3574 88.5914 54.4841 88.734 54.6584 88.734H58.4932C60.4265 88.734 61.9477 87.4505 61.9477 85.6757C61.9477 84.1861 60.9653 83.4413 60.0462 83.1244V83.0452ZM56.4015 82.3004V79.5273H58.1288C58.9369 79.5273 59.4599 80.0819 59.4599 80.8742C59.4599 81.6665 58.9369 82.3004 58.1288 82.3004H56.4015ZM56.4015 86.8641V84.0435H58.3506C59.1429 84.0435 59.7451 84.6298 59.7451 85.4221C59.7451 86.2461 59.1429 86.8641 58.3506 86.8641H56.4015ZM64.3541 88.4329C64.3541 88.5914 64.4967 88.734 64.6552 88.734H66.1289C66.2873 88.734 66.4299 88.5914 66.4299 88.4329V77.9427C66.4299 77.7842 66.2873 77.6416 66.1289 77.6416H64.6552C64.4967 77.6416 64.3541 77.7842 64.3541 77.9427V88.4329ZM69.3524 88.4329C69.3524 88.5914 69.4792 88.734 69.6535 88.734H75.4532C75.6275 88.734 75.7543 88.5914 75.7543 88.4329V87.1335C75.7543 86.9751 75.6275 86.8324 75.4532 86.8324H71.4124V77.9427C71.4124 77.7842 71.2698 77.6416 71.1113 77.6416H69.6535C69.4792 77.6416 69.3524 77.7842 69.3524 77.9427V88.4329ZM77.585 88.4329C77.585 88.5914 77.7276 88.734 77.886 88.734H79.3597C79.5182 88.734 79.6608 88.5914 79.6608 88.4329V77.9427C79.6608 77.7842 79.5182 77.6416 79.3597 77.6416H77.886C77.7276 77.6416 77.585 77.7842 77.585 77.9427V88.4329ZM84.3739 88.4329C84.3739 88.5914 84.5165 88.734 84.675 88.734H86.1487C86.3072 88.734 86.4498 88.5914 86.4498 88.4329V79.5431H88.8743C89.0486 79.5431 89.1753 79.4005 89.1753 79.2421V77.9427C89.1753 77.7842 89.0486 77.6416 88.8743 77.6416H81.9494C81.7751 77.6416 81.6483 77.7842 81.6483 77.9427V79.2421C81.6483 79.4005 81.7751 79.5431 81.9494 79.5431H84.3739V88.4329ZM93.4853 88.4329C93.4853 88.5914 93.6121 88.734 93.7864 88.734H95.2443C95.4027 88.734 95.5454 88.5914 95.5454 88.4329V83.3779L99.2059 78.1011C99.3326 77.8951 99.2059 77.6416 98.9523 77.6416H97.3201C97.1934 77.6416 97.1141 77.7208 97.0666 77.7842L94.5312 81.4288L91.9958 77.7842C91.9482 77.7208 91.869 77.6416 91.7422 77.6416H90.1259C89.8724 77.6416 89.7456 77.8951 89.8724 78.1011L93.4853 83.3938V88.4329Z" fill="black" fill-opacity="0.597571"/>
<defs>
<linearGradient id="paint0_linear" x1="38.6421" y1="40.9467" x2="87.5003" y2="46.8824" gradientUnits="userSpaceOnUse">
<stop stop-color="#2B65AE"/>
<stop offset="1" stop-color="#174682"/>
</linearGradient>
</defs>
</svg>
