<svg width="150" height="81" viewBox="0 0 150 81" fill="none" xmlns="http://www.w3.org/2000/svg">
<g clip-path="url(#clip0)">
<g filter="url(#filter0_d)">
<rect y="0.942032" width="150" height="80" rx="5" fill="white"/>
<rect x="0.5" y="1.44203" width="149" height="79" rx="4.5" stroke="#E3E9F1"/>
</g>
<path d="M65.396 32.859C65.396 34.659 66.845 36.09 68.645 36.09C69.446 36.09 70.22 35.811 70.832 35.217C70.895 35.154 70.913 35.037 70.841 34.974L70.283 34.398C70.229 34.344 70.13 34.335 70.058 34.398C69.68 34.704 69.221 34.911 68.681 34.911C67.529 34.911 66.665 33.957 66.665 32.832C66.665 31.698 67.52 30.735 68.672 30.735C69.176 30.735 69.68 30.933 70.058 31.266C70.13 31.338 70.22 31.338 70.283 31.266L70.832 30.699C70.904 30.627 70.904 30.519 70.823 30.447C70.211 29.898 69.554 29.61 68.645 29.61C66.845 29.61 65.396 31.059 65.396 32.859ZM72.1685 35.829C72.1685 35.919 72.2495 36 72.3395 36H73.1765C73.2755 36 73.3475 35.919 73.3475 35.829V33.345H76.2815V35.829C76.2815 35.919 76.3535 36 76.4525 36H77.2805C77.3705 36 77.4515 35.919 77.4515 35.829V29.871C77.4515 29.781 77.3705 29.7 77.2805 29.7H76.4525C76.3535 29.7 76.2815 29.781 76.2815 29.871V32.256H73.3475V29.871C73.3475 29.781 73.2755 29.7 73.1765 29.7H72.3395C72.2495 29.7 72.1685 29.781 72.1685 29.871V35.829ZM78.5932 36H79.3762C79.5202 36 79.6012 35.91 79.6372 35.82L80.0782 34.848H82.7692L83.2102 35.82C83.2732 35.946 83.3362 36 83.4712 36H84.2542C84.3892 36 84.4612 35.883 84.4072 35.766L81.6352 29.709C81.6082 29.655 81.5722 29.61 81.4822 29.61H81.3922C81.3112 29.61 81.2662 29.655 81.2392 29.709L78.4402 35.766C78.3862 35.883 78.4582 36 78.5932 36ZM80.5192 33.849L81.4012 31.869H81.4282L82.3282 33.849H80.5192ZM85.406 35.829C85.406 35.919 85.487 36 85.577 36H86.396C86.495 36 86.567 35.919 86.567 35.829V31.959H86.585L90.275 36.027C90.32 36.072 90.365 36.09 90.428 36.09H90.554C90.644 36.09 90.725 36.018 90.725 35.928V29.871C90.725 29.781 90.644 29.7 90.554 29.7H89.726C89.627 29.7 89.555 29.781 89.555 29.871V33.588H89.537L85.865 29.673C85.82 29.628 85.775 29.61 85.712 29.61H85.577C85.487 29.61 85.406 29.682 85.406 29.772V35.829ZM92.0909 32.859C92.0909 34.659 93.5309 36.081 95.3219 36.081C96.6269 36.081 97.5539 35.496 97.5539 35.496C97.5899 35.469 97.6259 35.424 97.6259 35.352V33.048C97.6259 32.958 97.5539 32.877 97.4639 32.877H95.7359C95.6369 32.877 95.5649 32.949 95.5649 33.048V33.759C95.5649 33.849 95.6369 33.921 95.7359 33.921H96.4559V34.686C96.2759 34.758 95.8889 34.911 95.3849 34.911C94.2509 34.911 93.3599 33.966 93.3599 32.85C93.3599 31.725 94.2509 30.762 95.3759 30.762C95.8709 30.762 96.3479 30.942 96.7349 31.284C96.8159 31.356 96.8969 31.356 96.9689 31.284L97.5269 30.699C97.5989 30.627 97.5899 30.519 97.5179 30.447C96.9059 29.925 96.1319 29.61 95.3219 29.61C93.5309 29.61 92.0909 31.059 92.0909 32.859ZM99.127 35.829C99.127 35.919 99.199 36 99.298 36H102.961C103.06 36 103.132 35.919 103.132 35.829V35.091C103.132 35.001 103.06 34.92 102.961 34.92H100.297V33.345H102.52C102.61 33.345 102.691 33.273 102.691 33.174V32.427C102.691 32.337 102.61 32.256 102.52 32.256H100.297V30.78H102.961C103.06 30.78 103.132 30.699 103.132 30.609V29.871C103.132 29.781 103.06 29.7 102.961 29.7H99.298C99.199 29.7 99.127 29.781 99.127 29.871V35.829ZM106.52 32.859C106.52 34.659 107.951 36.09 109.751 36.09C111.551 36.09 112.991 34.659 112.991 32.859C112.991 31.059 111.551 29.61 109.751 29.61C107.951 29.61 106.52 31.059 106.52 32.859ZM107.69 32.859C107.69 31.725 108.617 30.78 109.751 30.78C110.885 30.78 111.821 31.725 111.821 32.859C111.821 33.993 110.885 34.92 109.751 34.92C108.617 34.92 107.69 33.993 107.69 32.859ZM114.356 35.829C114.356 35.919 114.428 36 114.527 36H115.355C115.445 36 115.526 35.919 115.526 35.829V33.552H117.749C117.839 33.552 117.92 33.471 117.92 33.381V32.643C117.92 32.553 117.839 32.472 117.749 32.472H115.526V30.78H118.19C118.289 30.78 118.361 30.699 118.361 30.609V29.871C118.361 29.781 118.289 29.7 118.19 29.7H114.527C114.428 29.7 114.356 29.781 114.356 29.871V35.829ZM65.171 49H65.954C66.098 49 66.179 48.91 66.215 48.82L66.656 47.848H69.347L69.788 48.82C69.851 48.946 69.914 49 70.049 49H70.832C70.967 49 71.039 48.883 70.985 48.766L68.213 42.709C68.186 42.655 68.15 42.61 68.06 42.61H67.97C67.889 42.61 67.844 42.655 67.817 42.709L65.018 48.766C64.964 48.883 65.036 49 65.171 49ZM67.097 46.849L67.979 44.869H68.006L68.906 46.849H67.097ZM71.9839 48.829C71.9839 48.919 72.0559 49 72.1459 49H74.2789C76.0159 49 77.4379 47.587 77.4379 45.841C77.4379 44.113 76.0159 42.7 74.2789 42.7H72.1459C72.0559 42.7 71.9839 42.781 71.9839 42.871V48.829ZM73.1449 47.902V43.789H74.1709C75.3409 43.789 76.1959 44.617 76.1959 45.841C76.1959 47.074 75.3409 47.902 74.1709 47.902H73.1449ZM78.8092 48.829C78.8092 48.919 78.8812 49 78.9712 49H81.1042C82.8412 49 84.2632 47.587 84.2632 45.841C84.2632 44.113 82.8412 42.7 81.1042 42.7H78.9712C78.8812 42.7 78.8092 42.781 78.8092 42.871V48.829ZM79.9702 47.902V43.789H80.9962C82.1662 43.789 83.0212 44.617 83.0212 45.841C83.0212 47.074 82.1662 47.902 80.9962 47.902H79.9702ZM85.6346 48.829C85.6346 48.919 85.7066 49 85.8056 49H86.6336C86.7236 49 86.8046 48.919 86.8046 48.829V46.534H87.8036L89.0006 48.919C89.0186 48.955 89.0636 49 89.1446 49H90.0896C90.2426 49 90.3056 48.856 90.2426 48.739L89.0096 46.453C89.7926 46.138 90.3416 45.463 90.3416 44.635C90.3416 43.564 89.4596 42.7 88.3796 42.7H85.8056C85.7066 42.7 85.6346 42.781 85.6346 42.871V48.829ZM86.8136 45.571V43.78H88.2806C88.7576 43.78 89.1716 44.176 89.1716 44.653C89.1716 45.157 88.7576 45.571 88.2806 45.571H86.8136ZM91.7831 48.829C91.7831 48.919 91.8551 49 91.9541 49H95.6171C95.7161 49 95.7881 48.919 95.7881 48.829V48.091C95.7881 48.001 95.7161 47.92 95.6171 47.92H92.9531V46.345H95.1761C95.2661 46.345 95.3471 46.273 95.3471 46.174V45.427C95.3471 45.337 95.2661 45.256 95.1761 45.256H92.9531V43.78H95.6171C95.7161 43.78 95.7881 43.699 95.7881 43.609V42.871C95.7881 42.781 95.7161 42.7 95.6171 42.7H91.9541C91.8551 42.7 91.7831 42.781 91.7831 42.871V48.829ZM98.8509 49.09C100.12 49.09 100.921 48.235 100.921 47.308C100.921 46.147 99.9129 45.625 99.0399 45.274C98.3109 44.977 97.9779 44.689 97.9779 44.266C97.9779 43.924 98.2569 43.636 98.7699 43.636C99.2649 43.636 99.6339 43.888 100.021 44.131C100.129 44.203 100.264 44.131 100.336 44.023L100.678 43.51C100.741 43.42 100.714 43.267 100.624 43.213C100.444 43.078 99.7419 42.61 98.8239 42.61C97.3929 42.61 96.7989 43.537 96.7989 44.338C96.7989 45.4 97.6449 45.94 98.4909 46.282C99.2469 46.588 99.6339 46.903 99.6339 47.362C99.6339 47.749 99.2829 48.055 98.8149 48.055C98.2299 48.055 97.8249 47.776 97.4559 47.497C97.3749 47.434 97.2219 47.434 97.1499 47.56L96.8259 48.118C96.7449 48.262 96.7809 48.316 96.8709 48.388C97.1319 48.613 97.7169 49.09 98.8509 49.09ZM103.962 49.09C105.231 49.09 106.032 48.235 106.032 47.308C106.032 46.147 105.024 45.625 104.151 45.274C103.422 44.977 103.089 44.689 103.089 44.266C103.089 43.924 103.368 43.636 103.881 43.636C104.376 43.636 104.745 43.888 105.132 44.131C105.24 44.203 105.375 44.131 105.447 44.023L105.789 43.51C105.852 43.42 105.825 43.267 105.735 43.213C105.555 43.078 104.853 42.61 103.935 42.61C102.504 42.61 101.91 43.537 101.91 44.338C101.91 45.4 102.756 45.94 103.602 46.282C104.358 46.588 104.745 46.903 104.745 47.362C104.745 47.749 104.394 48.055 103.926 48.055C103.341 48.055 102.936 47.776 102.567 47.497C102.486 47.434 102.333 47.434 102.261 47.56L101.937 48.118C101.856 48.262 101.892 48.316 101.982 48.388C102.243 48.613 102.828 49.09 103.962 49.09Z" fill="#464646"/>
<path fill-rule="evenodd" clip-rule="evenodd" d="M41.5419 39.682C42.6585 37.0415 43.2169 34.8573 43.2169 33.1293C43.2169 25.8782 37.348 20 30.1084 20C22.8688 20 17 25.8782 17 33.1293C17 37.9633 21.3695 46.3679 30.1084 58.3429C31.6135 56.1074 32.6993 54.4839 33.3659 53.4724" fill="#A9C6FF"/>
<path d="M41.5419 39.682C42.6585 37.0415 43.2169 34.8573 43.2169 33.1293C43.2169 25.8782 37.348 20 30.1084 20C22.8688 20 17 25.8782 17 33.1293C17 37.9633 21.3695 46.3679 30.1084 58.3429V58.3429C31.6135 56.1074 32.6993 54.4839 33.3659 53.4724" stroke="#1966FF" stroke-width="2" stroke-linecap="round" stroke-linejoin="round"/>
<path fill-rule="evenodd" clip-rule="evenodd" d="M30.1085 38.5998C33.1249 38.5998 35.5703 36.1506 35.5703 33.1293C35.5703 30.108 33.1249 27.6587 30.1085 27.6587C27.092 27.6587 24.6466 30.108 24.6466 33.1293C24.6466 36.1506 27.092 38.5998 30.1085 38.5998Z" fill="white" stroke="#1966FF" stroke-width="2" stroke-linecap="round" stroke-linejoin="round"/>
<path fill-rule="evenodd" clip-rule="evenodd" d="M32.937 42.9398V52.8495L34.3627 54.6293L40.7071 59.1162L47.649 53.8125L48.3647 51.028V42.5342L40.6509 39.4241L32.937 42.9398Z" fill="#70A0FF"/>
<path fill-rule="evenodd" clip-rule="evenodd" d="M40.2548 59.835L34.2813 55.576C33.0393 54.6918 32.2991 53.2621 32.2932 51.7359V42.6741C32.2928 42.3691 32.473 42.093 32.752 41.971L40.3986 38.6624C40.5919 38.5789 40.8109 38.5789 41.0042 38.6624L48.6508 41.971C48.9298 42.093 49.11 42.3691 49.1096 42.6741V51.7359C49.1024 53.2632 48.3598 54.6932 47.1154 55.576L41.1418 59.835C40.8764 60.0243 40.5203 60.0243 40.2548 59.835ZM40.6983 40.2003L33.8164 43.1772V51.7359C33.8231 52.7681 34.3268 53.7336 35.1691 54.3284L40.6983 58.2711L46.2276 54.333C47.0709 53.7369 47.5747 52.7696 47.5803 51.7359V43.1772L40.6983 40.2003Z" fill="#1966FF"/>
<path fill-rule="evenodd" clip-rule="evenodd" d="M40.4036 56.3207L36.4206 53.4808C35.5925 52.8913 35.0989 51.938 35.095 50.9203V44.8781C35.0947 44.6748 35.2148 44.4906 35.4009 44.4093L40.4995 42.2032C40.6284 42.1475 40.7744 42.1475 40.9033 42.2032L46.0019 44.4093C46.188 44.4906 46.3081 44.6748 46.3078 44.8781V50.9203C46.303 51.9387 45.8079 52.8922 44.9781 53.4808L40.9951 56.3207C40.8181 56.4469 40.5806 56.4469 40.4036 56.3207Z" fill="#1966FF"/>
<path d="M40.0559 49.9126C39.9704 49.8579 39.8506 49.8725 39.7865 49.9454C39.4659 50.3075 38.977 50.5153 38.4455 50.5153H37.9153C37.8084 50.5153 37.7229 50.5882 37.7229 50.6793C37.7229 50.7705 37.8084 50.8434 37.9153 50.8434H38.4469C38.7761 50.8434 39.091 50.779 39.3818 50.6526C39.6597 50.5323 39.9062 50.3561 40.0943 50.1423C40.1571 50.0706 40.1414 49.9673 40.0559 49.9126Z" fill="white" stroke="white"/>
<path d="M40.6874 47.2613C40.7223 47.2846 40.7627 47.2956 40.8032 47.2956C40.859 47.2956 40.9148 47.2735 40.9525 47.2318C41.2664 46.8759 41.7393 46.6722 42.25 46.6722H43.3452L42.7606 47.1864C42.6867 47.2514 42.6867 47.3558 42.7606 47.4208C42.7969 47.4527 42.8457 47.4699 42.8931 47.4699C42.9406 47.4699 42.9894 47.4539 43.0257 47.4208L43.9325 46.6231C44.0065 46.558 44.0065 46.4537 43.9325 46.3887L43.0257 45.591C42.9517 45.5259 42.8331 45.5259 42.7592 45.591C42.6853 45.656 42.6853 45.7603 42.7592 45.8254L43.3438 46.3396H42.2486C41.6207 46.3396 41.039 46.5899 40.6525 47.0281C40.5911 47.1017 40.6051 47.2048 40.6874 47.2613Z" fill="white" stroke="white"/>
<path d="M43.0023 49.8115C42.9264 49.7423 42.8048 49.7423 42.7289 49.8115C42.6531 49.8806 42.6531 49.9915 42.7289 50.0606L43.3286 50.6072H42.2052C41.2764 50.6072 40.5207 49.9184 40.5207 49.0718V48.3935C40.5207 47.3526 39.5919 46.506 38.4499 46.506H37.9161C37.8088 46.506 37.7229 46.5843 37.7229 46.6821C37.7229 46.78 37.8088 46.8582 37.9161 46.8582H38.4499C39.3787 46.8582 40.1343 47.547 40.1343 48.3935V49.0718C40.1343 50.1128 41.0631 50.9594 42.2052 50.9594H43.3286L42.7289 51.5059C42.6531 51.575 42.6531 51.6859 42.7289 51.7551C42.7661 51.789 42.8162 51.8072 42.8649 51.8072C42.9136 51.8072 42.9636 51.7903 43.0008 51.7551L43.9311 50.9072C44.0069 50.838 44.0069 50.7272 43.9311 50.658L43.0023 49.8115Z" fill="white" stroke="white"/>
</g>
<defs>
<filter id="filter0_d" x="-8" y="-3.05797" width="166" height="96" filterUnits="userSpaceOnUse" color-interpolation-filters="sRGB">
<feFlood flood-opacity="0" result="BackgroundImageFix"/>
<feColorMatrix in="SourceAlpha" type="matrix" values="0 0 0 0 0 0 0 0 0 0 0 0 0 0 0 0 0 0 127 0"/>
<feOffset dy="4"/>
<feGaussianBlur stdDeviation="4"/>
<feColorMatrix type="matrix" values="0 0 0 0 0.835671 0 0 0 0 0.882839 0 0 0 0 1 0 0 0 1 0"/>
<feBlend mode="normal" in2="BackgroundImageFix" result="effect1_dropShadow"/>
<feBlend mode="normal" in="SourceGraphic" in2="effect1_dropShadow" result="shape"/>
</filter>
<clipPath id="clip0">
<rect width="150" height="81" fill="white"/>
</clipPath>
</defs>
</svg>
