<svg width="130" height="35" viewBox="0 0 130 35" fill="none" xmlns="http://www.w3.org/2000/svg">
<rect width="130" height="35" rx="17.5" fill="#3662FF"/>
<path d="M32.7144 17.161C32.7144 19.361 34.4854 21.11 36.6854 21.11C37.6644 21.11 38.6104 20.769 39.3584 20.043C39.4354 19.966 39.4574 19.823 39.3694 19.746L38.6874 19.042C38.6214 18.976 38.5004 18.965 38.4124 19.042C37.9504 19.416 37.3894 19.669 36.7294 19.669C35.3214 19.669 34.2654 18.503 34.2654 17.128C34.2654 15.742 35.3104 14.565 36.7184 14.565C37.3344 14.565 37.9504 14.807 38.4124 15.214C38.5004 15.302 38.6104 15.302 38.6874 15.214L39.3584 14.521C39.4464 14.433 39.4464 14.301 39.3474 14.213C38.5994 13.542 37.7964 13.19 36.6854 13.19C34.4854 13.19 32.7144 14.961 32.7144 17.161ZM40.2127 17.161C40.2127 19.361 41.9617 21.11 44.1617 21.11C46.3617 21.11 48.1217 19.361 48.1217 17.161C48.1217 14.961 46.3617 13.19 44.1617 13.19C41.9617 13.19 40.2127 14.961 40.2127 17.161ZM41.6427 17.161C41.6427 15.775 42.7757 14.62 44.1617 14.62C45.5477 14.62 46.6917 15.775 46.6917 17.161C46.6917 18.547 45.5477 19.68 44.1617 19.68C42.7757 19.68 41.6427 18.547 41.6427 17.161ZM49.5606 20.791C49.5606 20.901 49.6596 21 49.7696 21H50.7706C50.8916 21 50.9796 20.901 50.9796 20.791V16.061H50.9906L55.5886 21.11H55.8526C55.9626 21.11 56.0616 21.022 56.0616 20.912V13.509C56.0616 13.399 55.9626 13.3 55.8526 13.3H54.8406C54.7196 13.3 54.6316 13.399 54.6316 13.509V18.052H54.6206L50.0446 13.19H49.7696C49.6596 13.19 49.5606 13.278 49.5606 13.388V20.791ZM59.1024 20.791C59.1024 20.901 59.2014 21 59.3114 21H60.3344C60.4444 21 60.5434 20.901 60.5434 20.791V14.62H62.2264C62.3474 14.62 62.4354 14.521 62.4354 14.411V13.509C62.4354 13.399 62.3474 13.3 62.2264 13.3H57.4194C57.2984 13.3 57.2104 13.399 57.2104 13.509V14.411C57.2104 14.521 57.2984 14.62 57.4194 14.62H59.1024V20.791ZM62.3462 21H63.3032C63.4792 21 63.5782 20.89 63.6222 20.78L64.1612 19.592H67.4502L67.9892 20.78C68.0662 20.934 68.1432 21 68.3082 21H69.2652C69.4302 21 69.5182 20.857 69.4522 20.714L66.0642 13.311C66.0312 13.245 65.9872 13.19 65.8772 13.19H65.7672C65.6682 13.19 65.6132 13.245 65.5802 13.311L62.1592 20.714C62.0932 20.857 62.1812 21 62.3462 21ZM64.7002 18.371L65.7782 15.951H65.8112L66.9112 18.371H64.7002ZM69.8394 17.161C69.8394 19.361 71.6104 21.11 73.8104 21.11C74.7894 21.11 75.7354 20.769 76.4834 20.043C76.5604 19.966 76.5824 19.823 76.4944 19.746L75.8124 19.042C75.7464 18.976 75.6254 18.965 75.5374 19.042C75.0754 19.416 74.5144 19.669 73.8544 19.669C72.4464 19.669 71.3904 18.503 71.3904 17.128C71.3904 15.742 72.4354 14.565 73.8434 14.565C74.4594 14.565 75.0754 14.807 75.5374 15.214C75.6254 15.302 75.7354 15.302 75.8124 15.214L76.4834 14.521C76.5714 14.433 76.5714 14.301 76.4724 14.213C75.7244 13.542 74.9214 13.19 73.8104 13.19C71.6104 13.19 69.8394 14.961 69.8394 17.161ZM78.9539 20.791C78.9539 20.901 79.0529 21 79.1629 21H80.1859C80.2959 21 80.3949 20.901 80.3949 20.791V14.62H82.0779C82.1989 14.62 82.2869 14.521 82.2869 14.411V13.509C82.2869 13.399 82.1989 13.3 82.0779 13.3H77.2709C77.1499 13.3 77.0619 13.399 77.0619 13.509V14.411C77.0619 14.521 77.1499 14.62 77.2709 14.62H78.9539V20.791ZM85.7484 18.085C85.7484 19.757 87.0794 21.11 88.8064 21.11C90.5444 21.11 91.8754 19.757 91.8754 18.085V13.509C91.8754 13.399 91.7764 13.3 91.6664 13.3H90.6214C90.5004 13.3 90.4124 13.399 90.4124 13.509V18.019C90.4124 18.943 89.7634 19.68 88.8064 19.68C87.8494 19.68 87.2114 18.943 87.2114 18.008V13.509C87.2114 13.399 87.1234 13.3 87.0024 13.3H85.9574C85.8474 13.3 85.7484 13.399 85.7484 13.509V18.085ZM93.3687 20.252C93.5887 20.461 94.4027 21.11 95.7887 21.11C97.3397 21.11 98.3187 20.065 98.3187 18.932C98.3187 17.513 97.0867 16.875 96.0197 16.446C95.1287 16.083 94.7217 15.731 94.7217 15.214C94.7217 14.862 95.0627 14.444 95.6897 14.444C96.2947 14.444 97.1307 14.994 97.2187 15.049C97.3507 15.137 97.5157 15.049 97.6037 14.917L98.0217 14.29C98.0987 14.18 98.0657 13.993 97.9557 13.927C97.7357 13.762 96.8777 13.19 95.7557 13.19C94.0067 13.19 93.2807 14.323 93.2807 15.302C93.2807 16.6 94.3147 17.26 95.3487 17.678C96.2727 18.052 96.7457 18.437 96.7457 18.998C96.7457 19.471 96.3167 19.845 95.7447 19.845C95.0297 19.845 94.1387 19.196 94.0837 19.163C93.9847 19.086 93.7977 19.086 93.7097 19.24L93.3137 19.922C93.2147 20.098 93.2697 20.153 93.3687 20.252Z" fill="white"/>
</svg>
