<svg width="151" height="81" viewBox="0 0 151 81" fill="none" xmlns="http://www.w3.org/2000/svg">
<g clip-path="url(#clip0)">
<g filter="url(#filter0_d)">
<rect y="0.869568" width="150" height="80" rx="5" fill="white"/>
<rect x="0.5" y="1.36957" width="149" height="79" rx="4.5" stroke="#E3E9F1"/>
</g>
<path d="M64.765 36.829C64.765 36.919 64.837 37 64.936 37H65.764C65.854 37 65.935 36.919 65.935 36.829V34.534H66.934L68.131 36.919C68.149 36.955 68.194 37 68.275 37H69.22C69.373 37 69.436 36.856 69.373 36.739L68.14 34.453C68.923 34.138 69.472 33.463 69.472 32.635C69.472 31.564 68.59 30.7 67.51 30.7H64.936C64.837 30.7 64.765 30.781 64.765 30.871V36.829ZM65.944 33.571V31.78H67.411C67.888 31.78 68.302 32.176 68.302 32.653C68.302 33.157 67.888 33.571 67.411 33.571H65.944ZM70.9136 36.829C70.9136 36.919 70.9856 37 71.0846 37H74.7476C74.8466 37 74.9186 36.919 74.9186 36.829V36.091C74.9186 36.001 74.8466 35.92 74.7476 35.92H72.0836V34.345H74.3066C74.3966 34.345 74.4776 34.273 74.4776 34.174V33.427C74.4776 33.337 74.3966 33.256 74.3066 33.256H72.0836V31.78H74.7476C74.8466 31.78 74.9186 31.699 74.9186 31.609V30.871C74.9186 30.781 74.8466 30.7 74.7476 30.7H71.0846C70.9856 30.7 70.9136 30.781 70.9136 30.871V36.829ZM75.8406 33.859C75.8406 35.659 77.2716 37.09 79.0716 37.09C79.1796 37.09 79.3326 37.081 79.4766 37.063L80.4396 38.692C80.4666 38.746 80.5476 38.782 80.5836 38.782H81.5376C81.6816 38.782 81.7626 38.638 81.6816 38.512L80.5566 36.739C81.6006 36.163 82.3116 35.083 82.3116 33.859C82.3116 32.059 80.8716 30.61 79.0716 30.61C77.2716 30.61 75.8406 32.059 75.8406 33.859ZM77.0106 33.859C77.0106 32.725 77.9376 31.78 79.0716 31.78C80.2056 31.78 81.1416 32.725 81.1416 33.859C81.1416 34.993 80.2056 35.92 79.0716 35.92C77.9376 35.92 77.0106 34.993 77.0106 33.859ZM83.6135 34.687C83.6135 36.055 84.7025 37.09 86.1155 37.09C87.5375 37.09 88.6265 36.055 88.6265 34.687V30.871C88.6265 30.781 88.5455 30.7 88.4555 30.7H87.6005C87.5015 30.7 87.4295 30.781 87.4295 30.871V34.633C87.4295 35.389 86.8985 35.92 86.1155 35.92C85.3325 35.92 84.8105 35.389 84.8105 34.624V30.871C84.8105 30.781 84.7385 30.7 84.6395 30.7H83.7845C83.6945 30.7 83.6135 30.781 83.6135 30.871V34.687ZM90.2997 36.829C90.2997 36.919 90.3717 37 90.4707 37H94.1337C94.2327 37 94.3047 36.919 94.3047 36.829V36.091C94.3047 36.001 94.2327 35.92 94.1337 35.92H91.4697V34.345H93.6927C93.7827 34.345 93.8637 34.273 93.8637 34.174V33.427C93.8637 33.337 93.7827 33.256 93.6927 33.256H91.4697V31.78H94.1337C94.2327 31.78 94.3047 31.699 94.3047 31.609V30.871C94.3047 30.781 94.2327 30.7 94.1337 30.7H90.4707C90.3717 30.7 90.2997 30.781 90.2997 30.871V36.829ZM97.3675 37.09C98.6365 37.09 99.4375 36.235 99.4375 35.308C99.4375 34.147 98.4295 33.625 97.5565 33.274C96.8275 32.977 96.4945 32.689 96.4945 32.266C96.4945 31.924 96.7735 31.636 97.2865 31.636C97.7815 31.636 98.1505 31.888 98.5375 32.131C98.6455 32.203 98.7805 32.131 98.8525 32.023L99.1945 31.51C99.2575 31.42 99.2305 31.267 99.1405 31.213C98.9605 31.078 98.2585 30.61 97.3405 30.61C95.9095 30.61 95.3155 31.537 95.3155 32.338C95.3155 33.4 96.1615 33.94 97.0075 34.282C97.7635 34.588 98.1505 34.903 98.1505 35.362C98.1505 35.749 97.7995 36.055 97.3315 36.055C96.7465 36.055 96.3415 35.776 95.9725 35.497C95.8915 35.434 95.7385 35.434 95.6665 35.56L95.3425 36.118C95.2615 36.262 95.2975 36.316 95.3875 36.388C95.6485 36.613 96.2335 37.09 97.3675 37.09ZM101.777 36.829C101.777 36.919 101.858 37 101.948 37H102.785C102.875 37 102.956 36.919 102.956 36.829V31.78H104.333C104.432 31.78 104.504 31.699 104.504 31.609V30.871C104.504 30.781 104.432 30.7 104.333 30.7H100.4C100.301 30.7 100.229 30.781 100.229 30.871V31.609C100.229 31.699 100.301 31.78 100.4 31.78H101.777V36.829ZM108.083 36.829C108.083 36.919 108.155 37 108.254 37H109.082C109.172 37 109.253 36.919 109.253 36.829V34.714H110.378C111.476 34.714 112.385 33.805 112.385 32.689C112.385 31.6 111.476 30.7 110.369 30.7H108.254C108.155 30.7 108.083 30.781 108.083 30.871V36.829ZM109.253 33.616V31.807H110.333C110.837 31.807 111.224 32.185 111.224 32.68C111.224 33.211 110.837 33.616 110.333 33.616H109.253ZM113.22 33.859C113.22 35.659 114.651 37.09 116.451 37.09C118.251 37.09 119.691 35.659 119.691 33.859C119.691 32.059 118.251 30.61 116.451 30.61C114.651 30.61 113.22 32.059 113.22 33.859ZM114.39 33.859C114.39 32.725 115.317 31.78 116.451 31.78C117.585 31.78 118.521 32.725 118.521 33.859C118.521 34.993 117.585 35.92 116.451 35.92C115.317 35.92 114.39 34.993 114.39 33.859ZM121.056 36.829C121.056 36.919 121.128 37 121.227 37H124.521C124.62 37 124.692 36.919 124.692 36.829V36.091C124.692 36.001 124.62 35.92 124.521 35.92H122.226V30.871C122.226 30.781 122.145 30.7 122.055 30.7H121.227C121.128 30.7 121.056 30.781 121.056 30.871V36.829ZM125.808 36.829C125.808 36.919 125.889 37 125.979 37H126.816C126.906 37 126.987 36.919 126.987 36.829V30.871C126.987 30.781 126.906 30.7 126.816 30.7H125.979C125.889 30.7 125.808 30.781 125.808 30.871V36.829ZM128.353 33.859C128.353 35.659 129.802 37.09 131.602 37.09C132.403 37.09 133.177 36.811 133.789 36.217C133.852 36.154 133.87 36.037 133.798 35.974L133.24 35.398C133.186 35.344 133.087 35.335 133.015 35.398C132.637 35.704 132.178 35.911 131.638 35.911C130.486 35.911 129.622 34.957 129.622 33.832C129.622 32.698 130.477 31.735 131.629 31.735C132.133 31.735 132.637 31.933 133.015 32.266C133.087 32.338 133.177 32.338 133.24 32.266L133.789 31.699C133.861 31.627 133.861 31.519 133.78 31.447C133.168 30.898 132.511 30.61 131.602 30.61C129.802 30.61 128.353 32.059 128.353 33.859ZM136.439 36.829C136.439 36.919 136.511 37 136.61 37H137.438C137.528 37 137.609 36.919 137.609 36.829V33.958L139.688 30.961C139.76 30.844 139.688 30.7 139.544 30.7H138.617C138.545 30.7 138.5 30.745 138.473 30.781L137.033 32.851L135.593 30.781C135.566 30.745 135.521 30.7 135.449 30.7H134.531C134.387 30.7 134.315 30.844 134.387 30.961L136.439 33.967V36.829ZM64.765 49.829C64.765 49.919 64.837 50 64.927 50H67.06C68.797 50 70.219 48.587 70.219 46.841C70.219 45.113 68.797 43.7 67.06 43.7H64.927C64.837 43.7 64.765 43.781 64.765 43.871V49.829ZM65.926 48.902V44.789H66.952C68.122 44.789 68.977 45.617 68.977 46.841C68.977 48.074 68.122 48.902 66.952 48.902H65.926ZM71.2213 46.859C71.2213 48.659 72.6523 50.09 74.4523 50.09C76.2523 50.09 77.6923 48.659 77.6923 46.859C77.6923 45.059 76.2523 43.61 74.4523 43.61C72.6523 43.61 71.2213 45.059 71.2213 46.859ZM72.3913 46.859C72.3913 45.725 73.3183 44.78 74.4523 44.78C75.5863 44.78 76.5223 45.725 76.5223 46.859C76.5223 47.993 75.5863 48.92 74.4523 48.92C73.3183 48.92 72.3913 47.993 72.3913 46.859ZM78.6883 46.859C78.6883 48.659 80.1373 50.09 81.9373 50.09C82.7383 50.09 83.5123 49.811 84.1243 49.217C84.1873 49.154 84.2053 49.037 84.1333 48.974L83.5753 48.398C83.5213 48.344 83.4223 48.335 83.3503 48.398C82.9723 48.704 82.5133 48.911 81.9733 48.911C80.8213 48.911 79.9573 47.957 79.9573 46.832C79.9573 45.698 80.8123 44.735 81.9643 44.735C82.4683 44.735 82.9723 44.933 83.3503 45.266C83.4223 45.338 83.5123 45.338 83.5753 45.266L84.1243 44.699C84.1963 44.627 84.1963 44.519 84.1153 44.447C83.5033 43.898 82.8463 43.61 81.9373 43.61C80.1373 43.61 78.6883 45.059 78.6883 46.859ZM85.3977 47.687C85.3977 49.055 86.4867 50.09 87.8997 50.09C89.3217 50.09 90.4107 49.055 90.4107 47.687V43.871C90.4107 43.781 90.3297 43.7 90.2397 43.7H89.3847C89.2857 43.7 89.2137 43.781 89.2137 43.871V47.633C89.2137 48.389 88.6827 48.92 87.8997 48.92C87.1167 48.92 86.5947 48.389 86.5947 47.624V43.871C86.5947 43.781 86.5227 43.7 86.4237 43.7H85.5687C85.4787 43.7 85.3977 43.781 85.3977 43.871V47.687ZM91.6716 49.793C91.6536 49.919 91.7256 50 91.8426 50H92.6526C92.7336 50 92.8056 49.928 92.8146 49.865L93.3366 46.454C93.3456 46.454 93.3636 46.454 93.3636 46.454L94.9566 49.991C94.9836 50.045 95.0286 50.09 95.1096 50.09H95.2716C95.3526 50.09 95.4066 50.045 95.4246 49.991L96.9996 46.454C96.9996 46.454 97.0176 46.454 97.0266 46.454L97.5576 49.865C97.5756 49.928 97.6476 50 97.7286 50H98.5476C98.6646 50 98.7366 49.919 98.7096 49.793L97.6476 43.745C97.6386 43.673 97.5846 43.61 97.4856 43.61H97.3416C97.2606 43.61 97.2156 43.646 97.1886 43.7L95.2086 47.948C95.1996 47.948 95.1996 47.948 95.1816 47.948L93.2016 43.7C93.1746 43.646 93.1206 43.61 93.0486 43.61H92.9046C92.8056 43.61 92.7516 43.673 92.7426 43.745L91.6716 49.793ZM100.105 49.829C100.105 49.919 100.177 50 100.276 50H103.939C104.038 50 104.11 49.919 104.11 49.829V49.091C104.11 49.001 104.038 48.92 103.939 48.92H101.275V47.345H103.498C103.588 47.345 103.669 47.273 103.669 47.174V46.427C103.669 46.337 103.588 46.256 103.498 46.256H101.275V44.78H103.939C104.038 44.78 104.11 44.699 104.11 44.609V43.871C104.11 43.781 104.038 43.7 103.939 43.7H100.276C100.177 43.7 100.105 43.781 100.105 43.871V49.829ZM105.497 49.829C105.497 49.919 105.578 50 105.668 50H106.487C106.586 50 106.658 49.919 106.658 49.829V45.959H106.676L110.366 50.027C110.411 50.072 110.456 50.09 110.519 50.09H110.645C110.735 50.09 110.816 50.018 110.816 49.928V43.871C110.816 43.781 110.735 43.7 110.645 43.7H109.817C109.718 43.7 109.646 43.781 109.646 43.871V47.588H109.628L105.956 43.673C105.911 43.628 105.866 43.61 105.803 43.61H105.668C105.578 43.61 105.497 43.682 105.497 43.772V49.829ZM113.568 49.829C113.568 49.919 113.649 50 113.739 50H114.576C114.666 50 114.747 49.919 114.747 49.829V44.78H116.124C116.223 44.78 116.295 44.699 116.295 44.609V43.871C116.295 43.781 116.223 43.7 116.124 43.7H112.191C112.092 43.7 112.02 43.781 112.02 43.871V44.609C112.02 44.699 112.092 44.78 112.191 44.78H113.568V49.829ZM119.223 50.09C120.492 50.09 121.293 49.235 121.293 48.308C121.293 47.147 120.285 46.625 119.412 46.274C118.683 45.977 118.35 45.689 118.35 45.266C118.35 44.924 118.629 44.636 119.142 44.636C119.637 44.636 120.006 44.888 120.393 45.131C120.501 45.203 120.636 45.131 120.708 45.023L121.05 44.51C121.113 44.42 121.086 44.267 120.996 44.213C120.816 44.078 120.114 43.61 119.196 43.61C117.765 43.61 117.171 44.537 117.171 45.338C117.171 46.4 118.017 46.94 118.863 47.282C119.619 47.588 120.006 47.903 120.006 48.362C120.006 48.749 119.655 49.055 119.187 49.055C118.602 49.055 118.197 48.776 117.828 48.497C117.747 48.434 117.594 48.434 117.522 48.56L117.198 49.118C117.117 49.262 117.153 49.316 117.243 49.388C117.504 49.613 118.089 50.09 119.223 50.09Z" fill="#464646"/>
<path fill-rule="evenodd" clip-rule="evenodd" d="M20.3733 20.3231V22.7065H36.1582L43.6684 30.6979V35.9577L45.0423 35.0857L46.2131 35.9577V21.4261L45.0423 20L20.3733 20.3231Z" fill="#A9C6FF"/>
<path fill-rule="evenodd" clip-rule="evenodd" d="M17.4133 24.534L18.4749 23.12H22.3678H36.1159L43.6479 31.5208L43.1728 57.956L42.1611 58.38H18.4749L17.4133 57.0282V24.534Z" fill="#A9C6FF"/>
<path fill-rule="evenodd" clip-rule="evenodd" d="M44.6114 35.6943L35.944 40.0309L36.2158 50.8474L38.4388 53.5135L44.6114 58.654L52.4862 52.6581L53.4249 49.8653V39.6331L44.6114 35.6943Z" fill="#70A0FF"/>
<path d="M20.6914 27.1437H24.3882C24.7285 27.1437 25.0043 26.8529 25.0043 26.4943C25.0043 26.1356 24.7285 25.8448 24.3882 25.8448H20.6914C20.3512 25.8448 20.0753 26.1356 20.0753 26.4943C20.0753 26.8529 20.3512 27.1437 20.6914 27.1437Z" fill="#1966FF"/>
<path d="M27.4688 27.1437H33.0139C33.3542 27.1437 33.63 26.8529 33.63 26.4943C33.63 26.1356 33.3542 25.8448 33.0139 25.8448H27.4688C27.1285 25.8448 26.8527 26.1356 26.8527 26.4943C26.8527 26.8529 27.1285 27.1437 27.4688 27.1437Z" fill="#1966FF"/>
<path d="M20.6914 34.2874H40.4074C40.7477 34.2874 41.0236 33.9967 41.0236 33.638C41.0236 33.2793 40.7477 32.9886 40.4074 32.9886H20.6914C20.3512 32.9886 20.0753 33.2793 20.0753 33.638C20.0753 33.9967 20.3512 34.2874 20.6914 34.2874Z" fill="#1966FF"/>
<path d="M20.6914 36.8852H29.3172C29.6575 36.8852 29.9333 36.5944 29.9333 36.2357C29.9333 35.8771 29.6575 35.5863 29.3172 35.5863H20.6914C20.3512 35.5863 20.0753 35.8771 20.0753 36.2357C20.0753 36.5944 20.3512 36.8852 20.6914 36.8852Z" fill="#1966FF"/>
<path d="M20.6914 42.0806H29.3172C29.6575 42.0806 29.9333 41.7898 29.9333 41.4311C29.9333 41.0725 29.6575 40.7817 29.3172 40.7817H20.6914C20.3512 40.7817 20.0753 41.0725 20.0753 41.4311C20.0753 41.7898 20.3512 42.0806 20.6914 42.0806Z" fill="#1966FF"/>
<path d="M20.6914 47.276H29.3172C29.6575 47.276 29.9333 46.9852 29.9333 46.6266C29.9333 46.2679 29.6575 45.9771 29.3172 45.9771H20.6914C20.3512 45.9771 20.0753 46.2679 20.0753 46.6266C20.0753 46.9852 20.3512 47.276 20.6914 47.276Z" fill="#1966FF"/>
<path d="M20.6914 52.4714H29.3172C29.6575 52.4714 29.9333 52.1807 29.9333 51.822C29.9333 51.4633 29.6575 51.1726 29.3172 51.1726H20.6914C20.3512 51.1726 20.0753 51.4633 20.0753 51.822C20.0753 52.1807 20.3512 52.4714 20.6914 52.4714Z" fill="#1966FF"/>
<path fill-rule="evenodd" clip-rule="evenodd" d="M53.5926 38.9179L46.5687 35.7207V21.9483C46.5687 20.8723 45.7412 20 44.7204 20H21.3076C20.2868 20 19.4592 20.8723 19.4592 21.9483V22.5977H18.8431C17.8223 22.5977 16.9948 23.47 16.9948 24.546V57.0174C16.9948 58.0934 17.8223 58.9657 18.8431 58.9657H42.2559C42.7543 58.9645 43.2311 58.7506 43.5774 58.3728L44.0827 58.7514C44.4646 59.0372 44.9761 59.0372 45.358 58.7514L51.3191 54.2788C52.9715 53.0426 53.9559 51.0413 53.9622 48.9054V39.514C53.9626 39.2555 53.8174 39.0213 53.5926 38.9179ZM20.6915 21.9483C20.6915 21.5896 20.9673 21.2989 21.3076 21.2989H44.7204C45.0606 21.2989 45.3365 21.5896 45.3365 21.9483V35.1596L44.9668 34.9901C44.8111 34.9193 44.6346 34.9193 44.4788 34.9901L44.1092 35.1596V31.0403C44.1092 31.0324 44.1071 31.0248 44.1051 31.0171C44.1034 31.0108 44.1017 31.0045 44.1012 30.9981C44.0981 30.9437 44.0882 30.8899 44.0716 30.8383C44.0697 30.8317 44.0687 30.825 44.0678 30.8183C44.0666 30.8099 44.0654 30.8015 44.0623 30.7935C44.0591 30.7853 44.0563 30.7818 44.054 30.7788C44.0522 30.7766 44.0507 30.7747 44.0494 30.7714C44.0194 30.7008 43.9777 30.6363 43.9262 30.5811L36.5327 22.788C36.4803 22.7337 36.4192 22.6897 36.3522 22.6581C36.3482 22.6562 36.3449 22.6537 36.3416 22.6512C36.3383 22.6486 36.335 22.6461 36.3312 22.6445C36.3276 22.6429 36.3207 22.6416 36.313 22.6402C36.3051 22.6387 36.2962 22.637 36.2893 22.6347C36.2397 22.6173 36.1881 22.6066 36.1359 22.6029C36.1271 22.604 36.1194 22.6022 36.1118 22.6004C36.1061 22.599 36.1005 22.5977 36.0946 22.5977H20.6915V21.9483ZM42.0008 30.3909L36.7107 24.8149V29.7414C36.7107 30.1001 36.9866 30.3909 37.3269 30.3909H42.0008ZM42.2559 57.6669H18.8431C18.5028 57.6669 18.227 57.3761 18.227 57.0174V24.546C18.227 24.1873 18.5028 23.8966 18.8431 23.8966H35.4785V29.7414C35.4785 30.8174 36.306 31.6897 37.3269 31.6897H42.872V35.7207L40.8887 36.6254C40.9738 36.5151 41.0213 36.3779 41.0236 36.2357C41.0236 35.877 40.7478 35.5863 40.4075 35.5863H31.7817C31.4415 35.5863 31.1656 35.877 31.1656 36.2357C31.1656 36.5944 31.4415 36.8851 31.7817 36.8851H40.3145L37.4618 38.184H20.6915C20.3512 38.184 20.0754 38.4748 20.0754 38.8334C20.0754 39.1921 20.3512 39.4829 20.6915 39.4829H35.4828C35.4828 39.4861 35.4824 39.4894 35.4818 39.4926C35.4815 39.4944 35.4811 39.4962 35.4807 39.498C35.4796 39.5032 35.4785 39.5084 35.4785 39.514V40.7817H31.7817C31.4415 40.7817 31.1656 41.0725 31.1656 41.4311C31.1656 41.7898 31.4415 42.0806 31.7817 42.0806H35.4785V43.3794H20.6915C20.3512 43.3794 20.0754 43.6702 20.0754 44.0289C20.0754 44.3875 20.3512 44.6783 20.6915 44.6783H35.4785V45.9771H31.7817C31.4415 45.9771 31.1656 46.2679 31.1656 46.6266C31.1656 46.9852 31.4415 47.276 31.7817 47.276H35.4785V48.5749H20.6915C20.3512 48.5749 20.0754 48.8656 20.0754 49.2243C20.0754 49.583 20.3512 49.8737 20.6915 49.8737H35.5555C35.6168 50.3168 35.7212 50.7521 35.8673 51.1726H31.7817C31.4415 51.1726 31.1656 51.4633 31.1656 51.822C31.1656 52.1807 31.4415 52.4714 31.7817 52.4714H36.4896C36.7807 52.9493 37.1288 53.3858 37.5253 53.7703H20.6915C20.3512 53.7703 20.0754 54.0611 20.0754 54.4197C20.0754 54.7784 20.3512 55.0691 20.6915 55.0691H39.1752L42.5319 57.5876C42.4473 57.6371 42.3526 57.6642 42.2559 57.6669ZM50.605 53.2202C51.9326 52.2279 52.724 50.6209 52.73 48.9054V39.9407L44.7204 36.2935L37.8376 39.4303L37.8259 39.4355L36.7107 39.9433V48.9054C36.7169 50.6207 37.5083 52.2273 38.8358 53.2196L44.7204 57.6357L50.605 53.2202Z" fill="#1966FF"/>
<path fill-rule="evenodd" clip-rule="evenodd" d="M51.7718 33.1443C51.7718 33.4754 52.0402 33.7438 52.3713 33.7438H52.6548C52.8293 33.7438 52.9708 33.8852 52.9708 34.0597C52.9708 34.2342 52.8293 34.3756 52.6548 34.3756H52.3713C52.0402 34.3756 51.7718 34.644 51.7718 34.9751V35.3397C51.7718 35.5052 51.6376 35.6394 51.4721 35.6394C51.3065 35.6394 51.1723 35.5052 51.1723 35.3397V34.9751C51.1723 34.644 50.9039 34.3756 50.5729 34.3756H50.2893C50.1148 34.3756 49.9734 34.2342 49.9734 34.0597C49.9734 33.8852 50.1148 33.7438 50.2893 33.7438H50.5729C50.9039 33.7438 51.1723 33.4754 51.1723 33.1443V32.7797C51.1723 32.6142 51.3065 32.48 51.4721 32.48C51.6376 32.48 51.7718 32.6142 51.7718 32.7797V33.1443Z" fill="#1966FF"/>
<path fill-rule="evenodd" clip-rule="evenodd" d="M55.7185 30.0243C55.7185 30.3553 55.9869 30.6237 56.3179 30.6237H56.6015C56.776 30.6237 56.9174 30.7652 56.9174 30.9397C56.9174 31.1142 56.776 31.2556 56.6015 31.2556H56.3179C55.9869 31.2556 55.7185 31.524 55.7185 31.8551V32.2196C55.7185 32.3852 55.5843 32.5194 55.4187 32.5194C55.2532 32.5194 55.119 32.3852 55.119 32.2196V31.8551C55.119 31.524 54.8506 31.2556 54.5195 31.2556H54.236C54.0615 31.2556 53.92 31.1142 53.92 30.9397C53.92 30.7652 54.0615 30.6237 54.236 30.6237H54.5195C54.8506 30.6237 55.119 30.3553 55.119 30.0243V29.6597C55.119 29.4942 55.2532 29.36 55.4187 29.36C55.5843 29.36 55.7185 29.4942 55.7185 29.6597V30.0243Z" fill="#1966FF"/>
<path fill-rule="evenodd" clip-rule="evenodd" d="M14.2784 35.2243C14.2784 35.5554 14.5468 35.8238 14.8779 35.8238H15.1614C15.3359 35.8238 15.4773 35.9652 15.4773 36.1397C15.4773 36.3142 15.3359 36.4556 15.1614 36.4556H14.8779C14.5468 36.4556 14.2784 36.724 14.2784 37.0551V37.4196C14.2784 37.5852 14.1442 37.7194 13.9787 37.7194C13.8131 37.7194 13.6789 37.5852 13.6789 37.4196V37.0551C13.6789 36.724 13.4105 36.4556 13.0795 36.4556H12.7959C12.6214 36.4556 12.48 36.3142 12.48 36.1397C12.48 35.9652 12.6214 35.8238 12.7959 35.8238H13.0795C13.4105 35.8238 13.6789 35.5554 13.6789 35.2243V34.8597C13.6789 34.6942 13.8131 34.56 13.9787 34.56C14.1442 34.56 14.2784 34.6942 14.2784 34.8597V35.2243Z" fill="#1966FF"/>
<path fill-rule="evenodd" clip-rule="evenodd" d="M12.7984 24.8768C12.7984 25.2079 13.0668 25.4763 13.3979 25.4763H13.6814C13.8559 25.4763 13.9974 25.6177 13.9974 25.7922C13.9974 25.9667 13.8559 26.1082 13.6814 26.1082H13.3979C13.0668 26.1082 12.7984 26.3765 12.7984 26.7076V27.0722C12.7984 27.2377 12.6642 27.3719 12.4987 27.3719C12.3331 27.3719 12.1989 27.2377 12.1989 27.0722V26.7076C12.1989 26.3765 11.9306 26.1082 11.5995 26.1082H11.3159C11.1415 26.1082 11 25.9667 11 25.7922C11 25.6177 11.1415 25.4763 11.3159 25.4763H11.5995C11.9306 25.4763 12.1989 25.2079 12.1989 24.8768V24.5123C12.1989 24.3467 12.3331 24.2125 12.4987 24.2125C12.6642 24.2125 12.7984 24.3467 12.7984 24.5123V24.8768Z" fill="#1966FF"/>
<path fill-rule="evenodd" clip-rule="evenodd" d="M38.3127 40.6252L44.4739 37.8197C44.6311 37.7474 44.8097 37.7474 44.9668 37.8197L51.1281 40.6252C51.3529 40.7286 51.4981 40.9628 51.4977 41.2214V48.9054C51.4919 50.2005 50.8936 51.4131 49.8909 52.1616L45.0777 55.7731C44.8638 55.9336 44.5769 55.9336 44.363 55.7731L39.5498 52.1616C38.547 51.4132 37.9486 50.2006 37.943 48.9054V41.2214C37.9426 40.9628 38.0878 40.7286 38.3127 40.6252Z" fill="#1966FF"/>
<path d="M43.5975 50.3C43.5975 50.48 43.7595 50.624 43.9395 50.624H44.9475C45.1275 50.624 45.2895 50.48 45.2895 50.3V47.618H48.0075C48.1875 47.618 48.3315 47.456 48.3315 47.276V46.268C48.3315 46.088 48.1875 45.926 48.0075 45.926H45.2895V43.208C45.2895 43.028 45.1275 42.884 44.9475 42.884H43.9395C43.7595 42.884 43.5975 43.028 43.5975 43.208V45.926H40.8975C40.7175 45.926 40.5555 46.088 40.5555 46.268V47.276C40.5555 47.456 40.7175 47.618 40.8975 47.618H43.5975V50.3Z" fill="white"/>
</g>
<defs>
<filter id="filter0_d" x="-8" y="-3.13043" width="166" height="96" filterUnits="userSpaceOnUse" color-interpolation-filters="sRGB">
<feFlood flood-opacity="0" result="BackgroundImageFix"/>
<feColorMatrix in="SourceAlpha" type="matrix" values="0 0 0 0 0 0 0 0 0 0 0 0 0 0 0 0 0 0 127 0"/>
<feOffset dy="4"/>
<feGaussianBlur stdDeviation="4"/>
<feColorMatrix type="matrix" values="0 0 0 0 0.835671 0 0 0 0 0.882839 0 0 0 0 1 0 0 0 1 0"/>
<feBlend mode="normal" in2="BackgroundImageFix" result="effect1_dropShadow"/>
<feBlend mode="normal" in="SourceGraphic" in2="effect1_dropShadow" result="shape"/>
</filter>
<clipPath id="clip0">
<rect width="151" height="81" fill="white"/>
</clipPath>
</defs>
</svg>
