<svg width="150" height="81" viewBox="0 0 150 81" fill="none" xmlns="http://www.w3.org/2000/svg">
<g clip-path="url(#clip0)">
<g filter="url(#filter0_d)">
<rect y="0.115936" width="150" height="80" rx="5" fill="white"/>
<rect x="0.5" y="0.615936" width="149" height="79" rx="4.5" stroke="#E3E9F1"/>
</g>
<path d="M59.396 32.859C59.396 34.659 60.845 36.09 62.645 36.09C63.446 36.09 64.22 35.811 64.832 35.217C64.895 35.154 64.913 35.037 64.841 34.974L64.283 34.398C64.229 34.344 64.13 34.335 64.058 34.398C63.68 34.704 63.221 34.911 62.681 34.911C61.529 34.911 60.665 33.957 60.665 32.832C60.665 31.698 61.52 30.735 62.672 30.735C63.176 30.735 63.68 30.933 64.058 31.266C64.13 31.338 64.22 31.338 64.283 31.266L64.832 30.699C64.904 30.627 64.904 30.519 64.823 30.447C64.211 29.898 63.554 29.61 62.645 29.61C60.845 29.61 59.396 31.059 59.396 32.859ZM66.1685 35.829C66.1685 35.919 66.2495 36 66.3395 36H67.1765C67.2755 36 67.3475 35.919 67.3475 35.829V33.345H70.2815V35.829C70.2815 35.919 70.3535 36 70.4525 36H71.2805C71.3705 36 71.4515 35.919 71.4515 35.829V29.871C71.4515 29.781 71.3705 29.7 71.2805 29.7H70.4525C70.3535 29.7 70.2815 29.781 70.2815 29.871V32.256H67.3475V29.871C67.3475 29.781 67.2755 29.7 67.1765 29.7H66.3395C66.2495 29.7 66.1685 29.781 66.1685 29.871V35.829ZM72.5932 36H73.3762C73.5202 36 73.6012 35.91 73.6372 35.82L74.0782 34.848H76.7692L77.2102 35.82C77.2732 35.946 77.3362 36 77.4712 36H78.2542C78.3892 36 78.4612 35.883 78.4072 35.766L75.6352 29.709C75.6082 29.655 75.5722 29.61 75.4822 29.61H75.3922C75.3112 29.61 75.2662 29.655 75.2392 29.709L72.4402 35.766C72.3862 35.883 72.4582 36 72.5932 36ZM74.5192 33.849L75.4012 31.869H75.4282L76.3282 33.849H74.5192ZM79.406 35.829C79.406 35.919 79.487 36 79.577 36H80.396C80.495 36 80.567 35.919 80.567 35.829V31.959H80.585L84.275 36.027C84.32 36.072 84.365 36.09 84.428 36.09H84.554C84.644 36.09 84.725 36.018 84.725 35.928V29.871C84.725 29.781 84.644 29.7 84.554 29.7H83.726C83.627 29.7 83.555 29.781 83.555 29.871V33.588H83.537L79.865 29.673C79.82 29.628 79.775 29.61 79.712 29.61H79.577C79.487 29.61 79.406 29.682 79.406 29.772V35.829ZM86.0909 32.859C86.0909 34.659 87.5309 36.081 89.3219 36.081C90.6269 36.081 91.5539 35.496 91.5539 35.496C91.5899 35.469 91.6259 35.424 91.6259 35.352V33.048C91.6259 32.958 91.5539 32.877 91.4639 32.877H89.7359C89.6369 32.877 89.5649 32.949 89.5649 33.048V33.759C89.5649 33.849 89.6369 33.921 89.7359 33.921H90.4559V34.686C90.2759 34.758 89.8889 34.911 89.3849 34.911C88.2509 34.911 87.3599 33.966 87.3599 32.85C87.3599 31.725 88.2509 30.762 89.3759 30.762C89.8709 30.762 90.3479 30.942 90.7349 31.284C90.8159 31.356 90.8969 31.356 90.9689 31.284L91.5269 30.699C91.5989 30.627 91.5899 30.519 91.5179 30.447C90.9059 29.925 90.1319 29.61 89.3219 29.61C87.5309 29.61 86.0909 31.059 86.0909 32.859ZM93.127 35.829C93.127 35.919 93.199 36 93.298 36H96.961C97.06 36 97.132 35.919 97.132 35.829V35.091C97.132 35.001 97.06 34.92 96.961 34.92H94.297V33.345H96.52C96.61 33.345 96.691 33.273 96.691 33.174V32.427C96.691 32.337 96.61 32.256 96.52 32.256H94.297V30.78H96.961C97.06 30.78 97.132 30.699 97.132 30.609V29.871C97.132 29.781 97.06 29.7 96.961 29.7H93.298C93.199 29.7 93.127 29.781 93.127 29.871V35.829ZM59.765 48.829C59.765 48.919 59.837 49 59.927 49H62.06C63.797 49 65.219 47.587 65.219 45.841C65.219 44.113 63.797 42.7 62.06 42.7H59.927C59.837 42.7 59.765 42.781 59.765 42.871V48.829ZM60.926 47.902V43.789H61.952C63.122 43.789 63.977 44.617 63.977 45.841C63.977 47.074 63.122 47.902 61.952 47.902H60.926ZM66.5903 48.829C66.5903 48.919 66.6623 49 66.7613 49H67.5893C67.6793 49 67.7603 48.919 67.7603 48.829V46.534H68.7593L69.9563 48.919C69.9743 48.955 70.0193 49 70.1003 49H71.0453C71.1983 49 71.2613 48.856 71.1983 48.739L69.9653 46.453C70.7483 46.138 71.2973 45.463 71.2973 44.635C71.2973 43.564 70.4153 42.7 69.3353 42.7H66.7613C66.6623 42.7 66.5903 42.781 66.5903 42.871V48.829ZM67.7693 45.571V43.78H69.2363C69.7133 43.78 70.1273 44.176 70.1273 44.653C70.1273 45.157 69.7133 45.571 69.2363 45.571H67.7693ZM72.7389 48.829C72.7389 48.919 72.8199 49 72.9099 49H73.7469C73.8369 49 73.9179 48.919 73.9179 48.829V42.871C73.9179 42.781 73.8369 42.7 73.7469 42.7H72.9099C72.8199 42.7 72.7389 42.781 72.7389 42.871V48.829ZM77.6781 48.991C77.7051 49.045 77.7501 49.09 77.8311 49.09H77.9211C78.0021 49.09 78.0471 49.045 78.0741 48.991L80.8641 42.934C80.9181 42.817 80.8461 42.7 80.7111 42.7H79.7931C79.7121 42.7 79.6581 42.754 79.6401 42.799L77.9031 46.669H77.8581L76.1211 42.799C76.1031 42.754 76.0491 42.7 75.9681 42.7H75.0501C74.9151 42.7 74.8431 42.817 74.8971 42.934L77.6781 48.991ZM81.8456 48.829C81.8456 48.919 81.9176 49 82.0166 49H85.6796C85.7786 49 85.8506 48.919 85.8506 48.829V48.091C85.8506 48.001 85.7786 47.92 85.6796 47.92H83.0156V46.345H85.2386C85.3286 46.345 85.4096 46.273 85.4096 46.174V45.427C85.4096 45.337 85.3286 45.256 85.2386 45.256H83.0156V43.78H85.6796C85.7786 43.78 85.8506 43.699 85.8506 43.609V42.871C85.8506 42.781 85.7786 42.7 85.6796 42.7H82.0166C81.9176 42.7 81.8456 42.781 81.8456 42.871V48.829ZM87.2383 48.829C87.2383 48.919 87.3103 49 87.4093 49H88.2373C88.3273 49 88.4083 48.919 88.4083 48.829V46.534H89.4073L90.6043 48.919C90.6223 48.955 90.6673 49 90.7483 49H91.6933C91.8463 49 91.9093 48.856 91.8463 48.739L90.6133 46.453C91.3963 46.138 91.9453 45.463 91.9453 44.635C91.9453 43.564 91.0633 42.7 89.9833 42.7H87.4093C87.3103 42.7 87.2383 42.781 87.2383 42.871V48.829ZM88.4173 45.571V43.78H89.8843C90.3613 43.78 90.7753 44.176 90.7753 44.653C90.7753 45.157 90.3613 45.571 89.8843 45.571H88.4173ZM95.1059 49.09C96.3749 49.09 97.1759 48.235 97.1759 47.308C97.1759 46.147 96.1679 45.625 95.2949 45.274C94.5659 44.977 94.2329 44.689 94.2329 44.266C94.2329 43.924 94.5119 43.636 95.0249 43.636C95.5199 43.636 95.8889 43.888 96.2759 44.131C96.3839 44.203 96.5189 44.131 96.5909 44.023L96.9329 43.51C96.9959 43.42 96.9689 43.267 96.8789 43.213C96.6989 43.078 95.9969 42.61 95.0789 42.61C93.6479 42.61 93.0539 43.537 93.0539 44.338C93.0539 45.4 93.8999 45.94 94.7459 46.282C95.5019 46.588 95.8889 46.903 95.8889 47.362C95.8889 47.749 95.5379 48.055 95.0699 48.055C94.4849 48.055 94.0799 47.776 93.7109 47.497C93.6299 47.434 93.4769 47.434 93.4049 47.56L93.0809 48.118C92.9999 48.262 93.0359 48.316 93.1259 48.388C93.3869 48.613 93.9719 49.09 95.1059 49.09Z" fill="#464646"/>
<path fill-rule="evenodd" clip-rule="evenodd" d="M28.7925 25.3372C28.7925 25.3372 25.0804 27.8639 24.71 29.8843C24.3396 31.9048 23.2188 36.5369 24.71 38.5407C26.2012 40.5445 28.0307 41.1905 27.2027 42.1045C26.3748 43.0185 22.9518 46.1167 20.9691 46.949C18.9863 47.7814 17.4171 47.7052 17.4171 48.9726C17.4171 50.24 16.5621 54.3403 17.4171 55.0086C18.272 55.677 28.4435 58.3471 31.4834 58.3471C34.5234 58.3471 43.0131 56.0987 43.6558 53.9486C44.2985 51.7985 44.3686 48.7034 42.5575 47.6292C40.7465 46.5551 36.375 45.7856 35.1792 43.945C33.9834 42.1045 33.8466 41.1751 33.8466 41.1751C33.8466 41.1751 36.529 38.2288 36.529 36.8148C36.529 35.4009 36.0126 26.6272 34.2298 25.9822C32.4469 25.3372 28.7925 25.3372 28.7925 25.3372Z" fill="#A9C6FF"/>
<path fill-rule="evenodd" clip-rule="evenodd" d="M31.0751 24.965C30.8662 24.9463 30.6538 24.9347 30.4379 24.9304H30.389H30.361H30.3191C29.543 24.9304 28.0188 25.0574 26.5575 25.8968C25.0893 26.7361 23.2994 28.5349 23.1246 32.3227C23.0757 32.8235 22.6282 38.0715 25.32 41.1329C26.5366 42.5224 28.1936 43.249 30.2422 43.2842H30.354H30.396H30.4659C32.5145 43.249 34.1715 42.5224 35.3951 41.1329C36.1409 40.2847 36.6457 39.2686 36.9848 38.2322L35.3803 37.0385C35.1181 38.0615 34.6875 39.0777 33.9897 39.8702C33.1088 40.8719 31.9342 41.3656 30.389 41.3797H30.354H30.3191C28.7809 41.3656 27.5993 40.8719 26.7253 39.8702C24.509 37.3591 24.9844 32.5414 24.9914 32.4991C24.9914 32.4874 24.9935 32.4758 24.9954 32.4653C24.997 32.4567 24.9984 32.449 24.9984 32.4426C25.2291 27.3851 28.7879 26.842 30.3121 26.842H30.3401H30.396C30.6077 26.8467 30.8361 26.8607 31.0751 26.8885V24.965Z" fill="#1966FF"/>
<path fill-rule="evenodd" clip-rule="evenodd" d="M30.046 23.9318V35.0606L38.0378 40.9807L45.7817 35.0606V31.7815V23.9318L37.9139 19.3289L30.046 23.9318Z" fill="#70A0FF"/>
<path fill-rule="evenodd" clip-rule="evenodd" d="M37.4925 41.8046L31.1526 37.3215C29.8344 36.3908 29.0488 34.8859 29.0425 33.2794V23.7408C29.042 23.4198 29.2333 23.1291 29.5294 23.0007L37.6451 19.5181C37.8502 19.4302 38.0827 19.4302 38.2878 19.5181L46.4035 23.0007C46.6997 23.1291 46.8909 23.4198 46.8905 23.7408V33.2794C46.8828 34.8871 46.0946 36.3923 44.7739 37.3215L38.4339 41.8046C38.1522 42.0039 37.7743 42.0039 37.4925 41.8046ZM37.9632 21.1369L30.6591 24.2704V33.2794C30.6662 34.3659 31.2009 35.3821 32.0948 36.0083L37.9632 40.1584L43.8317 36.0131C44.7267 35.3857 45.2614 34.3675 45.2673 33.2794V24.2704L37.9632 21.1369Z" fill="#1966FF"/>
<path fill-rule="evenodd" clip-rule="evenodd" d="M37.6323 38.0811L33.1621 35.3696C32.2327 34.7134 31.6787 33.6523 31.6743 32.5196V25.7941C31.674 25.5678 31.8088 25.3628 32.0176 25.2723L37.7399 22.8168C37.8845 22.7548 38.0484 22.7548 38.1931 22.8168L43.9153 25.2723C44.1241 25.3628 44.2589 25.5678 44.2586 25.7941V32.5196C44.2532 33.6531 43.6975 34.7144 42.7662 35.3696L38.2961 38.0811C38.0974 38.2216 37.8309 38.2216 37.6323 38.0811Z" fill="#1966FF"/>
<path d="M37.0025 31.2213C36.9176 31.1625 36.7989 31.1781 36.7352 31.2565C36.4171 31.6459 35.932 31.8693 35.4046 31.8693H34.8785C34.7725 31.8693 34.6876 31.9477 34.6876 32.0456C34.6876 32.1436 34.7725 32.222 34.8785 32.222H35.406C35.7326 32.222 36.0452 32.1528 36.3336 32.0169C36.6094 31.8876 36.854 31.6981 37.0407 31.4682C37.1029 31.3911 37.0873 31.28 37.0025 31.2213Z" fill="white" stroke="white"/>
<path d="M37.5413 28.7416C37.5766 28.7664 37.6176 28.7781 37.6586 28.7781C37.7152 28.7781 37.7718 28.7546 37.81 28.7102C38.1281 28.3313 38.6075 28.1145 39.1251 28.1145H40.2351L39.6426 28.6619C39.5677 28.7311 39.5677 28.8422 39.6426 28.9114C39.6794 28.9454 39.7289 28.9637 39.777 28.9637C39.825 28.9637 39.8745 28.9467 39.9113 28.9114L40.8305 28.0622C40.9054 27.993 40.9054 27.8819 40.8305 27.8127L39.9113 26.9634C39.8363 26.8942 39.7161 26.8942 39.6412 26.9634C39.5663 27.0327 39.5663 27.1437 39.6412 27.213L40.2337 27.7604H39.1236C38.4873 27.7604 37.8976 28.0269 37.5059 28.4933C37.4437 28.5717 37.4578 28.6815 37.5413 28.7416Z" fill="white" stroke="white"/>
<path d="M39.9126 31.0723C39.8377 31.0031 39.7175 31.0031 39.6425 31.0723C39.5676 31.1416 39.5676 31.2526 39.6425 31.3219L40.235 31.8693H39.125C38.2072 31.8693 37.4606 31.1794 37.4606 30.3315V29.6522C37.4606 28.6096 36.5428 27.7617 35.4144 27.7617H34.8869C34.7809 27.7617 34.696 27.8401 34.696 27.9381C34.696 28.0361 34.7809 28.1145 34.8869 28.1145H35.4144C36.3321 28.1145 37.0788 28.8043 37.0788 29.6522V30.3315C37.0788 31.3741 37.9965 32.222 39.125 32.222H40.235L39.6425 32.7694C39.5676 32.8387 39.5676 32.9497 39.6425 33.019C39.6793 33.0529 39.7288 33.0712 39.7769 33.0712C39.825 33.0712 39.8745 33.0542 39.9112 33.019L40.8304 32.1698C40.9053 32.1005 40.9053 31.9895 40.8304 31.9202L39.9126 31.0723Z" fill="white" stroke="white"/>
<path d="M44.722 51.9886C44.722 51.9815 44.722 51.9745 44.722 51.9674C44.722 51.911 44.715 51.8546 44.715 51.7911C44.6731 50.3944 44.5822 47.1285 41.5478 46.0846C41.5268 46.0775 41.4988 46.0705 41.4779 46.0634C38.3246 45.2522 35.7027 43.4183 35.6747 43.3971C35.2482 43.0938 34.6609 43.1996 34.3603 43.6299C34.0596 44.0602 34.1645 44.6527 34.591 44.956C34.7099 45.0406 37.4926 46.9945 40.9744 47.8974C42.6035 48.4829 42.7853 50.2392 42.8342 51.8475C42.8342 51.911 42.8342 51.9674 42.8412 52.0238C42.8482 52.6587 42.8063 53.6392 42.6944 54.2035C41.5618 54.8524 37.122 57.0955 30.368 57.0955C23.642 57.0955 19.1743 54.8453 18.0346 54.1964C17.9228 53.6321 17.8738 52.6516 17.8878 52.0168C17.8878 51.9604 17.8948 51.9039 17.8948 51.8405C17.9437 50.2322 18.1255 48.4758 19.7546 47.8904C23.2365 46.9875 26.0192 45.0265 26.138 44.9489C26.5645 44.6456 26.6694 44.0531 26.3688 43.6228C26.0681 43.1926 25.4808 43.0867 25.0543 43.3901C25.0263 43.4112 22.4184 45.2452 19.2512 46.0564C19.2232 46.0634 19.2022 46.0705 19.1813 46.0775C16.1469 47.1285 16.056 50.3944 16.014 51.784C16.014 51.8475 16.014 51.9039 16.007 51.9604C16.007 51.9674 16.007 51.9745 16.007 51.9815C16 52.3483 15.993 54.2317 16.3636 55.1769C16.4335 55.3603 16.5594 55.5155 16.7272 55.6213C16.9369 55.7623 21.964 58.993 30.375 58.993C38.786 58.993 43.8131 55.7553 44.0228 55.6213C44.1836 55.5155 44.3165 55.3603 44.3864 55.1769C44.736 54.2387 44.729 52.3554 44.722 51.9886Z" fill="#1966FF"/>
</g>
<defs>
<filter id="filter0_d" x="-8" y="-3.88406" width="166" height="96" filterUnits="userSpaceOnUse" color-interpolation-filters="sRGB">
<feFlood flood-opacity="0" result="BackgroundImageFix"/>
<feColorMatrix in="SourceAlpha" type="matrix" values="0 0 0 0 0 0 0 0 0 0 0 0 0 0 0 0 0 0 127 0"/>
<feOffset dy="4"/>
<feGaussianBlur stdDeviation="4"/>
<feColorMatrix type="matrix" values="0 0 0 0 0.835671 0 0 0 0 0.882839 0 0 0 0 1 0 0 0 1 0"/>
<feBlend mode="normal" in2="BackgroundImageFix" result="effect1_dropShadow"/>
<feBlend mode="normal" in="SourceGraphic" in2="effect1_dropShadow" result="shape"/>
</filter>
<clipPath id="clip0">
<rect width="150" height="81" fill="white"/>
</clipPath>
</defs>
</svg>
