<svg width="151" height="82" viewBox="0 0 151 82" fill="none" xmlns="http://www.w3.org/2000/svg">
<g clip-path="url(#clip0)">
<g filter="url(#filter0_d)">
<rect x="0.0769043" y="0.327209" width="150" height="81" rx="5" fill="white"/>
<rect x="0.576904" y="0.827209" width="149" height="80" rx="4.5" stroke="#E3E9F1"/>
</g>
<path fill-rule="evenodd" clip-rule="evenodd" d="M14.6826 19.8045H38.1121C38.8724 19.8068 39.4881 20.4225 39.4903 21.1827V48.7468L39.4559 48.7813L33.2057 42.6965C32.1287 41.6194 30.3824 41.6194 29.3054 42.6965C28.2284 43.7735 28.2284 45.5198 29.3054 46.5968L34.6666 52.8814H14.6826C13.9224 52.8792 13.3067 52.2634 13.3044 51.5032V21.1827C13.3067 20.4225 13.9224 19.8068 14.6826 19.8045ZM20.8846 29.4519C20.8846 32.4966 23.3527 34.9648 26.3974 34.9648C29.442 34.9648 31.9102 32.4966 31.9102 29.4519C31.9102 26.4073 29.442 23.9391 26.3974 23.9391C23.3527 23.9391 20.8846 26.4073 20.8846 29.4519Z" fill="#A9C6FF"/>
<path d="M16.75 23.9391C16.75 23.5585 17.0586 23.25 17.4391 23.25H20.1955V21.8718H17.4391C16.2974 21.8718 15.3718 22.7974 15.3718 23.9391V26.6955H16.75V23.9391Z" fill="#1966FF"/>
<path d="M52.5833 59.0833H40.1794C37.5168 59.0799 35.3591 56.9223 35.3557 54.2596V52.8814C35.3558 52.7175 35.2974 52.5589 35.191 52.4342L29.7926 46.1096C28.9865 45.3011 28.9865 43.9928 29.7926 43.1844C30.6133 42.3993 31.9074 42.402 32.7247 43.1906L41.7644 51.9973L42.7291 51.0091L40.1794 48.5283V35.485L48.9931 40.7063C51.2321 42.0814 52.5927 44.524 52.5833 47.1515V59.0833Z" fill="#A9C6FF"/>
<path d="M36.0449 23.9391V26.6955H37.4231V23.9391C37.4231 22.7974 36.4975 21.8718 35.3558 21.8718H32.5994V23.25H35.3558C35.7364 23.25 36.0449 23.5585 36.0449 23.9391Z" fill="#1966FF"/>
<path fill-rule="evenodd" clip-rule="evenodd" d="M49.707 39.5273L40.1795 33.8829V21.1827C40.1795 20.041 39.2539 19.1154 38.1122 19.1154H14.6827C13.5409 19.1154 12.6154 20.041 12.6154 21.1827V51.5032C12.6154 52.645 13.5409 53.5705 14.6827 53.5705H33.9775V54.2596C33.9813 57.6833 36.7558 60.4577 40.1795 60.4615H52.5833C53.3445 60.4615 53.9615 59.8445 53.9615 59.0833V47.1515C53.9711 44.0418 52.3586 41.152 49.707 39.5273ZM13.9936 51.5032V21.1827C13.9936 20.8021 14.3021 20.4936 14.6827 20.4936H38.1122C38.4927 20.4936 38.8013 20.8021 38.8013 21.1827V47.1846L33.6929 42.2086C32.3577 40.8522 30.1756 40.8351 28.8193 42.1703C27.4629 43.5056 27.4457 45.6876 28.781 47.044L33.1734 52.1923H14.6827C14.3021 52.1923 13.9936 51.8838 13.9936 51.5032ZM40.1795 59.0833H52.5833V47.1515C52.5927 44.524 51.2321 42.0814 48.9931 40.7063L40.1795 35.485V48.5284L42.7291 51.0091L41.7644 51.9973L32.7247 43.1906C31.9074 42.402 30.6133 42.3993 29.7926 43.1844C28.9865 43.9928 28.9865 45.3011 29.7926 46.1096L35.191 52.4342C35.2974 52.5589 35.3558 52.7175 35.3557 52.8814V54.2596C35.3592 56.9223 37.5168 59.0799 40.1795 59.0833Z" fill="#1966FF"/>
<path d="M47.6514 41.6015L46.9258 42.773C49.165 44.1482 50.5257 46.591 50.516 49.2188H51.8942C51.9049 46.1136 50.2971 43.2271 47.6514 41.6015Z" fill="#1966FF"/>
<path d="M18.8173 37.032H20.1955V38.4102H18.8173V37.032Z" fill="#1966FF"/>
<path d="M21.5737 37.032H31.2212V38.4102H21.5737V37.032Z" fill="#1966FF"/>
<path d="M32.5994 37.032H33.9776V38.4102H32.5994V37.032Z" fill="#1966FF"/>
<path fill-rule="evenodd" clip-rule="evenodd" d="M26.3112 35.6539C29.5937 35.6539 32.2547 32.9929 32.2547 29.7104C32.2547 26.4278 29.5937 23.7668 26.3112 23.7668C23.0287 23.7668 20.3677 26.4278 20.3677 29.7104C20.3677 32.9929 23.0287 35.6539 26.3112 35.6539Z" fill="white"/>
<path fill-rule="evenodd" clip-rule="evenodd" d="M20.2513 29.7332C20.2513 33.0419 22.9434 35.734 26.2521 35.734C29.5609 35.734 32.2529 33.0419 32.2529 29.7332C32.2529 26.4244 29.5609 23.7324 26.2521 23.7324C22.9434 23.7324 20.2513 26.4244 20.2513 29.7332ZM21.1745 29.7332C21.1745 26.9336 23.4525 24.6556 26.2521 24.6556C29.0522 24.6556 31.3297 26.9336 31.3297 29.7332C31.3297 32.5328 29.0517 34.8108 26.2521 34.8108C23.4525 34.8108 21.1745 32.5328 21.1745 29.7332Z" fill="#116FFF"/>
<path fill-rule="evenodd" clip-rule="evenodd" d="M21.6361 29.7332C21.6361 32.2784 23.7068 34.3492 26.2521 34.3492C28.7974 34.3492 30.8681 32.2784 30.8681 29.7332C30.8681 27.1879 28.7974 25.1172 26.2521 25.1172C23.7068 25.1172 21.6361 27.1879 21.6361 29.7332ZM22.5593 29.7332C22.5593 27.6971 24.216 26.0404 26.2521 26.0404C28.2882 26.0404 29.9449 27.6971 29.9449 29.7332C29.9449 31.7693 28.2882 33.426 26.2521 33.426C24.216 33.426 22.5593 31.7693 22.5593 29.7332Z" fill="#116FFF"/>
<path fill-rule="evenodd" clip-rule="evenodd" d="M24.8673 29.7332C24.8673 30.4967 25.4886 31.118 26.2521 31.118C27.0156 31.118 27.6369 30.4967 27.6369 29.7332C27.6369 28.9697 27.0156 28.3484 26.2521 28.3484C25.4886 28.3484 24.8673 28.9697 24.8673 29.7332ZM25.7905 29.7332C25.7905 29.4784 25.9973 29.2716 26.2521 29.2716C26.5069 29.2716 26.7137 29.4784 26.7137 29.7332C26.7137 29.988 26.5069 30.1948 26.2521 30.1948C25.9973 30.1948 25.7905 29.988 25.7905 29.7332Z" fill="#116FFF"/>
<path d="M29.7066 27.8872H22.7974C22.5422 27.8872 22.3358 27.6809 22.3358 27.4257C22.3358 27.1704 22.5422 26.9641 22.7974 26.9641H29.7066C29.9619 26.9641 30.1682 27.1704 30.1682 27.4257C30.1682 27.6809 29.9619 27.8872 29.7066 27.8872Z" fill="#116FFF"/>
<path d="M27.178 34.2463C27.1734 34.2463 27.1693 34.2463 27.1651 34.2463C26.9103 34.2389 26.7095 34.0265 26.716 33.7722C26.7723 31.7227 28.2859 30.0397 30.3155 29.7706C30.5699 29.7364 30.8007 29.9146 30.8339 30.1671C30.8671 30.4196 30.6894 30.6522 30.4374 30.6855C28.8596 30.8946 27.6826 32.2032 27.6392 33.7971C27.6318 34.0478 27.4268 34.2463 27.178 34.2463Z" fill="#116FFF"/>
<path d="M25.3261 34.2462C25.0773 34.2462 24.8724 34.0478 24.865 33.7971C24.8216 32.2032 23.6445 30.8946 22.0668 30.6855C21.8143 30.6522 21.6365 30.42 21.6702 30.1671C21.7039 29.9141 21.9343 29.7359 22.1886 29.7706C24.2178 30.0397 25.7319 31.7227 25.7882 33.7722C25.7951 34.027 25.5938 34.2393 25.339 34.2462C25.3349 34.2462 25.3307 34.2462 25.3261 34.2462Z" fill="#116FFF"/>
<path d="M20.2816 46.5479C19.2244 46.5479 18.3674 47.4049 18.3674 48.4621V49.8977H22.1958V48.4621C22.1958 47.4049 21.3388 46.5479 20.2816 46.5479Z" fill="white"/>
<path d="M20.2817 46.0693C20.8103 46.0693 21.2388 45.6408 21.2388 45.1122C21.2388 44.5837 20.8103 44.1552 20.2817 44.1552C19.7531 44.1552 19.3246 44.5837 19.3246 45.1122C19.3246 45.6408 19.7531 46.0693 20.2817 46.0693Z" fill="white"/>
<rect x="16.9318" y="42.899" width="6.87906" height="7.41742" fill="white"/>
<path fill-rule="evenodd" clip-rule="evenodd" d="M16.4533 41.9419H24.11C24.3743 41.9419 24.5885 42.1561 24.5885 42.4204V50.0771C24.5885 50.3414 24.3743 50.5557 24.11 50.5557H16.4533C16.189 50.5557 15.9747 50.3414 15.9747 50.0771V42.4204C15.9747 42.1561 16.189 41.9419 16.4533 41.9419ZM18.846 48.6415V49.5986H21.7173V48.6415C21.7173 47.8486 21.0745 47.2059 20.2816 47.2059C19.4887 47.2059 18.846 47.8486 18.846 48.6415ZM20.2816 45.7702C20.0173 45.7702 19.8031 45.556 19.8031 45.2917C19.8031 45.0274 20.0173 44.8132 20.2816 44.8132C20.5459 44.8132 20.7602 45.0274 20.7602 45.2917C20.7602 45.556 20.5459 45.7702 20.2816 45.7702ZM22.6743 49.5986H23.6314V42.899H16.9318V49.5986H17.8889V48.6415C17.8911 47.6604 18.492 46.7801 19.4049 46.4206C18.9184 46.0454 18.7245 45.4022 18.9227 44.8206C19.1209 44.2391 19.6672 43.8481 20.2816 43.8481C20.896 43.8481 21.4423 44.2391 21.6405 44.8206C21.8387 45.4022 21.6449 46.0454 21.1583 46.4206C22.0712 46.7801 22.6721 47.6604 22.6743 48.6415V49.5986Z" fill="#1966FF"/>
<path d="M61.2533 34.4746C62.5223 34.4746 63.3233 33.6196 63.3233 32.6926C63.3233 31.5316 62.3153 31.0096 61.4423 30.6586C60.7133 30.3616 60.3803 30.0736 60.3803 29.6506C60.3803 29.3086 60.6593 29.0206 61.1723 29.0206C61.6673 29.0206 62.0363 29.2726 62.4233 29.5156C62.5313 29.5876 62.6663 29.5156 62.7383 29.4076L63.0803 28.8946C63.1433 28.8046 63.1163 28.6516 63.0263 28.5976C62.8463 28.4626 62.1443 27.9946 61.2263 27.9946C59.7953 27.9946 59.2013 28.9216 59.2013 29.7226C59.2013 30.7846 60.0473 31.3246 60.8933 31.6666C61.6493 31.9726 62.0363 32.2876 62.0363 32.7466C62.0363 33.1336 61.6853 33.4396 61.2173 33.4396C60.6323 33.4396 60.2273 33.1606 59.8583 32.8816C59.7773 32.8186 59.6243 32.8186 59.5523 32.9446L59.2283 33.5026C59.1473 33.6466 59.1833 33.7006 59.2733 33.7726C59.5343 33.9976 60.1193 34.4746 61.2533 34.4746ZM64.5828 32.0716C64.5828 33.4396 65.6718 34.4746 67.0848 34.4746C68.5068 34.4746 69.5958 33.4396 69.5958 32.0716V28.2556C69.5958 28.1656 69.5148 28.0846 69.4248 28.0846H68.5698C68.4708 28.0846 68.3988 28.1656 68.3988 28.2556V32.0176C68.3988 32.7736 67.8678 33.3046 67.0848 33.3046C66.3018 33.3046 65.7798 32.7736 65.7798 32.0086V28.2556C65.7798 28.1656 65.7078 28.0846 65.6088 28.0846H64.7538C64.6638 28.0846 64.5828 28.1656 64.5828 28.2556V32.0716ZM74.4999 31.1536C74.9679 30.9196 75.3999 30.4246 75.3999 29.7496C75.3999 28.8046 74.5719 28.0846 73.5009 28.0846H71.4399C71.3409 28.0846 71.2689 28.1656 71.2689 28.2556V34.2136C71.2689 34.3036 71.3409 34.3846 71.4399 34.3846H73.6179C74.7159 34.3846 75.5799 33.6556 75.5799 32.6476C75.5799 31.8016 75.0219 31.3786 74.4999 31.1986V31.1536ZM72.4299 30.7306V29.1556H73.4109C73.8699 29.1556 74.1669 29.4706 74.1669 29.9206C74.1669 30.3706 73.8699 30.7306 73.4109 30.7306H72.4299ZM72.4299 33.3226V31.7206H73.5369C73.9869 31.7206 74.3289 32.0536 74.3289 32.5036C74.3289 32.9716 73.9869 33.3226 73.5369 33.3226H72.4299ZM76.68 34.1776C76.662 34.3036 76.734 34.3846 76.851 34.3846H77.661C77.742 34.3846 77.814 34.3126 77.823 34.2496L78.345 30.8386C78.354 30.8386 78.372 30.8386 78.372 30.8386L79.965 34.3756C79.992 34.4296 80.037 34.4746 80.118 34.4746H80.28C80.361 34.4746 80.415 34.4296 80.433 34.3756L82.008 30.8386C82.008 30.8386 82.026 30.8386 82.035 30.8386L82.566 34.2496C82.584 34.3126 82.656 34.3846 82.737 34.3846H83.556C83.673 34.3846 83.745 34.3036 83.718 34.1776L82.656 28.1296C82.647 28.0576 82.593 27.9946 82.494 27.9946H82.35C82.269 27.9946 82.224 28.0306 82.197 28.0846L80.217 32.3326C80.208 32.3326 80.208 32.3326 80.19 32.3326L78.21 28.0846C78.183 28.0306 78.129 27.9946 78.057 27.9946H77.913C77.814 27.9946 77.76 28.0576 77.751 28.1296L76.68 34.1776ZM85.113 34.2136C85.113 34.3036 85.194 34.3846 85.284 34.3846H86.121C86.211 34.3846 86.292 34.3036 86.292 34.2136V28.2556C86.292 28.1656 86.211 28.0846 86.121 28.0846H85.284C85.194 28.0846 85.113 28.1656 85.113 28.2556V34.2136ZM89.0442 34.2136C89.0442 34.3036 89.1252 34.3846 89.2152 34.3846H90.0522C90.1422 34.3846 90.2232 34.3036 90.2232 34.2136V29.1646H91.6002C91.6992 29.1646 91.7712 29.0836 91.7712 28.9936V28.2556C91.7712 28.1656 91.6992 28.0846 91.6002 28.0846H87.6672C87.5682 28.0846 87.4962 28.1656 87.4962 28.2556V28.9936C87.4962 29.0836 87.5682 29.1646 87.6672 29.1646H89.0442V34.2136ZM95.3497 34.2136C95.3497 34.3036 95.4217 34.3846 95.5117 34.3846H97.6447C99.3817 34.3846 100.804 32.9716 100.804 31.2256C100.804 29.4976 99.3817 28.0846 97.6447 28.0846H95.5117C95.4217 28.0846 95.3497 28.1656 95.3497 28.2556V34.2136ZM96.5107 33.2866V29.1736H97.5367C98.7067 29.1736 99.5617 30.0016 99.5617 31.2256C99.5617 32.4586 98.7067 33.2866 97.5367 33.2866H96.5107ZM102.175 34.2136C102.175 34.3036 102.247 34.3846 102.346 34.3846H103.174C103.264 34.3846 103.345 34.3036 103.345 34.2136V31.9186H104.344L105.541 34.3036C105.559 34.3396 105.604 34.3846 105.685 34.3846H106.63C106.783 34.3846 106.846 34.2406 106.783 34.1236L105.55 31.8376C106.333 31.5226 106.882 30.8476 106.882 30.0196C106.882 28.9486 106 28.0846 104.92 28.0846H102.346C102.247 28.0846 102.175 28.1656 102.175 28.2556V34.2136ZM103.354 30.9556V29.1646H104.821C105.298 29.1646 105.712 29.5606 105.712 30.0376C105.712 30.5416 105.298 30.9556 104.821 30.9556H103.354ZM108.324 34.2136C108.324 34.3036 108.405 34.3846 108.495 34.3846H109.332C109.422 34.3846 109.503 34.3036 109.503 34.2136V28.2556C109.503 28.1656 109.422 28.0846 109.332 28.0846H108.495C108.405 28.0846 108.324 28.1656 108.324 28.2556V34.2136ZM113.263 34.3756C113.29 34.4296 113.335 34.4746 113.416 34.4746H113.506C113.587 34.4746 113.632 34.4296 113.659 34.3756L116.449 28.3186C116.503 28.2016 116.431 28.0846 116.296 28.0846H115.378C115.297 28.0846 115.243 28.1386 115.225 28.1836L113.488 32.0536H113.443L111.706 28.1836C111.688 28.1386 111.634 28.0846 111.553 28.0846H110.635C110.5 28.0846 110.428 28.2016 110.482 28.3186L113.263 34.3756ZM117.43 34.2136C117.43 34.3036 117.502 34.3846 117.601 34.3846H121.264C121.363 34.3846 121.435 34.3036 121.435 34.2136V33.4756C121.435 33.3856 121.363 33.3046 121.264 33.3046H118.6V31.7296H120.823C120.913 31.7296 120.994 31.6576 120.994 31.5586V30.8116C120.994 30.7216 120.913 30.6406 120.823 30.6406H118.6V29.1646H121.264C121.363 29.1646 121.435 29.0836 121.435 28.9936V28.2556C121.435 28.1656 121.363 28.0846 121.264 28.0846H117.601C117.502 28.0846 117.43 28.1656 117.43 28.2556V34.2136ZM122.823 34.2136C122.823 34.3036 122.895 34.3846 122.994 34.3846H123.822C123.912 34.3846 123.993 34.3036 123.993 34.2136V31.9186H124.992L126.189 34.3036C126.207 34.3396 126.252 34.3846 126.333 34.3846H127.278C127.431 34.3846 127.494 34.2406 127.431 34.1236L126.198 31.8376C126.981 31.5226 127.53 30.8476 127.53 30.0196C127.53 28.9486 126.648 28.0846 125.568 28.0846H122.994C122.895 28.0846 122.823 28.1656 122.823 28.2556V34.2136ZM124.002 30.9556V29.1646H125.469C125.946 29.1646 126.36 29.5606 126.36 30.0376C126.36 30.5416 125.946 30.9556 125.469 30.9556H124.002ZM128.486 28.6516C128.486 29.0026 128.684 29.2816 129.044 29.2816C129.161 29.2816 129.269 29.2456 129.35 29.1916C129.359 29.2456 129.368 29.2906 129.368 29.3626C129.368 29.7406 129.161 30.1456 128.918 30.4606C128.864 30.5326 128.837 30.6136 128.909 30.6676L129.161 30.8476C129.233 30.8926 129.296 30.9106 129.35 30.8386C129.674 30.4066 129.998 29.8396 129.998 29.0656C129.998 28.3636 129.629 27.9946 129.188 27.9946C128.783 27.9946 128.486 28.2736 128.486 28.6516ZM133.034 34.4746C134.303 34.4746 135.104 33.6196 135.104 32.6926C135.104 31.5316 134.096 31.0096 133.223 30.6586C132.494 30.3616 132.161 30.0736 132.161 29.6506C132.161 29.3086 132.44 29.0206 132.953 29.0206C133.448 29.0206 133.817 29.2726 134.204 29.5156C134.312 29.5876 134.447 29.5156 134.519 29.4076L134.861 28.8946C134.924 28.8046 134.897 28.6516 134.807 28.5976C134.627 28.4626 133.925 27.9946 133.007 27.9946C131.576 27.9946 130.982 28.9216 130.982 29.7226C130.982 30.7846 131.828 31.3246 132.674 31.6666C133.43 31.9726 133.817 32.2876 133.817 32.7466C133.817 33.1336 133.466 33.4396 132.998 33.4396C132.413 33.4396 132.008 33.1606 131.639 32.8816C131.558 32.8186 131.405 32.8186 131.333 32.9446L131.009 33.5026C130.928 33.6466 130.964 33.7006 131.054 33.7726C131.315 33.9976 131.9 34.4746 133.034 34.4746ZM59.5343 47.2136C59.5343 47.3036 59.6063 47.3846 59.7053 47.3846H62.9993C63.0983 47.3846 63.1703 47.3036 63.1703 47.2136V46.4756C63.1703 46.3856 63.0983 46.3046 62.9993 46.3046H60.7043V41.2556C60.7043 41.1656 60.6233 41.0846 60.5333 41.0846H59.7053C59.6063 41.0846 59.5343 41.1656 59.5343 41.2556V47.2136ZM64.2854 47.2136C64.2854 47.3036 64.3664 47.3846 64.4564 47.3846H65.2934C65.3834 47.3846 65.4644 47.3036 65.4644 47.2136V41.2556C65.4644 41.1656 65.3834 41.0846 65.2934 41.0846H64.4564C64.3664 41.0846 64.2854 41.1656 64.2854 41.2556V47.2136ZM66.8306 44.2436C66.8306 46.0436 68.2796 47.4746 70.0796 47.4746C70.8806 47.4746 71.6546 47.1956 72.2666 46.6016C72.3296 46.5386 72.3476 46.4216 72.2756 46.3586L71.7176 45.7826C71.6636 45.7286 71.5646 45.7196 71.4926 45.7826C71.1146 46.0886 70.6556 46.2956 70.1156 46.2956C68.9636 46.2956 68.0996 45.3416 68.0996 44.2166C68.0996 43.0826 68.9546 42.1196 70.1066 42.1196C70.6106 42.1196 71.1146 42.3176 71.4926 42.6506C71.5646 42.7226 71.6546 42.7226 71.7176 42.6506L72.2666 42.0836C72.3386 42.0116 72.3386 41.9036 72.2576 41.8316C71.6456 41.2826 70.9886 40.9946 70.0796 40.9946C68.2796 40.9946 66.8306 42.4436 66.8306 44.2436ZM73.6031 47.2136C73.6031 47.3036 73.6751 47.3846 73.7741 47.3846H77.4371C77.5361 47.3846 77.6081 47.3036 77.6081 47.2136V46.4756C77.6081 46.3856 77.5361 46.3046 77.4371 46.3046H74.7731V44.7296H76.9961C77.0861 44.7296 77.1671 44.6576 77.1671 44.5586V43.8116C77.1671 43.7216 77.0861 43.6406 76.9961 43.6406H74.7731V42.1646H77.4371C77.5361 42.1646 77.6081 42.0836 77.6081 41.9936V41.2556C77.6081 41.1656 77.5361 41.0846 77.4371 41.0846H73.7741C73.6751 41.0846 73.6031 41.1656 73.6031 41.2556V47.2136ZM78.9958 47.2136C78.9958 47.3036 79.0768 47.3846 79.1668 47.3846H79.9858C80.0848 47.3846 80.1568 47.3036 80.1568 47.2136V43.3436H80.1748L83.8648 47.4116C83.9098 47.4566 83.9548 47.4746 84.0178 47.4746H84.1438C84.2338 47.4746 84.3148 47.4026 84.3148 47.3126V41.2556C84.3148 41.1656 84.2338 41.0846 84.1438 41.0846H83.3158C83.2168 41.0846 83.1448 41.1656 83.1448 41.2556V44.9726H83.1268L79.4548 41.0576C79.4098 41.0126 79.3648 40.9946 79.3018 40.9946H79.1668C79.0768 40.9946 78.9958 41.0666 78.9958 41.1566V47.2136ZM87.7686 47.4746C89.0376 47.4746 89.8386 46.6196 89.8386 45.6926C89.8386 44.5316 88.8306 44.0096 87.9576 43.6586C87.2286 43.3616 86.8956 43.0736 86.8956 42.6506C86.8956 42.3086 87.1746 42.0206 87.6876 42.0206C88.1826 42.0206 88.5516 42.2726 88.9386 42.5156C89.0466 42.5876 89.1816 42.5156 89.2536 42.4076L89.5956 41.8946C89.6586 41.8046 89.6316 41.6516 89.5416 41.5976C89.3616 41.4626 88.6596 40.9946 87.7416 40.9946C86.3106 40.9946 85.7166 41.9216 85.7166 42.7226C85.7166 43.7846 86.5626 44.3246 87.4086 44.6666C88.1646 44.9726 88.5516 45.2876 88.5516 45.7466C88.5516 46.1336 88.2006 46.4396 87.7326 46.4396C87.1476 46.4396 86.7426 46.1606 86.3736 45.8816C86.2926 45.8186 86.1396 45.8186 86.0676 45.9446L85.7436 46.5026C85.6626 46.6466 85.6986 46.7006 85.7886 46.7726C86.0496 46.9976 86.6346 47.4746 87.7686 47.4746ZM91.1611 47.2136C91.1611 47.3036 91.2331 47.3846 91.3321 47.3846H94.9951C95.0941 47.3846 95.1661 47.3036 95.1661 47.2136V46.4756C95.1661 46.3856 95.0941 46.3046 94.9951 46.3046H92.3311V44.7296H94.5541C94.6441 44.7296 94.7251 44.6576 94.7251 44.5586V43.8116C94.7251 43.7216 94.6441 43.6406 94.5541 43.6406H92.3311V42.1646H94.9951C95.0941 42.1646 95.1661 42.0836 95.1661 41.9936V41.2556C95.1661 41.1656 95.0941 41.0846 94.9951 41.0846H91.3321C91.2331 41.0846 91.1611 41.1656 91.1611 41.2556V47.2136Z" fill="#464646"/>
</g>
<defs>
<filter id="filter0_d" x="-7.9231" y="-3.67279" width="166" height="97" filterUnits="userSpaceOnUse" color-interpolation-filters="sRGB">
<feFlood flood-opacity="0" result="BackgroundImageFix"/>
<feColorMatrix in="SourceAlpha" type="matrix" values="0 0 0 0 0 0 0 0 0 0 0 0 0 0 0 0 0 0 127 0"/>
<feOffset dy="4"/>
<feGaussianBlur stdDeviation="4"/>
<feColorMatrix type="matrix" values="0 0 0 0 0.835671 0 0 0 0 0.882839 0 0 0 0 1 0 0 0 1 0"/>
<feBlend mode="normal" in2="BackgroundImageFix" result="effect1_dropShadow"/>
<feBlend mode="normal" in="SourceGraphic" in2="effect1_dropShadow" result="shape"/>
</filter>
<clipPath id="clip0">
<rect width="151" height="82" fill="white"/>
</clipPath>
</defs>
</svg>
