<svg width="150" height="80" viewBox="0 0 150 80" fill="none" xmlns="http://www.w3.org/2000/svg">
<g clip-path="url(#clip0)">
<rect x="0.5" y="0.369141" width="149" height="79" rx="4.5" fill="white" stroke="#E3E9F1"/>
<path fill-rule="evenodd" clip-rule="evenodd" d="M23.5054 19.9411V22.1726H39.0826L46.4939 29.6544V34.5788L47.8498 33.7624L49.0052 34.5788V20.9738L47.8498 19.6387L23.5054 19.9411Z" fill="#A9C6FF"/>
<path fill-rule="evenodd" clip-rule="evenodd" d="M20.576 23.736L21.6237 22.4121H25.4653H39.0325L46.4654 30.2772L45.9966 55.0268L44.9982 55.4237H21.6237L20.576 54.1581V23.736Z" fill="#A9C6FF"/>
<path d="M23.7 25.7841H27.4C27.7406 25.7841 28.0167 25.508 28.0167 25.1674C28.0167 24.8269 27.7406 24.5508 27.4 24.5508H23.7C23.3594 24.5508 23.0833 24.8269 23.0833 25.1674C23.0833 25.508 23.3594 25.7841 23.7 25.7841Z" fill="#1966FF"/>
<path d="M30.4833 25.7841H36.0333C36.3739 25.7841 36.65 25.508 36.65 25.1674C36.65 24.8269 36.3739 24.5508 36.0333 24.5508H30.4833C30.1428 24.5508 29.8667 24.8269 29.8667 25.1674C29.8667 25.508 30.1428 25.7841 30.4833 25.7841Z" fill="#1966FF"/>
<path d="M23.7 32.5673H43.4333C43.7739 32.5673 44.05 32.2912 44.05 31.9507C44.05 31.6101 43.7739 31.334 43.4333 31.334H23.7C23.3594 31.334 23.0833 31.6101 23.0833 31.9507C23.0833 32.2912 23.3594 32.5673 23.7 32.5673Z" fill="#1966FF"/>
<path d="M23.7 35.0341H32.3333C32.6739 35.0341 32.95 34.758 32.95 34.4174C32.95 34.0769 32.6739 33.8008 32.3333 33.8008H23.7C23.3594 33.8008 23.0833 34.0769 23.0833 34.4174C23.0833 34.758 23.3594 35.0341 23.7 35.0341Z" fill="#1966FF"/>
<path d="M23.7 39.9658H32.3333C32.6739 39.9658 32.95 39.6897 32.95 39.3491C32.95 39.0085 32.6739 38.7324 32.3333 38.7324H23.7C23.3594 38.7324 23.0833 39.0085 23.0833 39.3491C23.0833 39.6897 23.3594 39.9658 23.7 39.9658Z" fill="#1966FF"/>
<path d="M23.7 44.8993H32.3333C32.6739 44.8993 32.95 44.6233 32.95 44.2827C32.95 43.9421 32.6739 43.666 32.3333 43.666H23.7C23.3594 43.666 23.0833 43.9421 23.0833 44.2827C23.0833 44.6233 23.3594 44.8993 23.7 44.8993Z" fill="#1966FF"/>
<path d="M23.7 49.8329H32.3333C32.6739 49.8329 32.95 49.5569 32.95 49.2163C32.95 48.8757 32.6739 48.5996 32.3333 48.5996H23.7C23.3594 48.5996 23.0833 48.8757 23.0833 49.2163C23.0833 49.5569 23.3594 49.8329 23.7 49.8329Z" fill="#1966FF"/>
<path fill-rule="evenodd" clip-rule="evenodd" d="M47.8017 33.8438L39.2071 37.7724V47.8631L41.1922 51.0495L47.8017 55.5253L55.2156 49.9146L56.5375 46.9147V37.7724L47.8017 33.8438Z" fill="#70A0FF"/>
<path fill-rule="evenodd" clip-rule="evenodd" d="M56.63 36.9635L49.6 33.9277V20.85C49.6 19.8283 48.7717 19 47.75 19H24.3167C23.2949 19 22.4667 19.8283 22.4667 20.85V21.4667H21.85C20.8283 21.4667 20 22.2949 20 23.3167V54.15C20 55.1717 20.8283 56 21.85 56H45.2833C45.7822 55.9989 46.2594 55.7958 46.6061 55.437L47.1117 55.7965C47.494 56.0678 48.006 56.0678 48.3883 55.7965L54.3545 51.5495C56.0084 50.3756 56.9937 48.4754 57 46.4472V37.5296C57.0004 37.2841 56.855 37.0617 56.63 36.9635ZM23.7 20.85C23.7 20.5094 23.9761 20.2333 24.3167 20.2333H47.75C48.0906 20.2333 48.3667 20.5094 48.3667 20.85V33.3949L47.9967 33.2339C47.8408 33.1667 47.6641 33.1667 47.5083 33.2339L47.1383 33.3949V29.4833C47.1383 29.4759 47.1362 29.4686 47.1342 29.4614C47.1325 29.4554 47.1308 29.4494 47.1303 29.4433C47.1272 29.3916 47.1172 29.3406 47.1007 29.2916C47.0996 29.2881 47.0988 29.2846 47.0982 29.281L47.0969 29.2725C47.0957 29.2645 47.0945 29.2566 47.0914 29.249C47.0882 29.2412 47.0854 29.2379 47.083 29.235C47.0813 29.233 47.0798 29.2312 47.0785 29.228C47.0484 29.1609 47.0067 29.0997 46.9551 29.0473L39.5551 21.6474C39.5027 21.5958 39.4415 21.554 39.3744 21.524C39.3705 21.5222 39.3672 21.5198 39.3639 21.5175C39.3605 21.515 39.3572 21.5126 39.3535 21.5111C39.3498 21.5096 39.343 21.5083 39.3353 21.507C39.3273 21.5056 39.3184 21.504 39.3115 21.5018C39.2618 21.4853 39.2102 21.4751 39.158 21.4716C39.1492 21.4727 39.1414 21.4709 39.1339 21.4692C39.1281 21.4679 39.1225 21.4667 39.1167 21.4667H23.7V20.85ZM45.028 28.8667L39.7333 23.572V28.25C39.7333 28.5906 40.0094 28.8667 40.35 28.8667H45.028ZM45.2833 54.7667H21.85C21.5094 54.7667 21.2333 54.4906 21.2333 54.15V23.3167C21.2333 22.9761 21.5094 22.7 21.85 22.7H38.5V28.25C38.5 29.2717 39.3283 30.1 40.35 30.1H45.9V33.9276L43.9149 34.7867C44.0001 34.6819 44.0477 34.5516 44.05 34.4167C44.05 34.0761 43.7739 33.8 43.4333 33.8H34.8C34.4594 33.8 34.1833 34.0761 34.1833 34.4167C34.1833 34.7572 34.4594 35.0333 34.8 35.0333H43.3402L40.4851 36.2667H23.7C23.3594 36.2667 23.0833 36.5428 23.0833 36.8833C23.0833 37.2239 23.3594 37.5 23.7 37.5H38.5043C38.5043 37.5049 38.5033 37.5096 38.5022 37.5143C38.5011 37.5193 38.5 37.5243 38.5 37.5296V38.7333H34.8C34.4594 38.7333 34.1833 39.0094 34.1833 39.35C34.1833 39.6906 34.4594 39.9667 34.8 39.9667H38.5V41.2H23.7C23.3594 41.2 23.0833 41.4761 23.0833 41.8167C23.0833 42.1572 23.3594 42.4333 23.7 42.4333H38.5V43.6667H34.8C34.4594 43.6667 34.1833 43.9428 34.1833 44.2833C34.1833 44.6239 34.4594 44.9 34.8 44.9H38.5V46.1333H23.7C23.3594 46.1333 23.0833 46.4094 23.0833 46.75C23.0833 47.0906 23.3594 47.3667 23.7 47.3667H38.5771C38.6384 47.7874 38.743 48.2007 38.8891 48.6H34.8C34.4594 48.6 34.1833 48.8761 34.1833 49.2167C34.1833 49.5572 34.4594 49.8333 34.8 49.8333H39.5119C39.8034 50.287 40.1518 50.7015 40.5486 51.0667H23.7C23.3594 51.0667 23.0833 51.3428 23.0833 51.6833C23.0833 52.0239 23.3594 52.3 23.7 52.3H42.2L45.5596 54.6914C45.4749 54.7384 45.3801 54.7642 45.2833 54.7667ZM53.6398 50.5443C54.9686 49.6021 55.7607 48.0762 55.7667 46.4472V37.9347L47.75 34.4715L40.8612 37.4501L40.8495 37.455L39.7333 37.9372V46.4472C39.7395 48.076 40.5316 49.6016 41.8602 50.5437L47.75 54.7371L53.6398 50.5443Z" fill="#1966FF"/>
<path fill-rule="evenodd" clip-rule="evenodd" d="M41.3367 38.5846L47.5033 35.9206C47.6606 35.852 47.8394 35.852 47.9967 35.9206L54.1633 38.5846C54.3884 38.6828 54.5337 38.9052 54.5333 39.1507V46.4471C54.5275 47.6769 53.9286 48.8283 52.9251 49.5391L48.1077 52.9684C47.8936 53.1208 47.6064 53.1208 47.3923 52.9684L42.5749 49.5391C41.5712 48.8284 40.9723 47.6769 40.9667 46.4471V39.1507C40.9663 38.9052 41.1116 38.6828 41.3367 38.5846Z" fill="#1966FF"/>
<path d="M46.9932 45.5911C46.8838 45.5148 46.7307 45.5351 46.6487 45.6368C46.2387 46.1419 45.6137 46.4317 44.9339 46.4317H44.256C44.1193 46.4317 44.01 46.5334 44.01 46.6606C44.01 46.7877 44.1193 46.8894 44.256 46.8894H44.9358C45.3567 46.8894 45.7594 46.7995 46.1312 46.6233C46.4865 46.4555 46.8018 46.2097 47.0424 45.9114C47.1225 45.8114 47.1025 45.6673 46.9932 45.5911Z" fill="white" stroke="white"/>
<path d="M47.6874 42.3742C47.733 42.4064 47.7859 42.4216 47.8387 42.4216C47.9116 42.4216 47.9845 42.3911 48.0337 42.3335C48.4437 41.8419 49.0615 41.5606 49.7284 41.5606H51.159L50.3954 42.2708C50.2988 42.3606 50.2988 42.5047 50.3954 42.5945C50.4428 42.6386 50.5066 42.6623 50.5685 42.6623C50.6305 42.6623 50.6943 42.6403 50.7417 42.5945L51.9262 41.4928C52.0228 41.403 52.0228 41.2589 51.9262 41.1691L50.7417 40.0674C50.6451 39.9775 50.4902 39.9775 50.3936 40.0674C50.297 40.1572 50.297 40.3013 50.3936 40.3911L51.1572 41.1013H49.7266C48.9066 41.1013 48.1467 41.447 47.6419 42.0521C47.5617 42.1538 47.5799 42.2962 47.6874 42.3742Z" fill="white" stroke="white"/>
<path d="M50.7435 45.3984C50.6469 45.3086 50.492 45.3086 50.3954 45.3984C50.2988 45.4883 50.2988 45.6323 50.3954 45.7222L51.159 46.4323H49.7285C48.5458 46.4323 47.5836 45.5374 47.5836 44.4374V43.5561C47.5836 42.2035 46.4009 41.1035 44.9467 41.1035H44.2669C44.1303 41.1035 44.0209 41.2052 44.0209 41.3323C44.0209 41.4594 44.1303 41.5611 44.2669 41.5611H44.9467C46.1294 41.5611 47.0916 42.4561 47.0916 43.5561V44.4374C47.0916 45.79 48.2742 46.89 49.7285 46.89H51.159L50.3954 47.6001C50.2988 47.69 50.2988 47.834 50.3954 47.9239C50.4428 47.9679 50.5066 47.9917 50.5685 47.9917C50.6305 47.9917 50.6943 47.9696 50.7417 47.9239L51.9262 46.8222C52.0228 46.7323 52.0228 46.5883 51.9262 46.4984L50.7435 45.3984Z" fill="white" stroke="white"/>
<path d="M67.396 31.859C67.396 33.659 68.845 35.09 70.645 35.09C71.446 35.09 72.22 34.811 72.832 34.217C72.895 34.154 72.913 34.037 72.841 33.974L72.283 33.398C72.229 33.344 72.13 33.335 72.058 33.398C71.68 33.704 71.221 33.911 70.681 33.911C69.529 33.911 68.665 32.957 68.665 31.832C68.665 30.698 69.52 29.735 70.672 29.735C71.176 29.735 71.68 29.933 72.058 30.266C72.13 30.338 72.22 30.338 72.283 30.266L72.832 29.699C72.904 29.627 72.904 29.519 72.823 29.447C72.211 28.898 71.554 28.61 70.645 28.61C68.845 28.61 67.396 30.059 67.396 31.859ZM74.1685 34.829C74.1685 34.919 74.2495 35 74.3395 35H75.1765C75.2755 35 75.3475 34.919 75.3475 34.829V32.345H78.2815V34.829C78.2815 34.919 78.3535 35 78.4525 35H79.2805C79.3705 35 79.4515 34.919 79.4515 34.829V28.871C79.4515 28.781 79.3705 28.7 79.2805 28.7H78.4525C78.3535 28.7 78.2815 28.781 78.2815 28.871V31.256H75.3475V28.871C75.3475 28.781 75.2755 28.7 75.1765 28.7H74.3395C74.2495 28.7 74.1685 28.781 74.1685 28.871V34.829ZM80.5932 35H81.3762C81.5202 35 81.6012 34.91 81.6372 34.82L82.0782 33.848H84.7692L85.2102 34.82C85.2732 34.946 85.3362 35 85.4712 35H86.2542C86.3892 35 86.4612 34.883 86.4072 34.766L83.6352 28.709C83.6082 28.655 83.5722 28.61 83.4822 28.61H83.3922C83.3112 28.61 83.2662 28.655 83.2392 28.709L80.4402 34.766C80.3862 34.883 80.4582 35 80.5932 35ZM82.5192 32.849L83.4012 30.869H83.4282L84.3282 32.849H82.5192ZM87.406 34.829C87.406 34.919 87.487 35 87.577 35H88.396C88.495 35 88.567 34.919 88.567 34.829V30.959H88.585L92.275 35.027C92.32 35.072 92.365 35.09 92.428 35.09H92.554C92.644 35.09 92.725 35.018 92.725 34.928V28.871C92.725 28.781 92.644 28.7 92.554 28.7H91.726C91.627 28.7 91.555 28.781 91.555 28.871V32.588H91.537L87.865 28.673C87.82 28.628 87.775 28.61 87.712 28.61H87.577C87.487 28.61 87.406 28.682 87.406 28.772V34.829ZM94.0909 31.859C94.0909 33.659 95.5309 35.081 97.3219 35.081C98.6269 35.081 99.5539 34.496 99.5539 34.496C99.5899 34.469 99.6259 34.424 99.6259 34.352V32.048C99.6259 31.958 99.5539 31.877 99.4639 31.877H97.7359C97.6369 31.877 97.5649 31.949 97.5649 32.048V32.759C97.5649 32.849 97.6369 32.921 97.7359 32.921H98.4559V33.686C98.2759 33.758 97.8889 33.911 97.3849 33.911C96.2509 33.911 95.3599 32.966 95.3599 31.85C95.3599 30.725 96.2509 29.762 97.3759 29.762C97.8709 29.762 98.3479 29.942 98.7349 30.284C98.8159 30.356 98.8969 30.356 98.9689 30.284L99.5269 29.699C99.5989 29.627 99.5899 29.519 99.5179 29.447C98.9059 28.925 98.1319 28.61 97.3219 28.61C95.5309 28.61 94.0909 30.059 94.0909 31.859ZM101.127 34.829C101.127 34.919 101.199 35 101.298 35H104.961C105.06 35 105.132 34.919 105.132 34.829V34.091C105.132 34.001 105.06 33.92 104.961 33.92H102.297V32.345H104.52C104.61 32.345 104.691 32.273 104.691 32.174V31.427C104.691 31.337 104.61 31.256 104.52 31.256H102.297V29.78H104.961C105.06 29.78 105.132 29.699 105.132 29.609V28.871C105.132 28.781 105.06 28.7 104.961 28.7H101.298C101.199 28.7 101.127 28.781 101.127 28.871V34.829ZM108.889 34.829C108.889 34.919 108.97 35 109.06 35H109.879C109.978 35 110.05 34.919 110.05 34.829V30.959H110.068L113.758 35.027C113.803 35.072 113.848 35.09 113.911 35.09H114.037C114.127 35.09 114.208 35.018 114.208 34.928V28.871C114.208 28.781 114.127 28.7 114.037 28.7H113.209C113.11 28.7 113.038 28.781 113.038 28.871V32.588H113.02L109.348 28.673C109.303 28.628 109.258 28.61 109.195 28.61H109.06C108.97 28.61 108.889 28.682 108.889 28.772V34.829ZM115.574 31.859C115.574 33.659 117.005 35.09 118.805 35.09C120.605 35.09 122.045 33.659 122.045 31.859C122.045 30.059 120.605 28.61 118.805 28.61C117.005 28.61 115.574 30.059 115.574 31.859ZM116.744 31.859C116.744 30.725 117.671 29.78 118.805 29.78C119.939 29.78 120.875 30.725 120.875 31.859C120.875 32.993 119.939 33.92 118.805 33.92C117.671 33.92 116.744 32.993 116.744 31.859ZM67.396 44.859C67.396 46.659 68.845 48.09 70.645 48.09C71.446 48.09 72.22 47.811 72.832 47.217C72.895 47.154 72.913 47.037 72.841 46.974L72.283 46.398C72.229 46.344 72.13 46.335 72.058 46.398C71.68 46.704 71.221 46.911 70.681 46.911C69.529 46.911 68.665 45.957 68.665 44.832C68.665 43.698 69.52 42.735 70.672 42.735C71.176 42.735 71.68 42.933 72.058 43.266C72.13 43.338 72.22 43.338 72.283 43.266L72.832 42.699C72.904 42.627 72.904 42.519 72.823 42.447C72.211 41.898 71.554 41.61 70.645 41.61C68.845 41.61 67.396 43.059 67.396 44.859ZM74.1685 47.829C74.1685 47.919 74.2405 48 74.3395 48H77.6335C77.7325 48 77.8045 47.919 77.8045 47.829V47.091C77.8045 47.001 77.7325 46.92 77.6335 46.92H75.3385V41.871C75.3385 41.781 75.2575 41.7 75.1675 41.7H74.3395C74.2405 41.7 74.1685 41.781 74.1685 41.871V47.829ZM78.3256 48H79.1086C79.2526 48 79.3336 47.91 79.3696 47.82L79.8106 46.848H82.5016L82.9426 47.82C83.0056 47.946 83.0686 48 83.2036 48H83.9866C84.1216 48 84.1936 47.883 84.1396 47.766L81.3676 41.709C81.3406 41.655 81.3046 41.61 81.2146 41.61H81.1246C81.0436 41.61 80.9986 41.655 80.9716 41.709L78.1726 47.766C78.1186 47.883 78.1906 48 78.3256 48ZM80.2516 45.849L81.1336 43.869H81.1606L82.0606 45.849H80.2516ZM85.1385 47.829C85.1385 47.919 85.2195 48 85.3095 48H86.1465C86.2365 48 86.3175 47.919 86.3175 47.829V41.871C86.3175 41.781 86.2365 41.7 86.1465 41.7H85.3095C85.2195 41.7 85.1385 41.781 85.1385 41.871V47.829ZM87.7107 47.793C87.6927 47.919 87.7647 48 87.8817 48H88.6917C88.7727 48 88.8447 47.928 88.8537 47.865L89.3757 44.454C89.3847 44.454 89.4027 44.454 89.4027 44.454L90.9957 47.991C91.0227 48.045 91.0677 48.09 91.1487 48.09H91.3107C91.3917 48.09 91.4457 48.045 91.4637 47.991L93.0387 44.454C93.0387 44.454 93.0567 44.454 93.0657 44.454L93.5967 47.865C93.6147 47.928 93.6867 48 93.7677 48H94.5867C94.7037 48 94.7757 47.919 94.7487 47.793L93.6867 41.745C93.6777 41.673 93.6237 41.61 93.5247 41.61H93.3807C93.2997 41.61 93.2547 41.646 93.2277 41.7L91.2477 45.948C91.2387 45.948 91.2387 45.948 91.2207 45.948L89.2407 41.7C89.2137 41.646 89.1597 41.61 89.0877 41.61H88.9437C88.8447 41.61 88.7907 41.673 88.7817 41.745L87.7107 47.793ZM101.744 44.769C102.212 44.535 102.644 44.04 102.644 43.365C102.644 42.42 101.816 41.7 100.745 41.7H98.6839C98.5849 41.7 98.5129 41.781 98.5129 41.871V47.829C98.5129 47.919 98.5849 48 98.6839 48H100.862C101.96 48 102.824 47.271 102.824 46.263C102.824 45.417 102.266 44.994 101.744 44.814V44.769ZM99.6739 44.346V42.771H100.655C101.114 42.771 101.411 43.086 101.411 43.536C101.411 43.986 101.114 44.346 100.655 44.346H99.6739ZM99.6739 46.938V45.336H100.781C101.231 45.336 101.573 45.669 101.573 46.119C101.573 46.587 101.231 46.938 100.781 46.938H99.6739ZM103.897 44.859C103.897 46.659 105.328 48.09 107.128 48.09C108.928 48.09 110.368 46.659 110.368 44.859C110.368 43.059 108.928 41.61 107.128 41.61C105.328 41.61 103.897 43.059 103.897 44.859ZM105.067 44.859C105.067 43.725 105.994 42.78 107.128 42.78C108.262 42.78 109.198 43.725 109.198 44.859C109.198 45.993 108.262 46.92 107.128 46.92C105.994 46.92 105.067 45.993 105.067 44.859ZM111.733 47.829C111.733 47.919 111.814 48 111.904 48H112.723C112.822 48 112.894 47.919 112.894 47.829V43.959H112.912L116.602 48.027C116.647 48.072 116.692 48.09 116.755 48.09H116.881C116.971 48.09 117.052 48.018 117.052 47.928V41.871C117.052 41.781 116.971 41.7 116.881 41.7H116.053C115.954 41.7 115.882 41.781 115.882 41.871V45.588H115.864L112.192 41.673C112.147 41.628 112.102 41.61 112.039 41.61H111.904C111.814 41.61 111.733 41.682 111.733 41.772V47.829ZM118.724 45.687C118.724 47.055 119.813 48.09 121.226 48.09C122.648 48.09 123.737 47.055 123.737 45.687V41.871C123.737 41.781 123.656 41.7 123.566 41.7H122.711C122.612 41.7 122.54 41.781 122.54 41.871V45.633C122.54 46.389 122.009 46.92 121.226 46.92C120.443 46.92 119.921 46.389 119.921 45.624V41.871C119.921 41.781 119.849 41.7 119.75 41.7H118.895C118.805 41.7 118.724 41.781 118.724 41.871V45.687ZM127.129 48.09C128.398 48.09 129.199 47.235 129.199 46.308C129.199 45.147 128.191 44.625 127.318 44.274C126.589 43.977 126.256 43.689 126.256 43.266C126.256 42.924 126.535 42.636 127.048 42.636C127.543 42.636 127.912 42.888 128.299 43.131C128.407 43.203 128.542 43.131 128.614 43.023L128.956 42.51C129.019 42.42 128.992 42.267 128.902 42.213C128.722 42.078 128.02 41.61 127.102 41.61C125.671 41.61 125.077 42.537 125.077 43.338C125.077 44.4 125.923 44.94 126.769 45.282C127.525 45.588 127.912 45.903 127.912 46.362C127.912 46.749 127.561 47.055 127.093 47.055C126.508 47.055 126.103 46.776 125.734 46.497C125.653 46.434 125.5 46.434 125.428 46.56L125.104 47.118C125.023 47.262 125.059 47.316 125.149 47.388C125.41 47.613 125.995 48.09 127.129 48.09Z" fill="#464646"/>
</g>
<defs>
<clipPath id="clip0">
<rect width="150" height="80" fill="white"/>
</clipPath>
</defs>
</svg>
