<svg width="150" height="81" viewBox="0 0 150 81" fill="none" xmlns="http://www.w3.org/2000/svg">
<g clip-path="url(#clip0)">
<g filter="url(#filter0_d)">
<rect y="0.492752" width="150" height="80" rx="5" fill="white"/>
<rect x="0.5" y="0.992752" width="149" height="79" rx="4.5" stroke="#E3E9F1"/>
</g>
<path fill-rule="evenodd" clip-rule="evenodd" d="M26.3807 25.1938C26.3807 25.1938 25.2172 26.8949 25.2172 28.0534C25.2172 29.2119 21.6843 38.2118 21.6843 38.2118C21.6843 38.2118 20.0358 38.5936 19.2473 39.7663C18.4588 40.939 18.6259 46.2918 18.6259 46.2918V51.334L19.8191 51.8395H20.7236V55.7123L21.6843 56.5393H26.3807L27.238 54.9868V51.8395H44.692V54.9868L45.7332 56.5393H50.0563L51.5063 54.9868V51.8395H52.8205L53.4783 50.8083V40.8665L52.2591 38.6577L56.0639 35.2977L57.4017 31.7979V21.8486L48.0857 17.8299L38.74 21.8486V25.1938H26.3807Z" fill="#A9C6FF"/>
<path fill-rule="evenodd" clip-rule="evenodd" d="M27.8915 28.0641L24.1896 38.3674H44.1503C44.1503 38.3674 39.535 35.2627 39.535 34.5002C39.535 33.7378 38.7548 30.2738 38.7548 30.2738H32.928L32.4041 29.1521V28.0641H27.8915Z" fill="#70A0FF"/>
<path fill-rule="evenodd" clip-rule="evenodd" d="M21.4055 41.6359V44.4365L22.5261 45.1999H26.8126L28.0519 43.4179L26.8126 41.6359L25.1785 40.9877L21.4055 41.6359Z" fill="#A9C6FF"/>
<path fill-rule="evenodd" clip-rule="evenodd" d="M50.7966 41.4577V44.2583L49.6761 45.0217H45.3896L44.1502 43.2397L45.3896 41.4577L47.0236 40.8095L50.7966 41.4577Z" fill="#A9C6FF"/>
<path fill-rule="evenodd" clip-rule="evenodd" d="M20.8572 52.2381V55.6703L21.7868 56.4703H26.5635L27.7096 55.6703V52.2381H20.8572Z" fill="#A9C6FF"/>
<path fill-rule="evenodd" clip-rule="evenodd" d="M44.6666 52.2381V55.6703L45.5962 56.4703H50.373L51.5191 55.6703V52.2381H44.6666Z" fill="#A9C6FF"/>
<path fill-rule="evenodd" clip-rule="evenodd" d="M47.6133 38.3893L42.4053 34.682C41.3225 33.9123 40.6772 32.6678 40.672 31.3393V23.4513C40.6716 23.1859 40.8287 22.9455 41.072 22.8393L47.7387 19.9593C47.9072 19.8867 48.0982 19.8867 48.2667 19.9593L54.9333 22.8393C55.1766 22.9455 55.3337 23.1859 55.3333 23.4513V31.3393C55.3271 32.6688 54.6796 33.9136 53.5947 34.682L48.3867 38.3893C48.1552 38.5541 47.8448 38.5541 47.6133 38.3893Z" fill="#1966FF"/>
<path d="M47.3974 30.1333C47.2802 30.0516 47.1162 30.0734 47.0284 30.1824C46.5891 30.7235 45.9194 31.034 45.1911 31.034H44.4648C44.3183 31.034 44.2012 31.143 44.2012 31.2792C44.2012 31.4154 44.3183 31.5244 44.4648 31.5244H45.193C45.6441 31.5244 46.0756 31.4281 46.4739 31.2393C46.8546 31.0595 47.1924 30.7962 47.4501 30.4765C47.536 30.3694 47.5145 30.215 47.3974 30.1333Z" fill="white" stroke="white"/>
<path d="M48.1413 26.6866C48.1901 26.7211 48.2467 26.7374 48.3034 26.7374C48.3815 26.7374 48.4596 26.7047 48.5123 26.643C48.9516 26.1164 49.6135 25.8149 50.3281 25.8149H51.8608L51.0427 26.5758C50.9392 26.6721 50.9392 26.8264 51.0427 26.9227C51.0935 26.9699 51.1618 26.9953 51.2282 26.9953C51.2946 26.9953 51.3629 26.9717 51.4137 26.9227L52.6828 25.7423C52.7863 25.646 52.7863 25.4917 52.6828 25.3954L51.4137 24.215C51.3102 24.1188 51.1442 24.1188 51.0407 24.215C50.9373 24.3113 50.9373 24.4656 51.0407 24.5619L51.8588 25.3228H50.3261C49.4475 25.3228 48.6333 25.6932 48.0925 26.3416C48.0066 26.4505 48.0261 26.6031 48.1413 26.6866Z" fill="white" stroke="white"/>
<path d="M51.4156 29.9263C51.3121 29.83 51.1462 29.83 51.0427 29.9263C50.9392 30.0225 50.9392 30.1769 51.0427 30.2731L51.8608 31.034H50.3281C49.0609 31.034 48.03 30.0752 48.03 28.8966V27.9523C48.03 26.5032 46.7628 25.3246 45.2048 25.3246H44.4765C44.33 25.3246 44.2129 25.4336 44.2129 25.5698C44.2129 25.706 44.33 25.8149 44.4765 25.8149H45.2048C46.4719 25.8149 47.5028 26.7738 47.5028 27.9523V28.8966C47.5028 30.3458 48.77 31.5244 50.3281 31.5244H51.8608L51.0427 32.2853C50.9392 32.3815 50.9392 32.5359 51.0427 32.6321C51.0935 32.6793 51.1618 32.7047 51.2282 32.7047C51.2946 32.7047 51.3629 32.6811 51.4137 32.6321L52.6828 31.4517C52.7863 31.3555 52.7863 31.2011 52.6828 31.1049L51.4156 29.9263Z" fill="white" stroke="white"/>
<path fill-rule="evenodd" clip-rule="evenodd" d="M19.3333 52.3333H20V55C20 56.1046 20.8954 57 22 57H26C27.1046 57 28 56.1046 28 55V52.3333H44V55C44 56.1046 44.8954 57 46 57H50C51.1046 57 52 56.1046 52 55V52.3333H52.6667C53.403 52.3333 54 51.7364 54 51V41C54.0025 40.0338 53.5812 39.1152 52.8473 38.4867L55.1407 36.8547C56.928 35.5854 57.9928 33.5315 58 31.3393V21.6987C58.0004 21.4332 57.8433 21.1928 57.6 21.0867L48.2667 17.0547C48.0982 16.982 47.9072 16.982 47.7387 17.0547L38.4 21.0867C38.1567 21.1928 37.9996 21.4332 38 21.6987V24.3333H27.9133C26.4999 24.3338 25.2405 25.2256 24.7707 26.5587L20.844 37.716C19.2139 37.9559 18.0046 39.3523 18 41V51C18 51.7364 18.597 52.3333 19.3333 52.3333ZM26.6667 55C26.6667 55.3682 26.3682 55.6667 26 55.6667H22C21.6318 55.6667 21.3333 55.3682 21.3333 55V52.3333H26.6667V55ZM22.6667 51H24V49.6667H22.6667V51ZM50.6667 55C50.6667 55.3682 50.3682 55.6667 50 55.6667H46C45.6318 55.6667 45.3333 55.3682 45.3333 55V52.3333H50.6667V55ZM48 51H49.3333V49.6667H48V51ZM39.3333 22.1367L48 18.3927L56.6667 22.1367V31.3367C56.6601 33.0977 55.8038 34.7472 54.3673 35.766L48 40.3013L41.6327 35.768C40.1964 34.7494 39.3402 33.1001 39.3333 31.3393V22.1367ZM50 42.3333C50 41.9651 49.7015 41.6667 49.3333 41.6667H46.6667C45.5621 41.6667 44.6667 42.5621 44.6667 43.6667C44.6667 44.0349 44.9651 44.3333 45.3333 44.3333H49.3333C49.7015 44.3333 50 44.0349 50 43.6667V42.3333ZM38 28.3333V29.6667H33.3333V28.3333H38ZM36.6667 27H38V25.6667H36.6667V27ZM26.0287 27C26.3111 26.2012 27.0661 25.6671 27.9133 25.6667H35.3333V27H33.3333C32.597 27 32 27.597 32 28.3333V29.6667C32 30.403 32.597 31 33.3333 31H38V31.3393C38.0072 33.5315 39.072 35.5854 40.8593 36.8547L42 37.6667H22.2747L26.0287 27ZM21.3333 39C20.2288 39 19.3333 39.8954 19.3333 41V51H21.3333V49.6667C21.3333 48.9303 21.9303 48.3333 22.6667 48.3333H24C24.7364 48.3333 25.3333 48.9303 25.3333 49.6667V51H46.6667V49.6667C46.6667 48.9303 47.2636 48.3333 48 48.3333H49.3333C50.0697 48.3333 50.6667 48.9303 50.6667 49.6667V51H52.6667L52.6667 41C52.6699 40.3032 52.3052 39.6565 51.7073 39.2987L50.0567 40.474C50.8244 40.7718 51.3312 41.5098 51.3333 42.3333V43.6667C51.3333 44.7712 50.4379 45.6667 49.3333 45.6667H45.3333C44.2288 45.6667 43.3333 44.7712 43.3333 43.6667C43.3375 42.1291 44.3929 40.7938 45.888 40.4347L43.8733 39H21.3333Z" fill="#1966FF"/>
<path d="M30 27H28.8593C28.0118 27.001 27.2565 27.5348 26.9727 28.3333L24.47 35.4453C24.3478 35.7927 24.5303 36.1734 24.8777 36.2957C25.225 36.4179 25.6058 36.2354 25.728 35.888L28.2307 28.7787C28.3246 28.5119 28.5765 28.3334 28.8593 28.3333H30C30.3682 28.3333 30.6667 28.0349 30.6667 27.6667C30.6667 27.2985 30.3682 27 30 27Z" fill="#1966FF"/>
<path fill-rule="evenodd" clip-rule="evenodd" d="M26.6666 45.6667H22.6666C21.5621 45.6667 20.6666 44.7712 20.6666 43.6667V42.3333C20.6666 41.2288 21.5621 40.3333 22.6666 40.3333H25.3333C27.1733 40.3355 28.6644 41.8266 28.6666 43.6667C28.6666 44.7712 27.7712 45.6667 26.6666 45.6667ZM22.6666 41.6667C22.2984 41.6667 22 41.9651 22 42.3333V43.6667C22 44.0349 22.2984 44.3333 22.6666 44.3333H26.6666C27.0348 44.3333 27.3333 44.0349 27.3333 43.6667C27.3333 42.5621 26.4379 41.6667 25.3333 41.6667H22.6666Z" fill="#1966FF"/>
<path fill-rule="evenodd" clip-rule="evenodd" d="M40.6667 49.6667H31.3333C30.597 49.6667 30 49.0697 30 48.3333V45.6667C30 44.9303 30.597 44.3333 31.3333 44.3333H40.6667C41.403 44.3333 42 44.9303 42 45.6667V48.3333C42 49.0697 41.403 49.6667 40.6667 49.6667Z" fill="#1966FF"/>
<path d="M68.396 31.859C68.396 33.659 69.845 35.09 71.645 35.09C72.446 35.09 73.22 34.811 73.832 34.217C73.895 34.154 73.913 34.037 73.841 33.974L73.283 33.398C73.229 33.344 73.13 33.335 73.058 33.398C72.68 33.704 72.221 33.911 71.681 33.911C70.529 33.911 69.665 32.957 69.665 31.832C69.665 30.698 70.52 29.735 71.672 29.735C72.176 29.735 72.68 29.933 73.058 30.266C73.13 30.338 73.22 30.338 73.283 30.266L73.832 29.699C73.904 29.627 73.904 29.519 73.823 29.447C73.211 28.898 72.554 28.61 71.645 28.61C69.845 28.61 68.396 30.059 68.396 31.859ZM75.1685 34.829C75.1685 34.919 75.2495 35 75.3395 35H76.1765C76.2755 35 76.3475 34.919 76.3475 34.829V32.345H79.2815V34.829C79.2815 34.919 79.3535 35 79.4525 35H80.2805C80.3705 35 80.4515 34.919 80.4515 34.829V28.871C80.4515 28.781 80.3705 28.7 80.2805 28.7H79.4525C79.3535 28.7 79.2815 28.781 79.2815 28.871V31.256H76.3475V28.871C76.3475 28.781 76.2755 28.7 76.1765 28.7H75.3395C75.2495 28.7 75.1685 28.781 75.1685 28.871V34.829ZM81.5932 35H82.3762C82.5202 35 82.6012 34.91 82.6372 34.82L83.0782 33.848H85.7692L86.2102 34.82C86.2732 34.946 86.3362 35 86.4712 35H87.2542C87.3892 35 87.4612 34.883 87.4072 34.766L84.6352 28.709C84.6082 28.655 84.5722 28.61 84.4822 28.61H84.3922C84.3112 28.61 84.2662 28.655 84.2392 28.709L81.4402 34.766C81.3862 34.883 81.4582 35 81.5932 35ZM83.5192 32.849L84.4012 30.869H84.4282L85.3282 32.849H83.5192ZM88.406 34.829C88.406 34.919 88.487 35 88.577 35H89.396C89.495 35 89.567 34.919 89.567 34.829V30.959H89.585L93.275 35.027C93.32 35.072 93.365 35.09 93.428 35.09H93.554C93.644 35.09 93.725 35.018 93.725 34.928V28.871C93.725 28.781 93.644 28.7 93.554 28.7H92.726C92.627 28.7 92.555 28.781 92.555 28.871V32.588H92.537L88.865 28.673C88.82 28.628 88.775 28.61 88.712 28.61H88.577C88.487 28.61 88.406 28.682 88.406 28.772V34.829ZM95.0909 31.859C95.0909 33.659 96.5309 35.081 98.3219 35.081C99.6269 35.081 100.554 34.496 100.554 34.496C100.59 34.469 100.626 34.424 100.626 34.352V32.048C100.626 31.958 100.554 31.877 100.464 31.877H98.7359C98.6369 31.877 98.5649 31.949 98.5649 32.048V32.759C98.5649 32.849 98.6369 32.921 98.7359 32.921H99.4559V33.686C99.2759 33.758 98.8889 33.911 98.3849 33.911C97.2509 33.911 96.3599 32.966 96.3599 31.85C96.3599 30.725 97.2509 29.762 98.3759 29.762C98.8709 29.762 99.3479 29.942 99.7349 30.284C99.8159 30.356 99.8969 30.356 99.9689 30.284L100.527 29.699C100.599 29.627 100.59 29.519 100.518 29.447C99.9059 28.925 99.1319 28.61 98.3219 28.61C96.5309 28.61 95.0909 30.059 95.0909 31.859ZM102.127 34.829C102.127 34.919 102.199 35 102.298 35H105.961C106.06 35 106.132 34.919 106.132 34.829V34.091C106.132 34.001 106.06 33.92 105.961 33.92H103.297V32.345H105.52C105.61 32.345 105.691 32.273 105.691 32.174V31.427C105.691 31.337 105.61 31.256 105.52 31.256H103.297V29.78H105.961C106.06 29.78 106.132 29.699 106.132 29.609V28.871C106.132 28.781 106.06 28.7 105.961 28.7H102.298C102.199 28.7 102.127 28.781 102.127 28.871V34.829ZM109.52 31.859C109.52 33.659 110.951 35.09 112.751 35.09C114.551 35.09 115.991 33.659 115.991 31.859C115.991 30.059 114.551 28.61 112.751 28.61C110.951 28.61 109.52 30.059 109.52 31.859ZM110.69 31.859C110.69 30.725 111.617 29.78 112.751 29.78C113.885 29.78 114.821 30.725 114.821 31.859C114.821 32.993 113.885 33.92 112.751 33.92C111.617 33.92 110.69 32.993 110.69 31.859ZM117.356 34.829C117.356 34.919 117.428 35 117.527 35H118.355C118.445 35 118.526 34.919 118.526 34.829V32.552H120.749C120.839 32.552 120.92 32.471 120.92 32.381V31.643C120.92 31.553 120.839 31.472 120.749 31.472H118.526V29.78H121.19C121.289 29.78 121.361 29.699 121.361 29.609V28.871C121.361 28.781 121.289 28.7 121.19 28.7H117.527C117.428 28.7 117.356 28.781 117.356 28.871V34.829ZM70.79 47.991C70.817 48.045 70.862 48.09 70.943 48.09H71.033C71.114 48.09 71.159 48.045 71.186 47.991L73.976 41.934C74.03 41.817 73.958 41.7 73.823 41.7H72.905C72.824 41.7 72.77 41.754 72.752 41.799L71.015 45.669H70.97L69.233 41.799C69.215 41.754 69.161 41.7 69.08 41.7H68.162C68.027 41.7 67.955 41.817 68.009 41.934L70.79 47.991ZM74.9575 47.829C74.9575 47.919 75.0295 48 75.1285 48H78.7915C78.8905 48 78.9625 47.919 78.9625 47.829V47.091C78.9625 47.001 78.8905 46.92 78.7915 46.92H76.1275V45.345H78.3505C78.4405 45.345 78.5215 45.273 78.5215 45.174V44.427C78.5215 44.337 78.4405 44.256 78.3505 44.256H76.1275V42.78H78.7915C78.8905 42.78 78.9625 42.699 78.9625 42.609V41.871C78.9625 41.781 78.8905 41.7 78.7915 41.7H75.1285C75.0295 41.7 74.9575 41.781 74.9575 41.871V47.829ZM80.3502 47.829C80.3502 47.919 80.4312 48 80.5212 48H81.3582C81.4572 48 81.5292 47.919 81.5292 47.829V45.345H84.4632V47.829C84.4632 47.919 84.5352 48 84.6342 48H85.4622C85.5522 48 85.6332 47.919 85.6332 47.829V41.871C85.6332 41.781 85.5522 41.7 85.4622 41.7H84.6342C84.5352 41.7 84.4632 41.781 84.4632 41.871V44.256H81.5292V41.871C81.5292 41.781 81.4572 41.7 81.3582 41.7H80.5212C80.4312 41.7 80.3502 41.781 80.3502 41.871V47.829ZM87.3689 47.829C87.3689 47.919 87.4499 48 87.5399 48H88.3769C88.4669 48 88.5479 47.919 88.5479 47.829V41.871C88.5479 41.781 88.4669 41.7 88.3769 41.7H87.5399C87.4499 41.7 87.3689 41.781 87.3689 41.871V47.829ZM89.9141 44.859C89.9141 46.659 91.3631 48.09 93.1631 48.09C93.9641 48.09 94.7381 47.811 95.3501 47.217C95.4131 47.154 95.4311 47.037 95.3591 46.974L94.8011 46.398C94.7471 46.344 94.6481 46.335 94.5761 46.398C94.1981 46.704 93.7391 46.911 93.1991 46.911C92.0471 46.911 91.1831 45.957 91.1831 44.832C91.1831 43.698 92.0381 42.735 93.1901 42.735C93.6941 42.735 94.1981 42.933 94.5761 43.266C94.6481 43.338 94.7381 43.338 94.8011 43.266L95.3501 42.699C95.4221 42.627 95.4221 42.519 95.3411 42.447C94.7291 41.898 94.0721 41.61 93.1631 41.61C91.3631 41.61 89.9141 43.059 89.9141 44.859ZM96.6866 47.829C96.6866 47.919 96.7586 48 96.8576 48H100.152C100.251 48 100.323 47.919 100.323 47.829V47.091C100.323 47.001 100.251 46.92 100.152 46.92H97.8566V41.871C97.8566 41.781 97.7756 41.7 97.6856 41.7H96.8576C96.7586 41.7 96.6866 41.781 96.6866 41.871V47.829ZM101.438 47.829C101.438 47.919 101.51 48 101.609 48H105.272C105.371 48 105.443 47.919 105.443 47.829V47.091C105.443 47.001 105.371 46.92 105.272 46.92H102.608V45.345H104.831C104.921 45.345 105.002 45.273 105.002 45.174V44.427C105.002 44.337 104.921 44.256 104.831 44.256H102.608V42.78H105.272C105.371 42.78 105.443 42.699 105.443 42.609V41.871C105.443 41.781 105.371 41.7 105.272 41.7H101.609C101.51 41.7 101.438 41.781 101.438 41.871V47.829Z" fill="#464646"/>
</g>
<defs>
<filter id="filter0_d" x="-8" y="-3.50725" width="166" height="96" filterUnits="userSpaceOnUse" color-interpolation-filters="sRGB">
<feFlood flood-opacity="0" result="BackgroundImageFix"/>
<feColorMatrix in="SourceAlpha" type="matrix" values="0 0 0 0 0 0 0 0 0 0 0 0 0 0 0 0 0 0 127 0"/>
<feOffset dy="4"/>
<feGaussianBlur stdDeviation="4"/>
<feColorMatrix type="matrix" values="0 0 0 0 0.835671 0 0 0 0 0.882839 0 0 0 0 1 0 0 0 1 0"/>
<feBlend mode="normal" in2="BackgroundImageFix" result="effect1_dropShadow"/>
<feBlend mode="normal" in="SourceGraphic" in2="effect1_dropShadow" result="shape"/>
</filter>
<clipPath id="clip0">
<rect width="150" height="81" fill="white"/>
</clipPath>
</defs>
</svg>
